<?xml version="1.0" encoding="utf-8"?>
<!-- Generator: Adobe Illustrator 25.4.1, SVG Export Plug-In . SVG Version: 6.00 Build 0)  -->
<svg version="1.1" id="Layer_1" xmlns="http://www.w3.org/2000/svg" xmlns:xlink="http://www.w3.org/1999/xlink" x="0px" y="0px"
	 viewBox="0 0 316.9 58" style="enable-background:new 0 0 316.9 58;" xml:space="preserve">
<g>
	<g>
		<path d="M9.71,57.44H4.08V29.32h5.62V57.44z"/>
		<path d="M21.18,34.27c1.74-3.6,5.06-5.51,9.17-5.51c5.68,0,9.5,3.49,9.5,11.08v17.6h-5.62V40.4c0-4.84-2.25-7.03-6.19-7.03
			c-4.1,0-6.75,2.64-6.75,7.87v16.19h-5.62V29.32h5.51V34.27z"/>
		<path d="M56.51,52.94H60v4.5h-5.12c-5.06,0-7.82-2.02-7.82-7.93V33.82h-4.5v-4.5h4.5v-7.31h5.62v7.31H60v4.5h-7.31v14.9
			C52.69,51.93,53.92,52.94,56.51,52.94z"/>
		<path d="M75.33,58c-7.87,0-13.5-4.84-13.5-14.62c0-9.78,5.62-14.62,13.5-14.62c7.42,0,12.93,4.89,12.93,14.62v1.69H67.63
			c0.22,5.62,3.26,8.44,7.7,8.44c3.99,0,5.96-1.97,6.52-4.5h5.9C86.97,54.57,82.08,58,75.33,58z M67.74,40.57h14.68
			c-0.45-4.84-3.21-7.31-7.09-7.31C71.17,33.26,68.24,35.73,67.74,40.57z"/>
		<path d="M98.59,42.25v15.18h-5.62V29.32h5.23v6.41c1.35-4.56,4.39-6.69,8.32-6.69c0.9,0,1.58,0.11,2.19,0.28v5.17
			c-0.62-0.17-1.29-0.28-2.19-0.28C101.85,34.21,98.59,36.86,98.59,42.25z"/>
		<path d="M117.71,33.76c1.63-3.26,4.61-5,8.32-5c3.82,0,6.69,1.8,7.93,5.57c1.63-3.66,4.78-5.57,8.77-5.57
			c5.28,0,8.83,3.32,8.83,10.51v18.16h-5.62v-17.6c0-4.44-1.91-6.47-5.34-6.47c-3.6,0-5.91,2.47-5.91,7.31v16.76h-5.62v-17.6
			c0-4.44-1.91-6.47-5.34-6.47c-3.6,0-5.91,2.47-5.91,7.31v16.76h-5.62V29.32h5.51V33.76z"/>
		<path d="M163.12,57.44h-5.63V29.32h5.63V57.44z"/>
		<path d="M178.85,28.76c6.97,0,11.19,3.43,11.3,8.44h-5.62c-0.22-2.42-2.25-3.94-5.68-3.94c-2.92,0-4.89,1.35-4.89,3.43
			c0,6.3,16.7,1.74,16.7,12.77c0,5.57-4.72,8.55-11.02,8.55c-7.25,0-12.03-3.6-12.14-9h5.62c0.22,2.7,2.59,4.5,6.52,4.5
			c3.32,0,5.51-1.46,5.51-3.77c0-6.36-16.7-1.74-16.7-12.77C168.45,31.74,172.73,28.76,178.85,28.76z"/>
		<path d="M205.13,28.76c6.97,0,11.19,3.43,11.3,8.44h-5.62c-0.22-2.42-2.25-3.94-5.68-3.94c-2.93,0-4.89,1.35-4.89,3.43
			c0,6.3,16.7,1.74,16.7,12.77c0,5.57-4.73,8.55-11.02,8.55c-7.26,0-12.03-3.6-12.15-9h5.62c0.22,2.7,2.59,4.5,6.52,4.5
			c3.31,0,5.51-1.46,5.51-3.77c0-6.36-16.7-1.74-16.7-12.77C194.73,31.74,199,28.76,205.13,28.76z"/>
		<path d="M227.18,57.44h-5.63V29.32h5.63V57.44z"/>
		<path d="M231.86,43.38c0-9.73,5.62-14.62,13.49-14.62c7.88,0,13.5,4.89,13.5,14.62c0,9.73-5.62,14.62-13.5,14.62
			C237.49,58,231.86,53.11,231.86,43.38z M252.95,43.38c0-6.75-3.04-10.12-7.59-10.12c-4.55,0-7.59,3.37-7.59,10.12
			c0,6.75,3.04,10.12,7.59,10.12C249.91,53.5,252.95,50.13,252.95,43.38z"/>
		<path d="M269.07,34.27c1.74-3.6,5.06-5.51,9.17-5.51c5.68,0,9.5,3.49,9.5,11.08v17.6h-5.62V40.4c0-4.84-2.25-7.03-6.19-7.03
			c-4.1,0-6.74,2.64-6.74,7.87v16.19h-5.63V29.32h5.51V34.27z"/>
	</g>
	<circle cx="160.28" cy="20.96" r="6.85"/>
	<path d="M169.19,16.23c0-6.17,7.96-7.55,7.96-10.83c0-1.15-0.86-2.03-2.2-2.03c-1.39,0-2.32,0.91-2.35,2.15h-3.59
		c0.03-3.23,2.54-5.14,5.93-5.14c3.34,0,5.69,1.84,5.69,4.71c0,4.49-6.1,6.14-7.56,9.28h7.77v3.11h-11.67V16.23z"/>
	<g>
		<path d="M15.87,0.77h3.54v16.74h-3.68V6.39h-3.25V3.64h1.6c1.17,0,1.8-0.33,1.8-1.86V0.77z"/>
	</g>
	<circle cx="6.85" cy="21" r="6.85"/>
	<circle cx="224.36" cy="20.94" r="6.85"/>
	<path d="M239.52,17.45c-3.66,0-6.22-1.91-6.26-5.24h3.68c0.02,1.37,0.98,2.25,2.58,2.25c1.51,0,2.56-0.91,2.56-2.32
		s-1.03-2.23-2.68-2.23h-1.31V6.95h1.43c1.27,0,2.2-0.79,2.2-2.03c0-1.17-0.91-1.94-2.2-1.94c-1.34,0-2.32,0.84-2.34,2.15h-3.68
		c0-3.09,2.49-5.14,6.02-5.14c3.35,0,5.62,1.65,5.62,4.26c0,1.62-1.08,2.82-2.8,3.42c2.13,0.65,3.37,2.2,3.37,4.61
		C245.71,15.54,243.15,17.45,239.52,17.45z"/>
	<path d="M314.5,41.58h2.39v2.92h-2.39v2.61h-3.47V44.5h-7.41v-2.58l6.27-11.55h4.61V41.58z M311.04,37.49c0-1.12,0-2.3,0.05-3.37
		c-0.41,0.88-0.93,1.89-1.51,2.92l-0.96,1.72c-0.57,1.05-1.15,2.03-1.7,2.89c0.96-0.07,1.92-0.07,2.99-0.07h1.12V37.49z"/>
	<circle cx="298" cy="50.59" r="6.85"/>
</g>
</svg>
