<?xml version="1.0" encoding="utf-8"?>
<!-- Generator: Adobe Illustrator 25.4.1, SVG Export Plug-In . SVG Version: 6.00 Build 0)  -->
<svg version="1.1" id="Layer_1" xmlns="http://www.w3.org/2000/svg" xmlns:xlink="http://www.w3.org/1999/xlink" x="0px" y="0px"
	 viewBox="0 0 137.57 11" style="enable-background:new 0 0 137.57 11;" xml:space="preserve">
<g>
	<path d="M0,0.19h2.98l2.01,7.48h0.06l2.02-7.48h2.95v10.63H7.88l0.11-7.17H7.93l-2.09,7.17H4.17L2.12,3.65H2.05l0.09,7.17H0V0.19z"
		/>
	<path d="M14.76,0.19h2.81l2.7,10.63h-2.3l-0.49-2.3h-2.77l-0.51,2.3h-2.21L14.76,0.19z M15.1,6.74h1.99l-0.94-4.45h-0.06L15.1,6.74
		z"/>
	<path d="M22.23,0.19h2.9c3.11,0,4.54,2.22,4.54,5.3c0,3.04-1.44,5.33-4.54,5.33h-2.9V0.19z M24.43,2.04v6.92h0.65
		c1.75,0,2.35-1.65,2.35-3.48c0-1.92-0.6-3.45-2.35-3.45H24.43z"/>
	<path d="M32.05,0.19h6.18v1.85h-3.99v2.49h3.32v1.73h-3.32v2.7h4.16v1.85h-6.35V0.19z"/>
	<path d="M44.73,0.19h3.28c2.33,0,3.49,1.02,3.49,2.77c0,1-0.49,1.88-1.71,2.19v0.06c1.33,0.23,2.07,1.24,2.07,2.47
		c0,1.81-1.28,3.14-3.62,3.14h-3.51V0.19z M46.91,1.96v2.58h0.8c1.08,0,1.59-0.53,1.59-1.37c0-0.73-0.46-1.21-1.54-1.21H46.91z
		 M46.91,6.13v2.9h1.07c1.13,0,1.68-0.57,1.68-1.48c0-0.87-0.6-1.42-1.68-1.42H46.91z"/>
	<path d="M55.9,6.78l-2.95-6.6h2.41l1.65,4.36h0.06l1.67-4.36h2.29l-2.94,6.5v4.13H55.9V6.78z"/>
	<path d="M66.96,0.19h2.86c2.56,0,4.02,1.37,4.02,3.57c0,2.27-1.45,3.69-4.02,3.69h-0.66v3.37h-2.19V0.19z M69.16,1.96v3.71h0.57
		c1.27,0,1.92-0.63,1.92-1.87c0-1.21-0.65-1.84-1.92-1.84H69.16z"/>
	<path d="M77.47,0.19h2.81l2.7,10.63h-2.3l-0.49-2.3h-2.77l-0.51,2.3h-2.21L77.47,0.19z M77.81,6.74h1.99l-0.94-4.45H78.8
		L77.81,6.74z"/>
	<path d="M84.93,0.19h2.9c2.58,0,3.96,1.13,3.96,3.32c0,1.47-0.66,2.55-1.93,3.07l2.29,4.23h-2.38l-1.92-3.88h-0.73v3.88h-2.19V0.19
		z M87.13,1.96v3.24h0.71c1.24,0,1.76-0.6,1.76-1.68c0-1.02-0.54-1.56-1.76-1.56H87.13z"/>
	<path d="M93.43,0.19h7.26v1.85h-2.53v8.78h-2.19V2.04h-2.53V0.19z"/>
	<path d="M102.73,0.19h1.71l3.54,5.96h0.06l-0.08-5.96h2.19v10.63h-1.71l-3.54-5.96h-0.06l0.08,5.96h-2.19V0.19z"/>
	<path d="M112.84,0.19h6.18v1.85h-3.99v2.49h3.32v1.73h-3.32v2.7h4.16v1.85h-6.35V0.19z"/>
	<path d="M121.57,0.19h2.9c2.58,0,3.96,1.13,3.96,3.32c0,1.47-0.66,2.55-1.93,3.07l2.29,4.23h-2.38l-1.92-3.88h-0.73v3.88h-2.19
		V0.19z M123.76,1.96v3.24h0.71c1.24,0,1.76-0.6,1.76-1.68c0-1.02-0.54-1.56-1.76-1.56H123.76z"/>
	<path d="M132.63,7.85c0,1.04,0.6,1.44,1.36,1.44c0.74,0,1.34-0.39,1.34-1.34c0-2.13-4.65-1.05-4.65-4.82c0-1.82,1.3-3.12,3.4-3.12
		c2.02,0,3.28,0.99,3.28,2.9h-2.13c0-0.9-0.54-1.19-1.14-1.19c-0.6,0-1.16,0.34-1.16,1.22c0,2.18,4.65,1.1,4.65,4.77
		c0,1.96-1.34,3.29-3.58,3.29c-2.21,0-3.49-1.11-3.49-3.15H132.63z"/>
</g>
</svg>
