<svg width="195" height="87" viewBox="0 0 195 87" fill="none" xmlns="http://www.w3.org/2000/svg">
<path d="M0.950061 6.65H2.55006V5H3.45006V6.65H5.05006V7.45H3.45006V9.1H2.55006V7.45H0.950061V6.65ZM7.70615 6.96H6.66615L7.08615 3H10.9062V3.9H7.97615L7.84615 5.28C7.80615 5.68 7.77615 5.95 7.73615 6.16C8.07615 5.72 8.56615 5.49 9.20615 5.49C10.3562 5.49 11.2462 6.34 11.2462 7.79C11.2462 9.19 10.1762 10.1 8.79615 10.1C7.46615 10.1 6.45615 9.44 6.39615 8H7.47615C7.50615 8.81 8.06615 9.2 8.79615 9.2C9.62615 9.2 10.1762 8.6 10.1762 7.79C10.1762 6.97 9.62615 6.36 8.79615 6.36C8.31615 6.36 7.94615 6.59 7.70615 6.96ZM12.0316 10V9.6C12.0316 7.19 15.5316 6.54 15.5316 4.91C15.5316 4.28 15.0416 3.8 14.3016 3.8C13.5516 3.8 13.0616 4.3 13.0316 5H11.9516C11.9816 3.72 13.0216 2.9 14.3016 2.9C15.5716 2.9 16.5616 3.65 16.5616 4.82C16.5616 6.84 13.6816 7.49 13.1616 9.1H16.7016V10H12.0316ZM20.9305 3.45V3H21.9005V10H20.8805V5H19.4505V4.2H20.2805C20.7005 4.2 20.9305 4.05 20.9305 3.45Z" fill="white"/>
<path d="M36.1304 8.14754C36.1304 6.76754 37.1804 5.87754 38.5304 5.87754C40.0804 5.87754 41.1304 6.99754 41.1304 9.47754C41.1304 11.9575 40.0704 13.0775 38.5804 13.0775C37.2204 13.0775 36.3704 12.2875 36.2804 10.9775H37.3604C37.4104 11.7475 37.8604 12.1775 38.5804 12.1775C39.4804 12.1775 40.0804 11.4575 40.0804 9.47754C40.0804 9.35754 40.0804 9.22754 40.0704 9.11754C39.7904 9.94754 39.1404 10.4175 38.3004 10.4175C37.0704 10.4175 36.1304 9.52754 36.1304 8.14754ZM37.1804 8.14754C37.1804 8.92754 37.7204 9.51754 38.5304 9.51754C39.3404 9.51754 39.8804 8.92754 39.8804 8.14754C39.8804 7.35754 39.3404 6.77754 38.5304 6.77754C37.7204 6.77754 37.1804 7.35754 37.1804 8.14754ZM42.1265 8.14754C42.1265 6.76754 43.1765 5.87754 44.5265 5.87754C46.0765 5.87754 47.1265 6.99754 47.1265 9.47754C47.1265 11.9575 46.0665 13.0775 44.5765 13.0775C43.2165 13.0775 42.3665 12.2875 42.2765 10.9775H43.3565C43.4065 11.7475 43.8565 12.1775 44.5765 12.1775C45.4765 12.1775 46.0765 11.4575 46.0765 9.47754C46.0765 9.35754 46.0765 9.22754 46.0665 9.11754C45.7865 9.94754 45.1365 10.4175 44.2965 10.4175C43.0665 10.4175 42.1265 9.52754 42.1265 8.14754ZM43.1765 8.14754C43.1765 8.92754 43.7165 9.51754 44.5265 9.51754C45.3365 9.51754 45.8765 8.92754 45.8765 8.14754C45.8765 7.35754 45.3365 6.77754 44.5265 6.77754C43.7165 6.77754 43.1765 7.35754 43.1765 8.14754Z" fill="white"/>
<g clip-path="url(#clip0_601_4271)">
<path d="M3.29884 18.9167C3.29882 19.2809 3.20128 19.6369 3.01867 19.9395C2.83605 20.2421 2.57655 20.4777 2.27309 20.6163C1.96963 20.755 1.6359 20.7905 1.31424 20.7183C0.992574 20.6461 0.697495 20.4695 0.466421 20.2109C0.235347 19.9523 0.0786752 19.6233 0.0163471 19.2658C-0.0459811 18.9082 -0.0111631 18.5381 0.116335 18.2026C0.243833 17.867 0.458288 17.581 0.732489 17.3809C1.00669 17.1808 1.32826 17.0756 1.65642 17.0786C1.87328 17.0786 2.08799 17.1263 2.28817 17.2188C2.48834 17.3114 2.67003 17.447 2.82272 17.6179C2.97542 17.7888 3.09611 17.9916 3.17782 18.2145C3.25954 18.4374 3.30067 18.6761 3.29884 18.9167Z" fill="white"/>
<path d="M39.0692 22.1141C39.072 22.4783 38.9772 22.8352 38.7968 23.1395C38.6165 23.4438 38.3588 23.6818 38.0564 23.8233C37.7541 23.9648 37.4206 24.0034 37.0984 23.9342C36.7762 23.865 36.4798 23.6912 36.2467 23.4348C36.0137 23.1783 35.8546 22.8509 35.7895 22.4939C35.7245 22.1369 35.7564 21.7665 35.8814 21.4298C36.0063 21.093 36.2186 20.805 36.4913 20.6023C36.764 20.3997 37.0847 20.2915 37.4129 20.2915C37.8498 20.2915 38.269 20.483 38.5792 20.8243C38.8894 21.1657 39.0655 21.6293 39.0692 22.1141Z" fill="white"/>
<path d="M72.919 36.5408C72.919 36.9044 72.8218 37.2598 72.6398 37.562C72.4579 37.8643 72.1992 38.0999 71.8965 38.239C71.5939 38.3781 71.2609 38.4146 70.9396 38.3436C70.6183 38.2727 70.3231 38.0976 70.0915 37.8406C69.8599 37.5835 69.7021 37.256 69.6382 36.8994C69.5743 36.5429 69.6071 36.1733 69.7325 35.8374C69.8578 35.5016 70.0701 35.2145 70.3425 35.0125C70.6149 34.8106 70.9351 34.7027 71.2627 34.7027C71.4807 34.7007 71.6969 34.7468 71.8987 34.8385C72.1005 34.9301 72.2838 35.0654 72.438 35.2365C72.5922 35.4076 72.7141 35.6111 72.7967 35.835C72.8793 36.059 72.9209 36.2989 72.919 36.5408Z" fill="white"/>
<path d="M172.088 81.9526C172.088 82.3162 171.991 82.6715 171.809 82.9738C171.627 83.2761 171.368 83.5117 171.066 83.6508C170.763 83.7899 170.43 83.8263 170.109 83.7554C169.787 83.6845 169.492 83.5094 169.261 83.2524C169.029 82.9953 168.871 82.6678 168.807 82.3112C168.743 81.9547 168.776 81.5851 168.902 81.2492C169.027 80.9134 169.239 80.6263 169.512 80.4243C169.784 80.2223 170.104 80.1145 170.432 80.1145C170.65 80.1125 170.866 80.1586 171.068 80.2502C171.27 80.3419 171.453 80.4772 171.607 80.6483C171.761 80.8194 171.883 81.0229 171.966 81.2468C172.048 81.4707 172.09 81.7107 172.088 81.9526Z" fill="white"/>
<path d="M185.798 48.6815C185.801 49.0457 185.706 49.4026 185.525 49.7069C185.345 50.0112 185.087 50.2492 184.785 50.3907C184.483 50.5322 184.149 50.5708 183.827 50.5016C183.505 50.4324 183.208 50.2586 182.975 50.0022C182.742 49.7457 182.583 49.4183 182.518 49.0613C182.453 48.7043 182.485 48.3339 182.61 47.9972C182.735 47.6604 182.947 47.3724 183.22 47.1698C183.493 46.9671 183.813 46.8589 184.141 46.8589C184.578 46.8589 184.998 47.0504 185.308 47.3918C185.618 47.7332 185.794 48.1967 185.798 48.6815Z" fill="white"/>
<path d="M113.978 31.6289C113.978 31.9931 113.881 32.3491 113.698 32.6517C113.516 32.9543 113.256 33.1899 112.953 33.3285C112.649 33.4672 112.316 33.5027 111.994 33.4305C111.672 33.3583 111.377 33.1817 111.146 32.9231C110.915 32.6645 110.758 32.3355 110.696 31.978C110.634 31.6204 110.668 31.2503 110.796 30.9147C110.923 30.5792 111.138 30.2932 111.412 30.0931C111.686 29.893 112.008 29.7878 112.336 29.7908C112.553 29.7908 112.768 29.8385 112.968 29.931C113.168 30.0236 113.35 30.1592 113.502 30.3301C113.655 30.501 113.776 30.7038 113.857 30.9267C113.939 31.1496 113.98 31.3883 113.978 31.6289Z" fill="white"/>
<path d="M1.65638 18.5151L37.5521 21.7588L71.3044 36.1392L112.35 31.2273L112.406 31.2428L184.657 48.4035L170.766 82.1071L170.112 81.7827L183.627 48.975L112.308 32.0306L71.2209 36.9424L71.1374 36.9115L37.3434 22.5311L1.62854 19.3029L1.65638 18.5151Z" fill="white"/>
</g>
<path d="M70.0742 24.8217C70.0742 23.4417 71.1242 22.5517 72.4742 22.5517C74.0242 22.5517 75.0742 23.6717 75.0742 26.1517C75.0742 28.6317 74.0142 29.7517 72.5242 29.7517C71.1642 29.7517 70.3142 28.9617 70.2242 27.6517H71.3042C71.3542 28.4217 71.8042 28.8517 72.5242 28.8517C73.4242 28.8517 74.0242 28.1317 74.0242 26.1517C74.0242 26.0317 74.0242 25.9017 74.0142 25.7917C73.7342 26.6217 73.0842 27.0917 72.2442 27.0917C71.0142 27.0917 70.0742 26.2017 70.0742 24.8217ZM71.1242 24.8217C71.1242 25.6017 71.6642 26.1917 72.4742 26.1917C73.2842 26.1917 73.8242 25.6017 73.8242 24.8217C73.8242 24.0317 73.2842 23.4517 72.4742 23.4517C71.6642 23.4517 71.1242 24.0317 71.1242 24.8217ZM77.4503 23.1017V22.6517H78.4203V29.6517H77.4003V24.6517H75.9703V23.8517H76.8003C77.2203 23.8517 77.4503 23.7017 77.4503 23.1017Z" fill="white"/>
<path d="M113.644 24.9876C112.224 24.9876 111.214 24.2376 111.214 22.9176C111.214 21.9776 111.724 21.3276 112.534 21.0276C111.894 20.7476 111.504 20.2176 111.504 19.5176C111.504 18.4676 112.394 17.7876 113.644 17.7876C114.894 17.7876 115.784 18.4676 115.784 19.5176C115.784 20.2176 115.394 20.7476 114.754 21.0276C115.564 21.3276 116.074 21.9776 116.074 22.9176C116.074 24.2376 115.064 24.9876 113.644 24.9876ZM113.644 20.7476C114.284 20.7476 114.774 20.3876 114.774 19.7176C114.774 19.0476 114.284 18.6876 113.644 18.6876C113.004 18.6876 112.514 19.0476 112.514 19.7176C112.514 20.3876 113.004 20.7476 113.644 20.7476ZM113.644 24.0876C114.414 24.0876 115.024 23.6676 115.024 22.8676C115.024 22.0676 114.414 21.6476 113.644 21.6476C112.874 21.6476 112.264 22.0676 112.264 22.8676C112.264 23.6676 112.874 24.0876 113.644 24.0876ZM118.306 18.3376V17.8876H119.276V24.8876H118.256V19.8876H116.826V19.0876H117.656C118.076 19.0876 118.306 18.9376 118.306 18.3376Z" fill="white"/>
<path d="M182.465 81.6727C182.465 83.0527 181.415 83.9427 180.065 83.9427C178.515 83.9427 177.465 82.8227 177.465 80.3427C177.465 77.8627 178.525 76.7427 180.015 76.7427C181.375 76.7427 182.225 77.5327 182.315 78.8427H181.235C181.185 78.0727 180.735 77.6427 180.015 77.6427C179.115 77.6427 178.515 78.3627 178.515 80.3427C178.515 80.4627 178.515 80.5927 178.525 80.7027C178.805 79.8727 179.455 79.4027 180.295 79.4027C181.525 79.4027 182.465 80.2927 182.465 81.6727ZM181.415 81.6727C181.415 80.8927 180.875 80.3027 180.065 80.3027C179.255 80.3027 178.715 80.8927 178.715 81.6727C178.715 82.4627 179.255 83.0427 180.065 83.0427C180.875 83.0427 181.415 82.4627 181.415 81.6727ZM185.741 83.9427C184.321 83.9427 183.311 83.1927 183.311 81.8727C183.311 80.9327 183.821 80.2827 184.631 79.9827C183.991 79.7027 183.601 79.1727 183.601 78.4727C183.601 77.4227 184.491 76.7427 185.741 76.7427C186.991 76.7427 187.881 77.4227 187.881 78.4727C187.881 79.1727 187.491 79.7027 186.851 79.9827C187.661 80.2827 188.171 80.9327 188.171 81.8727C188.171 83.1927 187.161 83.9427 185.741 83.9427ZM185.741 79.7027C186.381 79.7027 186.871 79.3427 186.871 78.6727C186.871 78.0027 186.381 77.6427 185.741 77.6427C185.101 77.6427 184.611 78.0027 184.611 78.6727C184.611 79.3427 185.101 79.7027 185.741 79.7027ZM185.741 83.0427C186.511 83.0427 187.121 82.6227 187.121 81.8227C187.121 81.0227 186.511 80.6027 185.741 80.6027C184.971 80.6027 184.361 81.0227 184.361 81.8227C184.361 82.6227 184.971 83.0427 185.741 83.0427Z" fill="white"/>
<path d="M183.935 39.7128H182.895L183.315 35.7528H187.135V36.6528H184.205L184.075 38.0328C184.035 38.4328 184.005 38.7028 183.965 38.9128C184.305 38.4728 184.795 38.2428 185.435 38.2428C186.585 38.2428 187.475 39.0928 187.475 40.5428C187.475 41.9428 186.405 42.8528 185.025 42.8528C183.695 42.8528 182.685 42.1928 182.625 40.7528H183.705C183.735 41.5628 184.295 41.9528 185.025 41.9528C185.855 41.9528 186.405 41.3528 186.405 40.5428C186.405 39.7228 185.855 39.1128 185.025 39.1128C184.545 39.1128 184.175 39.3428 183.935 39.7128ZM193.178 40.7028C193.178 42.0028 192.108 42.8528 190.728 42.8528C189.338 42.8528 188.258 42.0428 188.228 40.7528H189.308C189.328 41.4528 189.798 41.9528 190.728 41.9528C191.578 41.9528 192.148 41.4228 192.148 40.7028C192.148 39.9728 191.608 39.5128 190.628 39.5128H190.068V38.6128H190.728C191.448 38.6128 191.938 38.1728 191.938 37.5428C191.938 36.9828 191.458 36.5528 190.728 36.5528C189.968 36.5528 189.428 37.0628 189.408 37.7528H188.328C188.328 36.5028 189.388 35.6528 190.728 35.6528C192.028 35.6528 192.958 36.3128 192.958 37.3928C192.958 38.1028 192.488 38.6028 191.808 38.8228C192.668 39.0528 193.178 39.6828 193.178 40.7028Z" fill="white"/>
<defs>
<clipPath id="clip0_601_4271">
<rect width="185.798" height="66.6966" fill="white" transform="translate(6.10352e-05 17.0786)"/>
</clipPath>
</defs>
</svg>
