<svg width="325" height="144" viewBox="0 0 325 144" fill="none" xmlns="http://www.w3.org/2000/svg">
<path d="M1.52 9.64H4.08V7H5.52V9.64H8.08V10.92H5.52V13.56H4.08V10.92H1.52V9.64ZM12.3298 10.136H10.6658L11.3378 3.8H17.4498V5.24H12.7618L12.5538 7.448C12.4898 8.088 12.4418 8.52 12.3778 8.856C12.9218 8.152 13.7057 7.784 14.7298 7.784C16.5698 7.784 17.9938 9.144 17.9938 11.464C17.9938 13.704 16.2818 15.16 14.0738 15.16C11.9457 15.16 10.3298 14.104 10.2338 11.8H11.9618C12.0098 13.096 12.9058 13.72 14.0738 13.72C15.4018 13.72 16.2818 12.76 16.2818 11.464C16.2818 10.152 15.4018 9.176 14.0738 9.176C13.3058 9.176 12.7138 9.544 12.3298 10.136ZM19.2505 15V14.36C19.2505 10.504 24.8505 9.464 24.8505 6.856C24.8505 5.848 24.0665 5.08 22.8825 5.08C21.6825 5.08 20.8985 5.88 20.8505 7H19.1225C19.1705 4.952 20.8345 3.64 22.8825 3.64C24.9145 3.64 26.4985 4.84 26.4985 6.712C26.4985 9.944 21.8905 10.984 21.0585 13.56H26.7225V15H19.2505ZM33.4886 4.52V3.8H35.0406V15H33.4086V7H31.1206V5.72H32.4486C33.1206 5.72 33.4886 5.48 33.4886 4.52Z" fill="white"/>
<path d="M60.64 12.272C60.64 10.064 62.32 8.64 64.48 8.64C66.96 8.64 68.64 10.432 68.64 14.4C68.64 18.368 66.944 20.16 64.56 20.16C62.384 20.16 61.024 18.896 60.88 16.8H62.608C62.688 18.032 63.408 18.72 64.56 18.72C66 18.72 66.96 17.568 66.96 14.4C66.96 14.208 66.96 14 66.944 13.824C66.496 15.152 65.456 15.904 64.112 15.904C62.144 15.904 60.64 14.48 60.64 12.272ZM62.32 12.272C62.32 13.52 63.184 14.464 64.48 14.464C65.776 14.464 66.64 13.52 66.64 12.272C66.64 11.008 65.776 10.08 64.48 10.08C63.184 10.08 62.32 11.008 62.32 12.272ZM70.2338 12.272C70.2338 10.064 71.9138 8.64 74.0738 8.64C76.5538 8.64 78.2338 10.432 78.2338 14.4C78.2338 18.368 76.5378 20.16 74.1538 20.16C71.9778 20.16 70.6178 18.896 70.4738 16.8H72.2018C72.2818 18.032 73.0018 18.72 74.1538 18.72C75.5938 18.72 76.5538 17.568 76.5538 14.4C76.5538 14.208 76.5538 14 76.5378 13.824C76.0898 15.152 75.0498 15.904 73.7057 15.904C71.7378 15.904 70.2338 14.48 70.2338 12.272ZM71.9138 12.272C71.9138 13.52 72.7778 14.464 74.0738 14.464C75.3698 14.464 76.2338 13.52 76.2338 12.272C76.2338 11.008 75.3698 10.08 74.0738 10.08C72.7778 10.08 71.9138 11.008 71.9138 12.272Z" fill="white"/>
<g clip-path="url(#clip0_1143_7726)">
<path d="M5.53928 30.0867C5.53926 30.6983 5.37547 31.2961 5.06881 31.8042C4.76214 32.3124 4.32638 32.7079 3.8168 32.9407C3.30721 33.1736 2.74681 33.2332 2.20665 33.112C1.6665 32.9907 1.17099 32.6942 0.782961 32.2599C0.394931 31.8257 0.131841 31.2732 0.0271766 30.6728C-0.0774876 30.0724 -0.0190197 29.451 0.195081 28.8874C0.409182 28.3239 0.769303 27.8436 1.22976 27.5076C1.69021 27.1716 2.2302 26.995 2.78127 27.0001C3.14542 27.0001 3.50597 27.0801 3.84212 27.2355C4.17826 27.391 4.48336 27.6187 4.73977 27.9057C4.99618 28.1927 5.19885 28.5331 5.33607 28.9075C5.47329 29.2818 5.54237 29.6826 5.53928 30.0867Z" fill="white"/>
<path d="M65.6065 35.4557C65.6112 36.0672 65.452 36.6665 65.1492 37.1775C64.8464 37.6885 64.4137 38.0882 63.9059 38.3258C63.3981 38.5634 62.8381 38.6282 62.2971 38.5121C61.756 38.3959 61.2582 38.104 60.8669 37.6734C60.4756 37.2427 60.2084 36.6928 60.0991 36.0934C59.9899 35.494 60.0436 34.872 60.2534 34.3065C60.4632 33.741 60.8197 33.2574 61.2776 32.9171C61.7355 32.5767 62.2741 32.395 62.8252 32.395C63.5588 32.395 64.2628 32.7166 64.7837 33.2898C65.3046 33.8631 65.6004 34.6416 65.6065 35.4557Z" fill="white"/>
<path d="M122.449 59.6819C122.449 60.2924 122.286 60.8892 121.98 61.3968C121.675 61.9044 121.24 62.3 120.732 62.5336C120.224 62.7672 119.665 62.8284 119.125 62.7093C118.585 62.5902 118.09 62.2962 117.701 61.8645C117.312 61.4329 117.047 60.8829 116.94 60.2841C116.832 59.6854 116.887 59.0648 117.098 58.5008C117.308 57.9368 117.665 57.4547 118.122 57.1155C118.58 56.7764 119.117 56.5953 119.668 56.5953C120.034 56.5919 120.397 56.6694 120.736 56.8233C121.074 56.9771 121.382 57.2044 121.641 57.4917C121.9 57.779 122.105 58.1207 122.244 58.4967C122.382 58.8727 122.452 59.2756 122.449 59.6819Z" fill="white"/>
<path d="M288.978 135.939C288.978 136.55 288.815 137.146 288.509 137.654C288.204 138.162 287.769 138.557 287.261 138.791C286.753 139.025 286.194 139.086 285.654 138.967C285.115 138.847 284.619 138.553 284.23 138.122C283.841 137.69 283.576 137.14 283.469 136.541C283.362 135.943 283.417 135.322 283.627 134.758C283.838 134.194 284.194 133.712 284.652 133.373C285.109 133.034 285.647 132.853 286.197 132.853C286.563 132.849 286.926 132.927 287.265 133.081C287.604 133.234 287.912 133.462 288.171 133.749C288.429 134.036 288.634 134.378 288.773 134.754C288.912 135.13 288.981 135.533 288.978 135.939Z" fill="white"/>
<path d="M312 80.0694C312.005 80.681 311.846 81.2803 311.543 81.7913C311.24 82.3023 310.807 82.7019 310.299 82.9395C309.792 83.1771 309.232 83.242 308.691 83.1258C308.15 83.0097 307.652 82.7177 307.26 82.2871C306.869 81.8565 306.602 81.3066 306.493 80.7072C306.383 80.1077 306.437 79.4858 306.647 78.9203C306.857 78.3547 307.213 77.8711 307.671 77.5308C308.129 77.1905 308.668 77.0088 309.219 77.0088C309.952 77.0088 310.656 77.3304 311.177 77.9037C311.698 78.4769 311.994 79.2553 312 80.0694Z" fill="white"/>
<path d="M191.398 51.4334C191.398 52.045 191.234 52.6428 190.927 53.1509C190.621 53.659 190.185 54.0546 189.675 54.2875C189.166 54.5203 188.605 54.5799 188.065 54.4587C187.525 54.3375 187.029 54.0409 186.641 53.6066C186.253 53.1724 185.99 52.62 185.886 52.0195C185.781 51.4191 185.839 50.7976 186.053 50.2341C186.268 49.6706 186.628 49.1903 187.088 48.8543C187.549 48.5183 188.089 48.3416 188.64 48.3468C189.004 48.3468 189.364 48.4268 189.701 48.5822C190.037 48.7377 190.342 48.9654 190.598 49.2524C190.855 49.5393 191.057 49.8798 191.194 50.2542C191.332 50.6285 191.401 51.0293 191.398 51.4334Z" fill="white"/>
<path d="M2.78112 29.4121L63.0589 34.8591L119.737 59.0073L188.663 50.759L188.756 50.785L310.083 79.602L286.757 136.199L285.659 135.654L308.354 80.5617L188.593 52.1078L119.597 60.3561L119.457 60.3042L62.7083 36.156L2.73438 30.7349L2.78112 29.4121Z" fill="white"/>
</g>
<path d="M117.64 40.272C117.64 38.064 119.32 36.64 121.48 36.64C123.96 36.64 125.64 38.432 125.64 42.4C125.64 46.368 123.944 48.16 121.56 48.16C119.384 48.16 118.024 46.896 117.88 44.8H119.608C119.688 46.032 120.408 46.72 121.56 46.72C123 46.72 123.96 45.568 123.96 42.4C123.96 42.208 123.96 42 123.944 41.824C123.496 43.152 122.456 43.904 121.112 43.904C119.144 43.904 117.64 42.48 117.64 40.272ZM119.32 40.272C119.32 41.52 120.184 42.464 121.48 42.464C122.776 42.464 123.64 41.52 123.64 40.272C123.64 39.008 122.776 38.08 121.48 38.08C120.184 38.08 119.32 39.008 119.32 40.272ZM129.442 37.52V36.8H130.994V48H129.362V40H127.074V38.72H128.402C129.074 38.72 129.442 38.48 129.442 37.52Z" fill="white"/>
<path d="M190.608 40.16C188.336 40.16 186.72 38.96 186.72 36.848C186.72 35.344 187.536 34.304 188.832 33.824C187.808 33.376 187.184 32.528 187.184 31.408C187.184 29.728 188.608 28.64 190.608 28.64C192.608 28.64 194.032 29.728 194.032 31.408C194.032 32.528 193.408 33.376 192.384 33.824C193.68 34.304 194.496 35.344 194.496 36.848C194.496 38.96 192.88 40.16 190.608 40.16ZM190.608 33.376C191.632 33.376 192.416 32.8 192.416 31.728C192.416 30.656 191.632 30.08 190.608 30.08C189.584 30.08 188.8 30.656 188.8 31.728C188.8 32.8 189.584 33.376 190.608 33.376ZM190.608 38.72C191.84 38.72 192.816 38.048 192.816 36.768C192.816 35.488 191.84 34.816 190.608 34.816C189.376 34.816 188.4 35.488 188.4 36.768C188.4 38.048 189.376 38.72 190.608 38.72ZM198.067 29.52V28.8H199.619V40H197.987V32H195.699V30.72H197.027C197.699 30.72 198.067 30.48 198.067 29.52Z" fill="white"/>
<path d="M305.96 135.528C305.96 137.736 304.28 139.16 302.12 139.16C299.64 139.16 297.96 137.368 297.96 133.4C297.96 129.432 299.656 127.64 302.04 127.64C304.216 127.64 305.576 128.904 305.72 131H303.992C303.912 129.768 303.192 129.08 302.04 129.08C300.6 129.08 299.64 130.232 299.64 133.4C299.64 133.592 299.64 133.8 299.656 133.976C300.104 132.648 301.144 131.896 302.488 131.896C304.456 131.896 305.96 133.32 305.96 135.528ZM304.28 135.528C304.28 134.28 303.416 133.336 302.12 133.336C300.824 133.336 299.96 134.28 299.96 135.528C299.96 136.792 300.824 137.72 302.12 137.72C303.416 137.72 304.28 136.792 304.28 135.528ZM311.202 139.16C308.93 139.16 307.314 137.96 307.314 135.848C307.314 134.344 308.13 133.304 309.426 132.824C308.402 132.376 307.778 131.528 307.778 130.408C307.778 128.728 309.202 127.64 311.202 127.64C313.202 127.64 314.626 128.728 314.626 130.408C314.626 131.528 314.002 132.376 312.978 132.824C314.274 133.304 315.09 134.344 315.09 135.848C315.09 137.96 313.474 139.16 311.202 139.16ZM311.202 132.376C312.226 132.376 313.01 131.8 313.01 130.728C313.01 129.656 312.226 129.08 311.202 129.08C310.178 129.08 309.394 129.656 309.394 130.728C309.394 131.8 310.178 132.376 311.202 132.376ZM311.202 137.72C312.434 137.72 313.41 137.048 313.41 135.768C313.41 134.488 312.434 133.816 311.202 133.816C309.97 133.816 308.994 134.488 308.994 135.768C308.994 137.048 309.97 137.72 311.202 137.72Z" fill="white"/>
<path d="M308.736 65.136H307.072L307.744 58.8H313.856V60.24H309.168L308.96 62.448C308.896 63.088 308.848 63.52 308.784 63.856C309.328 63.152 310.112 62.784 311.136 62.784C312.976 62.784 314.4 64.144 314.4 66.464C314.4 68.704 312.688 70.16 310.48 70.16C308.352 70.16 306.736 69.104 306.64 66.8H308.368C308.416 68.096 309.312 68.72 310.48 68.72C311.808 68.72 312.688 67.76 312.688 66.464C312.688 65.152 311.808 64.176 310.48 64.176C309.712 64.176 309.12 64.544 308.736 65.136ZM323.525 66.72C323.525 68.8 321.813 70.16 319.605 70.16C317.381 70.16 315.653 68.864 315.605 66.8H317.333C317.365 67.92 318.117 68.72 319.605 68.72C320.965 68.72 321.877 67.872 321.877 66.72C321.877 65.552 321.013 64.816 319.445 64.816H318.549V63.376H319.605C320.757 63.376 321.541 62.672 321.541 61.664C321.541 60.768 320.773 60.08 319.605 60.08C318.389 60.08 317.525 60.896 317.493 62H315.765C315.765 60 317.461 58.64 319.605 58.64C321.685 58.64 323.173 59.696 323.173 61.424C323.173 62.56 322.421 63.36 321.333 63.712C322.709 64.08 323.525 65.088 323.525 66.72Z" fill="white"/>
<defs>
<clipPath id="clip0_1143_7726">
<rect width="312" height="112" fill="white" transform="translate(0 27)"/>
</clipPath>
</defs>
</svg>
