<?xml version="1.0" encoding="utf-8"?>
<!-- Generator: Adobe Illustrator 25.4.1, SVG Export Plug-In . SVG Version: 6.00 Build 0)  -->
<svg version="1.1" id="Layer_1" xmlns="http://www.w3.org/2000/svg" xmlns:xlink="http://www.w3.org/1999/xlink" x="0px" y="0px"
	 viewBox="0 0 261 48" style="enable-background:new 0 0 261 48;" xml:space="preserve">
<g>
	<g>
		<g>
			<path d="M184.11,0.2c-0.1-0.36-0.42-0.6-0.79-0.6h-11.04c-0.37,0-0.69,0.25-0.79,0.6l-12.76,47.51
				c-0.09,0.34,0.17,0.68,0.52,0.68h8.94c0.37,0,0.69-0.25,0.79-0.6l2.34-8.72c0.06-0.24,0.28-0.4,0.52-0.4h11.9
				c0.25,0,0.46,0.16,0.52,0.4l2.34,8.72c0.1,0.36,0.42,0.6,0.79,0.6h8.94c0.36,0,0.62-0.34,0.52-0.68L184.11,0.2z M180.81,28.84
				h-6.02c-0.36,0-0.62-0.34-0.52-0.68l3.27-12.19c0.04-0.13,0.15-0.2,0.26-0.2c0.11,0,0.22,0.07,0.26,0.2l3.27,12.19
				C181.43,28.5,181.17,28.84,180.81,28.84z"/>
		</g>
	</g>
	<g>
		<path d="M29.58-0.4H0.54C0.24-0.4,0-0.16,0,0.14V8.8c0,0.3,0.24,0.54,0.54,0.54h9.11c0.3,0,0.54,0.24,0.54,0.54v37.97
			c0,0.3,0.24,0.54,0.54,0.54h8.66c0.3,0,0.54-0.24,0.54-0.54V9.89c0-0.3,0.24-0.54,0.54-0.54h9.11c0.3,0,0.54-0.24,0.54-0.54V0.14
			C30.13-0.16,29.88-0.4,29.58-0.4z"/>
	</g>
	<g>
		<path d="M224.05-0.4h-29.04c-0.3,0-0.54,0.24-0.54,0.54V8.8c0,0.3,0.24,0.54,0.54,0.54h9.11c0.3,0,0.54,0.24,0.54,0.54v37.97
			c0,0.3,0.24,0.54,0.54,0.54h8.66c0.3,0,0.54-0.24,0.54-0.54V9.89c0-0.3,0.24-0.54,0.54-0.54h9.11c0.3,0,0.54-0.24,0.54-0.54V0.14
			C224.59-0.16,224.35-0.4,224.05-0.4z"/>
	</g>
	<g>
		<path d="M60.55-0.4H36.51c-0.3,0-0.54,0.24-0.54,0.54v47.71c0,0.3,0.24,0.54,0.54,0.54h24.04c0.3,0,0.54-0.26,0.54-0.55v-8.66
			c0-0.3-0.24-0.54-0.54-0.54h-14.3c-0.3,0-0.54-0.24-0.54-0.54v-8.68c0-0.3,0.24-0.54,0.54-0.54h13.34c0.3,0,0.54-0.24,0.54-0.54
			v-8.66c0-0.3-0.24-0.54-0.54-0.54H46.25c-0.3,0-0.54-0.24-0.54-0.54V9.89c0-0.3,0.24-0.54,0.54-0.54h14.3
			c0.3,0,0.54-0.24,0.54-0.54V0.14C61.09-0.16,60.84-0.4,60.55-0.4z"/>
	</g>
	<g>
		<path d="M123.07-0.4H99.03c-0.3,0-0.54,0.24-0.54,0.54v47.71c0,0.3,0.24,0.54,0.54,0.54h24.04c0.3,0,0.54-0.26,0.54-0.55v-8.66
			c0-0.3-0.24-0.54-0.54-0.54h-14.3c-0.3,0-0.54-0.24-0.54-0.54v-8.68c0-0.3,0.24-0.54,0.54-0.54h13.34c0.3,0,0.54-0.24,0.54-0.54
			v-8.66c0-0.3-0.24-0.54-0.54-0.54h-13.34c-0.3,0-0.54-0.24-0.54-0.54V9.89c0-0.3,0.24-0.54,0.54-0.54h14.3
			c0.3,0,0.54-0.24,0.54-0.54V0.14C123.61-0.16,123.37-0.4,123.07-0.4z"/>
	</g>
	<g>
		<path d="M92.56,38.64h-14.3c-0.3,0-0.54-0.24-0.54-0.54V0.14c0-0.3-0.24-0.54-0.54-0.54h-8.66c-0.3,0-0.54,0.24-0.54,0.54v47.71
			c0,0.3,0.24,0.54,0.54,0.54h24.04c0.3,0,0.54-0.24,0.54-0.54v-8.67C93.1,38.89,92.86,38.64,92.56,38.64z"/>
	</g>
	<g>
		<path d="M260.46-0.4h-8.66c-0.3,0-0.54,0.24-0.54,0.54v18.45c0,0.3-0.24,0.54-0.54,0.54h-9.92c-0.3,0-0.54-0.24-0.54-0.54V0.14
			c0-0.3-0.24-0.54-0.54-0.54h-8.66c-0.3,0-0.54,0.24-0.54,0.54v47.71c0,0.3,0.24,0.54,0.54,0.54h8.66c0.3,0,0.54-0.24,0.54-0.54
			V29.42c0-0.3,0.24-0.54,0.54-0.54h9.92c0.3,0,0.54,0.24,0.54,0.54v18.44c0,0.3,0.24,0.54,0.54,0.54h8.66
			c0.3,0,0.54-0.24,0.54-0.54V0.14C261-0.16,260.76-0.4,260.46-0.4z"/>
	</g>
	<g>
		<g>
			<path d="M144.19-0.4h-13.5c-0.3,0-0.54,0.24-0.54,0.54v47.71c0,0.3,0.24,0.54,0.54,0.54h8.66c0.3,0,0.54-0.24,0.54-0.54V32.64
				c0-0.3,0.24-0.54,0.54-0.54h4c9.05,0,16.37-7.39,16.25-16.47C160.57,6.71,153.12-0.4,144.19-0.4z M144.23,22.25h-3.8
				c-0.3,0-0.54-0.24-0.54-0.54V9.89c0-0.3,0.24-0.54,0.54-0.54h3.95c3.52,0,6.39,2.82,6.45,6.33
				C150.9,19.29,147.85,22.25,144.23,22.25z"/>
		</g>
	</g>
</g>
</svg>
