<?xml version="1.0" encoding="utf-8"?>
<!-- Generator: Adobe Illustrator 25.4.1, SVG Export Plug-In . SVG Version: 6.00 Build 0)  -->
<svg version="1.1" id="Layer_1" xmlns="http://www.w3.org/2000/svg" xmlns:xlink="http://www.w3.org/1999/xlink" x="0px" y="0px"
	 viewBox="0 0 83.23 69.08" style="enable-background:new 0 0 83.23 69.08;" xml:space="preserve">
<g>
	<g>
		<path d="M72.24,60.27h1.2v5.7h-1.25v-3.78h-1.11v-0.94h0.55c0.4,0,0.61-0.11,0.61-0.64V60.27z"/>
	</g>
	<g>
		<circle cx="68.56" cy="57.62" r="2.33"/>
	</g>
	<g>
		<path d="M17.67,64.85c0-2.1,2.71-2.57,2.71-3.69c0-0.39-0.29-0.69-0.75-0.69c-0.47,0-0.79,0.31-0.8,0.73h-1.22
			c0.01-1.1,0.86-1.75,2.02-1.75c1.14,0,1.94,0.63,1.94,1.61c0,1.53-2.08,2.09-2.57,3.16h2.64v1.06h-3.97V64.85z"/>
	</g>
	<g>
		<circle cx="24.28" cy="56.93" r="2.33"/>
	</g>
	<g>
		<path d="M17.96,51.43c-1.25,0-2.12-0.65-2.13-1.78h1.25c0.01,0.46,0.33,0.77,0.88,0.77c0.51,0,0.87-0.31,0.87-0.79
			c0-0.48-0.35-0.76-0.91-0.76h-0.45v-1.01h0.49c0.43,0,0.75-0.27,0.75-0.69c0-0.4-0.31-0.66-0.75-0.66c-0.46,0-0.79,0.28-0.8,0.73
			h-1.25c0-1.05,0.85-1.75,2.05-1.75c1.14,0,1.91,0.56,1.91,1.45c0,0.55-0.37,0.96-0.95,1.16c0.72,0.22,1.15,0.75,1.15,1.57
			C20.07,50.78,19.2,51.43,17.96,51.43z"/>
	</g>
	<g>
		<circle cx="24.28" cy="47.48" r="2.33"/>
	</g>
	<g>
		<path d="M77.03,46.71h0.81v1h-0.81v0.89h-1.18v-0.89h-2.52v-0.88l2.13-3.93h1.57V46.71z M75.85,45.32c0-0.38,0-0.78,0.02-1.15
			c-0.14,0.3-0.32,0.64-0.51,1l-0.33,0.59c-0.2,0.36-0.39,0.69-0.58,0.98c0.33-0.03,0.65-0.03,1.02-0.03h0.38V45.32z"/>
	</g>
	<g>
		<circle cx="70.88" cy="41.5" r="2.33"/>
	</g>
	<g>
		<path d="M79.26,22.21l0.34-3.39h3.23v1.06h-2.21l-0.07,0.69c-0.03,0.38-0.07,0.62-0.1,0.8c0.28-0.36,0.67-0.52,1.16-0.52
			c0.91,0,1.62,0.69,1.62,1.87c0,1.16-0.93,1.92-2.12,1.92c-1.16,0-2.05-0.55-2.08-1.75h1.25c0.01,0.49,0.37,0.73,0.82,0.73
			c0.52,0,0.87-0.38,0.87-0.9c0-0.53-0.35-0.92-0.87-0.92c-0.33,0-0.55,0.14-0.73,0.41H79.26z"/>
	</g>
	<g>
		<circle cx="76.48" cy="17.18" r="2.33"/>
	</g>
	<g>
		<path d="M13.59,24.65c-1.42,0-2.23-0.95-2.23-2.97c0-2.07,0.93-2.97,2.25-2.97c1.14,0,1.87,0.71,1.91,1.75h-1.25
			c-0.02-0.45-0.28-0.73-0.72-0.73c-0.59,0-0.95,0.54-0.95,1.95c0,0.02,0,0.05,0,0.07c0.26-0.56,0.75-0.87,1.37-0.87
			c0.97,0,1.67,0.68,1.67,1.85C15.62,23.87,14.86,24.65,13.59,24.65z M13.54,21.84c-0.51,0-0.84,0.37-0.84,0.89
			c0,0.53,0.33,0.9,0.84,0.9c0.5,0,0.83-0.37,0.83-0.9C14.37,22.21,14.05,21.84,13.54,21.84z"/>
	</g>
	<g>
		<circle cx="17.97" cy="16.49" r="2.33"/>
	</g>
	<g>
		<path d="M21.37,4.12c-0.31,0.02-0.68,0.03-1.01,0.03h-1.7V3.13h3.75v1.14C21.4,5.6,20.97,7.1,20.88,8.83h-1.29
			C19.71,7.19,20.29,5.52,21.37,4.12z"/>
	</g>
	<g>
		<circle cx="15.65" cy="8.83" r="2.33"/>
	</g>
	<g>
		<path d="M0,4.22c0-0.77,0.41-1.3,1.07-1.56C0.54,2.43,0.22,2,0.22,1.44C0.22,0.57,0.97,0,2.1,0c1.12,0,1.88,0.57,1.88,1.44
			c0,0.55-0.33,0.99-0.85,1.22C3.79,2.92,4.2,3.44,4.2,4.22c0,1.11-0.85,1.73-2.1,1.73C0.84,5.95,0,5.33,0,4.22z M2.95,4.15
			c0-0.51-0.38-0.77-0.85-0.77c-0.48,0-0.86,0.26-0.86,0.77c0,0.5,0.38,0.77,0.86,0.77C2.57,4.93,2.95,4.66,2.95,4.15z M2.82,1.69
			c0-0.45-0.32-0.67-0.72-0.67c-0.41,0-0.72,0.23-0.72,0.67c0,0.44,0.31,0.68,0.72,0.68C2.5,2.37,2.82,2.14,2.82,1.69z"/>
	</g>
	<g>
		<circle cx="6.68" cy="8.15" r="2.33"/>
	</g>
	<g>
		<path d="M24.28,48.07c-0.28,0-0.53-0.2-0.58-0.48l-6.31-30.98c-0.07-0.32,0.14-0.64,0.47-0.7c0.31-0.06,0.64,0.14,0.7,0.47
			l6.31,30.98c0.07,0.32-0.14,0.64-0.47,0.7C24.36,48.07,24.32,48.07,24.28,48.07z"/>
	</g>
	<g>
		<path d="M36.13,46.55c-0.3,0-0.55-0.22-0.59-0.52l-3.92-29.29c-0.04-0.33,0.19-0.63,0.51-0.67c0.36-0.04,0.63,0.19,0.67,0.51
			l3.92,29.29c0.04,0.33-0.19,0.63-0.51,0.67C36.18,46.55,36.16,46.55,36.13,46.55z"/>
	</g>
	<g>
		<path d="M47.58,45.11c-0.33,0-0.6-0.27-0.6-0.6V16.84c0-0.33,0.27-0.6,0.6-0.6s0.6,0.27,0.6,0.6v27.68
			C48.18,44.84,47.91,45.11,47.58,45.11z"/>
	</g>
	<g>
		<path d="M59.66,43.54c-0.02,0-0.04,0-0.06,0c-0.33-0.03-0.57-0.33-0.53-0.65l2.68-25.93c0.03-0.33,0.33-0.55,0.65-0.53
			c0.33,0.03,0.57,0.33,0.53,0.65L60.25,43C60.22,43.31,59.96,43.54,59.66,43.54z"/>
	</g>
	<g>
		<path d="M19.99,26.97c-0.33,0-0.59-0.27-0.6-0.59c0-0.33,0.26-0.6,0.59-0.6l54.45-0.31h0c0.33,0,0.59,0.27,0.6,0.59
			s-0.26,0.6-0.59,0.6L19.99,26.97L19.99,26.97z"/>
	</g>
	<g>
		<path d="M22.25,38.09c-0.31,0-0.57-0.24-0.59-0.55c-0.02-0.33,0.22-0.61,0.55-0.64l50.35-3.45c0.32-0.02,0.61,0.22,0.64,0.55
			c0.02,0.33-0.22,0.61-0.55,0.64l-50.35,3.45C22.27,38.09,22.26,38.09,22.25,38.09z"/>
	</g>
	<g>
		<path d="M27.93,69.08c-2.09,0-3.8-1.71-3.8-3.8c0-2.09,1.71-3.8,3.8-3.8c2.1,0,3.8,1.71,3.8,3.8
			C31.73,67.37,30.02,69.08,27.93,69.08z M27.93,62.67c-1.44,0-2.61,1.17-2.61,2.61c0,1.44,1.17,2.61,2.61,2.61
			c1.44,0,2.61-1.17,2.61-2.61C30.54,63.84,29.37,62.67,27.93,62.67z"/>
	</g>
	<g>
		<path d="M64.2,69.08c-2.1,0-3.8-1.71-3.8-3.8c0-2.09,1.71-3.8,3.8-3.8c2.1,0,3.8,1.71,3.8,3.8C68,67.37,66.3,69.08,64.2,69.08z
			 M64.2,62.67c-1.44,0-2.61,1.17-2.61,2.61c0,1.44,1.17,2.61,2.61,2.61c1.44,0,2.61-1.17,2.61-2.61
			C66.81,63.84,65.64,62.67,64.2,62.67z"/>
	</g>
	<g>
		<path d="M4.95,7.96c0.27-0.27,0.59-0.31,0.93-0.17C5.92,7.8,5.98,7.81,6.02,7.8C6.81,7.71,7.6,7.85,8.39,7.85
			c0.46,0,0.91,0.05,1.37,0.07c0.01,0,0.02,0,0.02,0c0.54,0.28,1.14,0.09,1.69,0.24c0.16,0.05,0.31,0.11,0.47,0.16
			c0.18,0.06,0.36,0.13,0.55,0.17c0.47,0.09,0.94,0.15,1.4,0.23c0.07,0.01,0.16,0.05,0.21,0.03c0.36-0.17,0.68,0.07,1.02,0.1
			c0.35,0.03,0.71,0.06,1.05,0.14c0.14,0.03,0.26,0.16,0.37,0.27c0.19,0.21,0.36,0.43,0.35,0.76c0,0.21,0.16,0.42,0.22,0.63
			c0.09,0.28,0.17,0.56,0.22,0.85c0.08,0.42,0.11,0.86,0.21,1.27c0.06,0.26,0.21,0.5,0.34,0.74c0.22,0.39,0.34,0.79,0.32,1.24
			c-0.01,0.15,0.08,0.3,0.12,0.46c0.06,0.21,0.14,0.43,0.16,0.65c0.02,0.22,0.1,0.23,0.28,0.2c0.39-0.07,0.77-0.15,1.16-0.17
			c0.75-0.03,1.52,0.06,2.26-0.04c0.59-0.08,1.15,0.01,1.73,0.01c0.16,0,0.38-0.05,0.47-0.01c0.27,0.1,0.51-0.04,0.76,0
			c0.74,0.11,1.46-0.03,2.19-0.07c0.49-0.03,0.97-0.1,1.46-0.11c1.01-0.02,2.02-0.02,3.03,0.01c0.84,0.02,1.68,0.12,2.52,0.09
			c0.45-0.01,0.9,0.02,1.34,0.03c0.7,0.02,1.4,0.05,2.11,0.07c0.2,0,0.4-0.05,0.6-0.04c0.11,0,0.21,0.09,0.32,0.08
			c0.53-0.04,1.06-0.07,1.58-0.14c0.93-0.13,1.85-0.17,2.78-0.05c0.27,0.04,0.56,0.05,0.82-0.01c0.57-0.14,1.11,0.01,1.65,0.1
			c0.11,0.02,0.22,0.04,0.33,0.04c0.72,0.03,1.44,0.07,2.17,0.09c0.59,0.01,1.17-0.02,1.76-0.02c0.22,0,0.44,0.05,0.65,0.05
			c0.3,0,0.61,0.01,0.89-0.07c0.41-0.12,0.83-0.09,1.24-0.13c0.36-0.03,0.71-0.09,1.07-0.12c0.52-0.03,1.04-0.04,1.55-0.06
			c0.03,0,0.07,0,0.1-0.01c0.61-0.19,1.21-0.2,1.82-0.03c0.21,0.06,0.45,0.02,0.67,0.04c0.48,0.05,0.96,0.11,1.44,0.15
			c0.61,0.05,1.22,0.1,1.83,0.12c0.66,0.03,1.33,0.03,1.99,0.03c0.47,0.01,0.94,0.01,1.41,0.01c0.55,0,1.1-0.03,1.65-0.01
			c0.51,0.02,1.01,0.1,1.52,0.15c0.16,0.02,0.32,0.03,0.48,0.05c0.22,0.03,0.44,0.04,0.66,0.08c0.39,0.07,0.78,0.15,1.17,0.24
			c0.27,0.06,0.53,0.13,0.8,0.18c0.41,0.07,0.83,0.12,1.24,0.18c0.74,0.11,1.48,0.23,2.22,0.34c0.25,0.04,0.44,0,0.59-0.25
			c0.26-0.42,0.33-0.45,0.64-0.42c0.02,0.39,0.19,0.7,0.5,0.95c0.17,0.14,0.2,0.69,0.08,0.88c-0.08,0.12-0.16,0.22-0.33,0.17
			c-0.14-0.03-0.24,0-0.28,0.18c-0.09,0.36-0.21,0.71-0.32,1.06c-0.04,0.11-0.09,0.22-0.15,0.32c-0.27,0.46-0.17,1-0.28,1.49
			c-0.03,0.16-0.11,0.31-0.18,0.46c-0.07,0.17-0.18,0.33-0.23,0.51c-0.13,0.4-0.25,0.8-0.34,1.21c-0.07,0.3-0.08,0.61-0.12,0.92
			c-0.08,0.02-0.16,0.05-0.22,0.07c0.1,0.47,0.12,0.92-0.07,1.37c-0.08,0.18-0.07,0.4-0.1,0.61c-0.01,0.07,0,0.19-0.04,0.21
			c-0.35,0.2-0.26,0.56-0.31,0.85c-0.08,0.48-0.1,0.97-0.23,1.45c-0.17,0.61-0.24,1.25-0.34,1.87c-0.1,0.65-0.18,1.29-0.28,1.94
			c-0.06,0.41-0.19,0.82-0.19,1.23c0.01,0.67-0.15,1.32-0.23,1.98c-0.06,0.49-0.18,0.98-0.26,1.48c-0.07,0.45-0.14,0.91-0.19,1.36
			c-0.05,0.42-0.1,0.84-0.12,1.26c-0.01,0.38,0.01,0.75,0.04,1.13c0.01,0.09,0.07,0.18,0.13,0.26c0.24,0.28,0.18,0.59,0.09,0.89
			c-0.01,0.04-0.09,0.1-0.14,0.1c-0.85,0.03-1.7,0.07-2.56,0.08c-0.2,0-0.4-0.06-0.59-0.09c-0.05-0.01-0.16-0.01-0.16,0
			c-0.05,0.26-0.23,0.1-0.35,0.11c-0.54,0.05-1.08,0.1-1.62,0.15c-0.34,0.03-0.67,0.06-1.01,0.09c-0.13,0.01-0.26,0.02-0.38,0.07
			c-0.37,0.15-0.74,0.2-1.13,0.17c-0.31-0.02-0.63-0.02-0.89,0.23c-0.03,0.03-0.09,0.04-0.14,0.04c-0.7-0.09-1.38,0.13-2.05,0.24
			c-0.33,0.06-0.63,0.08-0.95,0.02c-0.07-0.01-0.16,0.02-0.23,0.06c-0.22,0.15-0.45,0.19-0.71,0.19c-0.33,0-0.66,0.07-0.98,0.11
			c-0.19,0.02-0.37,0.01-0.56,0.14c-0.15,0.1-0.41,0-0.62,0.04c-0.53,0.09-1.06,0.21-1.59,0.31c-0.28,0.06-0.57,0.09-0.84,0.17
			c-0.17,0.05-0.31,0.17-0.47,0.25c-0.06,0.03-0.13,0.08-0.19,0.09c-0.38,0.04-0.77,0.08-1.15,0.11c-0.09,0.01-0.17-0.01-0.26-0.01
			c-0.14,0-0.27,0.02-0.41,0.02c-0.06,0-0.13,0-0.19,0c-0.28,0.02-0.55,0.04-0.83,0.06c-0.27,0.02-0.55,0.05-0.82,0.07
			c-0.29,0.02-0.59,0.03-0.88,0.06c-0.4,0.04-0.8,0.04-1.18,0.22c-0.18,0.08-0.42,0.02-0.62,0.08c-0.74,0.25-1.53,0.19-2.28,0.39
			c-0.51-0.14-0.96,0.18-1.47,0.18c-0.51-0.01-1.01,0.02-1.52,0.03c-0.29,0.01-0.62-0.09-0.88,0.16c-0.04,0.04-0.12,0.03-0.18,0.03
			c-0.19,0-0.36,0.01-0.55,0.1c-0.19,0.09-0.45,0.02-0.68,0.02c-0.35,0-0.7-0.04-1.05,0c-0.43,0.04-0.86,0.21-1.27,0.18
			c-0.4-0.04-0.73,0.16-1.11,0.16c-0.1,0-0.2,0.14-0.31,0.15c-0.28,0.04-0.56,0.04-0.84,0.05c-0.61,0-1.23-0.08-1.82,0.02
			c-0.57,0.1-1.12,0.09-1.68,0.1c-0.12,0-0.24,0.11-0.36,0.12c-0.45,0.02-0.91,0.01-1.37,0.03c-0.12,0-0.24,0.09-0.36,0.11
			c-0.57,0.07-1.15,0.12-1.72,0.18c-0.02,0-0.05-0.01-0.07-0.01c-0.02-0.08-0.05-0.15-0.08-0.25c-0.05,0.06-0.11,0.09-0.1,0.12
			c0.04,0.25-0.14,0.24-0.3,0.27c-0.11,0.02-0.22,0.09-0.33,0.11c-0.24,0.04-0.47,0.07-0.71,0.09c-0.23,0.01-0.57,0.3-0.57,0.54
			c0.01,0.91-0.05,1.82,0.12,2.73c0.08,0.4-0.06,0.84-0.1,1.26c-0.03,0.25-0.08,0.49-0.11,0.74c-0.07,0.65-0.13,1.3-0.18,1.96
			c-0.01,0.22,0.06,0.45,0.06,0.67c0.01,0.27-0.03,0.53-0.02,0.8c0,0.14,0.03,0.29,0.09,0.42c0.06,0.16,0.18,0.26,0.38,0.19
			c0.05-0.02,0.11-0.03,0.17-0.03c0.25,0.03,0.49,0.09,0.73,0.09c0.46-0.01,0.91-0.05,1.37-0.07c0.12,0,0.25,0.05,0.37,0.06
			c0.41,0.03,0.79-0.09,1.19-0.2c0.57-0.15,1.16-0.28,1.74-0.34c0.44-0.05,0.9,0.02,1.35,0.05c0.38,0.02,0.76,0.11,1.14,0.08
			c1.16-0.09,2.32,0.06,3.47-0.04c0.93-0.08,1.87-0.12,2.81-0.13c0.45,0,0.91,0.14,1.36,0.17c0.4,0.03,0.8,0,1.21-0.01
			c0.05,0,0.1-0.02,0.14-0.02c0.69,0.01,1.38,0.02,2.07,0.03c0.34,0,0.67-0.01,1.01-0.01c0.16,0,0.32,0.04,0.48,0.06
			c0.06,0.01,0.11,0.03,0.17,0.03c0.26,0,0.51,0.02,0.76,0c0.45-0.04,0.9-0.12,1.35-0.17c0.05-0.01,0.11,0,0.16-0.01
			c0.3-0.03,0.61-0.07,0.91-0.1c0.02,0,0.04-0.03,0.07-0.03c0.37-0.02,0.74-0.03,1.1-0.05c0.08,0,0.16-0.02,0.23-0.03
			c0.08-0.02,0.16-0.07,0.23-0.06c0.49,0.1,0.97-0.11,1.45-0.09c0.34,0.01,0.69,0.01,1.03-0.01c0.24-0.02,0.47-0.08,0.71-0.12
			c0.03-0.01,0.06-0.02,0.09-0.02c0.55-0.02,1.11-0.03,1.66-0.04c0.92-0.02,1.84-0.04,2.76-0.06c0.53-0.01,1.06-0.04,1.58-0.05
			c0.18,0,0.35,0.04,0.53,0.02c0.28-0.03,0.55-0.13,0.82-0.13c0.78,0.01,1.56,0.05,2.34,0.09c0.36,0.02,0.71,0.08,1.06,0.09
			c0.26,0.01,0.5,0.03,0.71,0.18c0.04,0.03,0.09,0.05,0.13,0.04c0.62-0.15,1.18,0,1.72,0.32c0.27,0.17,0.28,0.35,0.03,0.54
			c-0.17,0.13-0.37,0.19-0.59,0.15c-0.17-0.03-0.35-0.02-0.52-0.04c-0.4-0.05-0.8-0.1-1.2-0.15c-0.55-0.07-1.11-0.16-1.66-0.2
			c-0.34-0.02-0.69,0.03-1.04,0.04c-0.35,0.01-0.69,0.01-1.04,0.02c-0.66,0.01-1.31-0.01-1.97,0.03c-0.89,0.06-1.77-0.01-2.66-0.02
			c-0.41-0.01-0.83,0.08-1.25,0.11c-0.29,0.02-0.58,0.01-0.87,0.04c-0.58,0.06-1.16,0.15-1.74,0.2c-0.48,0.04-0.97,0.05-1.45,0.08
			c-0.57,0.03-1.15,0.06-1.72,0.11c-0.57,0.05-1.13,0.13-1.7,0.2c-0.03,0-0.06,0.01-0.1,0.01c-0.61,0.03-1.22,0.06-1.84,0.07
			c-0.53,0.01-1.07-0.01-1.6-0.01c-0.98-0.01-1.96-0.01-2.94-0.02c-0.3,0-0.6-0.04-0.91-0.05c-0.39-0.01-0.78-0.02-1.17-0.02
			c-0.45,0-0.9-0.01-1.34,0.01c-0.53,0.02-1.05,0.05-1.58,0.07c-0.44,0.02-0.89,0.05-1.33,0.06c-0.22,0-0.44-0.03-0.65-0.04
			c-0.64-0.03-1.28-0.05-1.92-0.08c-0.54-0.02-1.08-0.04-1.62-0.07c-0.07,0-0.15-0.02-0.22,0c-0.51,0.11-1.01,0.24-1.52,0.34
			c-0.48,0.09-0.98,0.13-1.46,0.22c-0.48,0.1-0.96,0.02-1.44,0.02c-0.04,0-0.09,0.01-0.12-0.01c-0.36-0.21-0.76-0.14-1.14-0.16
			c-0.26-0.02-0.52-0.06-0.76,0.18c-0.13,0.12-0.39,0.14-0.59,0.15c-0.17,0.01-0.26-0.13-0.21-0.3c0.07-0.23,0.01-0.42-0.07-0.63
			c-0.11-0.3-0.2-0.61-0.27-0.93c-0.02-0.1-0.02-0.26,0.04-0.33c0.35-0.39,0.35-0.88,0.4-1.35c0.09-0.9,0.2-1.8,0.25-2.71
			c0.05-0.86,0.09-1.73-0.12-2.58c-0.04-0.18,0-0.39,0.02-0.58c0.02-0.23,0.05-0.47,0.07-0.7c0.01-0.27-0.15-0.49-0.42-0.54
			c-0.37-0.06-0.54-0.34-0.77-0.57c0-0.03,0-0.06,0-0.09c0.27-0.06,0.53-0.13,0.8-0.17c0.17-0.02,0.33,0.02,0.48-0.12
			c0.04-0.04,0.14-0.02,0.22-0.01c0.21,0.02,0.42,0.07,0.63,0.08c0.42,0.02,0.81-0.04,1.23-0.16c0.41-0.12,0.88-0.04,1.33-0.05
			c0.14,0,0.28,0.04,0.41,0.03c0.13-0.01,0.29,0.01,0.31-0.21c0.01-0.14,0.39-0.22,0.59-0.12c0.28,0.13,0.5,0.06,0.73-0.12
			c0.06-0.05,0.2-0.1,0.22-0.08c0.22,0.24,0.48,0.09,0.71,0.07c0.74-0.06,1.47-0.15,2.21-0.21c0.59-0.05,1.19-0.08,1.78-0.12
			c0.45-0.03,0.9-0.05,1.35-0.11c0.69-0.09,1.37-0.22,2.05-0.32c0.35-0.05,0.7-0.1,1.06-0.13c0.34-0.03,0.69-0.04,1.03-0.06
			c0.69-0.05,1.38-0.1,2.07-0.16c0.68-0.06,1.37-0.14,2.05-0.21c0.53-0.06,1.06-0.12,1.58-0.3c0.21-0.07,0.47-0.02,0.69-0.06
			c0.44-0.07,0.88-0.18,1.32-0.26c0.32-0.06,0.65-0.11,0.98-0.13c0.6-0.04,1.21-0.06,1.81-0.09c0.09,0,0.18,0.01,0.26,0.01
			c0.14,0.01,0.26,0.02,0.4-0.09c0.12-0.1,0.35-0.07,0.53-0.1c0.42-0.08,0.83-0.16,1.25-0.24c0.59-0.12,1.16-0.35,1.78-0.34
			c0.18,0,0.36-0.09,0.54-0.11c0.42-0.06,0.88-0.02,1.26-0.16c0.47-0.18,0.96-0.19,1.43-0.29c0.29-0.06,0.59-0.04,0.89-0.07
			c0.25-0.02,0.5-0.08,0.76-0.1c0.31-0.03,0.63-0.02,0.94-0.05c0.29-0.03,0.59-0.05,0.86-0.14c0.34-0.12,0.66-0.31,1.04-0.28
			c0.12,0.01,0.24-0.07,0.37-0.11c0.25-0.09,0.48-0.24,0.76-0.13c0.01,0,0.02,0,0.02,0c0.5-0.23,1.04-0.07,1.55-0.2
			c0.05-0.01,0.1-0.02,0.14-0.01c0.63,0.04,1.26-0.01,1.89-0.06c0.6-0.05,1.2,0,1.8,0.01c0.33,0,0.53-0.16,0.53-0.49
			c0-0.4,0.18-0.72,0.36-1.06c0.09-0.17,0.11-0.4,0.14-0.6c0.04-0.35,0.06-0.7,0.1-1.05c0.04-0.37,0.08-0.74,0.14-1.11
			c0.09-0.56,0.19-1.12,0.27-1.67c0.05-0.32,0.09-0.64,0.11-0.96c0.04-0.56,0.14-1.1,0.32-1.63c0.08-0.24,0.06-0.52,0.08-0.78
			c0.03-0.42,0.06-0.84,0.1-1.27c0.01-0.07,0.04-0.14,0.05-0.21c0.06-0.33,0.13-0.66,0.19-0.99c0.06-0.36,0.1-0.71,0.14-1.07
			c0.02-0.21,0-0.43,0.04-0.64c0.01-0.09,0.12-0.15,0.21-0.25c-0.16-0.19-0.14-0.43-0.03-0.68c0.01-0.03,0.03-0.07,0.02-0.09
			c-0.14-0.25,0.01-0.46,0.07-0.69c0.07-0.29,0.1-0.59,0.17-0.88c0.13-0.5,0.27-0.99,0.41-1.48c0.1-0.36,0.24-0.73,0.28-1.1
			c0.05-0.5,0.31-0.96,0.31-1.46c0-0.52,0.24-0.96,0.4-1.43c0.09-0.25,0.26-0.46,0.34-0.71c0.13-0.38,0.22-0.77,0.31-1.16
			c0.04-0.17-0.11-0.21-0.24-0.18c-0.21,0.05-0.37,0.04-0.56-0.09c-0.16-0.1-0.38-0.11-0.58-0.13c-0.26-0.04-0.53-0.07-0.8-0.08
			c-0.61-0.04-1.22-0.05-1.81-0.25c-0.25-0.09-0.55-0.06-0.82-0.1c-0.21-0.03-0.41-0.11-0.62-0.16c-0.07-0.02-0.13-0.05-0.2-0.06
			c-0.29-0.05-0.58-0.1-0.88-0.14c-0.23-0.03-0.46-0.06-0.7-0.06c-0.63-0.02-1.28-0.1-1.89-0.01c-0.83,0.12-1.65,0.05-2.48,0.07
			c-0.41,0.01-0.81,0.08-1.22,0.08c-0.22,0-0.45-0.1-0.67-0.16c-0.16-0.05-0.32-0.19-0.49,0c-0.03,0.03-0.11,0.01-0.17,0.01
			c-0.26-0.02-0.52-0.03-0.78-0.07c-0.09-0.01-0.17-0.08-0.25-0.13c-0.08-0.05-0.15-0.11-0.25-0.18c-0.05,0.27-0.17,0.27-0.39,0.25
			c-0.78-0.1-1.56-0.18-2.34-0.19c-0.58-0.01-1.15,0.09-1.73,0.13c-0.74,0.05-1.49,0.09-2.23,0.14c-0.14,0.01-0.27-0.01-0.41-0.02
			c-0.12,0-0.25-0.03-0.29,0.15c-0.01,0.04-0.14,0.08-0.21,0.07c-0.35-0.02-0.69-0.07-1.04-0.09c-0.12-0.01-0.26-0.01-0.37,0.03
			c-0.33,0.15-0.66,0.16-1.02,0.13c-0.54-0.05-1.09-0.05-1.63-0.08c-0.13-0.01-0.27-0.04-0.4-0.09c-0.36-0.13-0.72-0.15-1.09-0.01
			c-0.08,0.03-0.17,0.03-0.26,0.03c-0.43-0.01-0.87-0.03-1.3-0.05c-0.23-0.01-0.46-0.03-0.69-0.03c-0.67,0-1.33,0.05-2,0
			c-0.35-0.02-0.71-0.08-1.06-0.07c-0.42,0.01-0.83,0.07-1.25,0.08c-0.29,0-0.58-0.06-0.87-0.07c-0.6-0.02-1.2,0-1.79-0.03
			c-0.62-0.03-1.23-0.12-1.84-0.16c-0.32-0.02-0.65,0.04-0.97,0.04c-0.26,0.01-0.52-0.02-0.77-0.02c-0.51-0.01-1.03-0.07-1.53,0.01
			c-0.38,0.06-0.75,0.18-1.13,0.13c-0.3-0.04-0.59-0.08-0.89-0.12c-0.03,0-0.07-0.01-0.09,0.01c-0.32,0.3-0.69,0.2-1.07,0.18
			c-0.42-0.02-0.84,0-1.26,0c-0.13,0-0.25-0.02-0.38-0.02c-0.06,0-0.14-0.02-0.19,0.01c-0.33,0.17-0.69,0.13-1.04,0.13
			c-0.14,0-0.29,0.02-0.43,0.04c-0.52,0.04-0.99-0.2-1.49-0.26c-0.27-0.04-0.54-0.02-0.82-0.03c-0.25-0.01-0.5-0.03-0.75-0.02
			c-0.66,0.04-1.32,0.1-1.97,0.15c-0.2,0.01-0.4,0.02-0.6-0.01c-0.42-0.06-0.9,0.23-1.04,0.64c-0.1,0.3-0.21,0.33-0.41,0.09
			c-0.17-0.21-0.4-0.41-0.46-0.65c-0.07-0.27-0.17-0.6-0.01-0.81c-0.05-0.24-0.1-0.4-0.12-0.57c-0.02-0.29-0.03-0.56-0.15-0.85
			c-0.14-0.34-0.18-0.72-0.27-1.09c-0.01-0.05-0.02-0.12-0.05-0.16c-0.35-0.32-0.31-0.79-0.43-1.19c-0.16-0.53-0.33-1.07-0.49-1.6
			c-0.02-0.07-0.06-0.13-0.07-0.2c-0.03-0.33-0.07-0.38-0.42-0.41c-0.27-0.02-0.54,0-0.8-0.04c-0.56-0.08-1.12-0.19-1.69-0.29
			c-0.15-0.03-0.3-0.04-0.45-0.09c-0.19-0.06-0.37-0.13-0.54-0.22c-0.3-0.16-0.58-0.34-0.93-0.38c-0.32-0.04-0.62-0.16-0.94-0.2
			C9.8,8.93,9.49,8.97,9.17,8.95c-0.46-0.03-0.92-0.1-1.38-0.14C7.73,8.8,7.66,8.81,7.6,8.81c-0.48,0-0.96-0.01-1.47-0.01
			C6.15,8.67,6.16,8.6,6.17,8.52C6.06,8.61,5.97,8.73,5.85,8.76C5.72,8.8,5.54,8.8,5.43,8.74C5.27,8.65,5.15,8.49,5.04,8.35
			c-0.06-0.08-0.06-0.2-0.09-0.3C4.95,8.02,4.95,7.99,4.95,7.96z"/>
	</g>
</g>
</svg>
