<?xml version="1.0" encoding="utf-8"?>
<!-- Generator: Adobe Illustrator 25.4.1, SVG Export Plug-In . SVG Version: 6.00 Build 0)  -->
<svg version="1.1" id="Layer_1" xmlns="http://www.w3.org/2000/svg" xmlns:xlink="http://www.w3.org/1999/xlink" x="0px" y="0px"
	 viewBox="0 0 251.99 163" style="enable-background:new 0 0 251.99 163;" xml:space="preserve">
<g>
	<g>
		<g>
			<g>
				<path d="M0,44.66c0-0.01,0.01-0.02,0.01-0.03H0V44.66z"/>
			</g>
			<g>
				<path d="M135.91,21.52h-7.24c-0.68,0-1.23,0.55-1.23,1.23v95.29c0,0.48,0.39,0.86,0.86,0.86h7.98c0.48,0,0.86-0.39,0.86-0.86
					V22.75C137.14,22.07,136.59,21.52,135.91,21.52z"/>
			</g>
			<g>
				<path d="M191.6,16.88h10.69c0.29,0,0.55-0.2,0.62-0.48l4.08-15.59c0.11-0.41-0.2-0.81-0.62-0.81h-11.32
					c-0.3,0-0.56,0.21-0.63,0.5l-3.45,15.59C190.88,16.5,191.19,16.88,191.6,16.88z"/>
			</g>
			<g>
				<path d="M209.32,44.63c0.65,0,1.17-0.52,1.17-1.17V22.69c0-0.65-0.52-1.17-1.17-1.17H182.3c-0.48,0-0.87,0.39-0.87,0.87v95.65
					c0,0.48,0.39,0.87,0.87,0.87h26.89c0.72,0,1.3-0.58,1.3-1.3V97.1c0-0.72-0.58-1.3-1.3-1.3h-18.05V79.65h18.16
					c0.66,0,1.19-0.53,1.19-1.19V59.59c0-0.66-0.53-1.19-1.19-1.19h-18.16V44.63H209.32z"/>
			</g>
			<g>
				<path d="M124.32,21.52H93.17c-0.44,0-0.79,0.35-0.79,0.79v21.53c0,0.44,0.35,0.79,0.79,0.79l10.04,0c1.05,0,1.84,1.02,1.64,2.12
					l-0.85,4.77c-0.14,0.8-0.21,1.61-0.21,2.43v64.2c0,0.71,0.57,1.28,1.28,1.28h7.35c0.71,0,1.28-0.57,1.28-1.28v-64.2
					c0-0.81-0.07-1.63-0.21-2.43l-0.85-4.77c-0.2-1.1,0.59-2.12,1.64-2.12l10.05,0c0.44,0,0.79-0.35,0.79-0.79V22.31
					C125.11,21.87,124.76,21.52,124.32,21.52z"/>
			</g>
			<g>
				<path d="M87.86,22.88c-0.07-0.48-0.48-0.84-0.97-0.84H72.03c-0.49,0-0.9,0.36-0.97,0.84l-10.2,73.37V23.13
					c0-0.76-0.62-1.38-1.38-1.38H42.44c-0.72,0-1.32,0.55-1.38,1.27l-5.85,73.01h-3.79l-5.85-73.01c-0.06-0.72-0.66-1.27-1.38-1.27
					H7.14c-0.76,0-1.38,0.62-1.38,1.38v94.81c0,0.83,0.67,1.5,1.5,1.5h6.7c0.83,0,1.5-0.67,1.5-1.5V44.9v-0.03h0.01
					c0.02-0.61,0.48-1.1,1.06-1.1c0.58,0,1.04,0.49,1.06,1.1h0.01l5.8,72.85c0.08,0.98,0.9,1.73,1.88,1.73h16.05
					c0.98,0,1.8-0.76,1.88-1.73l5.82-72.73c0-0.03-0.02-0.05-0.02-0.08c0-0.63,0.48-1.14,1.06-1.14c0.58,0,1.04,0.49,1.06,1.1h0.03
					v72.83c0,0.95,0.77,1.73,1.73,1.73l13.82,0.03c0.65,0,1.21-0.48,1.3-1.13l1.49-12.21c0.07-0.52,0.06-1.04-0.03-1.55l-1.13-6.36
					c-0.2-1.1,0.59-2.12,1.64-2.12h18.96c1.05,0,1.84,1.02,1.64,2.12l-1.1,6.17c-0.11,0.59-0.12,1.19-0.03,1.79l1.7,12.29
					c0.08,0.56,0.56,0.98,1.12,0.98h7.72c0.69,0,1.22-0.61,1.12-1.29L87.86,22.88z M83.05,75.63h-7.38c-1.14,0-2.02-1.01-1.86-2.15
					l3.79-26.71c0.13-0.93,0.93-1.62,1.86-1.62c0.94,0,1.74,0.7,1.87,1.63l3.59,26.71C85.06,74.62,84.19,75.63,83.05,75.63z"/>
			</g>
			<g>
				<path d="M178.19,21.52h-7.46c-0.62,0-1.13,0.5-1.13,1.13v73.04c0,0.04-0.02,0.08-0.02,0.12c-0.06,0.75-0.67,1.35-1.44,1.35
					c-0.77,0-1.38-0.6-1.44-1.35h-0.02l-7.8-72.98c-0.08-0.74-0.7-1.3-1.44-1.3h-16.89c-0.8,0-1.45,0.65-1.45,1.45v94.71
					c0,0.68,0.55,1.23,1.23,1.23h7.24c0.68,0,1.23-0.55,1.23-1.23v-72.8c0,0,0,0,0-0.01c0-0.75,0.6-1.35,1.35-1.35
					c0.75,0,1.35,0.6,1.35,1.35c0,0.02-0.01,0.04-0.01,0.07l7.79,72.68c0.08,0.73,0.7,1.29,1.44,1.29h17.16
					c0.8,0,1.44-0.65,1.44-1.44V22.64C179.32,22.02,178.81,21.52,178.19,21.52z"/>
			</g>
		</g>
	</g>
	<g>
		<path d="M127.04,144.52c0.62,1.08,1.55,1.4,2.4,1.4c0.01,0,0.01,0,0.02,0c0.79,0,1.44-0.25,1.93-0.74
			c0.27-0.27,0.47-0.63,0.65-1.04c-0.15,0.41-0.22,0.83-0.22,1.28v0.39h5.86l0.12-0.76c0.48,0.52,1.21,0.88,2.26,0.88
			c1.35,0,2.17-0.52,2.64-1.24c-0.15,0.87-0.42,1.61-0.59,1.93l-0.3,0.57h1.74l0.12-0.17c0.53-0.76,0.92-2.07,0.98-3.26l0.02-0.4
			h-1.51c0.01-0.12,0.03-0.24,0.03-0.35c0-0.63-0.18-1.18-0.52-1.61c-0.21-0.27-0.28-0.64-0.11-0.93c0.17-0.29,0.3-0.66,0.3-1.15
			c0-1.5-1.07-2.47-2.73-2.47c-0.9,0-1.55,0.29-2.01,0.73c-0.34,0.32-0.85,0.35-1.19,0.02c-0.49-0.48-1.2-0.75-2.07-0.75
			c-0.93,0-1.66,0.29-2.17,0.84c-0.33,0.35-0.88,0.35-1.21,0c-0.5-0.54-1.18-0.83-2-0.83c-1.29,0-2.22,0.73-2.71,2.01
			c-0.24-1.24-1.26-2.01-2.74-2.01c-1.75,0-2.83,1.03-2.96,2.83l-0.03,0.41h1.82l0.04-0.34c0.13-1.04,0.52-1.25,1.09-1.25
			c0.8,0,0.92,0.6,0.92,0.95c0,0.69-0.27,0.94-1.29,1.77c-1.89,1.53-2.63,2.69-2.63,4.19v0.39h5.86L127.04,144.52z M137.61,139.75
			h1.43l0.07-0.3c0.14-0.67,0.43-0.95,0.98-0.95c0.58,0,0.87,0.29,0.87,0.88c0,0.5-0.18,0.83-1.07,0.83h-0.87v1.7h0.92
			c1.15,0,1.3,0.62,1.3,1.16c0,1.2-0.85,1.2-1.13,1.2c-0.67,0-1.03-0.32-1.15-1.02l-0.05-0.32h-1.87l0.04,0.42
			c0.02,0.25,0.08,0.5,0.16,0.74h-3.1c0.27-0.44,0.74-0.92,1.45-1.49C136.88,141.59,137.51,140.92,137.61,139.75z M132.45,140.09
			h1.23l0.04-0.34c0.13-1.04,0.52-1.25,1.09-1.25c0.8,0,0.92,0.6,0.92,0.95c0,0.69-0.27,0.94-1.29,1.77
			c-1.15,0.93-1.87,1.73-2.26,2.55c0.22-0.69,0.34-1.54,0.34-2.59C132.52,140.79,132.49,140.43,132.45,140.09z M129.47,138.53
			c0.98,0,1.13,1.68,1.13,2.68c0,2.68-0.61,3.02-1.14,3.02c-1.02,0-1.17-1.9-1.17-3.03C128.28,139.98,128.49,138.53,129.47,138.53z
			 M125.69,144.08h-2.39c0.27-0.44,0.74-0.92,1.45-1.49c0.76-0.6,1.29-1.07,1.62-1.6c0,0.08-0.01,0.14-0.01,0.22
			c0,0.73,0.06,1.34,0.17,1.87C126.65,143.6,126.23,144.08,125.69,144.08z"/>
		<path d="M149.6,145.92c1.12,0,2.01-0.39,2.62-1.09c-0.05,0.17-0.11,0.34-0.15,0.47l-0.17,0.51h1.74c0.12,0,0.23-0.08,0.27-0.2
			l0.61-1.96c0.04-0.12,0.14-0.2,0.27-0.2h1.95c0.12,0,0.23,0.08,0.27,0.19l0.65,1.97c0.04,0.11,0.14,0.19,0.27,0.19h1.81
			l-0.28-0.82c0.56,0.58,1.39,0.91,2.44,0.91c0.93,0,1.7-0.26,2.25-0.72c-0.01,0.04-0.03,0.09-0.04,0.12l-0.17,0.51h1.74
			c0.12,0,0.23-0.08,0.27-0.2l0.61-1.96c0.04-0.12,0.14-0.2,0.27-0.2h1.95c0.12,0,0.23,0.08,0.27,0.19l0.65,1.97
			c0.04,0.11,0.14,0.19,0.27,0.19h1.81l-2.91-8.65c-0.04-0.11-0.14-0.19-0.26-0.19h-1.78l-0.09,0.26c-0.28,0.82-0.83,2.55-1.36,4.23
			c-0.12,0.39-0.25,0.78-0.37,1.16c-0.2-1.11-1.02-1.8-2.72-2.31l0,0c-1.35-0.4-1.41-0.62-1.41-1.01c0-0.19,0-0.76,0.97-0.76
			c0.7,0,1.04,0.29,1.14,0.97l0.05,0.33h1.86l-0.03-0.41c-0.11-1.6-1.23-2.55-3-2.55c-1.74,0-2.9,1.02-2.9,2.53
			c0,1.53,1.06,2.16,2.64,2.63c1.38,0.42,1.52,0.72,1.52,1.28c0,0.77-0.62,0.93-1.15,0.93c-0.55,0-1.23-0.2-1.38-1.16l-0.05-0.33
			h-1.82l-1.88-5.59c-0.04-0.11-0.14-0.19-0.26-0.19h-1.78l-0.09,0.26c-0.28,0.82-0.83,2.55-1.36,4.23c-0.13,0.4-0.26,0.8-0.38,1.19
			h-1.71l-0.08,0.28c-0.25,0.9-0.7,1.29-1.5,1.29c-1.47,0-1.78-1.57-1.78-2.88c0-0.65,0.13-2.78,1.77-2.78
			c0.84,0,1.26,0.37,1.46,1.28l0.07,0.3h1.86l-0.05-0.43c-0.19-1.79-1.43-2.86-3.31-2.86c-2.28,0-3.75,1.76-3.75,4.49
			C145.91,144.29,147.22,145.92,149.6,145.92z M167.75,139.62c0.14,0.43,0.31,0.93,0.5,1.53l0.19,0.57h-1.35
			C167.34,140.93,167.56,140.23,167.75,139.62z M155.73,139.62c0.14,0.43,0.31,0.93,0.5,1.53l0.19,0.57h-1.35
			C155.32,140.93,155.54,140.23,155.73,139.62z"/>
		<path d="M195.11,145.8c2.13,0,3.57-1.24,4-3.3v0.06c0,2.22,1.11,3.35,3.31,3.35c1.49,0,2.5-0.55,2.99-1.61
			c0.17-0.36,0.65-0.4,0.84-0.05c0.48,0.85,1.22,1.4,2.2,1.59c2.04,0.39,3.95-1.16,4.32-3.2h-1.87l-0.08,0.28
			c-0.25,0.9-0.7,1.29-1.5,1.29c-1.47,0-1.78-1.57-1.78-2.88c0-0.65,0.13-2.78,1.77-2.78c0.84,0,1.26,0.37,1.46,1.28l0.07,0.3h1.86
			l-0.05-0.43c-0.04-0.38-0.14-0.72-0.27-1.03h1.66v7.12h1.9v-7.12h1.77c-0.45,0.78-0.67,1.71-0.67,2.65c0,2.83,1.45,4.59,3.78,4.59
			c2.08,0,3.47-1.34,3.79-3.56v3.44h1.88v-3.61h0.97c1.1,0,1.29,0.28,1.29,1.14v0.18c0,0.98,0.03,1.66,0.16,2.04l0.09,0.26h0.9h0.94
			h1l0.63-2.01c0.06-0.2,0.25-0.34,0.46-0.34h1.64c0.21,0,0.4,0.14,0.46,0.34l0.55,1.68c0.07,0.2,0.25,0.34,0.46,0.34h1.66
			l-2.87-8.51c-0.07-0.2-0.25-0.33-0.46-0.33h-1.63l-0.09,0.26c-0.28,0.82-0.83,2.55-1.36,4.23c-0.23,0.74-0.46,1.45-0.67,2.09
			c0-0.01,0-0.02,0-0.03v-0.16c0-0.92-0.25-1.58-0.75-2c0.57-0.42,0.89-1.08,0.89-1.9c0-1.53-1.09-2.48-2.86-2.48h-2.84
			c-0.27,0-0.49,0.22-0.49,0.49v2.88c-0.32-2.15-1.7-3.49-3.7-3.49c-1.15,0-2.01,0.43-2.63,1.07v-0.96h-6.57v0.73
			c-0.58-0.54-1.38-0.85-2.37-0.85c-1.85,0-3.15,1.17-3.58,3.07v-2.95h-1.92v5.52c0,1.25-0.39,1.74-1.41,1.74
			c-1,0-1.43-0.52-1.43-1.74v-5.52h-1.91v3.03c-0.42-1.87-1.85-3.03-3.88-3.03h-2.57c-0.27,0-0.49,0.22-0.49,0.49v2.88
			c-0.32-2.15-1.7-3.49-3.7-3.49c-1.32,0-2.28,0.55-2.91,1.38c-0.21,0.27-0.66,0.24-0.83-0.05c-0.44-0.76-1.33-1.21-2.52-1.21h-3.33
			v1.38c-0.47-0.86-1.43-1.38-2.73-1.38h-2.66c-0.27,0-0.49,0.22-0.49,0.49v8.36h1.91v-3.41h1.11c0.85,0,1.55-0.2,2.08-0.57
			c0.33-0.23,0.77-0.02,0.77,0.38v3.6h1.88v-3.61h0.97c1.1,0,1.29,0.28,1.29,1.14v0.18c0,0.98,0.03,1.66,0.16,2.04l0.09,0.26h1.84
			l-0.09-0.46c-0.1-0.49-0.11-1.28-0.11-1.83v-0.1c0.55,1.58,1.76,2.51,3.45,2.51c2.08,0,3.47-1.34,3.79-3.56v2.95
			c0,0.27,0.22,0.49,0.49,0.49H195.11z M233.77,139.62c0.14,0.43,0.31,0.93,0.5,1.53l0.19,0.57h-1.35
			C233.36,140.93,233.59,140.23,233.77,139.62z M226.51,138.65h1.29c0.98,0,1.09,0.5,1.09,0.87c0,0.62-0.22,0.99-1.32,0.99h-1.06
			V138.65z M220.89,138.55c1.65,0,1.9,1.75,1.9,2.79c0,1.07-0.25,2.87-1.89,2.87c-1.76,0-1.9-2.22-1.9-2.89
			C219,140.49,219.18,138.55,220.89,138.55z M194.08,138.66h1c1.42,0,2.24,0.94,2.24,2.57c0,1.92-0.76,2.89-2.25,2.89h-0.99V138.66z
			 M175.98,140.71h-1.06v-2.06H176c0.86,0,1.29,0.33,1.29,0.99C177.29,140.28,177.07,140.71,175.98,140.71z M181.83,140.5h-1.06
			v-1.85h1.29c0.98,0,1.09,0.5,1.09,0.87C183.16,140.14,182.94,140.5,181.83,140.5z M184.18,141.34c0.18-0.13,0.32-0.29,0.45-0.47
			c-0.01,0.15-0.03,0.3-0.03,0.46c0,0.22,0.02,0.42,0.04,0.62C184.52,141.71,184.38,141.5,184.18,141.34z M188.44,144.21
			c-1.76,0-1.9-2.22-1.9-2.89c0-0.83,0.18-2.77,1.89-2.77c1.65,0,1.9,1.75,1.9,2.79C190.33,142.41,190.08,144.21,188.44,144.21z"/>
		<path d="M107.71,159.13h3.61v-1.73h-3.61v-1.64h3.78v-1.72h-5.23c-0.23,0-0.42,0.19-0.42,0.42v2.83
			c-0.35-2.01-1.82-3.26-3.94-3.26h-2.63c-0.23,0-0.42,0.19-0.42,0.42v7.99c0,0.23,0.19,0.42,0.42,0.42h2.51
			c2.22,0,3.7-1.33,4.06-3.55v3.12c0,0.23,0.19,0.42,0.42,0.42h5.23l0.26-1.72h-4.03V159.13z M101.73,161.2h-0.99v-5.46h1
			c1.42,0,2.24,0.94,2.24,2.57C103.98,160.22,103.23,161.2,101.73,161.2z"/>
		<path d="M142.24,156.24c-0.13-1.36-1.18-2.2-2.83-2.2h-3.16h-0.17h-5.49v1.38c-0.47-0.86-1.43-1.38-2.73-1.38h-2.2h-0.95h-1.17
			l-1.05,1.74c-0.27,0.45-0.92,0.44-1.19-0.01l-1.02-1.73h-1.28h-0.91h-4.05c-0.38,0-0.69,0.31-0.69,0.69v7.46
			c0,0.38,0.31,0.69,0.69,0.69h3.97H119h1.14l1.1-1.88c0.27-0.46,0.92-0.46,1.19,0l1.11,1.89h1.18h1.01h0.89v-3.41h1.11
			c0.73,0,1.36-0.15,1.85-0.43c0.45-0.25,1,0.09,1,0.61v2.54c0,0.38,0.31,0.69,0.69,0.69h4.8h0.16h1.72v-3.61h0.97
			c1.1,0,1.29,0.28,1.29,1.14v0.18c0,0.98,0.03,1.66,0.16,2.04l0.09,0.26h1.76h0.09h1.81v-8.84h-1.9V156.24z M120.54,158.77
			l-1.27,2.07c-0.13,0.2-0.35,0.33-0.59,0.33h-3.45v-2.03h3.61v-1.73h-3.61v-1.64h3.78v-0.22l1.53,2.51
			C120.67,158.27,120.67,158.55,120.54,158.77z M124.72,161.2l-1.52-2.52c-0.13-0.22-0.13-0.5,0.01-0.72l1.51-2.41V161.2z
			 M127.68,157.79h-1.06v-2.06h1.08c0.86,0,1.29,0.33,1.29,0.99C128.99,157.36,128.77,157.79,127.68,157.79z M136.08,160.47
			c0,0.38-0.31,0.69-0.69,0.69h-2.93v-2.03h3.61v-1.73h-3.61v-1.64h2.93c0.38,0,0.69,0.31,0.69,0.69V160.47z M139.02,157.58h-1.06
			v-1.85h1.29c0.98,0,1.09,0.5,1.09,0.87C140.35,157.22,140.13,157.58,139.02,157.58z M142.24,162.44l0-0.02
			c-0.1-0.49-0.11-1.28-0.11-1.83v-0.16c0-0.92-0.25-1.58-0.75-2c0.51-0.37,0.8-0.94,0.86-1.64V162.44z"/>
		<path d="M175.13,157.37L175.13,157.37c-1.35-0.4-1.41-0.62-1.41-1.01c0-0.19,0-0.76,0.97-0.76c0.7,0,1.04,0.29,1.14,0.97
			l0.05,0.33h1.86l-0.03-0.41c-0.11-1.6-1.23-2.55-3-2.55c-1.74,0-2.9,1.02-2.9,2.53c0,1.53,1.06,2.16,2.64,2.63
			c1.38,0.42,1.52,0.72,1.52,1.28c0,0.77-0.62,0.93-1.15,0.93c-0.55,0-1.23-0.2-1.38-1.16l-0.05-0.33h-1.82l-1.95-5.78h-1.98
			l-0.09,0.26c-0.28,0.82-0.83,2.56-1.37,4.24c-0.26,0.82-0.52,1.63-0.74,2.31v-6.81h-1.9v1.71c-0.49-1.15-1.56-1.82-3.04-1.82
			c-1.98,0-3.35,1.34-3.67,3.48v-3.37h-1.83v3.43c0,0.66,0,1.33,0.02,1.97c-0.52-0.95-1.38-2.53-2.86-5.2l-0.11-0.2h-1.92h-0.17
			h-5.49v8.84h5.49h0.16h1.66v-3.45c0-0.77,0-1.53-0.01-2.22c0.51,0.96,1.39,2.59,2.95,5.47l0.11,0.2h1.99v-3.36
			c0.3,2.25,1.55,3.48,3.61,3.48c1.48,0,2.56-0.68,3.1-1.87v1.76h1.23h0.67h1.28l0.74-2.35h2.35l0.77,2.35h2.01l-0.28-0.82
			c0.56,0.58,1.39,0.91,2.44,0.91c1.9,0,3.13-1.07,3.13-2.73C177.89,158.8,177.09,157.97,175.13,157.37z M149.98,161.16h-3.62v-2.03
			h3.61v-1.73h-3.61v-1.64h3.62V161.16z M163.55,159.72h-1.49l-0.08,0.28c-0.25,0.9-0.7,1.29-1.5,1.29c-1.47,0-1.78-1.57-1.78-2.88
			c0-0.65,0.13-2.78,1.77-2.78c0.84,0,1.26,0.37,1.46,1.28l0.07,0.3h1.55V159.72z M167.96,158.8c0.25-0.79,0.48-1.48,0.66-2.09
			c0.14,0.43,0.31,0.93,0.5,1.53l0.19,0.57H167.96z"/>
		<path d="M104.7,142.48h0.95c0.6,0,0.81,0.14,0.81,0.74c0,0.28,0.04,1.02,0.11,1.23h1.16c-0.11-0.28-0.11-0.85-0.11-1.2
			c0-0.6-0.21-1.02-0.67-1.2c0.39-0.14,0.85-0.53,0.85-1.23c0-1.06-0.81-1.48-1.97-1.48h-2.22v5.11h1.09V142.48z M104.74,140.3h0.99
			c0.56,0,0.88,0.18,0.88,0.6c0,0.53-0.32,0.67-0.85,0.67h-1.02V140.3z"/>
		<path d="M105.58,147.27c2.99,0,5.04-2.22,5.04-5.28c0-2.89-1.97-5.18-5.04-5.18c-2.99,0-5,2.25-5,5.18
			C100.59,145.16,102.66,147.27,105.58,147.27z M105.55,137.91c2.32,0,3.8,1.83,3.8,4.12c0,2.43-1.3,4.08-3.77,4.08
			c-2.22,0-3.77-1.66-3.77-4.12C101.82,139.77,103.01,137.91,105.55,137.91z"/>
		<path d="M190.34,159.56c0,1.25-0.39,1.74-1.41,1.74c-1,0-1.43-0.52-1.43-1.74v-5.52h-1.91v5.61c0,0.21,0.02,0.4,0.04,0.6
			l-2.09-6.21h-1.98l-0.09,0.26c-0.28,0.82-0.83,2.56-1.37,4.24c-0.51,1.59-1,3.14-1.23,3.83l-0.17,0.51h1.94l0.74-2.35h2.35
			l0.77,2.35h2.01l-0.36-1.07c0.54,0.78,1.45,1.18,2.75,1.18c2.19,0,3.35-1.18,3.35-3.41v-5.55h-1.92V159.56z M181.87,158.8
			c0.25-0.79,0.48-1.48,0.66-2.09c0.14,0.43,0.31,0.93,0.5,1.53l0.19,0.57H181.87z"/>
		<path d="M249.22,157.37L249.22,157.37c-1.35-0.4-1.41-0.62-1.41-1.01c0-0.19,0-0.76,0.97-0.76c0.7,0,1.04,0.29,1.14,0.97
			l0.05,0.33h1.71v0h0.16c0.11-1.33-0.61-2.05-0.91-2.29l0,0.01c-0.52-0.44-1.24-0.68-2.12-0.68c-1.23,0-2.16,0.52-2.61,1.35v-1.24
			h-5.66v7.12h-3.28v-7.12h-1.9v6.75l-2.27-6.75h-1.98l-0.09,0.26c-0.28,0.82-0.83,2.56-1.37,4.24c-0.18,0.56-0.35,1.1-0.52,1.62
			c0.02-0.18,0.04-0.37,0.04-0.57v-5.55h-1.92v5.52c0,1.25-0.39,1.74-1.41,1.74c-1,0-1.43-0.52-1.43-1.74v-5.52h-1.91v1.76
			c-0.35-1.18-1.37-1.86-2.87-1.86c-1.64,0-2.76,0.91-2.88,2.29v-2.19h-1.11h-0.79h-1.19l-1.47,4.47c-0.17,0.52-0.34,1.05-0.5,1.54
			c-0.16-0.54-0.35-1.12-0.53-1.7l-1.35-4.3h-2.02l0.57,1.71c-0.64-1.15-1.74-1.83-3.15-1.83c-2.34,0-3.55,1.72-3.82,3.64v-3.52
			h-1.9v3.26c-0.35-2.01-1.82-3.26-3.94-3.26h-3.06v8.84h2.94c2.22,0,3.7-1.33,4.06-3.55v3.55h1.9v-3.58
			c0.28,2.3,1.65,3.69,3.72,3.69c2.38,0,3.86-1.76,3.86-4.59c0-0.37-0.03-0.72-0.09-1.05l1.83,5.53h1.9l2.23-6.53v6.53h1.9v-1.55
			c0.47,1.05,1.5,1.65,2.94,1.65c1.57,0,2.66-0.74,3-1.92c0.4,1.29,1.45,1.94,3.12,1.94c1.32,0,2.26-0.44,2.8-1.27
			c-0.08,0.25-0.16,0.47-0.21,0.64l-0.17,0.51h1.94l0.74-2.35h2.35l0.77,2.35h1.31h0.7h4.47h0.36h5.29l0.14-0.92
			c0.55,0.65,1.42,1.02,2.54,1.02c1.9,0,3.13-1.07,3.13-2.73C251.99,158.8,251.19,157.97,249.22,157.37z M195.41,161.2h-0.99v-5.46
			h1c1.42,0,2.24,0.94,2.24,2.57C197.66,160.22,196.91,161.2,195.41,161.2z M205.2,161.29c-1.76,0-1.9-2.22-1.9-2.89
			c0-0.83,0.18-2.77,1.89-2.77c1.65,0,1.9,1.75,1.9,2.79C207.08,159.49,206.84,161.29,205.2,161.29z M219.76,161.3
			c-0.55,0-1.23-0.2-1.38-1.16l-0.05-0.33h-1.56v-3.1c0.12,1.34,1.13,1.93,2.61,2.37c1.38,0.42,1.52,0.72,1.52,1.28
			C220.91,161.14,220.28,161.3,219.76,161.3z M222.52,158.94c-0.39-0.69-1.17-1.18-2.45-1.57l0,0c-1.35-0.4-1.41-0.62-1.41-1.01
			c0-0.19,0-0.76,0.97-0.76c0.7,0,1.04,0.29,1.14,0.97l0.05,0.33h1.7V158.94z M231.43,158.8c0.25-0.79,0.48-1.48,0.66-2.09
			c0.14,0.43,0.31,0.93,0.5,1.53l0.19,0.57H231.43z M248.91,161.3c-0.55,0-1.23-0.2-1.38-1.16l-0.05-0.33h-1.86l0.03,0.41
			c0.02,0.34,0.1,0.65,0.21,0.93h-3.45v-2.03h3.61v-1.73h-3.61v-1.64h3.59c-0.06,0.22-0.1,0.45-0.1,0.7c0,1.53,1.06,2.16,2.64,2.63
			c1.38,0.42,1.52,0.72,1.52,1.28C250.06,161.14,249.44,161.3,248.91,161.3z"/>
	</g>
</g>
</svg>
