<?xml version="1.0" encoding="utf-8"?>
<!-- Generator: Adobe Illustrator 25.4.1, SVG Export Plug-In . SVG Version: 6.00 Build 0)  -->
<svg version="1.1" id="Layer_1" xmlns="http://www.w3.org/2000/svg" xmlns:xlink="http://www.w3.org/1999/xlink" x="0px" y="0px"
	 viewBox="0 0 25 19" style="enable-background:new 0 0 25 19;" xml:space="preserve">
<path d="M12.57,10.26c-0.55,0-0.98-0.01-1.68-0.06c0.42,0.38,0.68,0.65,1.04,1l2.51,2.51H12.5L8.3,9.5l4.2-4.2h1.94l-2.51,2.51
	c-0.36,0.36-0.62,0.62-1.04,1c0.7-0.04,1.13-0.05,1.68-0.05h4.13v1.5H12.57z"/>
<g>
	<path d="M15.5,1.5c4.41,0,8,3.59,8,8s-3.59,8-8,8h-6c-4.41,0-8-3.59-8-8c0-4.41,3.59-8,8-8H15.5 M15.5,0h-6C4.25,0,0,4.25,0,9.5v0
		C0,14.75,4.25,19,9.5,19h6c5.25,0,9.5-4.25,9.5-9.5v0C25,4.25,20.75,0,15.5,0L15.5,0z"/>
</g>
</svg>
