<?xml version="1.0" encoding="utf-8"?>
<!-- Generator: Adobe Illustrator 25.4.1, SVG Export Plug-In . SVG Version: 6.00 Build 0)  -->
<svg version="1.1" id="Layer_1" xmlns="http://www.w3.org/2000/svg" xmlns:xlink="http://www.w3.org/1999/xlink" x="0px" y="0px"
	 viewBox="0 0 92.62 91.34" style="enable-background:new 0 0 92.62 91.34;" xml:space="preserve">
<g>
	<path d="M88.59,0C86.15,0,7.24,0.08,3.71,0.08c-3.39,0-3.63,0.72-3.63,3.17C0.08,10.44,0,22.25,0,30.21c0,3.07,1.45,3.15,4.28,3.15
		c0.16,0,13.77,0,20.63,0c2.56,0,4.77,0.29,4.77,3.26c0,3.2,0,49.26,0,52.13c0,2.5,0.19,2.6,1.88,2.6c2.09,0,27.1,0,29.95,0
		c1.12,0,1.45-0.6,1.45-2.46c0-14.32,0-50.35,0-53.08c0-1.99,0.52-2.37,2.84-2.37c8.45,0,18.29,0,22.79,0c3.8,0,4.04-0.39,4.04-3.5
		c0-1.64,0-23.94,0-25.58C92.62,1.53,92.08,0,88.59,0z M64.72,17.53c-0.07,1.04-0.68,1.96-1.32,2.78c-0.43,0.54-0.89,1.06-1.37,1.56
		c-3.68,3.8-8.81,6.19-14.09,6.5c-4.14,0.24-8.33-0.79-11.92-2.85c-2.56-1.47-8.06-4.55-8.1-7.91c-0.02-1.43,0.85-2.72,1.78-3.81
		c8.66-10.08,24.88-10.01,33.45,0.15C64,14.97,64.81,16.19,64.72,17.53z"/>
	<path d="M48.58,10.29c-0.94-0.34-1.9-0.41-2.83-0.27c-3.22,0.5-6.08,3.54-6.46,6.75c-0.49,4.21,3.62,7.92,7.72,7.53
		c3.2-0.31,6.19-2.63,6.79-5.88C54.46,14.86,51.83,11.47,48.58,10.29z"/>
</g>
</svg>
