<?xml version="1.0" encoding="utf-8"?>
<!-- Generator: Adobe Illustrator 25.4.1, SVG Export Plug-In . SVG Version: 6.00 Build 0)  -->
<svg version="1.1" id="Layer_1" xmlns="http://www.w3.org/2000/svg" xmlns:xlink="http://www.w3.org/1999/xlink" x="0px" y="0px"
	 viewBox="0 0 91.65 91.34" style="enable-background:new 0 0 91.65 91.34;" xml:space="preserve">
<path d="M79.12,45.55l0.05-1.23l4.89,0.19l0.05-1.23l4.93,0.2l0.05-1.23l2.47,0.1l0.1-2.47l-22.41-0.89l18.75-12.23l-1.34-2.07
	l-2.07,1.35L83.9,25l-4.13,2.7l-0.67-1.03L75,29.34l-0.68-1.04L70.19,31l-1.35-2.07l4.14-2.7l-0.67-1.03l4.1-2.67l-0.67-1.04
	l4.14-2.7l-0.67-1.04l2.07-1.35l-1.35-2.07L61.16,26.57l8.21-20.84l-2.3-0.9l-0.91,2.3l-1.15-0.45l-1.81,4.6l-1.15-0.45l-1.79,4.55
	l-1.15-0.45l-1.81,4.59l-2.3-0.9l1.81-4.59l-1.15-0.45L57.47,9l-1.15-0.45l1.81-4.59l-1.15-0.45l0.9-2.3l-2.3-0.9l-9.55,24.24
	L37.23,0l-2.32,0.83l0.84,2.32l-1.16,0.42l1.67,4.65l-1.16,0.42l1.65,4.61l-1.16,0.42l1.67,4.65l-2.32,0.84l-1.67-4.65l-1.16,0.42
	l-1.65-4.61l-1.16,0.42l-1.67-4.65L26.45,6.5l-0.84-2.33L23.3,5.01l7.59,21.15L12.45,13.34l-1.41,2.03l2.03,1.41l-0.7,1.01
	l4.05,2.82l-0.7,1.01l4.02,2.79l-0.7,1.01l4.05,2.82l-1.41,2.03l-4.06-2.82l-0.7,1.01l-4.02-2.79l-0.7,1.01l-4.06-2.82l-0.7,1.01
	l-2.03-1.41L4,25.5L22.5,38.35L0,38.61l0.03,2.47l2.47-0.03l0.01,1.23l4.94-0.06l0.02,1.23l4.89-0.06l0.01,1.23l4.94-0.06l0.03,2.47
	l-4.94,0.06l0.01,1.23l-4.89,0.06l0.01,1.23L2.6,49.68l0.02,1.23l-2.47,0.03l0.03,2.47l22.42-0.26L4.46,66.37l1.45,2l2-1.45l0.73,1
	L12.62,65l0.73,1l3.96-2.88l0.73,1l3.99-2.91l1.45,2l-3.99,2.91l0.73,1l-3.95,2.88l0.73,1l-3.99,2.91l0.73,1l-2,1.45l1.45,2
	l18.21-13.26l-7.16,21.34l2.34,0.78l0.78-2.34l1.17,0.39l1.57-4.68l1.17,0.39l1.56-4.64l1.17,0.39l1.57-4.68l2.34,0.78l-1.57,4.68
	l1.17,0.39l-1.56,4.64l1.17,0.39l-1.57,4.68l1.17,0.39l-0.78,2.34l2.34,0.78l7.12-21.23l6.51,21.43l2.36-0.72l-0.72-2.36l1.18-0.36
	l-1.44-4.73l1.18-0.36l-1.42-4.68l1.18-0.36l-1.44-4.73l2.36-0.72l1.44,4.72l1.18-0.36l1.42,4.68l1.18-0.36l1.43,4.73l1.18-0.36
	l0.72,2.37l2.36-0.72l-6.56-21.58l17.85,13.79l1.51-1.96l-1.95-1.51l0.76-0.98l-3.91-3.02l0.75-0.98l-3.87-2.99l0.75-0.98
	l-3.91-3.02l1.51-1.96l3.91,3.02l0.75-0.98l3.87,2.99l0.75-0.98l3.91,3.02l0.76-0.98l1.95,1.51l1.51-1.95L68.64,53.78l22.42,0.89
	l0.1-2.47l-2.47-0.1l0.05-1.23l-4.93-0.19l0.05-1.23l-4.89-0.19l0.05-1.23l-4.94-0.2l0.1-2.47L79.12,45.55z M69.15,47.63l-0.05,1.23
	l4.94,0.2l-0.05,1.23l4.93,0.2l-0.05,1.23l-13.6-0.54l-4.19-3.24l-1.51,1.95l1.44,1.11l-1.84-0.07l-0.1,2.47l5.31,0.21l10.79,8.34
	l-0.76,0.98l-3.91-3.02l-0.75,0.98l-3.91-3.02l-0.75,0.98l-3.84-2.96l-1.51,1.96l3.83,2.96l-0.75,0.98l3.91,3.02l-0.75,0.98
	l3.91,3.02l-0.76,0.98l-10.86-8.39l-1.51-4.97l-2.36,0.72l0.5,1.65l-1.36-1.05l-1.51,1.95l4.11,3.18l3.99,13.13l-1.18,0.36
	l-1.44-4.73l-1.18,0.36l-1.44-4.73l-1.18,0.36l-1.41-4.64l-2.36,0.72l1.41,4.64l-1.18,0.36l1.44,4.72l-1.18,0.36l1.44,4.73
	l-1.18,0.36l-3.94-12.98l1.7-5.07l-2.34-0.78l-0.6,1.78l-0.55-1.8l-2.36,0.72l1.56,5.12l-4.31,12.86l-1.17-0.39l1.57-4.68
	l-1.17-0.39l1.57-4.68l-1.17-0.39L41,63.56l-2.34-0.78l-1.54,4.59l-1.17-0.39l-1.57,4.68l-1.17-0.39l-1.57,4.68l-1.17-0.39
	l4.35-12.97l4.23-3.08l-1.45-2l-1.42,1.04l0.56-1.67l-2.34-0.78l-1.66,4.96l-11.07,8.06l-0.73-1l3.99-2.91l-0.73-1l3.99-2.91
	l-0.73-1l3.92-2.86l-1.45-2l-3.92,2.85l-0.73-1l-3.99,2.91l-0.73-1l-3.99,2.91l-0.73-1l11-8.01l5.31-0.06l-0.03-2.47L30.3,50.6
	l1.49-1.08l-1.45-2l-4.3,3.13l-13.6,0.16l-0.02-1.24l4.94-0.06l-0.01-1.23l4.94-0.06l-0.01-1.23l4.85-0.05l-0.03-2.47l-4.84,0.06
	l-0.01-1.23l-4.94,0.06l-0.01-1.24l-4.94,0.06l-0.01-1.23l13.67-0.16l4.3,2.99l1.41-2.03l-1.46-1.01l1.78-0.02L32,38.24l-5.24,0.06
	l-11.24-7.81l0.7-1.01l4.06,2.82l0.7-1.02l4.06,2.82l0.7-1.02l3.98,2.77l1.41-2.03l-3.98-2.77l0.7-1.01l-4.05-2.82l0.7-1.01
	l-4.06-2.82l0.7-1.01l11.18,7.77l1.79,4.98l2.32-0.84l-0.62-1.72l1.51,1.05l1.41-2.02l-4.35-3.03l-4.61-12.83l1.17-0.42l1.67,4.65
	l1.16-0.42l1.67,4.65l1.16-0.42l1.64,4.56l2.32-0.83l-1.64-4.56l1.16-0.42l-1.67-4.65l1.16-0.42l-1.67-4.65l1.16-0.42l5.6,15.61
	l-0.81,2.06l1.8,0.71l0.06,0.17l0.2-0.07l0.24,0.09l0.08-0.21l1.81-0.65l-0.74-2.06l6.08-15.42l1.15,0.45l-1.81,4.59l1.15,0.45
	l-1.81,4.59l1.15,0.45l-1.78,4.51l2.3,0.9l1.78-4.51l1.15,0.45l1.81-4.59l1.15,0.45l1.81-4.59l1.15,0.45L57.6,28.9l-4.48,2.92
	l1.35,2.07l1.57-1.03l-0.69,1.74l2.3,0.9l1.96-4.97l11.36-7.41l0.67,1.03l-4.14,2.7l0.67,1.03l-4.14,2.7l0.67,1.04l-4.05,2.65
	L62,36.34l4.06-2.65l0.67,1.03l4.13-2.69l0.68,1.04l4.13-2.7l0.67,1.03l-11.37,7.41l-5.31-0.21l-0.1,2.47l1.84,0.07l-1.56,1.02
	l1.35,2.07l4.48-2.92l13.59,0.54l-0.05,1.23l-4.94-0.2l-0.05,1.23l-4.93-0.2l-0.05,1.23l-4.84-0.19l-0.1,2.47L69.15,47.63z"/>
</svg>
