<?xml version="1.0" encoding="utf-8"?>
<!-- Generator: Adobe Illustrator 25.4.1, SVG Export Plug-In . SVG Version: 6.00 Build 0)  -->
<svg version="1.1" id="Layer_1" xmlns="http://www.w3.org/2000/svg" xmlns:xlink="http://www.w3.org/1999/xlink" x="0px" y="0px"
	 viewBox="0 0 76.71 56.22" style="enable-background:new 0 0 76.71 56.22;" xml:space="preserve">
<style type="text/css" >
	* {
		fill: #FFFFFF 
	}
</style>
<g>
	<g>
		<path d="M0.06,52.28c0-2.1,2.71-2.57,2.71-3.69c0-0.39-0.29-0.69-0.75-0.69c-0.47,0-0.79,0.31-0.8,0.73H0
			c0.01-1.1,0.86-1.75,2.02-1.75c1.14,0,1.94,0.63,1.94,1.61c0,1.53-2.07,2.09-2.57,3.16h2.65v1.06H0.06V52.28z"/>
	</g>
	<g>
		<path d="M75.51,47.01h1.2v5.7h-1.25v-3.78h-1.11v-0.94h0.54c0.4,0,0.61-0.11,0.61-0.64V47.01z"/>
	</g>
	<g>
		<path d="M71.93,37.47c1.41,0,2.22,0.94,2.22,2.97c0,2.07-0.93,2.97-2.24,2.97c-1.15,0-1.87-0.71-1.91-1.75h1.25
			c0.03,0.44,0.29,0.73,0.73,0.73c0.59,0,0.95-0.54,0.95-1.95c0-0.02,0-0.05,0-0.07c-0.25,0.55-0.74,0.86-1.36,0.86
			c-0.97,0-1.67-0.68-1.67-1.86C69.9,38.25,70.66,37.47,71.93,37.47z M71.98,40.27c0.5,0,0.83-0.37,0.83-0.89
			c0-0.53-0.33-0.89-0.83-0.89c-0.51,0-0.84,0.36-0.84,0.89C71.14,39.91,71.46,40.27,71.98,40.27z"/>
	</g>
	<g>
		<path d="M65.7,28.74c0-0.77,0.41-1.3,1.07-1.56c-0.54-0.23-0.85-0.67-0.85-1.22c0-0.87,0.75-1.44,1.88-1.44
			c1.12,0,1.88,0.57,1.88,1.44c0,0.55-0.33,0.99-0.86,1.22c0.67,0.25,1.07,0.78,1.07,1.56c0,1.11-0.85,1.73-2.1,1.73
			C66.54,30.47,65.7,29.86,65.7,28.74z M68.65,28.68c0-0.51-0.38-0.77-0.86-0.77c-0.48,0-0.86,0.26-0.86,0.77
			c0,0.5,0.38,0.77,0.86,0.77C68.27,29.45,68.65,29.18,68.65,28.68z M68.51,26.22c0-0.45-0.32-0.67-0.72-0.67
			c-0.41,0-0.72,0.23-0.72,0.67c0,0.44,0.31,0.68,0.72,0.68C68.2,26.89,68.51,26.66,68.51,26.22z"/>
	</g>
	<g>
		<circle cx="6.69" cy="53.89" r="2.33"/>
	</g>
	<g>
		<path d="M6.67,43.42c-1.24,0-2.12-0.65-2.13-1.78h1.25C5.8,42.1,6.13,42.4,6.67,42.4c0.51,0,0.87-0.31,0.87-0.79
			c0-0.48-0.35-0.76-0.91-0.76H6.19v-1.01h0.49c0.43,0,0.75-0.27,0.75-0.69c0-0.4-0.31-0.66-0.75-0.66c-0.46,0-0.79,0.28-0.8,0.73
			H4.62c0-1.05,0.85-1.75,2.05-1.75c1.14,0,1.91,0.56,1.91,1.45c0,0.55-0.37,0.96-0.95,1.16c0.72,0.22,1.15,0.75,1.15,1.57
			C8.78,42.77,7.91,43.42,6.67,43.42z"/>
	</g>
	<g>
		<circle cx="11.2" cy="44.48" r="2.33"/>
	</g>
	<g>
		<path d="M12.84,28.46h0.81v1h-0.81v0.89h-1.18v-0.89H9.13v-0.88l2.14-3.93h1.57V28.46z M11.66,27.07c0-0.38,0-0.78,0.01-1.15
			c-0.14,0.3-0.32,0.64-0.51,1l-0.33,0.59c-0.2,0.36-0.39,0.69-0.58,0.98c0.33-0.03,0.65-0.03,1.02-0.03h0.38V27.07z"/>
	</g>
	<g>
		<circle cx="15.72" cy="31.53" r="2.33"/>
	</g>
	<g>
		<path d="M20.37,17.44l0.34-3.39h3.23v1.06h-2.21l-0.07,0.69c-0.03,0.38-0.07,0.62-0.1,0.8c0.28-0.36,0.67-0.52,1.16-0.52
			c0.91,0,1.62,0.69,1.62,1.87c0,1.16-0.93,1.92-2.12,1.92c-1.16,0-2.05-0.55-2.08-1.75h1.25c0.01,0.49,0.37,0.73,0.82,0.73
			c0.52,0,0.87-0.38,0.87-0.9c0-0.53-0.35-0.92-0.87-0.92c-0.33,0-0.55,0.14-0.73,0.41H20.37z"/>
	</g>
	<g>
		<path d="M58.48,15.04c-0.31,0.02-0.67,0.03-1.01,0.03h-1.7v-1.02h3.75v1.14c-1.01,1.33-1.44,2.83-1.53,4.56h-1.29
			C56.82,18.11,57.41,16.44,58.48,15.04z"/>
	</g>
	<g>
		<circle cx="25.97" cy="20.94" r="2.33"/>
	</g>
	<g>
		<path d="M34.46,15.23c-1.42,0-2.23-0.95-2.23-2.97c0-2.07,0.93-2.97,2.25-2.97c1.14,0,1.87,0.71,1.91,1.75h-1.25
			c-0.02-0.45-0.28-0.73-0.73-0.73c-0.59,0-0.95,0.54-0.95,1.95c0,0.02,0,0.05,0,0.07c0.26-0.56,0.75-0.87,1.37-0.87
			c0.97,0,1.67,0.68,1.67,1.85C36.49,14.45,35.73,15.23,34.46,15.23z M34.41,12.43c-0.51,0-0.84,0.37-0.84,0.89
			c0,0.53,0.33,0.9,0.84,0.9c0.5,0,0.83-0.37,0.83-0.9C35.25,12.79,34.92,12.43,34.41,12.43z"/>
	</g>
	<g>
		<circle cx="39.25" cy="17.43" r="2.33"/>
	</g>
	<g>
		<circle cx="71.82" cy="53.89" r="2.33"/>
	</g>
	<g>
		<circle cx="67.31" cy="44.48" r="2.33"/>
	</g>
	<g>
		<circle cx="62.79" cy="31.53" r="2.33"/>
	</g>
	<g>
		<circle cx="52.54" cy="20.94" r="2.33"/>
	</g>
	<g>
		<rect x="11.2" y="43.88" width="56.1" height="1.19"/>
	</g>
	<g>
		<path d="M19.64,39.56c-0.04,0-0.09,0-0.14-0.02c-0.32-0.07-0.52-0.4-0.44-0.72c2-8.51,10.7-14.69,20.67-14.69
			c0.33,0,0.6,0.27,0.6,0.6s-0.27,0.6-0.6,0.6c-9.43,0-17.63,5.79-19.51,13.77C20.15,39.37,19.91,39.56,19.64,39.56z"/>
	</g>
	<g>
		<path d="M39.26,18.02c-0.33,0-0.6-0.27-0.6-0.6V7.07c0-0.33,0.27-0.6,0.6-0.6c0.33,0,0.6,0.27,0.6,0.6v10.36
			C39.85,17.76,39.58,18.02,39.26,18.02z"/>
	</g>
	<g>
		<path d="M43.49,7.66h-8.47c-2.11,0-3.83-1.72-3.83-3.83S32.91,0,35.02,0h8.47c2.11,0,3.83,1.72,3.83,3.83S45.61,7.66,43.49,7.66z
			 M35.02,1.19c-1.46,0-2.64,1.18-2.64,2.64s1.18,2.64,2.64,2.64h8.47c1.46,0,2.64-1.18,2.64-2.64s-1.19-2.64-2.64-2.64H35.02z"/>
	</g>
	<g>
		<path d="M71.82,54.49c-0.22,0-0.43-0.13-0.54-0.34l-4.51-9.42c-0.14-0.3-0.02-0.65,0.28-0.8c0.3-0.14,0.65-0.01,0.8,0.28
			l4.51,9.42c0.14,0.3,0.02,0.65-0.28,0.8C72,54.47,71.91,54.49,71.82,54.49z"/>
	</g>
	<g>
		<g>
			<path d="M5.59,55.61c-0.02-0.12-0.06-0.24-0.06-0.36c-0.01-0.42,0.21-0.77,0.37-1.14c0.33-0.8,0.61-1.62,0.91-2.43
				c0.12-0.33,0.23-0.67,0.35-1c0.14-0.4,0.32-0.8,0.41-1.21c0.18-0.86,0.64-1.59,1.01-2.37c0.2-0.41,0.39-0.83,0.59-1.24
				c0.11-0.23,0.33-0.31,0.53-0.21c0.16,0.08,0.22,0.35,0.11,0.54c-0.36,0.62-0.74,1.24-1.06,1.88c-0.16,0.32-0.22,0.69-0.33,1.03
				c-0.02,0.05-0.03,0.1-0.04,0.15c-0.26,0.61-0.53,1.22-0.77,1.83c-0.15,0.38-0.3,0.74-0.38,1.15c-0.08,0.42-0.28,0.82-0.44,1.22
				c-0.03,0.07-0.12,0.11-0.18,0.16c0.01,0.02,0.01,0.05,0.02,0.07c0.14-0.01,0.28-0.02,0.42-0.03c0.01,0,0.03,0.02,0.02,0.08
				c0.21,0,0.43,0,0.64,0c0-0.02,0-0.04,0-0.06c-0.12-0.01-0.24-0.02-0.36-0.03c0-0.01,0-0.03,0-0.04c0.14,0,0.29,0,0.43,0
				c0.22,0,0.44,0,0.66-0.02c0.25-0.02,0.48-0.03,0.74,0.08c0.23,0.1,0.53,0.03,0.8,0.04c0.95,0.03,1.9,0.07,2.86,0.11
				c0.5,0.02,1,0.03,1.51,0.05c0.81,0.04,1.62,0.1,2.43,0.15c0.17,0.01,0.34,0,0.51,0.01c0.63,0.02,1.26,0.06,1.88,0.06
				c0.57,0,1.13-0.03,1.7-0.05c0.38-0.01,0.75,0,1.13-0.01c0.79-0.03,1.58-0.04,2.36-0.11c0.71-0.06,1.42-0.23,2.13-0.28
				c0.63-0.04,1.26-0.03,1.89,0.14c0.42,0.12,0.85,0.19,1.29,0.25c0.82,0.11,1.63,0.21,2.45,0.31c0.53,0.06,1.06,0.11,1.59,0.18
				c0.54,0.07,1.08,0.14,1.62,0.22c0.17,0.02,0.35,0.07,0.52,0.08c0.72,0.02,1.44,0.01,2.16,0.03c0.56,0.02,1.13,0.1,1.69,0.09
				c1.08-0.02,2.15-0.1,3.23-0.15c0.6-0.03,1.2-0.11,1.79-0.1c0.77,0.01,1.54,0.12,2.31,0.14c0.55,0.01,1.1-0.04,1.65-0.07
				c0.18-0.01,0.36-0.05,0.55-0.07c0.64-0.07,1.29-0.12,1.93-0.22c0.85-0.13,1.7-0.2,2.56-0.21c0.8-0.01,1.6-0.09,2.41-0.09
				c0.77,0,1.55,0.06,2.32,0.09c0.51,0.01,1.02,0.01,1.53,0.01c0.72,0,1.44,0,2.15,0c0.42,0,0.85-0.02,1.27-0.03
				c0.47-0.01,0.95,0,1.42-0.03c0.24-0.01,0.52,0.04,0.7-0.2c0.01-0.01,0.03-0.01,0.05-0.01c0.72,0,1.43,0.01,2.15-0.01
				c0.6-0.01,1.19,0.01,1.79-0.12c0.6-0.13,1.25-0.08,1.87-0.06c0.46,0.01,0.91,0.11,1.37,0.12c0.42,0.01,0.76,0.19,1.06,0.36
				c0.05,0.21,0.08,0.37,0.13,0.56c-0.26-0.02-0.51-0.04-0.76-0.07c-0.5-0.06-1-0.11-1.49-0.21c-0.93-0.2-1.83-0.04-2.74,0.17
				c-0.33,0.08-0.69,0.04-1.04,0.05c-0.59,0.01-1.19-0.01-1.78,0.01c-0.64,0.02-1.29,0.08-1.93,0.09c-1.25,0.03-2.51,0.06-3.76,0.06
				c-0.51,0-1.01-0.09-1.52-0.14c-0.09-0.01-0.18-0.01-0.27-0.01c-0.59-0.01-1.19-0.05-1.78-0.03c-0.8,0.02-1.6,0.09-2.4,0.13
				c-0.65,0.03-1.31,0.06-1.96,0.06c-0.81,0-1.6,0.15-2.4,0.29c-0.54,0.1-1.09,0.14-1.64,0.19c-0.54,0.05-1.09,0.05-1.64,0.12
				c-0.47,0.06-0.9-0.14-1.35-0.19c-0.25-0.02-0.5-0.05-0.75-0.05c-0.76,0.01-1.51,0.04-2.27,0.07c-0.84,0.03-1.68,0.08-2.52,0.1
				c-0.43,0.01-0.86,0-1.29,0c-0.31,0-0.63,0.02-0.94,0c-1.19-0.08-2.39-0.17-3.58-0.26c-0.87-0.07-1.74-0.13-2.6-0.23
				c-0.75-0.09-1.49-0.22-2.23-0.35c-1.16-0.21-2.31-0.34-3.49-0.22c-0.67,0.07-1.34,0.17-2.01,0.25c-0.27,0.03-0.55,0.06-0.82,0.06
				c-0.99,0.02-1.98,0.05-2.97,0.03c-0.52-0.01-1.03-0.08-1.55-0.15c-0.73-0.1-1.46-0.06-2.19-0.03c-0.77,0.03-1.53,0.04-2.3,0.02
				c-0.83-0.02-1.65-0.1-2.48-0.14c-0.7-0.03-1.4-0.04-2.1-0.06c-0.57-0.02-1.14-0.04-1.72-0.05c-0.45-0.01-0.86,0.13-1.26,0.32
				c-0.07,0.03-0.13,0.11-0.17,0.19c-0.11,0.25-0.21,0.51-0.32,0.77C5.81,55.61,5.7,55.61,5.59,55.61z"/>
		</g>
		<g>
			<path d="M26.85,20.26c0.03-0.04,0.05-0.12,0.1-0.15c0.95-0.66,1.88-1.37,3.05-1.64c0.36-0.08,0.69-0.27,1.05-0.37
				c0.52-0.16,1.06-0.27,1.58-0.43c0.62-0.2,1.23-0.43,1.84-0.65c0.42-0.15,0.84-0.29,1.31-0.32c0.5-0.03,0.99-0.17,1.49-0.27
				c0.44-0.08,0.87-0.17,1.31-0.23c0.08-0.01,0.24,0.07,0.24,0.11c0,0.16,0.11,0.37-0.12,0.47c-0.5,0.22-0.97,0.48-1.53,0.53
				c-0.67,0.06-1.35,0.17-2.01,0.32c-0.51,0.12-0.99,0.35-1.49,0.5c-0.62,0.18-1.24,0.33-1.86,0.51c-0.26,0.08-0.49,0.22-0.75,0.31
				c-0.43,0.14-0.9,0.19-1.3,0.38c-0.74,0.36-1.43,0.79-2.15,1.2c-0.27,0.15-0.53,0.31-0.79,0.47c-1.19,0.69-2.38,1.39-3.57,2.08
				c-0.58,0.33-1.17,0.62-1.75,0.94c-0.17,0.1-0.32,0.24-0.48,0.37c-0.52,0.42-1.07,0.81-1.55,1.27c-0.69,0.65-1.35,1.32-1.98,2.02
				c-0.35,0.39-0.61,0.88-0.9,1.32c-0.21,0.33-0.42,0.66-0.62,1c-0.37,0.62-0.73,1.24-0.94,1.95c-0.13,0.44-0.45,0.82-0.69,1.23
				c-0.13,0.22-0.28,0.44-0.4,0.67c-0.22,0.43-0.45,0.85-0.62,1.3c-0.15,0.39-0.24,0.81-0.34,1.22c-0.07,0.26-0.12,0.53-0.16,0.79
				c-0.06,0.33-0.17,0.68-0.14,1c0.03,0.29-0.21,0.41-0.24,0.63c-0.09,0.57-0.2,1.14-0.31,1.72c-0.02,0.12-0.04,0.21-0.16,0.31
				c-0.12,0.1-0.08,0.38-0.1,0.59c-0.01,0.06,0.04,0.12,0.04,0.17c-0.11,0.6-0.19,1.2-0.34,1.79c-0.11,0.45-0.14,0.89-0.15,1.35
				c0,0.17-0.14,0.33-0.2,0.51c-0.04,0.13-0.06,0.27-0.07,0.41c-0.02,0.44-0.02,0.88-0.03,1.32c0,0.15-0.04,0.27-0.22,0.26
				c-0.17,0-0.27-0.08-0.26-0.28c0.03-0.62,0.01-1.23,0.07-1.85c0.04-0.41,0.16-0.81,0.28-1.21c0.2-0.7,0.19-1.42,0.29-2.13
				c0.03-0.2,0.07-0.39,0.11-0.59c0.16-0.9,0.27-1.81,0.5-2.69c0.1-0.39,0.16-0.8,0.29-1.19c0.18-0.56,0.3-1.13,0.33-1.72
				c0.02-0.26,0.02-0.57,0.16-0.75c0.26-0.33,0.37-0.72,0.56-1.08c0.33-0.62,0.66-1.24,0.99-1.85c0.01-0.02,0.02-0.05,0.04-0.07
				c0.35-0.39,0.44-0.89,0.65-1.34c0.21-0.45,0.5-0.86,0.75-1.29c0.23-0.39,0.51-0.76,0.7-1.17c0.24-0.52,0.62-0.91,1.01-1.31
				c0.36-0.36,0.7-0.73,1.07-1.08c0.57-0.53,1.13-1.06,1.73-1.55c0.47-0.38,0.97-0.73,1.49-1.03c1-0.56,2.03-1.07,3.04-1.62
				c0.53-0.29,1.05-0.61,1.57-0.91C26.48,20.41,26.67,20.34,26.85,20.26z"/>
		</g>
		<g>
			<path d="M53.17,21.67c0.07-0.08,0.12-0.14,0.16-0.19c-0.07-0.02-0.14-0.05-0.21-0.07c-0.06-0.01-0.14,0.01-0.2-0.02
				c-0.53-0.3-1.06-0.62-1.63-0.95c0.11-0.07,0.18-0.1,0.28-0.16c-0.07-0.03-0.12-0.07-0.16-0.07c-0.61,0.07-1.07-0.25-1.54-0.58
				c-0.47-0.33-0.99-0.59-1.49-0.87c-0.37-0.2-0.79-0.22-1.21-0.27c-0.71-0.08-1.41-0.23-2.12-0.34c-0.23-0.04-0.47-0.12-0.7-0.1
				c-0.54,0.03-0.97-0.26-1.45-0.42c-0.51-0.17-1.02-0.26-1.55-0.28c-0.28-0.01-0.55-0.06-0.83-0.06c-0.39,0-0.78,0.05-1.17,0.05
				c-0.1,0-0.27-0.07-0.29-0.14c-0.04-0.15-0.08-0.38,0.14-0.42c0.34-0.07,0.69-0.11,1.04-0.12c0.38-0.01,0.77,0.03,1.15,0.04
				c0.81,0.02,1.55,0.31,2.31,0.54c0.32,0.1,0.67,0.11,1.01,0.17c0.27,0.05,0.54,0.12,0.82,0.17c0.55,0.11,1.09,0.18,1.66,0.17
				c0.47-0.01,0.99,0.18,1.42,0.39c0.82,0.41,1.59,0.91,2.4,1.36c0.54,0.3,1.12,0.54,1.63,0.88c0.83,0.54,1.68,1.05,2.4,1.74
				c0.58,0.55,1.2,1.05,1.82,1.56c0.35,0.29,0.74,0.54,1.09,0.84c0.27,0.23,0.5,0.52,0.74,0.78c0.17,0.18,0.33,0.36,0.49,0.54
				c0.89,1.01,1.76,2.05,2.68,3.04c0.78,0.85,1.33,1.85,1.95,2.8c0.14,0.22,0.19,0.5,0.3,0.75c0.25,0.58,0.5,1.16,0.76,1.74
				c0.13,0.29,0.27,0.57,0.41,0.85c0.18,0.39,0.36,0.78,0.55,1.16c0.36,0.75,0.72,1.5,1.1,2.24c0.34,0.68,0.72,1.35,1.04,2.04
				c0.22,0.46,0.42,0.93,0.55,1.42c0.2,0.76,0.33,1.53,0.5,2.3c0.09,0.41,0.23,0.8,0.34,1.2c0.05,0.19-0.15,0.61-0.34,0.65
				c-0.09,0.02-0.26-0.06-0.29-0.14c-0.17-0.39-0.31-0.8-0.46-1.21c-0.01-0.03-0.05-0.08-0.03-0.09c0.2-0.27,0-0.51-0.04-0.77
				c-0.02-0.13-0.09-0.27-0.06-0.39c0.16-0.59-0.16-1.05-0.36-1.55c-0.33-0.82-0.65-1.64-0.99-2.45c-0.08-0.19-0.21-0.37-0.3-0.55
				c-0.22-0.46-0.43-0.94-0.66-1.4c-0.1-0.2-0.24-0.38-0.34-0.58c-0.33-0.69-0.64-1.38-0.96-2.07c-0.18-0.38-0.4-0.75-0.57-1.14
				c-0.12-0.27-0.17-0.57-0.26-0.85c-0.06-0.18-0.11-0.37-0.21-0.53c-0.27-0.43-0.55-0.86-0.83-1.28c-0.18-0.28-0.37-0.55-0.57-0.82
				c-0.29-0.39-0.58-0.78-0.88-1.16c-0.12-0.15-0.26-0.28-0.39-0.43c-0.42-0.48-0.85-0.97-1.27-1.45c-0.08-0.09-0.16-0.18-0.25-0.27
				c-0.37-0.38-0.73-0.77-1.13-1.13c-0.51-0.46-1.05-0.87-1.56-1.33c-0.39-0.35-0.74-0.75-1.11-1.12c-0.17-0.17-0.36-0.32-0.55-0.47
				c-0.16-0.13-0.31-0.26-0.48-0.37c-0.39-0.25-0.79-0.49-1.18-0.73C53.25,21.73,53.21,21.69,53.17,21.67z"/>
		</g>
	</g>
</g>
</svg>
