<svg width="140" height="37" viewBox="0 0 140 37" fill="none" xmlns="http://www.w3.org/2000/svg">
<path d="M68.667 0.117188H72.0913V36.4178H68.667V0.117188Z" fill="white"/>
<path d="M106.401 0.117188C106.612 0.482277 106.735 0.891347 106.761 1.31217C106.787 1.733 106.715 2.15414 106.551 2.54242L94.8678 30.1914L82.1686 0.117188H78.3271L93.6659 36.4178H94.0787L109.422 0.117188H106.401Z" fill="white"/>
<path d="M59.8819 33.9472C59.0636 34.5191 58.0745 34.7932 57.079 34.7239H48.0671V0.117188H44.6475V36.4178H60.5214V33.4431L59.8819 33.9472Z" fill="white"/>
<path d="M36.3023 9.79078C36.1254 9.46833 35.9576 9.14589 35.7626 8.83706L35.4769 8.38291L35.173 7.92875C34.7592 7.33209 34.3125 6.75895 33.835 6.21203C32.8804 5.13193 31.8044 4.16577 30.6285 3.3327C29.4647 2.5067 28.2053 1.82505 26.8777 1.30264C25.5674 0.780556 24.1955 0.429465 22.7958 0.258061C21.4208 0.0878077 20.0301 0.0878077 18.655 0.258061C17.3023 0.422786 15.9754 0.755328 14.7047 1.24809C17.3085 0.751387 19.9909 0.850758 22.551 1.53875C23.7952 1.87469 24.9949 2.35801 26.1248 2.97845C27.2325 3.58682 28.2672 4.31975 29.2089 5.16296C30.139 5.99881 30.9768 6.93208 31.708 7.94688C32.0666 8.45178 32.3966 8.97643 32.6967 9.51829L32.928 9.91795L33.1366 10.3312C33.2817 10.6037 33.3997 10.8853 33.5267 11.1669C34.0139 12.2888 34.3803 13.4596 34.6197 14.6593L34.7104 15.1135L34.783 15.5676C34.8374 15.8674 34.8646 16.1716 34.9009 16.4759C34.9372 16.7802 34.9417 17.0845 34.9644 17.3842L34.9961 18.2925C34.9961 27.4847 28.0297 34.7511 19.4396 34.7511C10.8495 34.7511 3.87858 27.4847 3.87858 18.2925C3.91159 16.3584 4.29261 14.4461 5.00335 12.6474C5.73292 10.8212 6.81134 9.15513 8.17815 7.74253C9.58827 6.29099 11.2882 5.15357 13.1671 4.4045C15.152 3.63769 17.2732 3.2883 19.3988 3.37811C17.2567 2.68363 14.9738 2.54455 12.7635 2.9739C10.4727 3.41531 8.31953 4.39605 6.4819 5.8351C4.59047 7.29215 3.06022 9.16641 2.01004 11.3122C0.93454 13.4798 0.388899 15.8723 0.418106 18.2925C0.418106 28.4293 8.91742 36.4588 19.3988 36.4588C29.8801 36.4588 38.375 28.4475 38.3796 18.2925C38.3873 15.3317 37.6742 12.4136 36.3023 9.79078Z" fill="white"/>
<path d="M124.09 0.117188H120.248C120.487 0.679439 120.61 1.2842 120.61 1.89522C120.61 2.50625 120.487 3.11101 120.248 3.67326L106.411 36.4178H109.422C109.211 36.0522 109.087 35.6423 109.061 35.2206C109.035 34.799 109.108 34.377 109.273 33.9881L113.704 23.5016H130.131L135.573 36.4178H139.415L124.09 0.117188ZM114.416 21.8122L121.917 4.06383L129.414 21.8122H114.416Z" fill="white"/>
</svg>
