<svg width="103" height="92" viewBox="0 0 103 92" fill="none" xmlns="http://www.w3.org/2000/svg">
<path d="M77.292 21.6366C77.0788 21.4277 76.8385 21.2278 76.6389 21.0326L76.4756 20.8918C76.2488 20.7056 76.022 20.5239 75.7816 20.3513L75.6366 20.2514C75.4189 20.097 75.183 19.9517 74.9743 19.7973L74.852 19.72C74.6025 19.5702 74.3485 19.434 74.0899 19.3023L73.9131 19.2159C73.6501 19.0888 73.3825 18.9662 73.1103 18.8572H73.0604C72.7928 18.7527 72.5252 18.6619 72.2576 18.5711L72.108 18.5256C71.8268 18.4393 71.5456 18.3621 71.2644 18.2985L71.1328 18.2668C70.8471 18.2032 70.5614 18.1487 70.2712 18.1078H70.2439C69.9446 18.0624 69.6407 18.0306 69.3368 18.0079H69.2098C68.9059 17.9852 68.6021 17.9761 68.3027 17.9761C67.9898 17.9761 67.6769 17.9761 67.364 18.0215H67.314C67.0056 18.0488 66.6972 18.0896 66.407 18.135H66.3435C65.7174 18.2385 65.1002 18.3903 64.4976 18.5892H64.4431C63.82 18.7936 63.2135 19.0457 62.6289 19.3431L62.6562 19.2841C62.7786 19.0434 62.892 18.7936 63.0009 18.5438C63.0326 18.4711 63.0643 18.3939 63.0915 18.3167C63.1959 18.0624 63.2957 17.8035 63.3819 17.5447L63.4226 17.4039C63.4997 17.1632 63.5633 16.9497 63.6268 16.6818C63.6268 16.6182 63.6585 16.5546 63.6766 16.4865C63.7401 16.2185 63.7946 15.9506 63.84 15.6781C63.84 15.61 63.8399 15.5418 63.8716 15.4737C63.9124 15.2012 63.9487 14.9287 63.9714 14.6517C63.9714 14.6517 63.9714 14.6108 63.9714 14.5927C63.9714 14.3111 64.0032 14.034 64.0077 13.7524C64.0077 13.6889 64.0077 13.6253 64.0077 13.5617C64.0077 13.2802 64.0077 13.0031 63.9805 12.7216V12.5535C63.9578 12.2856 63.9306 12.0176 63.8898 11.7497C63.8918 11.7209 63.8918 11.6921 63.8898 11.6633C63.849 11.3818 63.7901 11.0956 63.7311 10.8141L63.6903 10.6369C63.6222 10.3554 63.5497 10.0784 63.4635 9.80586C63.4535 9.76439 63.4413 9.72346 63.4272 9.68323C63.341 9.42436 63.2503 9.17006 63.1506 8.91573L63.1097 8.79765C63.0009 8.52969 62.8784 8.26628 62.7514 8.00287L62.6698 7.83938C62.5383 7.57597 62.3977 7.31252 62.2435 7.0582L62.2026 6.99461C62.053 6.74936 61.8988 6.51322 61.7491 6.27706L61.6584 6.14534C61.486 5.90464 61.3001 5.69122 61.1096 5.44143L60.9917 5.30516C60.7876 5.069 60.5789 4.85099 60.3521 4.61029C57.9786 2.24132 54.764 0.911133 51.4128 0.911133C48.0616 0.911133 44.8471 2.24132 42.4735 4.61029C42.2513 4.83283 42.0201 5.06446 41.8386 5.30516L41.7162 5.44143C41.5211 5.67759 41.3352 5.89556 41.1629 6.15443L41.0811 6.27252C40.9179 6.50413 40.7637 6.72669 40.6276 6.97648L40.5687 7.07183C40.4145 7.32616 40.2739 7.58956 40.1424 7.85297C40.1152 7.90292 40.0879 7.95746 40.0652 8.00742C39.9337 8.27991 39.8068 8.55238 39.6979 8.82941C39.696 8.83839 39.696 8.84771 39.6979 8.85669C39.5891 9.12918 39.4892 9.4062 39.3985 9.68777L39.3578 9.8195C39.2731 10.1041 39.196 10.3902 39.1265 10.6779L39.0992 10.7914C39.0357 11.0942 38.9813 11.3969 38.9359 11.6997C38.8905 11.9994 38.8633 12.3037 38.8361 12.608C38.8361 12.6489 38.8361 12.6897 38.8361 12.7306C38.8135 13.0349 38.8044 13.3437 38.8044 13.6389C38.8044 13.9523 38.8044 14.2657 38.8452 14.579C38.8474 14.5971 38.8474 14.6154 38.8452 14.6335C38.8724 14.9469 38.9087 15.2557 38.9586 15.5418V15.6145C39.0639 16.2306 39.2155 16.8379 39.4121 17.4311C39.4121 17.4311 39.4121 17.4766 39.4121 17.4947C39.6161 18.1187 39.8678 18.7261 40.165 19.3114C39.5805 19.0137 38.974 18.7617 38.3508 18.5574H38.2874C37.6876 18.3591 37.0735 18.2073 36.4505 18.1033H36.3825C36.0741 18.0579 35.7657 18.017 35.4754 17.9897H35.4209C35.108 17.9625 34.7951 17.9489 34.4777 17.9443C34.1692 17.9443 33.8654 17.9443 33.5706 17.9761H33.4526C33.1488 17.9761 32.8449 18.0306 32.5456 18.076C32.2508 18.1214 31.9513 18.1759 31.6611 18.244H31.5477C31.2453 18.3137 30.9596 18.3909 30.6905 18.4757L30.559 18.5211C30.2778 18.6074 30.0012 18.7073 29.7245 18.8163H29.7018C29.4207 18.9298 29.1485 19.0525 28.8809 19.1842L28.7267 19.2613C28.4591 19.393 28.2006 19.5384 27.942 19.6883L27.8514 19.7473C27.611 19.8927 27.3978 20.0471 27.1483 20.2015L27.0304 20.2832C26.7855 20.4603 26.5497 20.642 26.3184 20.8373L26.1778 20.9599C25.942 21.1643 25.7243 21.3732 25.4884 21.5957C23.1213 23.9727 21.792 27.1926 21.792 30.5494C21.792 33.9063 23.1213 37.1261 25.4884 39.5031C25.7107 39.7256 25.942 39.9345 26.1778 40.1389L26.3184 40.257C26.5497 40.4523 26.7719 40.6385 27.0304 40.8156L27.1483 40.8973C27.3797 41.0608 27.6019 41.2152 27.8514 41.3515L27.942 41.406C28.2006 41.5604 28.4591 41.7012 28.7267 41.8601L28.8809 41.9373C29.1485 42.069 29.4207 42.1916 29.7018 42.3052H29.7245C30.0012 42.4142 30.2778 42.5096 30.559 42.6004L30.6905 42.6413C30.9717 42.7321 31.2574 42.8093 31.5477 42.8774L31.6611 42.9002C31.9513 42.9637 32.2508 43.0228 32.5456 43.0682C32.8494 43.1136 33.1533 43.1454 33.4526 43.1681H33.5706C33.879 43.1681 34.1829 43.1999 34.4777 43.1954C34.7951 43.1954 35.108 43.1954 35.4209 43.1545H35.4754C35.7838 43.1545 36.0922 43.0909 36.3825 43.041H36.4505C37.0731 42.9348 37.687 42.783 38.2874 42.5868H38.3508C38.9747 42.3846 39.5814 42.1324 40.165 41.8329L40.1424 41.8828C40.0154 42.1372 39.8975 42.3915 39.7886 42.6503C39.7614 42.7139 39.7341 42.7775 39.7114 42.8411C39.6026 43.1091 39.4983 43.377 39.4121 43.6495L39.3849 43.7358C39.2987 43.9946 39.2262 44.258 39.1627 44.5215L39.1219 44.6759C39.0584 44.9575 38.9994 45.2345 38.9541 45.5206L38.9268 45.6796C38.8376 46.2674 38.7892 46.8608 38.7818 47.4553C38.7818 47.5008 38.7818 47.5507 38.7818 47.5961C38.7818 47.8913 38.7817 48.182 38.8134 48.4772C38.8114 48.5165 38.8114 48.5559 38.8134 48.5953C38.8134 48.8859 38.868 49.1811 38.9088 49.4718C38.9066 49.4807 38.9066 49.4901 38.9088 49.499C38.9541 49.7988 39.0085 50.094 39.0765 50.4073L39.1038 50.539C39.1718 50.8297 39.2489 51.1203 39.3396 51.4065C39.3444 51.4315 39.3521 51.4559 39.3623 51.4791C39.453 51.7607 39.5482 52.0377 39.6571 52.3148L39.6843 52.3829C39.7977 52.6645 39.9246 52.9415 40.0561 53.214L40.1197 53.3366C40.2558 53.6137 40.4054 53.8862 40.5732 54.1496C40.7274 54.4085 40.8997 54.6673 41.0766 54.9216L41.1447 55.017C41.3261 55.2668 41.5166 55.5075 41.7162 55.7482L41.8069 55.8572C42.0155 56.0979 42.2286 56.3113 42.4599 56.5657C44.8323 58.9369 48.0473 60.2686 51.3992 60.2686C54.7512 60.2686 57.9663 58.9369 60.3386 56.5657C60.5699 56.334 60.7921 56.1115 60.9917 55.8572L61.0869 55.7482C61.2865 55.5075 61.4724 55.2668 61.6539 55.017L61.7218 54.9171C61.8987 54.6673 62.0666 54.413 62.2253 54.1496C62.3841 53.8862 62.5337 53.6137 62.6789 53.3412C62.7015 53.2958 62.7242 53.2549 62.7423 53.214C62.8738 52.9415 63.0009 52.6645 63.1142 52.3875L63.1415 52.3102C63.2503 52.0377 63.3455 51.7607 63.4362 51.4791C63.4465 51.4559 63.4541 51.4315 63.4589 51.4065C63.5497 51.1203 63.6268 50.8342 63.6948 50.5436C63.6948 50.4981 63.6948 50.4482 63.7266 50.4028C63.7901 50.1121 63.849 49.8169 63.8898 49.4945C63.8919 49.4855 63.8919 49.4762 63.8898 49.4672C63.9351 49.1766 63.9623 48.8814 63.985 48.5907C63.9873 48.5499 63.9873 48.5089 63.985 48.4681C63.985 48.1774 64.0168 47.8868 64.0168 47.5961C64.0168 47.5461 64.0168 47.4962 64.0168 47.4508C64.0116 46.8561 63.9631 46.2626 63.8716 45.675L63.8445 45.5161C63.7991 45.23 63.7447 44.9484 63.6766 44.6714L63.6358 44.5215C63.5723 44.2535 63.4997 43.9901 63.4135 43.7312L63.3864 43.645C63.3002 43.3725 63.1959 43.1045 63.0915 42.8366L63.0099 42.6458C62.9011 42.3869 62.7832 42.1326 62.6562 41.8783L62.6335 41.8284L62.7016 41.8601C62.9374 41.9827 63.1822 42.0917 63.4226 42.1962L63.6676 42.2961C63.9215 42.4006 64.171 42.496 64.4295 42.5777L64.5883 42.6277C64.8196 42.7003 65.0418 42.7684 65.2822 42.8275L65.4908 42.8774C65.7584 42.941 66.0215 42.9955 66.289 43.041L66.5022 43.0727C66.7743 43.1136 67.0419 43.1499 67.3095 43.1726H67.3866C67.6632 43.1726 67.9399 43.2045 68.2166 43.209H68.4116C68.6882 43.209 68.9695 43.209 69.2461 43.1817H69.4139C69.6815 43.1817 69.9491 43.1318 70.2167 43.0955H70.3029C70.5887 43.0546 70.8743 43 71.1555 42.9365L71.3279 42.8956C71.6091 42.832 71.8857 42.7548 72.1624 42.6685L72.2712 42.6368C72.5343 42.5505 72.7973 42.4551 73.0604 42.3552L73.1602 42.3143C73.4323 42.2053 73.7044 42.0827 73.9675 41.951L74.1126 41.8783C74.3848 41.7421 74.6478 41.6013 74.9109 41.4241H74.9472C75.2012 41.2697 75.4506 41.1063 75.7 40.9291L75.8043 40.8564C76.0538 40.6748 76.2942 40.4886 76.5301 40.2888L76.6434 40.1934C76.8838 39.9845 77.097 39.771 77.3465 39.5439C79.7147 37.1676 81.0448 33.9475 81.0448 30.5903C81.0448 27.2331 79.7147 24.013 77.3465 21.6366C77.3465 21.6366 77.3146 21.6457 77.292 21.6366ZM42.3692 20.6602C41.8782 20.0349 41.4527 19.3607 41.0993 18.6482C40.237 16.9041 39.8334 14.9685 39.9265 13.0245C40.0196 11.0805 40.6064 9.19243 41.6315 7.53891C42.6565 5.88538 44.0859 4.52103 45.7844 3.57497C47.4829 2.62891 49.3944 2.1324 51.338 2.1324C53.2816 2.1324 55.193 2.62891 56.8916 3.57497C58.5901 4.52103 60.0196 5.88538 61.0446 7.53891C62.0697 9.19243 62.6565 11.0805 62.7496 13.0245C62.8427 14.9685 62.4391 16.9041 61.5768 18.6482C61.4725 18.8662 61.3591 19.1024 61.2366 19.2932C60.7368 20.1572 60.127 20.9526 59.4225 21.6593C58.6995 22.3796 57.8834 22.9998 56.996 23.5032L55.1002 21.6093L57.1955 19.5112L57.2454 19.4657L57.2953 19.4158L57.4541 19.2568C57.5039 19.2023 57.5448 19.1433 57.5901 19.0888C57.7035 18.9616 57.8169 18.8344 57.9212 18.6982C58.0255 18.562 58.0482 18.5302 58.1071 18.4439C58.1661 18.3576 58.3067 18.1668 58.3975 18.0261C58.4882 17.8853 58.5017 17.849 58.5516 17.7581C58.6015 17.6673 58.7194 17.4675 58.7965 17.304C58.8736 17.1405 58.8827 17.1223 58.9235 17.0269C58.9643 16.9316 59.0596 16.7272 59.1185 16.5728C59.1775 16.4184 59.1865 16.3775 59.2228 16.2821C59.2591 16.1867 59.3272 15.9733 59.3725 15.828C59.4179 15.6826 59.4224 15.6281 59.4451 15.5237C59.4677 15.4192 59.5221 15.2148 59.5494 15.0695C59.5766 14.9242 59.5812 14.8561 59.5948 14.7516C59.6084 14.6472 59.6402 14.4428 59.6538 14.2975C59.6674 14.1521 59.6538 14.0749 59.6538 13.9659C59.6538 13.8569 59.6538 13.6617 59.6538 13.5118C59.6538 13.3619 59.6538 13.2802 59.6538 13.1666C59.6538 13.0531 59.6537 12.8714 59.622 12.7125C59.5902 12.5535 59.5902 12.4717 59.5721 12.3537C59.5539 12.2356 59.5358 12.0676 59.5041 11.9268C59.4723 11.786 59.4451 11.6815 59.4134 11.5589C59.3816 11.4363 59.3544 11.2909 59.3136 11.1592C59.2728 11.0275 59.2274 10.9049 59.1821 10.7778C59.1367 10.6506 59.0959 10.5279 59.046 10.4053C58.9961 10.2827 58.9281 10.1419 58.8646 10.0102C58.8011 9.8785 58.7648 9.78313 58.7058 9.67413C58.6469 9.56514 58.5471 9.40163 58.4654 9.26993C58.3838 9.13822 58.3521 9.07014 58.2886 8.97023C58.2251 8.87031 58.0799 8.67957 57.971 8.51607C57.8622 8.35258 57.8622 8.35711 57.7987 8.2799C57.6238 8.0658 57.4375 7.86115 57.2409 7.6668C55.6648 6.16208 53.5635 5.33423 51.386 5.36021C49.2086 5.3862 47.1275 6.26393 45.5877 7.80584C44.0478 9.34776 43.1713 11.4316 43.1453 13.612C43.1194 15.7925 43.9461 17.8966 45.4488 19.4748L45.4986 19.5202L47.5941 21.6184L45.7028 23.5123C44.809 23.0069 43.9881 22.382 43.2627 21.6548C43.0042 21.4004 42.7683 21.1325 42.5415 20.86L42.3692 20.6602ZM57.8531 26.11L59.4541 27.7132L57.4268 29.7433L57.0096 29.3254L55.9755 28.2536L55.277 27.5542L57.3043 25.5242L57.8531 26.11ZM73.3915 25.5605C74.7267 26.8984 75.4768 28.7125 75.4768 30.6039C75.4768 32.4954 74.7267 34.3094 73.3915 35.6473C73.0503 35.986 72.6766 36.2903 72.2758 36.5556L72.2169 36.5874C72.0417 36.7052 71.86 36.8129 71.6726 36.9099L71.4866 36.9961C71.3415 37.0688 71.1963 37.1414 71.0331 37.205L70.7429 37.305C70.6249 37.3459 70.507 37.3958 70.3845 37.4321C70.2621 37.4684 70.1396 37.4912 70.0171 37.523L69.7224 37.5956C69.5773 37.6228 69.4367 37.6365 69.2915 37.6592L69.0466 37.691C68.8879 37.691 68.7291 37.691 68.5704 37.7182H68.3708C68.1985 37.7182 68.0261 37.7183 67.8537 37.6955H67.6905C67.5091 37.6955 67.3276 37.6501 67.1462 37.6229H67.0193C66.8349 37.5865 66.6489 37.5411 66.4614 37.4866H66.357C66.1665 37.4321 65.9806 37.364 65.7946 37.2959L65.7085 37.2641C65.5215 37.1901 65.3383 37.1068 65.1597 37.0143L65.0781 36.9779C64.8967 36.8826 64.7243 36.7827 64.5519 36.6737L64.4703 36.6237C64.304 36.5148 64.1407 36.3967 63.9805 36.2695L63.8943 36.2059C63.7401 36.0833 63.5905 35.947 63.4408 35.8108L63.341 35.7199L63.2685 35.6473C62.5435 34.9094 61.9865 34.0233 61.6357 33.0495L63.1822 31.5009L65.323 33.6445L65.5226 33.8443C66.1239 34.3691 66.8614 34.7124 67.6497 34.8343L68.0171 34.8752H68.0533C68.1712 34.8752 68.2846 34.8752 68.398 34.8752H68.4661C68.5704 34.8752 68.6792 34.8752 68.7835 34.8752H68.8787L69.1645 34.8298L69.2915 34.798C69.3777 34.798 69.4638 34.7571 69.5454 34.7299C69.5993 34.7145 69.6523 34.6963 69.7042 34.6754L69.9219 34.5982L70.1169 34.5074C70.1759 34.4801 70.2303 34.4574 70.2848 34.4256C70.391 34.3712 70.494 34.3105 70.5931 34.2439H70.634C70.7519 34.1667 70.8653 34.0805 70.9742 33.9942L71.0285 33.9442C71.1147 33.8716 71.1964 33.8034 71.278 33.7217C71.3143 33.6854 71.346 33.6445 71.3778 33.6082C71.4095 33.5718 71.5048 33.4764 71.5638 33.4083L71.6499 33.2857C71.7089 33.213 71.7633 33.1403 71.8177 33.0631C71.8721 32.9859 71.8631 32.9814 71.8903 32.9405C71.9415 32.8629 71.9884 32.7826 72.0308 32.6998C72.0535 32.659 72.0717 32.6181 72.0899 32.5772C72.108 32.5363 72.1715 32.4091 72.2078 32.3229C72.2441 32.2366 72.2349 32.2366 72.2531 32.1957C72.2712 32.1549 72.3167 32.0231 72.3439 31.9323C72.3566 31.892 72.3671 31.8511 72.3755 31.8097C72.3755 31.7143 72.4255 31.6235 72.4436 31.5326C72.4618 31.4418 72.4436 31.4509 72.4436 31.4145C72.4436 31.3782 72.4753 31.2238 72.4844 31.1284C72.4866 31.0906 72.4866 31.0527 72.4844 31.0149C72.4844 30.915 72.4844 30.8151 72.4844 30.7197V30.5244C72.4844 30.4245 72.4844 30.3246 72.4844 30.2201C72.4866 30.1868 72.4866 30.1535 72.4844 30.1202C72.4844 30.0203 72.4618 29.9158 72.4436 29.8159C72.4411 29.7827 72.4411 29.7493 72.4436 29.716C72.421 29.6161 72.3982 29.5162 72.3665 29.4163C72.3579 29.3839 72.3474 29.352 72.3348 29.3209C72.303 29.221 72.2713 29.1211 72.235 29.0257C72.1987 28.9303 72.2032 28.9621 72.1896 28.9258C72.176 28.8895 72.108 28.7396 72.0581 28.6488L72.0037 28.5489C71.9538 28.458 71.9039 28.3717 71.8449 28.2854C71.8233 28.2503 71.7991 28.2169 71.7724 28.1855C71.718 28.1038 71.659 28.022 71.5955 27.9403L71.5048 27.8403C71.4458 27.7722 71.3869 27.6996 71.3234 27.636L71.2326 27.5542C71.16 27.4861 71.0875 27.4135 71.0104 27.3499L70.9061 27.2726C70.8244 27.2136 70.7473 27.15 70.6657 27.1001C70.628 27.0732 70.5886 27.049 70.5477 27.0274L70.3075 26.8821L70.1714 26.8185C70.0943 26.7822 70.0126 26.7413 69.931 26.7095L69.7813 26.655L69.5409 26.5687L69.3822 26.5278C69.3051 26.5278 69.2235 26.487 69.1418 26.4733C69.0602 26.4597 69.0329 26.4734 68.974 26.4461L68.7381 26.4097H68.5658H68.33H68.2211C68.144 26.4097 68.0669 26.4097 67.9944 26.4097L67.8084 26.4325L67.5862 26.4643L67.4002 26.5097L67.1916 26.5597C67.1236 26.5597 67.0601 26.6051 66.9966 26.6278C66.9331 26.6505 66.8651 26.6686 66.8016 26.6959L66.602 26.7867C66.543 26.814 66.4795 26.8367 66.4251 26.8684C66.3707 26.9002 66.2891 26.9457 66.2211 26.9865C66.1666 27.0156 66.1135 27.0475 66.0623 27.0819C65.9914 27.1262 65.9233 27.1748 65.8582 27.2272L65.7176 27.3317C65.6495 27.3862 65.5861 27.4452 65.5226 27.5043L65.4001 27.6087L63.2549 29.7614L61.7082 28.2128C62.059 27.2295 62.6229 26.3362 63.3592 25.5968C64.0201 24.9344 64.8048 24.4089 65.6686 24.0504C66.5325 23.6918 67.4583 23.5072 68.3934 23.5072C69.3285 23.5072 70.2545 23.6918 71.1183 24.0504C71.9822 24.4089 72.7669 24.9344 73.4278 25.5968L73.3915 25.5605ZM65.3366 30.2882C65.3344 30.2701 65.3344 30.2519 65.3366 30.2338C65.3442 30.1559 65.3564 30.0786 65.3729 30.0021C65.3713 29.9825 65.3713 29.9627 65.3729 29.9431C65.3867 29.8664 65.4049 29.7906 65.4274 29.716C65.4274 29.716 65.4273 29.6797 65.4499 29.657C65.4726 29.6343 65.4999 29.5116 65.5271 29.439C65.5543 29.3663 65.5497 29.3981 65.5588 29.3754C65.5868 29.3056 65.6187 29.2374 65.6541 29.171L65.6949 29.0984L65.8083 28.9121L65.8627 28.8395C65.9036 28.7805 65.9444 28.726 65.9897 28.6715L66.0577 28.5897L66.1984 28.4399L66.28 28.3672L66.4297 28.2355L66.5249 28.1628L66.6746 28.0538L66.7834 27.9903L66.933 27.9039L67.0555 27.8449L67.2052 27.7813L67.3413 27.7314L67.4819 27.6859L67.6315 27.6496L67.7676 27.6178C67.8204 27.6132 67.8736 27.6132 67.9264 27.6178H68.0533H68.2211H68.3436H68.5204H68.6338L68.8153 27.6451H68.9241C68.9876 27.6451 69.0466 27.6723 69.1055 27.6859L69.2098 27.7132L69.3958 27.7768L69.4865 27.8131C69.5502 27.8381 69.6123 27.8669 69.6724 27.8994L69.7541 27.9358L69.9446 28.0493L70.0126 28.0902C70.0761 28.131 70.1351 28.1764 70.1986 28.2264L70.2575 28.2718L70.4344 28.4308L70.4843 28.4807C70.5423 28.5364 70.5968 28.5956 70.6476 28.6578L70.6929 28.7123C70.7463 28.7735 70.7949 28.8388 70.8381 28.9076L70.8744 28.9576C70.9195 29.0246 70.9605 29.0944 70.9969 29.1665L71.024 29.2164C71.0625 29.2888 71.0973 29.3631 71.1283 29.439C71.1275 29.4541 71.1275 29.4693 71.1283 29.4844C71.16 29.5616 71.1828 29.6433 71.21 29.7206V29.7614C71.2327 29.8432 71.2508 29.9249 71.2689 30.0067C71.271 30.0202 71.271 30.034 71.2689 30.0475C71.2855 30.1286 71.2976 30.2104 71.3052 30.2928C71.3052 30.2928 71.3052 30.3246 71.3052 30.3382C71.3098 30.4184 71.3098 30.4987 71.3052 30.5789V30.6289C71.3052 30.7106 71.3052 30.7878 71.3052 30.865C71.3075 30.8846 71.3075 30.9045 71.3052 30.9241C71.2991 31.0003 71.2885 31.0762 71.2735 31.1512C71.2735 31.1739 71.2735 31.192 71.2735 31.2147C71.2596 31.2884 71.2415 31.3612 71.2191 31.4327C71.2211 31.4554 71.2211 31.4782 71.2191 31.5009C71.2191 31.569 71.1737 31.6371 71.1465 31.7098C71.1192 31.7824 71.1465 31.7552 71.1465 31.7779C71.1465 31.8006 71.0875 31.9096 71.0558 31.9731C71.024 32.0367 71.0557 32.0231 71.0195 32.0458C70.9832 32.0685 70.9469 32.173 70.9106 32.232C70.8982 32.2579 70.8831 32.2822 70.8653 32.3047C70.8271 32.3652 70.7846 32.4228 70.7383 32.4773C70.7217 32.5041 70.7035 32.5298 70.6838 32.5545C70.643 32.6044 70.5931 32.6544 70.5477 32.7044C70.5024 32.7543 70.5024 32.7588 70.4752 32.7816C70.4302 32.829 70.3816 32.8731 70.3301 32.9133C70.3035 32.9414 70.2747 32.9672 70.2439 32.9905L70.0987 33.0995L69.999 33.1721L69.8448 33.263L69.736 33.322L69.5863 33.3947L69.4684 33.4492L69.3187 33.4992L69.1871 33.5446L69.0421 33.5809L68.9014 33.6127H68.7654H68.6112H68.4888H68.3164H68.2075C68.1486 33.6127 68.0851 33.6127 68.0261 33.6127H67.9264L67.7358 33.5854H67.6451L67.4501 33.5355L67.3685 33.5082L67.1734 33.4356L67.1009 33.4037C67.0329 33.372 66.9694 33.3447 66.9059 33.3084C66.8817 33.2975 66.8588 33.2838 66.8378 33.2675C66.7722 33.2334 66.7086 33.1955 66.6474 33.154L66.5838 33.1085C66.5203 33.0631 66.4614 33.0223 66.4024 32.9723L66.3481 32.9224L66.1711 32.7634C66.1585 32.7447 66.1431 32.7278 66.1257 32.7134L65.967 32.5318L65.9307 32.4819C65.8808 32.4183 65.8309 32.3501 65.7856 32.282L65.7584 32.232C65.7133 32.165 65.6724 32.0953 65.636 32.0232C65.6265 32.0058 65.6189 31.9876 65.6133 31.9687C65.5746 31.8986 65.5412 31.8257 65.5135 31.7506C65.5116 31.7325 65.5116 31.7142 65.5135 31.6961C65.4838 31.6234 65.4581 31.5491 65.4364 31.4736V31.4191C65.414 31.343 65.3958 31.2656 65.382 31.1875C65.382 31.1875 65.382 31.1511 65.382 31.133C65.382 31.1148 65.3592 30.974 65.3502 30.8968V30.8468C65.3435 30.7668 65.3435 30.6863 65.3502 30.6062V30.5244C65.3523 30.4485 65.3584 30.3727 65.3683 30.2973L65.3366 30.2882ZM64.1075 30.6152V30.6516L64.0622 30.6062L64.1075 30.5607V30.6152ZM61.3137 29.5752L62.3387 30.6016L61.3092 31.6325L60.3114 32.6317L60.2569 32.5772L58.2886 30.6016L60.2569 28.6306L60.3114 28.5715L61.3137 29.5752ZM57.2681 35.6836L56.4563 34.8662L55.2407 33.6536L55.9392 32.9541L57.0096 31.8823L57.4268 31.4645L59.4541 33.4946L57.8486 35.0977L57.2681 35.6836ZM57.3043 43.7585C57.3542 43.8312 57.3905 43.9084 57.4359 43.981C57.4812 44.0537 57.5901 44.2354 57.6581 44.3625C57.7262 44.4897 57.7307 44.526 57.767 44.6032C57.8033 44.6804 57.894 44.8621 57.9439 44.9938C57.9938 45.1255 58.0074 45.1709 58.0391 45.2572C58.0709 45.3435 58.1299 45.5161 58.1707 45.6433C58.2115 45.7704 58.216 45.8386 58.2387 45.9339C58.2613 46.0293 58.3067 46.1837 58.3294 46.3109C58.352 46.438 58.3611 46.5243 58.3748 46.6333C58.3884 46.7423 58.411 46.8649 58.4246 46.983C58.4382 47.1011 58.4246 47.2237 58.4246 47.3463C58.4246 47.469 58.4246 47.5598 58.4246 47.6642C58.4246 47.7687 58.4247 47.9367 58.402 48.073C58.3793 48.2092 58.402 48.2546 58.402 48.3455C58.402 48.4363 58.3611 48.6497 58.3384 48.7996C58.3384 48.8723 58.3384 48.9449 58.3067 49.0176C58.2704 49.1902 58.2251 49.3582 58.1798 49.5263C58.1798 49.5762 58.1797 49.6307 58.1434 49.6852C58.0845 49.8759 58.0165 50.0622 57.9485 50.2439C57.9485 50.2757 57.9257 50.3074 57.9167 50.3347C57.8305 50.5481 57.7307 50.757 57.6263 50.9614C57.2941 51.5986 56.8658 52.1807 56.3565 52.6872C55.5252 53.5185 54.5014 54.131 53.3765 54.4702C52.2515 54.8095 51.0602 54.8649 49.9087 54.6316C48.7572 54.3983 47.6812 53.8835 46.7764 53.133C45.8717 52.3825 45.1663 51.4196 44.7231 50.3301L44.7004 50.2529C44.6233 50.0667 44.5553 49.8715 44.4963 49.6807C44.4963 49.6308 44.4737 49.5762 44.4601 49.5263C44.4148 49.3582 44.3694 49.1856 44.3377 49.0131C44.3377 48.9404 44.3149 48.8677 44.3013 48.7951C44.2787 48.6452 44.2515 48.4908 44.2379 48.3409C44.2243 48.191 44.2379 48.1547 44.2379 48.0639C44.2379 47.9731 44.2379 47.7959 44.2379 47.6597C44.2379 47.5234 44.2379 47.4463 44.2379 47.3418C44.2379 47.2373 44.2379 47.1011 44.2379 46.9785C44.2379 46.8558 44.2696 46.7423 44.2877 46.6242C44.3059 46.5061 44.315 46.4108 44.3331 46.3063C44.3513 46.2019 44.3921 46.052 44.4238 45.9294C44.4555 45.8068 44.4646 45.7341 44.4918 45.6387C44.519 45.5433 44.5825 45.3799 44.6279 45.2481C44.6732 45.1164 44.6823 45.0755 44.7186 44.9893C44.7548 44.903 44.8365 44.7258 44.8955 44.5941C44.9545 44.4624 44.9635 44.4352 45.0043 44.358C45.0452 44.2808 45.154 44.0991 45.2311 43.972C45.3082 43.8448 45.3128 43.8266 45.3581 43.754C45.4035 43.6813 45.5349 43.5042 45.6256 43.3816C45.7164 43.259 45.7209 43.2453 45.7753 43.1772C45.8298 43.1091 45.9749 42.9456 46.0837 42.832C46.1926 42.7185 46.2063 42.6867 46.2697 42.6231L46.3105 42.5823C47.0493 41.8455 47.9413 41.2811 48.9229 40.9291L50.465 42.4778L48.3198 44.6305L48.1065 44.8439C47.6711 45.349 47.3604 45.9495 47.1994 46.597C47.1687 46.7182 47.1445 46.841 47.1269 46.9648C47.1248 46.9738 47.1248 46.9831 47.1269 46.9921C47.1088 47.1102 47.0951 47.2283 47.086 47.3463V47.4008C47.086 47.5144 47.086 47.6234 47.086 47.7324C47.086 47.7596 47.086 47.7868 47.086 47.8186C47.086 47.8504 47.0861 48.0185 47.1087 48.1184C47.1314 48.2183 47.1087 48.2001 47.1087 48.241C47.1087 48.2819 47.136 48.4181 47.1541 48.509C47.1723 48.5998 47.1813 48.6179 47.1949 48.6724C47.2085 48.7269 47.2312 48.8178 47.2539 48.8904C47.2824 48.9844 47.3157 49.0769 47.3537 49.1675C47.3622 49.2014 47.3728 49.2348 47.3854 49.2674C47.4399 49.3885 47.4988 49.5111 47.5623 49.6353L47.5941 49.6897C47.653 49.7897 47.7074 49.8941 47.7754 49.9895L47.8435 50.0849C47.9025 50.1666 47.9614 50.2484 48.0249 50.3256L48.1201 50.4346L48.2789 50.6117L48.3107 50.639L48.3333 50.6616L48.4467 50.7661C48.5102 50.8206 48.5692 50.8797 48.6327 50.9296L48.7823 51.0432L48.9774 51.1839C49.0287 51.2184 49.0816 51.2502 49.1361 51.2793L49.3357 51.3974L49.5125 51.4791L49.7121 51.57L49.9026 51.6381C49.9661 51.6381 50.0341 51.6881 50.1022 51.7062L50.2971 51.7562C50.3641 51.7756 50.4323 51.7908 50.5012 51.8016L50.7009 51.8334L50.9049 51.8606H51.109H51.3131H51.5126C51.5852 51.8606 51.6533 51.8606 51.7213 51.8606C51.7894 51.8606 51.8528 51.8607 51.9209 51.8334L52.1249 51.8016C52.1924 51.7908 52.259 51.7756 52.3245 51.7562L52.524 51.7062C52.592 51.7062 52.6556 51.6608 52.7191 51.6381C52.7826 51.6154 52.8506 51.5972 52.9141 51.57L53.1091 51.4837L53.2906 51.3974L53.4856 51.2838C53.54 51.2475 53.599 51.2203 53.6489 51.1839L53.8439 51.0432L53.9935 50.9296C54.057 50.8797 54.116 50.8251 54.175 50.7706L54.2974 50.6616V50.639L54.3247 50.6117C54.3791 50.5572 54.4289 50.4936 54.4788 50.4391L54.5786 50.3256C54.6415 50.2499 54.7006 50.1711 54.7555 50.0894C54.7782 50.0576 54.8054 50.0258 54.828 49.9895C54.8507 49.9532 54.9505 49.7942 55.005 49.6988C55.0188 49.6787 55.0308 49.6574 55.0412 49.6353C55.1047 49.5141 55.1637 49.3916 55.2181 49.2674C55.2181 49.2311 55.2407 49.1948 55.2543 49.163C55.2679 49.1312 55.3223 48.9813 55.3541 48.8904L55.4086 48.6724C55.4086 48.6179 55.4404 48.5635 55.4494 48.509C55.4585 48.4545 55.4811 48.3273 55.4947 48.241C55.5083 48.1547 55.4947 48.1593 55.4947 48.1184C55.4947 48.0775 55.4947 47.9185 55.4947 47.8186C55.4947 47.7914 55.4947 47.7596 55.4947 47.7324C55.4947 47.6234 55.4947 47.5144 55.4947 47.4008V47.3463C55.4947 47.2283 55.4721 47.1102 55.4585 46.9966C55.4566 46.9861 55.4566 46.9753 55.4585 46.9648C55.4585 46.8422 55.4131 46.7196 55.3813 46.597C55.2204 45.9509 54.9096 45.3519 54.4743 44.8485L54.2656 44.635L52.1159 42.4823L53.6579 40.9337C54.6391 41.2863 55.531 41.8507 56.2703 42.5868L56.3111 42.6231C56.3792 42.6958 56.4381 42.7684 56.5016 42.8411C56.5651 42.9138 56.7103 43.0636 56.8055 43.1817C56.9008 43.2998 56.9098 43.3225 56.9597 43.3906C57.0095 43.4587 57.2545 43.6404 57.3361 43.7676L57.3043 43.7585ZM44.8229 35.0977L43.2218 33.4946L45.2447 31.4645L45.662 31.8823L46.7324 32.9541L47.4307 33.6536L45.4034 35.6791L44.8229 35.0977ZM29.28 35.6473C27.9674 34.3329 27.2217 32.5557 27.2028 30.697C27.2006 30.6652 27.2006 30.6334 27.2028 30.6016C27.2007 30.5714 27.2007 30.541 27.2028 30.5108C27.2196 29.1085 27.6492 27.7423 28.4379 26.5834C29.2266 25.4245 30.3392 24.5244 31.6365 23.9958C32.9338 23.4673 34.358 23.3339 35.7307 23.6122C37.1033 23.8905 38.3635 24.5682 39.3532 25.5605L39.3804 25.5878C40.1132 26.3246 40.674 27.2149 41.0222 28.1946L39.4757 29.7433L37.3303 27.5906C36.5318 26.7922 35.4495 26.3437 34.3211 26.3437C33.1926 26.3437 32.1104 26.7922 31.3119 27.5906C31.1471 27.7523 30.9954 27.9269 30.8584 28.1128C30.693 28.3454 30.5502 28.5933 30.432 28.8531L30.3595 29.0166C30.1671 29.4964 30.0641 30.0075 30.0556 30.5244V30.6834C30.0645 31.2003 30.1674 31.7113 30.3595 32.1912L30.432 32.3547C30.5502 32.6145 30.693 32.8624 30.8584 33.095C30.9954 33.2809 31.1471 33.4556 31.3119 33.6172C32.1104 34.4157 33.1926 34.8641 34.3211 34.8641C35.4495 34.8641 36.5318 34.4157 37.3303 33.6172L39.4757 31.4645L41.0222 33.0132C40.6729 33.9924 40.1123 34.8824 39.3804 35.62L39.3532 35.6473C38.692 36.3099 37.9068 36.8354 37.0426 37.194C36.1784 37.5527 35.2521 37.7372 34.3167 37.7372C33.3812 37.7372 32.4548 37.5527 31.5906 37.194C30.7264 36.8354 29.9412 36.3099 29.28 35.6473ZM37.2306 31.4645C37.0898 31.9508 36.8276 32.3932 36.4687 32.7498C36.0445 33.1731 35.505 33.4616 34.9177 33.5789C34.3304 33.6962 33.7216 33.6371 33.1677 33.409C32.6139 33.181 32.1396 32.7941 31.8046 32.297C31.4696 31.8 31.2887 31.2149 31.2847 30.6152V30.5835C31.2887 29.9838 31.4696 29.3987 31.8046 28.9017C32.1396 28.4046 32.6139 28.0178 33.1677 27.7897C33.7216 27.5617 34.3304 27.5026 34.9177 27.6199C35.505 27.7371 36.0445 28.0256 36.4687 28.449C36.8285 28.8048 37.0909 29.2474 37.2306 29.7342C37.3118 30.0131 37.353 30.3021 37.353 30.5926C37.3651 30.8891 37.3346 31.1858 37.2624 31.4736L37.2306 31.4645ZM38.6139 30.6016L38.5686 30.6516C38.5686 30.6516 38.5686 30.6198 38.5686 30.6016C38.5686 30.5835 38.5686 30.5744 38.5686 30.5562L38.6139 30.6016ZM41.3624 31.6325L40.3328 30.6016L41.3624 29.5752L42.3602 28.5761L42.4146 28.6306L44.3875 30.6016L42.4146 32.5772L42.3602 32.6317L41.3624 31.6325ZM45.4034 25.5242L46.2198 26.3417L47.4307 27.5542L46.7324 28.2536L45.662 29.3254L45.2447 29.7433L43.2218 27.7132L44.8229 26.11L45.4034 25.5242ZM46.3105 8.51607C47.6478 7.18127 49.4589 6.43174 51.3471 6.43174C53.2352 6.43174 55.0464 7.18127 56.3836 8.51607C56.3917 8.53017 56.4025 8.5425 56.4154 8.55238C56.5742 8.71588 56.7284 8.88391 56.869 9.05649C56.9279 9.12915 56.9779 9.20636 57.0368 9.28357C57.0958 9.36077 57.2136 9.51065 57.2907 9.62873C57.3678 9.74681 57.4042 9.82402 57.4586 9.9194C57.513 10.0148 57.5901 10.1283 57.649 10.2327C57.708 10.3372 57.7489 10.4553 57.8033 10.5643C57.8577 10.6733 57.8986 10.7641 57.9394 10.864C57.9802 10.9639 58.0301 11.1138 58.0709 11.2365C58.1117 11.3591 58.1389 11.4227 58.1661 11.5135C58.1934 11.6043 58.2387 11.7905 58.2705 11.9268C58.3022 12.063 58.3158 12.0948 58.3294 12.1765C58.3611 12.3264 58.3793 12.4763 58.3975 12.6307C58.3975 12.7079 58.4201 12.7806 58.4291 12.8578C58.4291 13.0167 58.4291 13.1757 58.4564 13.3347C58.4564 13.4028 58.4564 13.4709 58.4564 13.539C58.4564 13.707 58.4563 13.8705 58.4337 14.0386C58.4337 14.0976 58.4337 14.1566 58.4337 14.2157C58.4187 14.3879 58.3945 14.5592 58.3611 14.7289C58.3611 14.7834 58.3611 14.8379 58.3611 14.8924C58.3294 15.065 58.284 15.2375 58.2387 15.4101C58.2387 15.4601 58.2386 15.5101 58.2024 15.5555C58.1525 15.7281 58.0936 15.9006 58.0301 16.0687C58.0301 16.1141 57.9983 16.1595 57.9801 16.2094C57.9166 16.3775 57.835 16.541 57.7579 16.7C57.7579 16.7454 57.7171 16.7953 57.6944 16.8407C57.6128 16.9997 57.5175 17.1541 57.4223 17.2949C57.3951 17.3403 57.3724 17.3857 57.3407 17.4311C57.2454 17.581 57.1366 17.7263 57.0277 17.8853L56.9234 18.0261C56.8146 18.1623 56.6967 18.294 56.5742 18.4257C56.5243 18.4757 56.4835 18.5302 56.4336 18.5801L56.3791 18.6346C55.6437 19.369 54.7545 19.9306 53.7758 20.2786L52.2292 18.7346L54.379 16.5819L54.5876 16.3684C55.11 15.7652 55.4527 15.0272 55.5764 14.2384C55.5764 14.1203 55.6081 14.0022 55.6172 13.8796V13.8342C55.6172 13.7207 55.6172 13.6071 55.6172 13.4936C55.6172 13.4936 55.6172 13.4482 55.6172 13.4255C55.6172 13.321 55.6172 13.2166 55.6172 13.1121V13.0167C55.6172 12.9168 55.59 12.8215 55.5674 12.7261C55.5604 12.6863 55.5513 12.6468 55.5401 12.608C55.5401 12.5217 55.4992 12.4309 55.472 12.3446C55.4448 12.2583 55.4403 12.2538 55.4222 12.2084C55.3982 12.1265 55.3695 12.0461 55.336 11.9676C55.336 11.9177 55.2906 11.8632 55.2679 11.8132C55.2453 11.7633 55.2045 11.6724 55.1682 11.6043L55.0593 11.4181L54.9051 11.1774C54.8446 11.0926 54.7812 11.0063 54.7146 10.9185C54.6784 10.8731 54.6375 10.8323 54.6013 10.7914C54.565 10.7505 54.497 10.6688 54.4426 10.6143C54.3882 10.5598 54.3291 10.5143 54.2747 10.4644L54.1341 10.3372L53.9391 10.1919C53.8911 10.153 53.8411 10.1166 53.7894 10.0829L53.5853 9.96025L53.4311 9.8649L53.2134 9.765L53.0547 9.68777L52.8279 9.606L52.6646 9.5515L52.4333 9.49246L52.2656 9.4516L52.0342 9.41529L51.8618 9.39256H51.6305H51.4537H51.2315H51.0454L50.8278 9.41984L50.6373 9.44706L50.4287 9.49701L50.2382 9.54247L50.0386 9.61055L49.8481 9.67868L49.6532 9.765L49.4671 9.85126C49.4036 9.88305 49.3447 9.92392 49.2812 9.96025L49.1044 10.0647L48.9274 10.1919L48.7597 10.3145L48.5964 10.4644C48.5465 10.5052 48.4966 10.5461 48.4512 10.5915C48.4058 10.637 48.3651 10.6869 48.3198 10.7369C48.2744 10.7869 48.2154 10.8459 48.1701 10.9004C48.1247 10.9549 48.0884 11.0094 48.0476 11.0639C48.0068 11.1184 47.9569 11.182 47.9161 11.2455C47.8752 11.3091 47.848 11.3591 47.8117 11.4181C47.7755 11.4772 47.7346 11.5453 47.7029 11.6088C47.6712 11.6724 47.644 11.7269 47.6168 11.7905C47.5895 11.8541 47.5533 11.9177 47.5261 11.9858C47.4989 12.0539 47.4806 12.1084 47.458 12.172L47.3854 12.3764C47.3854 12.4354 47.3537 12.499 47.34 12.5626L47.2857 12.776L47.2584 12.9622C47.2584 13.0349 47.2584 13.1076 47.2267 13.1803C47.1949 13.2529 47.2267 13.3028 47.2267 13.3664C47.2267 13.43 47.2267 13.5117 47.2267 13.589C47.2267 13.6662 47.2267 13.7116 47.2267 13.7706C47.2267 13.8297 47.2267 13.9205 47.2267 13.9977C47.2267 14.0749 47.2267 14.1158 47.2267 14.1748C47.2267 14.2339 47.2267 14.3292 47.2584 14.4019C47.2902 14.4746 47.2857 14.5154 47.2993 14.5745C47.3129 14.6335 47.331 14.7289 47.3537 14.8016L47.4081 14.9696C47.4354 15.0423 47.458 15.1195 47.4897 15.1921L47.5623 15.3556C47.594 15.4283 47.6258 15.5009 47.662 15.5736C47.6983 15.6463 47.7256 15.6781 47.7528 15.7326C47.7801 15.7871 47.8298 15.8688 47.8752 15.937C47.9205 16.0051 47.9478 16.0368 47.984 16.0868C48.0203 16.1368 48.0748 16.2185 48.1247 16.2821C48.1746 16.3457 48.2108 16.3775 48.2517 16.4229C48.2925 16.4683 48.3469 16.5364 48.4014 16.5909L50.5466 18.7437L49.0045 20.2877C48.0263 19.9407 47.1372 19.3808 46.4012 18.6482L46.3741 18.621C45.1316 17.372 44.3942 15.707 44.3038 13.9464C44.2133 12.1857 44.7762 10.4538 45.8842 9.08377C46.024 8.88983 46.1739 8.70338 46.3332 8.52516L46.3105 8.51607ZM51.3449 35.838L50.5285 35.0206L49.1678 33.6581L51.3539 31.469L53.5399 33.6581L52.1793 35.0206L51.3449 35.838ZM51.3449 25.3652L52.1613 26.1827L53.5219 27.5451L51.3358 29.7342L49.1497 27.5451L50.5103 26.1827L51.3449 25.3652ZM50.4831 30.6016L48.3016 32.7906L46.941 31.4282L46.1246 30.6062L46.941 29.7887L48.3016 28.4262L50.4831 30.6016ZM52.2065 30.6016L54.3926 28.4171L55.7533 29.7796L56.5697 30.5971L55.7533 31.4191L54.3926 32.7816L52.2065 30.6016ZM54.3881 26.6914L53.6942 25.9965L52.6239 24.9247L52.2065 24.5069L54.2339 22.4768L55.8349 24.08L56.4154 24.6613L54.3881 26.6914ZM51.3449 23.644L49.3764 21.6729L49.3175 21.6139L50.3153 20.6148L51.3449 19.5838L52.3744 20.6148L53.3722 21.6139L53.3132 21.6729L51.3449 23.644ZM51.2995 17.8172H51.3901L51.3449 17.8626L51.2995 17.8172ZM48.9819 15.4692L48.8776 15.3284L48.805 15.224C48.7704 15.1751 48.7401 15.1234 48.7143 15.0695C48.6905 15.0364 48.6693 15.0014 48.6508 14.9651C48.6236 14.9106 48.6009 14.8606 48.5782 14.8061C48.5589 14.7695 48.5423 14.7316 48.5284 14.6926C48.5057 14.6381 48.4875 14.5836 48.4694 14.5291C48.4552 14.4919 48.4432 14.454 48.4332 14.4155C48.4332 14.361 48.4014 14.302 48.3878 14.243L48.3605 14.1294C48.3605 14.0749 48.3605 14.0159 48.3378 13.9568C48.3353 13.9175 48.3353 13.8781 48.3378 13.8388C48.3332 13.7828 48.3332 13.7266 48.3378 13.6707C48.3356 13.6299 48.3356 13.5889 48.3378 13.5481C48.3378 13.4936 48.3378 13.4391 48.3378 13.3891C48.3378 13.3392 48.3378 13.2983 48.3378 13.2574C48.3378 13.2166 48.3378 13.153 48.3605 13.0985C48.3832 13.044 48.3605 13.0122 48.3605 12.9668C48.3605 12.9213 48.3878 12.8669 48.3968 12.8169C48.4059 12.767 48.4195 12.7261 48.4332 12.6806C48.4468 12.6352 48.4648 12.5853 48.483 12.5353C48.5011 12.4854 48.5148 12.449 48.5329 12.4036C48.5513 12.3555 48.5725 12.3085 48.5964 12.2629L48.6599 12.1311C48.6826 12.0857 48.7098 12.0448 48.737 11.9994C48.7642 11.954 48.7823 11.9177 48.8095 11.8768L48.9047 11.7497C48.9309 11.7085 48.9598 11.669 48.991 11.6316L49.0953 11.5135C49.1316 11.4772 49.1633 11.4363 49.2042 11.3999L49.313 11.3L49.4355 11.1911L49.5488 11.1047L49.6804 11.0139L49.8027 10.9412L49.9388 10.8595L50.0658 10.8004L50.211 10.7369L50.3425 10.6914L50.4876 10.6415L50.6191 10.6097L50.7734 10.5734H50.9049H51.0636H51.1906H51.4764H51.6487H51.7621L51.939 10.6006L52.0479 10.6278L52.2202 10.6733L52.329 10.7096L52.5014 10.7687L52.6057 10.8186L52.7689 10.8958L52.8732 10.9594L53.0275 11.0502L53.1272 11.1229L53.2724 11.2319L53.3631 11.3182L53.4992 11.4408L53.5853 11.5362L53.7078 11.6724C53.7305 11.7042 53.7531 11.7405 53.7803 11.7723L53.8846 11.9222C53.9084 11.9554 53.9297 11.9903 53.9482 12.0267C53.9811 12.0765 54.0113 12.1281 54.0389 12.1811C54.0389 12.2174 54.0707 12.2583 54.0888 12.2946L54.1613 12.449L54.2022 12.5716C54.2022 12.6261 54.243 12.6761 54.2566 12.7306C54.2702 12.7851 54.2566 12.8124 54.2883 12.8578C54.3031 12.9101 54.3152 12.9632 54.3247 13.0167C54.3272 13.0591 54.3272 13.1015 54.3247 13.1439C54.3247 13.1984 54.3246 13.2529 54.3472 13.3074C54.3495 13.3482 54.3495 13.3892 54.3472 13.43C54.3472 13.4845 54.3472 13.5435 54.3472 13.598C54.3495 13.6389 54.3495 13.6798 54.3472 13.7207C54.3472 13.7797 54.3472 13.8342 54.3472 13.8887C54.3494 13.9296 54.3494 13.9705 54.3472 14.0113C54.3472 14.0658 54.3473 14.1249 54.3247 14.1794C54.302 14.2339 54.3246 14.2611 54.2929 14.302C54.282 14.3556 54.2683 14.4087 54.252 14.4609L54.2113 14.5836C54.2113 14.6381 54.1749 14.688 54.1523 14.7425C54.1296 14.797 54.116 14.8243 54.0979 14.8652L54.0298 15.0105C54.0071 15.0513 53.9799 15.0922 53.9527 15.1331C53.9255 15.174 53.9029 15.2239 53.8757 15.2694L53.7849 15.392L53.6942 15.5146L53.5853 15.6281C53.5545 15.668 53.5212 15.706 53.4856 15.7416L53.3676 15.8506L53.2542 15.9506L53.1272 16.0459L53.0048 16.1277L52.8687 16.2094L52.7462 16.2821L52.5966 16.3502L52.4787 16.4047L52.3199 16.4592L52.202 16.5001L52.0342 16.541L51.9163 16.5682L51.7439 16.5955H51.626H51.4582H51.3358H51.1679H51.041L50.8777 16.5682H50.7552L50.5919 16.5274L50.4696 16.5001L50.3062 16.4411C50.2677 16.4295 50.2299 16.4158 50.1928 16.4002L50.0341 16.3275C49.9978 16.3275 49.957 16.2957 49.9207 16.273L49.7665 16.1822L49.6668 16.1232C49.615 16.0879 49.565 16.05 49.5171 16.0096L49.4218 15.9415L49.2812 15.8143C49.2488 15.7879 49.2185 15.7591 49.1905 15.7281C49.1474 15.6864 49.1065 15.6424 49.0681 15.5963C49.0635 15.5373 49.0317 15.5373 49.0045 15.4783L48.9819 15.4692ZM50.4831 24.5069L50.0658 24.9247L48.9955 25.9965L48.3016 26.6914L47.086 25.4788L46.2743 24.6613L46.8593 24.08L48.4603 22.4768L50.4831 24.5069ZM48.3016 34.4983L48.9955 35.1977L50.0658 36.2695L50.4831 36.6873L48.4603 38.7174L46.8593 37.1142L46.2743 36.5283L48.3016 34.4983ZM51.3449 37.5502L53.3132 39.5213L53.3722 39.5802L52.3744 40.5794L51.3449 41.6058L50.3153 40.5794L49.3175 39.5802L49.3764 39.5213L51.3449 37.5502ZM51.3901 43.377H51.2995L51.3449 43.3316L51.3901 43.377ZM54.3654 47.9186V48.023L54.3382 48.2092C54.3356 48.2425 54.3356 48.2759 54.3382 48.3092C54.3382 48.3682 54.3065 48.4317 54.2883 48.4953C54.2702 48.5589 54.2656 48.5589 54.2566 48.5907C54.2475 48.6225 54.2158 48.7134 54.1931 48.7724C54.1704 48.8314 54.1613 48.836 54.1477 48.8723C54.1341 48.9086 54.0979 48.9858 54.0661 49.0403C54.0492 49.0752 54.0294 49.1086 54.0071 49.1402C53.9799 49.1947 53.9482 49.2447 53.9164 49.2992L53.8439 49.3991L53.735 49.5444L53.6489 49.6398L53.5264 49.7715L53.4311 49.8623L53.2951 49.9804L53.1908 50.0576C53.1459 50.095 53.0989 50.1298 53.0502 50.1621L52.9368 50.2302C52.8869 50.2575 52.8415 50.2892 52.7916 50.3119L52.6692 50.371L52.524 50.4391L52.388 50.4845L52.2474 50.5345L52.1022 50.5708L51.9616 50.6026H51.8166H51.6714C51.6231 50.6071 51.5745 50.6071 51.5262 50.6026H51.3812H51.2315H51.0908L50.9411 50.5799H50.8006L50.6509 50.5481L50.5194 50.5118L50.3697 50.4618L50.2428 50.4164L50.0885 50.3483L49.9706 50.2893C49.9188 50.2639 49.8688 50.2351 49.8209 50.2029L49.7121 50.1394L49.567 50.0349L49.4671 49.9577L49.3266 49.8351L49.2358 49.7533L49.1135 49.6126L49.0272 49.5217L48.9184 49.3719C48.9184 49.3401 48.8685 49.3083 48.8504 49.2765L48.7506 49.1175L48.6961 49.0176C48.6644 48.9631 48.6417 48.9041 48.6145 48.845L48.5691 48.7497C48.5691 48.6906 48.5284 48.627 48.5057 48.568C48.483 48.509 48.483 48.5044 48.4739 48.4726C48.4648 48.4409 48.4422 48.3455 48.4241 48.2864C48.4192 48.2526 48.4116 48.2192 48.4014 48.1865L48.3741 47.9958V47.8959C48.3741 47.8323 48.3741 47.7732 48.3741 47.7096C48.372 47.6749 48.372 47.64 48.3741 47.6052C48.3741 47.5416 48.3741 47.4826 48.3741 47.419C48.3741 47.3554 48.3741 47.3463 48.3741 47.31C48.3741 47.2736 48.3742 47.1919 48.3968 47.1329C48.3947 47.0966 48.3947 47.0602 48.3968 47.0239C48.3968 46.9648 48.424 46.9058 48.4376 46.8467L48.4648 46.7377C48.4648 46.6787 48.5012 46.6242 48.5238 46.5652C48.5339 46.5282 48.5459 46.4918 48.56 46.4562C48.56 46.4017 48.61 46.3472 48.6372 46.2927C48.6511 46.2566 48.6677 46.2217 48.6871 46.1882C48.7143 46.1337 48.746 46.0838 48.7777 46.0293C48.7957 45.995 48.8154 45.9617 48.8368 45.9294L48.9456 45.7795C48.9683 45.7477 48.9909 45.7114 49.0181 45.6796C49.0453 45.6478 49.0998 45.5887 49.1406 45.5433L49.2269 45.448L49.3583 45.3299C49.3893 45.2973 49.4227 45.2669 49.458 45.2391L49.5941 45.1392L49.703 45.0574L49.8481 44.9711C49.8844 44.9472 49.9223 44.926 49.9615 44.9075L50.1112 44.8349L50.2292 44.7804L50.3833 44.7259L50.5103 44.685C50.561 44.6687 50.6125 44.655 50.6645 44.6441L50.7961 44.6123L50.9457 44.5896H51.0863H51.2315H51.5171H51.6714H51.8029L51.9616 44.6123L52.0841 44.6441L52.2474 44.685L52.3653 44.7259L52.524 44.7804L52.6374 44.8349L52.7916 44.9075C52.8294 44.926 52.8658 44.9473 52.9005 44.9711C52.9529 44.997 53.003 45.0274 53.0502 45.0619L53.1545 45.1346L53.2951 45.2391L53.3949 45.3253C53.4409 45.3654 53.4848 45.4078 53.5264 45.4525C53.5582 45.4797 53.5808 45.5116 53.6126 45.5388C53.6443 45.5661 53.6987 45.6342 53.735 45.6841C53.7617 45.7124 53.7859 45.7427 53.8076 45.7749L53.9164 45.9294C53.9387 45.9611 53.9585 45.9944 53.9754 46.0293L54.0706 46.1882C54.0706 46.22 54.1023 46.2563 54.1159 46.2927C54.1295 46.329 54.1704 46.4017 54.1931 46.4562C54.2072 46.4918 54.2193 46.5282 54.2293 46.5652C54.253 46.6212 54.2728 46.6789 54.2883 46.7377C54.2995 46.7735 54.3087 46.8099 54.3156 46.8467C54.3335 46.9047 54.347 46.9639 54.3563 47.0239C54.3585 47.0602 54.3585 47.0966 54.3563 47.1329C54.3563 47.1919 54.3563 47.2509 54.379 47.31C54.4017 47.369 54.379 47.3826 54.379 47.419C54.379 47.4553 54.379 47.5416 54.379 47.6052C54.3813 47.64 54.3813 47.6749 54.379 47.7096C54.3899 47.7909 54.3929 47.8731 54.3881 47.9549L54.3654 47.9186ZM52.2065 36.6737L52.6239 36.2559L53.6942 35.1841L54.3881 34.4846L55.6036 35.7018L56.4154 36.5147L55.8349 37.1006L54.2339 38.7038L52.2065 36.6737ZM26.2458 22.4859C28.3896 20.3418 31.2957 19.1376 34.3256 19.1376C37.3556 19.1376 40.2617 20.3418 42.4056 22.4859C43.1318 23.2123 43.7558 24.0343 44.2605 24.9292L42.3692 26.823L40.2738 24.7248L40.224 24.6749C39.0577 23.5064 37.5716 22.7105 35.9536 22.3878C34.3355 22.0652 32.6582 22.2303 31.1339 22.8623C29.6096 23.4943 28.3066 24.5648 27.39 25.9383C26.4733 27.3119 25.9839 28.9269 25.9839 30.5789C25.9839 32.231 26.4733 33.8459 27.39 35.2195C28.3066 36.593 29.6096 37.6635 31.1339 38.2955C32.6582 38.9275 34.3355 39.0927 35.9536 38.77C37.5716 38.4474 39.0577 37.6514 40.224 36.4829L40.2738 36.4284L42.3692 34.3348L44.2605 36.2286C43.7561 37.1173 43.1354 37.9345 42.4146 38.6584C41.3524 39.7197 40.0917 40.561 38.7047 41.1345C37.3177 41.7079 35.8315 42.0022 34.3309 42.0005C32.8304 41.9989 31.3449 41.7012 29.9592 41.1247C28.5735 40.5481 27.3148 39.7039 26.2549 38.6402C25.195 37.5765 24.3548 36.3142 23.7821 34.9253C23.2094 33.5365 22.9155 32.0482 22.9172 30.5457C22.9189 29.0431 23.2161 27.5555 23.7919 26.1679C24.3676 24.7803 25.2108 23.5199 26.273 22.4586L26.2458 22.4859ZM43.2672 55.7119C41.1261 53.5651 39.9235 50.6552 39.9235 47.6211C39.9235 44.5871 41.1261 41.677 43.2672 39.5303C43.9937 38.8031 44.8145 38.1768 45.7074 37.6683L47.5986 39.5667L45.5032 41.6649L45.4488 41.7148L45.3943 41.7693L45.2357 41.9282C45.1812 41.9873 45.1358 42.0463 45.086 42.1054C45.0361 42.1644 44.8728 42.3506 44.7776 42.4778C44.6823 42.6049 44.637 42.664 44.569 42.7593C44.5009 42.8547 44.383 43.0183 44.3013 43.15C44.2197 43.2817 44.1835 43.3452 44.1245 43.4451C44.0655 43.545 43.9702 43.7176 43.9022 43.8539C43.8341 43.9901 43.8025 44.0673 43.7526 44.1718C43.7027 44.2763 43.63 44.4488 43.5756 44.5896C43.5212 44.7304 43.494 44.8121 43.4577 44.9211C43.4214 45.0301 43.3625 45.2027 43.3217 45.3435C43.2809 45.4843 43.2627 45.5797 43.2355 45.6978C43.2083 45.8158 43.1675 45.9748 43.1448 46.1155C43.1221 46.2563 43.1086 46.3654 43.0904 46.488C43.0723 46.6106 43.0495 46.7605 43.0405 46.9013C43.0314 47.0421 43.0405 47.1601 43.0405 47.2919C43.0405 47.4236 43.0405 47.5553 43.0405 47.687C43.0405 47.8187 43.0405 47.964 43.0405 48.1002C43.0405 48.2365 43.0405 48.35 43.0677 48.4772C43.0949 48.6044 43.1039 48.7633 43.1266 48.9313C43.1493 49.0994 43.1584 49.1675 43.1811 49.2811C43.2038 49.3946 43.2537 49.5853 43.2945 49.7352C43.3353 49.8851 43.3443 49.9486 43.3761 50.0531C43.4078 50.1576 43.4805 50.371 43.5394 50.5072C43.5984 50.6435 43.6029 50.6934 43.6392 50.7843C43.7118 50.9523 43.7934 51.1203 43.8705 51.2838C43.9113 51.361 43.9431 51.4428 43.9793 51.5155C44.0791 51.7017 44.1879 51.8788 44.2968 52.0559C44.3331 52.1104 44.3603 52.1649 44.3966 52.2194C44.5372 52.4329 44.6914 52.6418 44.8501 52.8462L44.8819 52.887C45.0602 53.1082 45.251 53.3189 45.4534 53.5183C47.0174 55.0836 49.1381 55.9628 51.3494 55.9628C53.5606 55.9628 55.6814 55.0836 57.2454 53.5183C57.4478 53.3189 57.6386 53.1082 57.8169 52.887C57.8345 52.8677 57.8497 52.8464 57.8622 52.8234C58.0239 52.6303 58.1753 52.4287 58.3157 52.2194L58.42 52.0423C58.5289 51.8697 58.6378 51.6971 58.7331 51.5155C58.7739 51.4383 58.8056 51.3565 58.8419 51.2793C58.9236 51.1158 59.0052 50.9523 59.0732 50.7843C59.1095 50.6934 59.1412 50.5981 59.173 50.5027C59.2047 50.4073 59.2909 50.1893 59.3362 50.0485C59.3816 49.9078 59.3907 49.8351 59.4225 49.7261C59.4542 49.6171 59.4996 49.4309 59.5313 49.272C59.5631 49.113 59.5675 49.0403 59.5857 48.9223C59.6038 48.8042 59.6311 48.6361 59.6492 48.4681C59.6674 48.3001 59.6491 48.2183 59.6718 48.0912C59.6945 47.964 59.6718 47.8141 59.6718 47.6779C59.6718 47.5416 59.6718 47.4145 59.6718 47.2828C59.6718 47.1511 59.6718 47.0194 59.6718 46.8922C59.6718 46.765 59.6401 46.6151 59.622 46.4789C59.6039 46.3426 59.5902 46.2291 59.5675 46.1065C59.5448 45.9839 59.5086 45.8295 59.4768 45.6887C59.4451 45.5479 59.4224 45.4525 59.3907 45.3344C59.3589 45.2163 59.3045 45.0529 59.2546 44.9121C59.2047 44.7713 59.182 44.6895 59.1367 44.5805C59.0913 44.4715 59.0233 44.299 58.9598 44.1627C58.8963 44.0265 58.8646 43.9492 58.8147 43.8448C58.7648 43.7403 58.665 43.5723 58.5879 43.4406C58.5108 43.3089 58.4746 43.2362 58.4111 43.1409C58.3476 43.0455 58.2387 42.8775 58.1434 42.7503C58.0482 42.6231 58.0074 42.5596 57.9348 42.4687C57.8383 42.341 57.7353 42.2181 57.6263 42.1008C57.5765 42.0418 57.5312 41.9782 57.4767 41.9192L57.318 41.7602L57.2636 41.7057L57.2091 41.6558L55.1138 39.5576L57.0051 37.6592C58.4215 38.4651 59.6493 39.5651 60.6064 40.8852C61.5634 42.2054 62.2274 43.7152 62.5539 45.3135C62.8803 46.9117 62.8616 48.5613 62.499 50.1517C62.1365 51.7421 61.4385 53.2365 60.4518 54.5346C59.4651 55.8327 58.2126 56.9044 56.7783 57.678C55.344 58.4515 53.761 58.909 52.1357 59.0196C50.5103 59.1302 48.8801 58.8915 47.3544 58.3195C45.8288 57.7474 44.443 56.8552 43.2899 55.7028L43.2672 55.7119ZM60.2841 38.6674C59.5662 37.9423 58.947 37.1252 58.4427 36.2377L60.3341 34.3393L62.4294 36.4375L62.4566 36.4693L62.4839 36.4966H62.5065L62.5382 36.5283L62.697 36.6873C62.7424 36.7327 62.7967 36.769 62.8466 36.8145C62.9827 36.9325 63.1188 37.0506 63.2594 37.1596C63.3335 37.2211 63.4107 37.2787 63.4907 37.3322C63.6359 37.4367 63.781 37.5411 63.9443 37.6365L64.1892 37.7818L64.6427 38.0362L64.9012 38.1542L65.3547 38.3586L65.6269 38.454C65.7856 38.5084 65.9444 38.563 66.1077 38.6084L66.3979 38.681C66.5566 38.7174 66.7154 38.7582 66.8787 38.7855L67.1825 38.8309C67.3412 38.8536 67.5 38.8764 67.6587 38.89H67.9807C68.1395 38.89 68.2892 38.89 68.4343 38.89H68.7744L69.228 38.8627C69.3504 38.8627 69.4684 38.8264 69.5908 38.8082C69.7133 38.79 69.8675 38.7719 70.0081 38.7446L70.3936 38.6493C70.5206 38.6175 70.6475 38.5902 70.7745 38.5494C70.9015 38.5085 71.0467 38.4585 71.1828 38.4085C71.3188 38.3586 71.4141 38.3313 71.5275 38.2859C71.6409 38.2405 71.8177 38.1497 71.981 38.0816C72.1443 38.0134 72.1805 37.9953 72.2758 37.9408C72.371 37.8863 72.5933 37.7591 72.7293 37.6637C72.8064 37.6183 72.8835 37.5775 72.9561 37.5275C73.1466 37.4003 73.3325 37.2595 73.5139 37.1188L73.6228 37.037C74.5043 36.3234 75.2313 35.4373 75.7594 34.4329C76.2874 33.4285 76.6054 32.3269 76.694 31.1953C76.7827 30.0637 76.64 28.9259 76.2748 27.8513C75.9096 26.7768 75.3295 25.7881 74.5699 24.9455C73.8103 24.103 72.8872 23.4243 71.8569 22.951C70.8266 22.4777 69.7108 22.2197 68.5776 22.1927C67.4443 22.1656 66.3175 22.3702 65.2659 22.7939C64.2143 23.2175 63.26 23.8514 62.4612 24.6567L62.4067 24.7112L60.3114 26.8094L58.42 24.9156C58.9248 24.0206 59.5489 23.1986 60.2751 22.4723C61.8727 20.8742 63.9077 19.7864 66.1226 19.3462C68.3376 18.906 70.6331 19.1332 72.7191 19.9991C74.8051 20.865 76.588 22.3308 77.8423 24.2111C79.0966 26.0914 79.766 28.3018 79.766 30.563C79.766 32.8242 79.0966 35.0347 77.8423 36.915C76.588 38.7953 74.8051 40.261 72.7191 41.1269C70.6331 41.9929 68.3376 42.22 66.1226 41.7798C63.9077 41.3396 61.8727 40.2518 60.2751 38.6538L60.2841 38.6674Z" fill="white"/>
<path d="M18.876 91.422C18.7871 91.4175 18.699 91.4038 18.613 91.3811C18.4323 91.3328 18.2728 91.2258 18.1594 91.0768C18.0007 90.8952 16.7126 88.9378 16.5675 88.7289L17.783 87.0984C18.0007 86.8078 18.1458 86.6125 18.3635 86.5534C18.4446 86.5298 18.5286 86.5176 18.613 86.5171C18.6629 86.5171 18.6946 86.5171 18.6946 86.4717C18.6946 86.4263 18.6583 86.4263 18.5721 86.4263C18.3181 86.4263 18.0097 86.4263 17.9416 86.4263C17.8736 86.4263 17.5561 86.4263 17.2704 86.4263C17.1797 86.4263 17.1434 86.4263 17.1434 86.4717C17.1434 86.5171 17.1435 86.5171 17.2115 86.5171C17.2852 86.5072 17.36 86.5072 17.4337 86.5171C17.5108 86.5171 17.5653 86.5898 17.5653 86.6398C17.5628 86.7257 17.536 86.8091 17.4881 86.8804C17.411 87.0212 16.6083 88.1748 16.3815 88.4609C15.9869 87.8841 15.6785 87.3846 15.361 86.8532C15.3162 86.7871 15.2897 86.7104 15.2839 86.6307C15.2834 86.6041 15.2922 86.5782 15.3088 86.5574C15.3253 86.5367 15.3486 86.5224 15.3746 86.5171C15.4423 86.5069 15.5111 86.5069 15.5787 86.5171C15.6241 86.5171 15.6468 86.5171 15.6468 86.4717C15.6468 86.4263 15.6468 86.4263 15.5198 86.4263C15.2613 86.4263 14.8803 86.4263 14.8122 86.4263H13.9052C13.8099 86.4263 13.7782 86.4263 13.7782 86.4717C13.7782 86.5171 13.7782 86.5171 13.8463 86.5171C13.9537 86.5215 14.0602 86.5382 14.1637 86.5671C14.4155 86.6714 14.6226 86.8611 14.7488 87.103L15.9552 88.9196L14.5946 90.8452C14.3542 91.1903 14.1954 91.3357 13.9686 91.3902C13.8749 91.4124 13.7792 91.4246 13.6829 91.4265C13.6466 91.4265 13.624 91.4265 13.624 91.4719C13.624 91.5173 13.624 91.5174 13.7011 91.5174C13.946 91.5174 14.3179 91.5174 14.3859 91.5174H15.1115C15.1614 91.5174 15.1978 91.5173 15.1978 91.4719C15.1978 91.4265 15.1751 91.4265 15.1388 91.4265H14.9982C14.9663 91.4225 14.9368 91.4077 14.9146 91.3846C14.8923 91.3614 14.8785 91.3314 14.8757 91.2993C14.8834 91.1927 14.9178 91.0896 14.9756 90.9996L16.1502 89.2148C16.6037 89.896 17.0573 90.5773 17.4474 91.2222C17.4598 91.2362 17.4688 91.2529 17.4738 91.271C17.4788 91.289 17.4795 91.308 17.476 91.3265C17.4725 91.3449 17.4648 91.3623 17.4536 91.3772C17.4423 91.3922 17.4277 91.4044 17.411 91.4129C17.4045 91.4135 17.398 91.4153 17.3922 91.4184C17.3864 91.4214 17.3813 91.4256 17.377 91.4307C17.3728 91.4357 17.3697 91.4416 17.3677 91.4479C17.3658 91.4542 17.3651 91.4608 17.3657 91.4674C17.3657 91.4992 17.4019 91.5128 17.5969 91.5174C17.9825 91.5174 18.3454 91.5174 18.8034 91.5174C18.8715 91.5174 18.9123 91.5173 18.9123 91.4674C18.9123 91.4174 18.9168 91.422 18.876 91.422Z" fill="white"/>
<path d="M28.4728 90.2958C28.4274 90.2958 28.4092 90.323 28.3956 90.3957C28.3532 90.6063 28.2562 90.8021 28.1145 90.9634C27.7348 91.2354 27.2672 91.3553 26.8037 91.2994C26.4627 91.319 26.1213 91.2705 25.7992 91.1567C25.4772 91.043 25.1808 90.8662 24.9276 90.6367C24.6744 90.4072 24.4693 90.1296 24.3242 89.8201C24.1791 89.5105 24.0969 89.1751 24.0824 88.8334C24.0519 88.5081 24.097 88.1801 24.2143 87.8752C24.3315 87.5703 24.5177 87.2967 24.7582 87.0758C25.2562 86.7018 25.8755 86.5269 26.4953 86.5853C27.024 86.5647 27.5473 86.6989 28.0011 86.9714C28.1022 87.0543 28.1833 87.159 28.2383 87.2778C28.2932 87.3966 28.3207 87.5263 28.3185 87.6572C28.3185 87.7525 28.3185 87.7979 28.382 87.7979C28.4455 87.7979 28.441 87.7571 28.4501 87.6572C28.4591 87.5572 28.4501 87.203 28.4728 86.9623C28.4955 86.7216 28.509 86.6398 28.509 86.5853C28.509 86.5308 28.509 86.5172 28.4092 86.5127C28.1688 86.5127 27.9285 86.4582 27.6428 86.4128C27.2797 86.3564 26.9127 86.329 26.5452 86.331C25.7157 86.2704 24.894 86.5268 24.2457 87.0486C23.9898 87.2786 23.7832 87.5581 23.6382 87.8704C23.4932 88.1826 23.4128 88.521 23.4021 88.8652C23.3879 89.2453 23.4625 89.6234 23.62 89.9696C23.7775 90.3157 24.0134 90.6202 24.3092 90.8589C25.0274 91.3881 25.9095 91.6455 26.7991 91.5856C27.2577 91.5993 27.7159 91.5473 28.1597 91.4312C28.2958 91.3767 28.314 91.3631 28.3594 91.2359C28.4331 90.9523 28.4876 90.664 28.5226 90.373C28.5226 90.3412 28.5091 90.2958 28.4728 90.2958Z" fill="white"/>
<path d="M38.6094 91.4219C38.5067 91.4217 38.4046 91.408 38.3055 91.381C38.1468 91.3402 37.9291 91.2312 37.657 90.6317C37.2034 89.6098 36.0151 86.8304 35.9017 86.5716C35.7883 86.3127 35.7793 86.3308 35.734 86.3308C35.6886 86.3308 35.6568 86.3717 35.5661 86.5942L33.8563 90.7725C33.7202 91.1086 33.5706 91.3674 33.2213 91.4083H33.0036C32.9674 91.4083 32.9355 91.4083 32.9355 91.4492C32.9355 91.4901 32.9809 91.4991 33.0807 91.4991C33.4345 91.4991 33.8471 91.4991 33.9288 91.4991C34.0104 91.4991 34.337 91.4991 34.5184 91.4991C34.5864 91.4991 34.6318 91.4991 34.6318 91.4492C34.6318 91.3992 34.6092 91.4083 34.5593 91.4083H34.4822C34.3552 91.4083 34.1964 91.3447 34.1964 91.213C34.2033 91.0565 34.2386 90.9026 34.3007 90.7589L34.7543 89.569C34.7584 89.553 34.7679 89.5388 34.7811 89.5289C34.7942 89.519 34.8104 89.514 34.8269 89.5145H36.4732C36.4874 89.5133 36.5016 89.5166 36.5138 89.524C36.526 89.5313 36.5355 89.5423 36.5412 89.5553L37.2442 91.213C37.2895 91.3175 37.2443 91.3811 37.1989 91.3947C37.1536 91.4083 37.1444 91.3947 37.1444 91.4401C37.1444 91.4855 37.2261 91.481 37.3712 91.4855C37.8928 91.4855 38.4416 91.4855 38.555 91.4855C38.6684 91.4855 38.7046 91.4855 38.7046 91.4355C38.7046 91.3856 38.6547 91.4219 38.6094 91.4219ZM36.3417 89.2874H34.904C34.904 89.2874 34.8631 89.2874 34.904 89.2374L35.5661 87.4208C35.6024 87.3209 35.6432 87.3209 35.6795 87.4208L36.3961 89.2374C36.3916 89.2647 36.3915 89.2874 36.3507 89.2874H36.3417Z" fill="white"/>
<path d="M48.9913 86.4264C48.6829 86.4264 48.4334 86.4264 48.3517 86.4264C48.2701 86.4264 47.8982 86.4264 47.5671 86.4264C47.4764 86.4264 47.4174 86.4264 47.4174 86.4718C47.4174 86.5172 47.4175 86.5173 47.4764 86.5173C47.6012 86.5193 47.7256 86.5315 47.8484 86.5536C48.0797 86.6081 48.134 86.7534 48.1386 87.194L48.2247 90.6138C47.9844 90.3912 47.1589 89.5692 46.4106 88.8561C45.245 87.7434 44.1429 86.6626 44.0114 86.5445C43.8799 86.4264 43.8073 86.3311 43.7483 86.3311C43.6894 86.3311 43.6622 86.4037 43.6622 86.6671V90.5274C43.6622 91.136 43.6214 91.3313 43.4354 91.3813C43.3346 91.4071 43.231 91.4208 43.1269 91.4221C43.0861 91.4221 43.0635 91.4222 43.0635 91.463C43.0635 91.5039 43.1088 91.513 43.1859 91.513C43.5261 91.513 43.8435 91.513 43.9115 91.513C43.9796 91.513 44.2789 91.513 44.7098 91.513C44.8005 91.513 44.8459 91.513 44.8459 91.463C44.8459 91.4131 44.8232 91.4221 44.7824 91.4221C44.6559 91.4202 44.5299 91.4065 44.4059 91.3813C44.2018 91.3268 44.1293 91.1497 44.1112 90.6001L44.0158 87.3756C44.2562 87.6163 45.1089 88.4656 45.9843 89.3058C46.7825 90.0733 47.871 91.0634 47.9527 91.1224C48.3518 91.4812 48.4425 91.5766 48.5014 91.5766C48.5604 91.5766 48.5694 91.5402 48.5694 91.0997V87.153C48.5694 86.7488 48.5967 86.599 48.8461 86.5536C48.9063 86.5454 48.9673 86.5454 49.0275 86.5536C49.0819 86.5536 49.1092 86.5536 49.1092 86.5082C49.1092 86.4628 49.0775 86.4264 48.9913 86.4264Z" fill="white"/>
<path d="M59.3271 91.4219C59.2245 91.4217 59.1224 91.408 59.0233 91.381C58.8646 91.3402 58.6469 91.2312 58.3748 90.6317C57.9212 89.6098 56.7283 86.8304 56.615 86.5716C56.5016 86.3127 56.4971 86.3308 56.4517 86.3308C56.4064 86.3308 56.3746 86.3717 56.2839 86.5942L54.574 90.7725C54.438 91.1086 54.2883 91.3674 53.9391 91.4083H53.7214C53.6851 91.4083 53.6533 91.4083 53.6533 91.4492C53.6533 91.4901 53.6987 91.4991 53.7985 91.4991C54.1522 91.4991 54.565 91.4991 54.6467 91.4991C54.7283 91.4991 55.0549 91.4991 55.2363 91.4991C55.3043 91.4991 55.3497 91.4991 55.3497 91.4492C55.3497 91.3992 55.3496 91.4083 55.2725 91.4083H55.2C55.073 91.4083 54.9142 91.3447 54.9142 91.213C54.921 91.0565 54.9564 90.9026 55.0185 90.7589L55.472 89.569C55.4761 89.553 55.4856 89.5388 55.4988 89.5289C55.512 89.519 55.5282 89.514 55.5447 89.5145H57.1683C57.1823 89.5139 57.1964 89.5175 57.2085 89.5248C57.2205 89.532 57.2302 89.5426 57.2364 89.5553L57.9394 91.213C57.9802 91.3175 57.9393 91.3811 57.894 91.3947C57.8486 91.4083 57.8396 91.3947 57.8396 91.4401C57.8396 91.4855 57.9213 91.481 58.0664 91.4855C58.588 91.4855 59.1367 91.4855 59.2501 91.4855C59.3635 91.4855 59.3998 91.4855 59.3998 91.4355C59.3998 91.3856 59.368 91.4219 59.3271 91.4219ZM57.0594 89.2874H55.6217C55.6217 89.2874 55.5809 89.2874 55.6217 89.2374L56.2839 87.4208C56.3202 87.3209 56.361 87.3209 56.3973 87.4208L57.1139 89.2374C57.1094 89.2647 57.1093 89.2874 57.0685 89.2874H57.0594Z" fill="white"/>
<path d="M67.6907 86.3852C67.6589 86.3852 67.5909 86.3852 67.4775 86.4216C67.3001 86.4452 67.1212 86.4559 66.9423 86.4534H64.1394C64.0442 86.4534 63.7584 86.4534 63.5407 86.4216C63.4277 86.4067 63.3166 86.3793 63.2096 86.3398C63.1779 86.3398 63.1507 86.4261 63.1326 86.467C63.1144 86.5079 62.9692 87.0983 62.9692 87.1664C62.9692 87.2345 62.9693 87.23 63.0056 87.23C63.0418 87.23 63.0599 87.23 63.0826 87.1618C63.1169 87.0876 63.1595 87.0175 63.2096 86.9529C63.3275 86.7894 63.5089 86.744 63.9806 86.735H65.0964V89.5643C65.1092 90.0507 65.0956 90.5373 65.0556 91.0222C65.0284 91.2174 64.9876 91.3673 64.8379 91.3946C64.7632 91.4104 64.6874 91.4195 64.6111 91.4218C64.5658 91.4218 64.5521 91.4219 64.5521 91.4627C64.5521 91.5036 64.5884 91.5127 64.67 91.5127C64.8968 91.5127 65.3731 91.5127 65.4094 91.5127C65.4456 91.5127 65.9264 91.5127 66.3391 91.5127C66.4208 91.5127 66.4616 91.5127 66.4616 91.4627C66.4616 91.4128 66.4615 91.4218 66.398 91.4218C66.3345 91.4218 66.1667 91.4218 66.0579 91.3946C65.8357 91.3673 65.7903 91.2174 65.7677 91.0222C65.7277 90.5373 65.714 90.0507 65.7268 89.5643V86.7122H66.6793C67.405 86.7122 67.5864 86.8803 67.5864 87.0847V87.1573C67.5864 87.2527 67.5863 87.2708 67.6453 87.2708C67.7042 87.2708 67.6998 87.2709 67.6998 87.1846C67.6998 87.0983 67.6998 86.6487 67.6998 86.4443C67.727 86.417 67.727 86.3852 67.6907 86.3852Z" fill="white"/>
<path d="M77.8999 86.426C77.6731 86.426 77.3193 86.426 77.2694 86.426C77.2195 86.426 76.8158 86.426 76.4666 86.426C76.385 86.426 76.3487 86.426 76.3487 86.4759C76.3487 86.5259 76.376 86.5169 76.4077 86.5169C76.4937 86.5099 76.5802 86.5099 76.6663 86.5169C76.9112 86.5623 76.9746 86.6713 76.9883 86.8983C77.0019 87.1254 76.9883 87.3025 76.9883 88.3562V89.1963C77.0441 89.783 76.8827 90.3697 76.5347 90.8449C76.379 90.9999 76.1943 91.1226 75.9911 91.206C75.788 91.2894 75.5704 91.3318 75.3509 91.3309C75.146 91.3467 74.9401 91.3219 74.7448 91.2581C74.5495 91.1942 74.3686 91.0923 74.2125 90.9585C73.886 90.686 73.6456 90.2682 73.6456 89.2963V88.3562C73.6456 87.3025 73.6456 87.1163 73.6456 86.8983C73.6456 86.6803 73.7228 86.5441 73.9268 86.5169C73.9903 86.5122 74.0539 86.5122 74.1173 86.5169C74.1445 86.5169 74.1762 86.5168 74.1762 86.4759C74.1762 86.4351 74.14 86.426 74.0539 86.426C73.8271 86.426 73.378 86.426 73.31 86.426C73.2419 86.426 72.7794 86.426 72.4392 86.426C72.3576 86.426 72.3213 86.426 72.3213 86.4759C72.3213 86.5259 72.3484 86.5169 72.3802 86.5169C72.4662 86.5099 72.5527 86.5099 72.6387 86.5169C72.8837 86.5623 72.9471 86.6713 72.9607 86.8983C72.9743 87.1254 72.9607 87.3025 72.9607 88.3562V89.3371C72.9607 90.3181 73.251 90.7905 73.6184 91.1084C74.0727 91.4273 74.6197 91.587 75.1741 91.5625C75.7338 91.5842 76.2831 91.4073 76.7252 91.063C77.3284 90.5861 77.4191 89.7777 77.4191 89.051V88.3335C77.4191 87.2798 77.4191 87.0936 77.4191 86.8756C77.4191 86.6576 77.4961 86.535 77.7002 86.4941C77.7636 86.4895 77.8274 86.4895 77.8908 86.4941C77.918 86.4941 77.9497 86.4941 77.9497 86.4533C77.9497 86.4124 77.9861 86.426 77.8999 86.426Z" fill="white"/>
<path d="M88.9482 86.4264C88.6398 86.4264 88.3949 86.4264 88.3087 86.4264C88.2226 86.4264 87.8552 86.4264 87.5241 86.4264C87.4334 86.4264 87.3744 86.4264 87.3744 86.4718C87.3744 86.5172 87.3745 86.5173 87.4334 86.5173C87.5582 86.5191 87.6825 86.5313 87.8053 86.5536C88.0366 86.6081 88.0911 86.7534 88.1001 87.194L88.1817 90.6138C87.9414 90.3912 87.1159 89.5692 86.3676 88.8561C85.2065 87.7434 84.0998 86.6626 83.9683 86.5445C83.8368 86.4264 83.7642 86.3311 83.7052 86.3311C83.6463 86.3311 83.6236 86.4037 83.6236 86.6671V90.5274C83.6236 91.136 83.5873 91.3313 83.3968 91.3813C83.296 91.4071 83.1925 91.4208 83.0885 91.4221C83.0476 91.4221 83.0249 91.4222 83.0249 91.463C83.0249 91.5039 83.0703 91.513 83.1474 91.513C83.4875 91.513 83.805 91.513 83.8731 91.513C83.9411 91.513 84.2405 91.513 84.6713 91.513C84.762 91.513 84.8074 91.513 84.8074 91.463C84.8074 91.4131 84.8073 91.4221 84.7484 91.4221C84.6204 91.4204 84.4929 91.4068 84.3675 91.3813C84.1634 91.3268 84.0908 91.1497 84.0772 90.6001L83.9774 87.3756C84.2178 87.6163 85.0705 88.4656 85.9458 89.3058C86.744 90.0733 87.8325 91.0634 87.9141 91.1224C88.3132 91.4812 88.4039 91.5766 88.4629 91.5766C88.5218 91.5766 88.531 91.5402 88.531 91.0997V87.153C88.531 86.7488 88.5581 86.599 88.8076 86.5536C88.8678 86.5454 88.9289 86.5454 88.989 86.5536C89.0435 86.5536 89.0707 86.5536 89.0707 86.5082C89.0707 86.4628 89.0344 86.4264 88.9482 86.4264Z" fill="white"/>
<path d="M34.3508 76.712C34.7957 75.7515 35.01 74.7001 34.9766 73.6419C34.9866 72.7899 34.8735 71.941 34.641 71.1214C34.4371 70.4159 34.0723 69.7675 33.5752 69.2275C33.0552 68.6905 32.4168 68.283 31.7111 68.0376C30.8355 67.7396 29.9144 67.5982 28.9899 67.6198C28.5363 67.6198 28.0828 67.6198 27.6292 67.6652C27.1757 67.7107 26.7222 67.7106 26.2686 67.7106C25.8151 67.7106 25.3615 67.7106 24.908 67.6834L23.5474 67.6198C23.5836 68.4191 23.6154 69.2048 23.6471 69.9769C23.6789 70.7489 23.6925 71.5301 23.6925 72.334V75.4858C23.6925 76.2896 23.6925 77.0753 23.6471 77.8519C23.6018 78.6285 23.5836 79.396 23.5474 80.1227C23.9556 80.1227 24.3637 80.0864 24.7628 80.0864H25.9829C26.3911 80.0864 26.7993 80.0864 27.1984 80.0864C27.5975 80.0864 28.0057 80.0864 28.4184 80.0864C29.1775 80.0806 29.9325 79.9737 30.6634 79.7685C31.4437 79.556 32.1733 79.1884 32.8087 78.6876C33.4573 78.1465 33.9831 77.4729 34.3508 76.712ZM32.6953 76.5849C32.4084 77.2747 31.9661 77.8887 31.4027 78.3787C30.8779 78.8203 30.2563 79.1315 29.5886 79.2871C28.9334 79.4438 28.262 79.5231 27.5884 79.5232C27.1348 79.5232 26.6813 79.5232 26.2278 79.4778C25.8787 79.458 25.5316 79.4124 25.1892 79.3416C25.1167 78.079 25.0803 76.7922 25.0803 75.4812V72.3521C25.0803 71.6981 25.0803 71.0487 25.1075 70.4128C25.1347 69.777 25.153 69.1639 25.1892 68.5962C25.5657 68.5508 25.9919 68.5054 26.4636 68.4691C26.9353 68.4328 27.4433 68.4146 27.9921 68.4146C28.6895 68.4095 29.3851 68.4857 30.0648 68.6417C30.6642 68.781 31.221 69.063 31.6884 69.4637C32.1748 69.9016 32.5443 70.4542 32.7634 71.0714C33.3184 72.8842 33.2803 74.8271 32.6545 76.6166L32.6953 76.5849Z" fill="white"/>
<path d="M78.4212 67.6194C78.4847 68.6867 78.521 69.822 78.5391 71.0301C78.5573 72.2381 78.5664 73.478 78.5664 74.7542V77.2293C78.0085 76.6707 77.3599 75.994 76.6116 75.1993L74.2486 72.6696C73.4202 71.7795 72.5841 70.8712 71.7405 69.9447C70.9015 69.0364 70.1078 68.1689 69.3685 67.3696H69.0782C69.1009 67.7784 69.1191 68.4051 69.1236 69.2407C69.1281 70.0764 69.1236 71.0574 69.1236 72.2473C69.1236 72.6469 69.1236 73.1011 69.1236 73.6097C69.1236 74.1184 69.0963 74.6452 69.0782 75.1765C69.0601 75.7079 69.0374 76.2438 69.0057 76.7797C68.9739 77.3156 68.9467 77.8061 68.9241 78.2648C68.9014 78.7235 68.8742 79.1095 68.8425 79.4365C68.8107 79.7635 68.7834 79.9906 68.7607 80.1087C68.9837 80.0843 69.2077 80.0721 69.432 80.0723C69.6442 80.0719 69.8562 80.0841 70.067 80.1087C70.067 80.0133 70.0443 79.8271 70.0352 79.5546C70.0262 79.2821 70.008 78.9642 69.9989 78.6009C69.9898 78.2376 69.9718 77.8424 69.9582 77.4155C69.9445 76.9886 69.9581 76.5708 69.9309 76.1621C69.9037 75.7533 69.9309 75.3537 69.9309 74.9767C69.9309 74.5998 69.9309 74.2864 69.9309 74.0321C69.9309 73.0466 69.9309 72.27 69.9309 71.7023C69.9309 71.1346 69.9582 70.6759 69.9672 70.3398C71.5456 72.0172 73.1223 73.7006 74.6976 75.39C76.2729 77.0795 77.7576 78.7326 79.1515 80.3494H79.4054V79.7499C79.4054 79.4592 79.4054 79.1186 79.4054 78.7235C79.4054 78.3284 79.4054 77.9015 79.4054 77.4473C79.4054 76.9932 79.4054 76.539 79.4054 76.0848C79.4054 75.6307 79.4054 75.2038 79.4054 74.7905V73.696C79.4054 73.3463 79.4054 72.8785 79.4417 72.2972C79.478 71.7159 79.4915 71.121 79.5233 70.5124C79.555 69.9038 79.5823 69.3361 79.6141 68.8002C79.6458 68.2643 79.6685 67.8919 79.6957 67.6013C79.5061 67.653 79.3114 67.6835 79.1151 67.6921C78.8817 67.6978 78.6484 67.6734 78.4212 67.6194Z" fill="white"/>
<path d="M10.0634 76.9255C9.761 76.2171 9.43146 75.4525 9.07467 74.632C8.72544 73.81 8.37619 72.9789 8.02696 72.1478C7.67773 71.3167 7.33303 70.4856 6.99287 69.6726C6.65272 68.8597 6.33974 68.0967 6.05401 67.4019H5.70931C4.76595 69.5636 3.83016 71.683 2.90192 73.76C1.97367 75.837 1.01969 77.9398 0.0400391 80.0683C0.262952 80.0438 0.487029 80.0317 0.711272 80.0319C0.935512 80.0318 1.15958 80.044 1.38251 80.0683C1.53671 79.5142 1.77106 78.8102 2.08552 77.9564C2.33043 77.2934 2.59651 76.6046 2.88376 75.89C4.15367 72.6428 5.45541 69.8271 5.45541 69.8271C5.99513 70.9352 6.5937 72.3386 7.16517 73.751L7.46457 74.4322H7.44642C7.92717 75.6403 8.38076 76.8165 8.74359 77.7793V77.8293C8.92048 78.2835 9.07913 78.6695 9.22426 79.0646C9.3694 79.4597 9.48279 79.7912 9.56896 80.0683C9.72823 80.0455 9.88886 80.0334 10.0497 80.0319H11.0068C11.1676 80.0333 11.3282 80.0454 11.4874 80.0683C11.3332 79.7776 11.1292 79.3553 10.8843 78.8012C10.6394 78.2471 10.3718 77.6295 10.0634 76.9255Z" fill="white"/>
<path d="M53.9891 77.7975L54.0116 77.8474C54.184 78.3016 54.3473 78.6877 54.4924 79.0828C54.6376 79.4779 54.7509 79.8094 54.8326 80.0864C54.9919 80.0639 55.1525 80.0518 55.3134 80.0501H56.2748C56.4357 80.0518 56.5963 80.0639 56.7556 80.0864C56.5969 79.7958 56.3927 79.3734 56.1478 78.8193C55.9029 78.2653 55.6218 77.6295 55.3134 76.9255C55.005 76.2216 54.6784 75.454 54.3292 74.632C53.98 73.81 53.6262 72.9789 53.277 72.1478C52.9277 71.3167 52.583 70.4856 52.2474 69.6726L51.304 67.4019H50.9593C50.0159 69.5636 49.0802 71.683 48.1519 73.76C47.2237 75.837 46.2697 77.9398 45.29 80.0683C45.513 80.044 45.737 80.0318 45.9613 80.0319C46.1855 80.0317 46.4096 80.0438 46.6325 80.0683C46.7867 79.5142 47.0226 78.8102 47.3401 77.9564C47.5789 77.2934 47.845 76.6046 48.1383 75.89C49.4082 72.6428 50.7053 69.8271 50.7053 69.8271C51.245 70.9352 51.8482 72.3386 52.4197 73.751L52.7146 74.4322C53.1772 75.6584 53.6262 76.8483 53.9891 77.7975Z" fill="white"/>
<path d="M102.087 78.8193L101.257 76.9255C100.955 76.2171 100.625 75.4525 100.268 74.632C99.9192 73.81 99.57 72.9789 99.2208 72.1478C98.8716 71.3167 98.5269 70.4856 98.1867 69.6726C97.8466 68.8597 97.5336 68.0967 97.2479 67.4019H96.9032C95.9598 69.5636 95.024 71.683 94.0958 73.76C93.1675 75.837 92.2135 77.9398 91.2339 80.0683C91.4568 80.0438 91.6809 80.0317 91.9051 80.0319C92.1294 80.0318 92.3534 80.044 92.5764 80.0683C92.7306 79.5142 92.9649 78.8102 93.2794 77.9564C93.5243 77.2934 93.7904 76.6046 94.0776 75.89C95.3475 72.6428 96.6492 69.8271 96.6492 69.8271C97.1889 70.9352 97.7876 72.3386 98.359 73.751L98.6584 74.4322H98.6357C99.1165 75.6403 99.57 76.8165 99.9328 77.7793V77.8293C100.11 78.2835 100.268 78.6695 100.414 79.0646C100.559 79.4597 100.672 79.7912 100.758 80.0683C100.918 80.0455 101.078 80.0334 101.239 80.0319H102.237C102.398 80.0333 102.558 80.0454 102.718 80.0683C102.541 79.7958 102.337 79.3734 102.087 78.8193Z" fill="white"/>
</svg>
