<svg width="143" height="33" viewBox="0 0 143 33" fill="none" xmlns="http://www.w3.org/2000/svg">
<path d="M33.9571 29.3979C33.9896 29.0026 33.9636 28.6047 33.8801 28.2171C33.744 27.8628 33.8483 27.445 33.549 27.1453C33.5316 27.1179 33.5205 27.087 33.5166 27.0547C33.5127 27.0225 33.516 26.9898 33.5263 26.9591C33.5626 26.8274 33.6351 26.7093 33.4038 26.6957C33.3766 26.6957 33.3131 26.5458 33.3312 26.5231C33.5172 26.3051 33.3585 26.0689 33.3993 25.8282C33.3993 25.751 33.4628 25.6329 33.3041 25.5603C33.2224 25.5239 33.236 25.3514 33.3041 25.2106C33.3702 25.0115 33.4023 24.8027 33.3993 24.5929C33.3993 24.5293 33.2451 24.4567 33.2496 24.3931C33.2766 24.2388 33.316 24.0869 33.3676 23.9389C33.3676 23.889 33.4084 23.8209 33.3676 23.7936C33.1453 23.5393 33.2633 23.2713 33.3222 23.0034C33.3222 22.9761 33.3222 22.9398 33.3222 22.9216C33.1408 22.6264 33.3222 22.3267 33.3222 22.0133C33.3433 21.8233 33.3103 21.6312 33.2269 21.4592C33.1907 21.3957 33.2995 21.2549 33.2768 21.1686C33.2444 20.8761 33.2323 20.5817 33.2406 20.2875C33.1952 19.9969 33.2406 19.6926 33.1861 19.4155C33.1272 19.034 33.3131 18.6617 33.1861 18.2892C33.1861 18.2484 33.2678 18.1712 33.3086 18.1121C33.041 17.985 33.3358 17.608 33.041 17.4899C33.0532 17.2976 33.0867 17.1072 33.1408 16.9222C33.1861 16.8132 33.227 16.7588 33.1408 16.627C33.0818 16.4814 33.0818 16.3185 33.1408 16.1729C33.227 15.9504 33.1408 15.7187 33.2633 15.4826C33.3313 15.3781 33.1862 15.151 33.159 14.9785C33.0595 14.5793 33.0768 14.1599 33.2088 13.7704C33.2381 13.6664 33.2381 13.5564 33.2088 13.4525C33.1306 13.1777 33.1181 12.8883 33.1725 12.6078C33.1886 12.4994 33.1886 12.3892 33.1725 12.2808C33.1182 11.9469 33.1182 11.6064 33.1725 11.2725C33.2031 11.1634 33.1918 11.0468 33.1408 10.9456C33.0592 10.8184 33.0047 10.7321 33.1408 10.6322C33.1408 10.6322 33.1408 10.5504 33.1408 10.505C33.1408 10.4596 33.1136 10.2689 33.1408 10.1826C33.168 10.0963 33.2179 9.9555 33.0864 9.86012C33.0566 9.82448 33.0406 9.77939 33.041 9.73295C33.3086 9.58307 33.041 9.35146 33.1317 9.16525C33.19 8.99451 33.2055 8.81207 33.1771 8.6339C33.1453 8.43407 33.1408 8.22969 33.1181 8.02986C33.1181 7.92995 33.041 7.7937 33.0818 7.74374C33.354 7.40313 32.9956 6.97622 33.2406 6.64015C33.2406 6.64015 33.2406 6.56749 33.2406 6.56295C32.9095 6.39946 33.1363 6.1315 33.1544 5.93621C33.1091 5.56447 33.1182 5.1881 33.1816 4.81901C33.2111 4.65532 33.2111 4.48766 33.1816 4.32397C33.1816 4.12414 33.0728 3.91069 33.2496 3.73357C33.1453 3.5292 33.3812 3.3339 33.2496 3.09774C33.1589 2.95241 33.2496 2.73442 33.4537 2.64359C33.6578 2.55276 33.6805 2.48465 33.5989 2.3484C33.5172 2.21216 33.5988 2.12132 33.6759 2.03049C33.753 1.93966 33.9163 1.8352 33.9299 1.65353C33.9299 1.58541 34.0252 1.52636 34.0887 1.47186C34.1522 1.41736 34.261 1.38105 34.2565 1.3538C34.193 1.06314 34.5195 1.11765 34.5966 0.958691C34.5966 0.931441 34.6465 0.899625 34.6601 0.904167C34.9232 0.990456 35.1137 0.781555 35.3858 0.772472C35.4947 0.772472 35.6897 0.890557 35.7033 0.63623C35.786 0.643493 35.867 0.663406 35.9436 0.695273C36.012 0.755488 36.0957 0.795455 36.1854 0.810697C36.2751 0.825938 36.3673 0.815852 36.4516 0.781563C36.506 0.781563 36.5968 0.808802 36.6739 0.826968C36.7468 0.85337 36.8232 0.868695 36.9007 0.8724C36.9634 0.869585 37.026 0.879833 37.0845 0.902503C37.1431 0.925174 37.1963 0.959764 37.2408 1.0041C37.4486 1.1505 37.6652 1.28397 37.8894 1.40375C37.9574 1.44463 38.0572 1.47186 38.0889 1.5309C38.2131 1.70575 38.3846 1.84132 38.5833 1.9215C38.6785 1.976 38.9144 1.97145 38.7647 2.19853C38.7647 2.19853 38.81 2.26211 38.8372 2.28936L39.2908 2.62089C39.4858 2.77076 39.5811 3.02054 39.8623 3.07504C39.953 3.07504 40.0165 3.26577 40.0845 3.37477C40.1525 3.48377 40.1843 3.77444 40.4519 3.78352C40.4519 3.99698 40.656 4.05602 40.7739 4.18318C40.8918 4.31035 40.9598 4.39209 41.0551 4.492C41.3 4.74179 41.5449 4.99613 41.7944 5.24137C42.0438 5.48662 42.3023 5.69551 42.5472 5.95892C42.5978 6.02345 42.6433 6.09178 42.6833 6.16329C42.7468 6.24504 42.8194 6.3268 42.8919 6.40401C42.9338 6.43982 42.9778 6.47317 43.0235 6.50391C43.1459 6.61291 43.0507 6.88541 43.3546 6.88087C43.4816 6.88087 43.6221 7.05345 43.7355 7.16699C43.9353 7.3586 44.1202 7.56507 44.2888 7.78463C44.442 8.01374 44.6394 8.20986 44.8694 8.36142C45.0599 8.47495 45.1642 8.72927 45.3229 8.91547C45.4817 9.10168 45.5678 9.31513 45.8263 9.36963C45.8263 9.55583 46.1348 9.54675 46.1121 9.80108C46.1121 9.90554 46.2935 10.0418 46.416 10.1326C46.6328 10.2906 46.815 10.4916 46.9511 10.723C47.1176 10.9366 47.3113 11.1274 47.5271 11.2907C47.6224 11.3861 47.6995 11.4996 47.7992 11.595C47.8726 11.6528 47.9516 11.703 48.0351 11.7449C48.0714 11.7449 48.1439 11.7449 48.1439 11.7766C48.2029 12.09 48.5249 12.14 48.6972 12.3398C48.7471 12.3989 48.7517 12.4897 48.7971 12.5578C48.8424 12.6259 48.8968 12.7168 48.9513 12.7213C49.1236 12.7213 49.1871 12.8258 49.2597 12.962C49.3751 13.1669 49.5291 13.3473 49.7132 13.4934C49.9506 13.6375 50.1449 13.843 50.2756 14.0883C50.297 14.1539 50.333 14.2138 50.3809 14.2634C50.4289 14.3129 50.4875 14.3509 50.5523 14.3744C50.8108 14.438 50.7835 14.7241 50.9695 14.8286C50.9695 14.8286 51.0103 14.8876 51.0013 14.9058C50.8788 15.1465 51.2552 15.201 51.1917 15.4144C51.4094 15.5234 51.355 15.7596 51.4457 15.9322C51.5364 16.1048 51.4457 16.3318 51.6634 16.4545C51.6634 16.4545 51.6907 16.5044 51.6907 16.5317C51.6971 16.8222 51.6759 17.1126 51.6272 17.3991C51.5773 17.6125 51.7088 17.8533 51.5002 18.0395C51.5002 18.0395 51.5364 18.1394 51.5637 18.1893C51.6816 18.3982 51.6952 18.6435 51.8993 18.8342C51.9189 18.8552 51.9302 18.8827 51.931 18.9114C51.9767 19.1768 51.9935 19.4463 51.9809 19.7153C51.9809 19.8743 51.9809 20.124 51.6952 20.1695C51.5229 20.2058 51.5047 20.4874 51.2417 20.451C51.1464 20.451 51.033 20.5282 50.9332 20.5736C50.8164 20.6388 50.6933 20.692 50.5658 20.7326C50.2423 20.8508 49.8985 20.9033 49.5544 20.887C49.2234 20.8189 48.9467 20.9915 48.6474 20.9324C48.422 20.9323 48.1988 20.9754 47.9897 21.0596C47.9654 21.0673 47.9445 21.0834 47.9308 21.105C47.9807 21.3321 47.704 21.5592 47.9308 21.7817C48.1576 22.0042 47.8492 22.145 48.0034 22.2359C48.0752 22.2783 48.1339 22.3398 48.1731 22.4135C48.2123 22.4872 48.2305 22.5703 48.2256 22.6537C48.2256 22.7263 48.3299 22.7945 48.3889 22.8626C48.4785 22.9459 48.5549 23.0424 48.6156 23.1487C48.6791 23.3077 48.6156 23.5484 48.924 23.4575C48.9694 23.7028 49.2914 23.7527 49.3096 24.0343C49.3096 24.2069 49.3731 24.4067 49.6406 24.3976C49.6951 24.3976 49.7676 24.493 49.813 24.5566C50.1713 25.0834 50.5205 25.6193 50.8833 26.1416C51.033 26.3596 51.2053 26.564 51.3641 26.7774C51.3913 26.8183 51.4322 26.8955 51.414 26.9182C51.2961 27.0908 51.3006 27.177 51.5364 27.1589C51.5703 27.2029 51.5865 27.258 51.5818 27.3133C51.5818 27.3814 51.4639 27.4405 51.4729 27.495C51.4757 27.7023 51.527 27.906 51.6226 28.0899C51.6728 28.1467 51.7052 28.2171 51.7156 28.2922C51.7261 28.3673 51.7143 28.4439 51.6816 28.5123C51.6408 28.6167 51.609 28.7303 51.5591 28.8302C51.5101 28.9322 51.4846 29.044 51.4846 29.1572C51.4846 29.2704 51.5101 29.3822 51.5591 29.4842C51.6599 29.8103 51.7968 30.1241 51.9673 30.4197C52.0659 30.6247 52.0884 30.8581 52.0308 31.0782C52.0308 31.2009 51.8766 31.3099 52.0036 31.4507C52.0036 31.4507 51.9446 31.5506 51.9084 31.5551C51.7904 31.5551 51.7496 31.6369 51.7995 31.7322C51.8208 31.7657 51.834 31.8037 51.838 31.8431C51.842 31.8826 51.8368 31.9224 51.8227 31.9595C51.8086 31.9966 51.786 32.0298 51.7568 32.0566C51.7275 32.0834 51.6925 32.103 51.6543 32.1137C51.5092 32.1773 51.4185 32.4362 51.2008 32.2636C51.2008 32.2636 51.1056 32.309 51.0602 32.3454C50.9476 32.4253 50.8129 32.4683 50.6747 32.4683C50.5366 32.4683 50.4019 32.4253 50.2892 32.3454C50.0987 32.2545 49.8992 32.1864 49.7042 32.1137C49.5908 32.0729 49.5227 32.0274 49.6497 31.923C49.6201 31.8987 49.5882 31.8774 49.5544 31.8594C49.1009 31.7186 48.924 31.2236 48.5431 30.9511C48.5703 30.6831 48.1848 30.6513 48.2074 30.3789C48.2074 30.3516 48.1485 30.2971 48.1168 30.2971C47.7585 30.2971 47.7585 29.9383 47.6088 29.7385C47.5317 29.6431 47.5634 29.4478 47.3457 29.525C47.3457 29.525 47.255 29.466 47.2641 29.4478C47.3503 29.189 47.1098 29.2208 46.9965 29.1254C46.8556 29.0082 46.7333 28.8705 46.6337 28.7167C46.4659 28.4623 46.3479 28.1717 46.0531 28.0263C46.0531 27.7675 45.7855 27.6766 45.7084 27.4677C45.6721 27.3678 45.6358 27.2452 45.4726 27.2906C45.4454 27.2906 45.3864 27.2179 45.3683 27.1725C45.3025 26.9732 45.1814 26.7967 45.019 26.6639C44.6947 26.4033 44.4315 26.0747 44.248 25.7011C44.248 25.6466 44.0757 25.6329 44.0621 25.583C43.9759 25.2469 43.6085 25.1288 43.4815 24.8472C43.4815 24.8109 43.4815 24.7564 43.4815 24.7201C43.4815 24.6837 43.4181 24.5384 43.3591 24.5157C42.9056 24.3704 42.7559 23.9889 42.5472 23.6483C42.5155 23.6029 42.5064 23.5257 42.4701 23.5075C42.1708 23.3894 42.0619 23.1124 41.9123 22.8671C41.8488 22.7627 41.8034 22.6537 41.6492 22.6355C41.5903 22.6355 41.5223 22.522 41.4905 22.4493C41.4363 22.2935 41.3711 22.1417 41.2955 21.9951C41.2274 21.8998 41.046 21.9679 40.9598 21.818C40.8628 21.6799 40.7502 21.5534 40.6242 21.4411C40.5064 21.2957 40.3491 21.1874 40.1712 21.1294C39.9934 21.0714 39.8027 21.0661 39.6219 21.1141L38.7511 21.2413C38.6831 21.262 38.6105 21.262 38.5425 21.2413C38.4563 21.2004 38.4019 21.1413 38.4064 21.3048C38.4064 21.373 38.3792 21.4911 38.3293 21.5092C38.2355 21.5385 38.1552 21.6003 38.1028 21.6835C38.0504 21.7668 38.0294 21.866 38.0436 21.9634C38.0448 21.9842 38.041 22.0051 38.0323 22.0241C38.0236 22.0431 38.0103 22.0597 37.9937 22.0724C37.5673 22.2268 37.8758 22.6537 37.6853 22.8944C37.8123 23.0988 37.6853 23.2804 37.5991 23.4439C37.5621 23.4841 37.5416 23.5368 37.5416 23.5915C37.5416 23.6462 37.5621 23.6989 37.5991 23.7391C37.69 23.885 37.7449 24.0506 37.7591 24.222C37.7733 24.3934 37.7464 24.5657 37.6808 24.7246C37.6514 24.8341 37.6422 24.9479 37.6535 25.0607C37.7335 25.4199 37.6803 25.796 37.5039 26.1189C37.5039 26.1189 37.5039 26.1825 37.5039 26.1916C37.7352 26.4368 37.4766 26.5957 37.4177 26.8001C37.2997 27.2543 37.2181 27.6766 37.1319 28.1126C37.0683 28.3277 37.0392 28.5515 37.0458 28.7757C37.0654 28.982 37.0454 29.1901 36.9868 29.3888C36.9551 29.5478 37.0685 29.7476 36.8417 29.843C36.8616 29.8926 36.8843 29.9412 36.9097 29.9883C36.9419 30.0255 36.9597 30.073 36.9597 30.1223C36.9597 30.1715 36.9419 30.219 36.9097 30.2562C36.8762 30.3016 36.8581 30.3565 36.8581 30.4129C36.8581 30.4693 36.8762 30.5242 36.9097 30.5696C36.9505 30.6286 36.8689 30.8148 36.7963 30.8966C36.6557 31.051 36.5333 31.2145 36.4017 31.3508C36.116 31.6777 35.7849 32.0093 35.3042 31.9184C35.1642 31.8992 35.0318 31.8433 34.9203 31.7563C34.8088 31.6694 34.7222 31.5546 34.6692 31.4234C34.6692 31.3734 34.6692 31.2917 34.633 31.269C34.5092 31.1885 34.407 31.079 34.335 30.95C34.2631 30.821 34.2237 30.6764 34.2202 30.5287C33.9798 30.4107 34.0342 30.179 34.0116 29.9746C33.9889 29.7703 33.9708 29.5205 33.9526 29.298L33.9571 29.3979ZM42.9418 14.0747C42.8874 13.8885 42.8421 13.7159 42.7831 13.5479C42.7734 13.5291 42.7592 13.513 42.7418 13.5012C42.7244 13.4893 42.7043 13.4819 42.6833 13.4797C42.5064 13.5297 42.4792 13.3753 42.4021 13.2844C42.262 13.142 42.1317 12.9903 42.012 12.8303C41.8383 12.5143 41.5928 12.2436 41.2955 12.0401C41.2599 12.0156 41.2354 11.9781 41.2274 11.9356C41.1821 11.7494 40.8737 11.7858 40.9054 11.545C40.7059 11.6586 40.7694 11.427 40.7467 11.4179C40.5919 11.3693 40.4544 11.277 40.3506 11.1522C40.2469 11.0273 40.1812 10.8752 40.1616 10.7139H40.1163C40.08 10.8456 39.9893 10.8411 39.9485 10.7412C39.8804 10.555 39.6355 10.5504 39.5901 10.337C39.5448 10.1235 39.2817 10.1235 39.1366 10.0145C39.0623 9.96913 39.0013 9.90491 38.9597 9.82833C38.9008 9.68754 38.86 9.56492 38.7511 9.79653C38.479 9.76929 38.3565 9.8919 38.3701 10.1599C38.3701 10.1599 38.3339 10.2053 38.3112 10.2143C37.9846 10.3461 37.9483 10.6458 37.8576 10.9319C37.7669 11.218 37.6672 11.5223 37.5764 11.8402C37.5764 11.9038 37.5356 11.9992 37.5764 12.0401C37.6137 12.0907 37.6337 12.152 37.6337 12.2149C37.6337 12.2778 37.6137 12.3391 37.5764 12.3898C37.5764 12.4306 37.6445 12.5306 37.6853 12.6078C37.9075 12.4851 37.8758 12.7122 37.8349 12.7531C37.6445 12.9438 37.776 13.0983 37.8712 13.239C37.9903 13.4044 38.0808 13.5886 38.1388 13.784C38.1797 13.943 38.2431 14.1882 38.5243 14.1882C38.5788 14.1882 38.6422 14.2881 38.6876 14.3563C38.733 14.4244 39.0459 14.7241 39.1003 14.7105C39.2319 14.6742 39.2908 14.6833 39.2545 14.8377C39.2545 14.8649 39.3316 14.9376 39.3407 14.933C39.5402 14.8104 39.7217 15.1692 39.9212 14.9557C39.9212 14.9557 40.0074 14.9557 40.0346 14.9966C40.3339 15.3282 40.656 15.1646 40.9735 15.0466L41.105 14.9966C41.1775 15.2373 41.3182 15.1011 41.4361 15.0511C41.554 15.0012 41.7899 14.8286 41.8896 14.874C42.1618 15.0057 42.3023 14.7922 42.5019 14.7332C42.8511 14.6333 42.901 14.3517 42.9418 14.0747Z" fill="white"/>
<path d="M132.194 17.5764C132.226 17.5764 132.344 17.6127 132.389 17.6808C132.494 17.8398 132.607 17.8398 132.784 17.8171C132.961 17.7944 132.743 17.9488 132.784 17.9579C132.825 17.9669 133.015 18.0714 133.142 17.9579C133.253 17.8594 133.378 17.7797 133.514 17.7217C133.806 17.5618 134.079 17.3682 134.326 17.1449C134.34 17.13 134.35 17.1118 134.356 17.092C134.361 17.0723 134.362 17.0515 134.358 17.0314C134.29 16.8633 134.398 16.7998 134.516 16.7316C134.548 16.7316 134.598 16.6499 134.593 16.6408C134.417 16.3728 134.675 16.2593 134.775 16.0867C134.807 16.0322 134.775 15.9459 134.775 15.8778C134.775 15.6916 134.775 15.5009 135.006 15.3828C135.111 15.3328 135.174 15.1375 135.21 14.9968C135.262 14.6019 135.437 14.2334 135.709 13.9431C135.751 13.907 135.784 13.8614 135.806 13.8101C135.827 13.7589 135.836 13.7033 135.832 13.6479C135.795 13.5298 135.832 13.5117 135.9 13.4481C135.96 13.3522 136.001 13.2459 136.022 13.1347C136.066 12.9439 136.149 12.7643 136.267 12.6079C136.294 12.5608 136.316 12.5105 136.331 12.458C136.39 12.3218 136.448 12.181 136.512 12.0402C136.512 11.9902 136.571 11.9403 136.566 11.8903C136.576 11.4917 136.726 11.1092 136.988 10.8094C137.057 10.6784 137.104 10.5374 137.129 10.3916C137.224 10.1191 137.337 9.85118 137.424 9.57414C137.455 9.47877 137.424 9.35616 137.424 9.27441C137.424 9.19267 137.582 9.15179 137.637 9.07458C137.691 8.99738 137.668 8.91108 137.705 8.84296C137.771 8.65395 137.854 8.47149 137.954 8.29797C138.153 8.03879 138.298 7.74229 138.381 7.426C138.427 7.20849 138.534 7.00855 138.689 6.84921C138.934 6.59943 139.265 6.4314 139.424 6.09533C139.721 5.99296 139.984 5.80879 140.181 5.56395C140.326 5.38228 140.458 5.48674 140.598 5.4822C140.626 5.4822 140.644 5.59576 140.689 5.61392C140.734 5.63209 140.798 5.61392 140.857 5.61392C140.825 5.3051 141.066 5.43679 141.188 5.43225C141.238 5.43225 141.533 5.34595 141.388 5.61844C141.503 5.66487 141.623 5.69839 141.746 5.71837C141.827 5.71837 142.077 5.77741 142.127 5.8637C142.201 6.03198 142.331 6.16976 142.494 6.25427C142.533 6.28162 142.565 6.31839 142.587 6.36124C142.608 6.40409 142.618 6.45163 142.617 6.4995C142.584 6.70311 142.599 6.91161 142.662 7.10809C142.704 7.22095 142.738 7.33622 142.766 7.45325C142.821 7.64089 142.851 7.83468 142.857 8.03001C142.832 8.27218 142.781 8.51111 142.707 8.74303C142.622 9.21669 142.47 9.67559 142.254 10.1055C142.112 10.395 142.004 10.6997 141.932 11.0138C141.788 11.4054 141.6 11.7789 141.369 12.1265C141.342 12.1765 141.27 12.2264 141.279 12.2627C141.342 12.5125 141.143 12.6806 141.097 12.8895C141.052 13.0984 141.097 13.2119 140.88 13.2437C140.88 13.2437 140.857 13.2982 140.834 13.3118C140.707 13.4072 141.011 13.6752 140.689 13.6933C140.669 13.8588 140.637 14.0227 140.594 14.1838C140.544 14.3337 140.381 14.42 140.376 14.638C140.376 14.9604 140.09 15.2011 140.05 15.5463C140.038 15.6396 140 15.7275 139.94 15.7993C139.879 15.8711 139.799 15.9237 139.709 15.9505C139.623 15.9505 139.519 16.0958 139.746 16.1004C139.746 16.1004 139.773 16.173 139.746 16.1912C139.565 16.6119 139.359 17.0214 139.129 17.4174C139.116 17.433 139.106 17.451 139.099 17.4705C139.093 17.49 139.091 17.5106 139.093 17.531C139.152 17.7626 139.011 17.9352 138.916 18.1259C138.564 18.8881 138.263 19.6724 138.013 20.4739C137.979 20.5513 137.938 20.6258 137.891 20.6964C137.709 20.9142 137.602 21.1851 137.587 21.4685C137.588 21.5177 137.578 21.5666 137.557 21.6114C137.537 21.6562 137.507 21.6959 137.469 21.7273C137.36 21.8046 137.288 21.85 137.374 21.9862C137.378 22.0063 137.378 22.0272 137.372 22.0471C137.367 22.0669 137.356 22.085 137.342 22.0998C137.061 22.2996 137.093 22.6811 136.888 22.8945C136.766 23.0217 136.979 23.0489 136.888 23.1307C136.798 23.2124 136.834 23.2851 136.789 23.3532C136.625 23.5983 136.511 23.8729 136.453 24.1616C136.443 24.2625 136.396 24.3561 136.321 24.425C136.154 24.534 136.022 24.6339 136.122 24.8792C135.913 25.0018 136.004 25.247 135.9 25.4151C135.662 25.7097 135.519 26.0688 135.487 26.446C135.481 26.5102 135.462 26.5725 135.432 26.6294C135.401 26.6863 135.36 26.7366 135.31 26.7775C135.115 26.932 135.174 27.2317 134.952 27.3679C134.952 27.3679 135.011 27.5451 134.979 27.5814C134.829 27.7495 134.87 28.0356 134.607 28.1355C134.58 28.1355 134.553 28.2172 134.557 28.2626C134.562 28.3081 134.621 28.4988 134.435 28.5215C134.425 28.5664 134.425 28.6129 134.435 28.6578C134.435 28.6941 134.471 28.7486 134.462 28.7577C134.149 29.0256 134.217 29.5661 133.759 29.7341C133.723 29.7564 133.691 29.7861 133.667 29.8213C133.643 29.8565 133.626 29.8964 133.618 29.9385C133.618 30.1519 133.496 30.2064 133.296 30.2246C133.097 30.2427 133.324 30.3018 133.296 30.3336C133.269 30.3654 133.224 30.438 133.192 30.4335C133 30.4089 132.806 30.4575 132.648 30.5697C132.648 30.5697 132.593 30.6152 132.584 30.6061C132.525 30.5578 132.45 30.5314 132.373 30.5314C132.297 30.5314 132.222 30.5578 132.162 30.6061C132.058 30.3109 131.709 30.4471 131.555 30.2609C131.401 30.0747 131.274 30.0293 131.305 29.7659C131.305 29.5797 131.124 29.3708 131.029 29.1664C130.852 28.7758 130.67 28.3807 130.498 27.9856C130.466 27.9038 130.376 27.813 130.498 27.7177C130.506 27.7021 130.51 27.685 130.51 27.6677C130.51 27.6504 130.506 27.6333 130.498 27.6177C130.293 27.4056 130.161 27.1335 130.122 26.8411C130.102 26.7785 130.072 26.7199 130.031 26.6686C129.999 26.6186 129.94 26.5686 129.945 26.5232C129.976 26.01 129.537 25.6149 129.537 25.129C129.255 24.9064 129.301 24.5477 129.165 24.2615C129.101 24.0793 129.058 23.8903 129.038 23.6984C129.026 23.6499 129.009 23.6027 128.988 23.5576C128.802 23.0535 128.602 22.5584 128.434 22.0498C128.185 21.2913 127.981 20.5193 127.722 19.7563C127.645 19.5111 127.523 19.2749 127.428 19.0297C127.378 18.898 127.355 18.7572 127.314 18.6209C127.273 18.4847 127.269 18.244 127.16 18.1668C127.051 18.0895 127.341 17.9533 127.16 17.867C127.044 17.8018 126.955 17.6977 126.908 17.5729C126.862 17.4482 126.861 17.3111 126.906 17.1858C126.91 17.145 126.91 17.1039 126.906 17.0632C126.625 17.0132 126.793 16.768 126.72 16.609C126.593 16.3592 126.493 16.0913 126.375 15.8369C126.325 15.7381 126.269 15.6425 126.207 15.5508C126.207 15.5145 126.139 15.4872 126.135 15.4509C126.071 14.9604 126.012 14.8651 125.541 14.4382C125.5 14.3987 125.466 14.3526 125.441 14.3019C125.396 14.2383 125.359 14.1657 125.319 14.0975C125.151 14.2429 125.037 13.8704 124.865 14.0476C124.82 14.093 124.706 14.0884 124.629 14.0748C124.384 14.0385 124.271 14.0748 124.239 14.2792C124.207 14.4836 124.139 14.479 123.994 14.4427C123.849 14.4063 123.686 14.3382 123.79 14.6107C123.79 14.6107 123.69 14.6925 123.65 14.6788C123.482 14.6334 123.491 14.7152 123.527 14.8287C123.604 15.0286 123.527 15.1512 123.346 15.2465C123.164 15.3419 123.2 15.401 123.196 15.569C123.164 15.8037 123.057 16.0218 122.892 16.1912C122.816 16.2847 122.763 16.3953 122.738 16.5137C122.597 17.0632 122.284 17.54 122.098 18.0714C121.967 18.4665 121.645 18.7708 121.622 19.2068C121.259 19.7518 121.169 20.4058 120.828 20.9689C120.767 21.0797 120.682 21.1757 120.579 21.2505C120.502 21.3095 120.579 21.3186 120.579 21.364C120.579 21.4094 120.606 21.5411 120.579 21.5593C120.402 21.6592 120.379 21.7955 120.366 22.0135C120.352 22.2315 120.18 22.3813 120.103 22.5766C120.026 22.7719 119.881 22.8945 119.899 23.1171C119.899 23.1943 119.776 23.2987 119.686 23.3623C119.612 23.4113 119.552 23.4793 119.513 23.5591C119.474 23.639 119.457 23.7278 119.463 23.8164C119.463 23.8709 119.463 23.9391 119.463 23.9799C119.314 24.2842 119.191 24.5976 119.069 24.8882C118.878 25.3424 118.615 25.7966 118.425 26.278C118.343 26.5051 118.289 26.8093 117.971 26.9092C117.935 26.9092 117.899 27.0364 117.912 27.05C118.076 27.1954 117.912 27.3271 117.871 27.4179C117.636 27.7858 117.604 28.2581 117.245 28.5578C117.168 28.6214 117.15 28.7531 117.109 28.853C116.955 29.2118 116.606 29.3617 116.325 29.5842C116.279 29.6206 116.134 29.5842 116.112 29.5842C116.003 29.7704 115.899 29.4207 115.871 29.5842C115.844 29.7477 115.713 29.7205 115.622 29.7023C115.531 29.6841 115.327 29.7023 115.25 29.5252C115.25 29.5025 114.946 29.4298 114.932 29.4026C114.869 29.2481 114.81 29.0937 114.746 28.9484C114.692 28.8413 114.645 28.7305 114.606 28.6169C114.541 28.3876 114.554 28.1432 114.642 27.922C114.686 27.7738 114.686 27.6161 114.642 27.4679C114.615 27.2317 114.655 26.9927 114.756 26.7775C114.803 26.415 114.794 26.0473 114.728 25.6876C114.728 25.624 114.629 25.565 114.579 25.5014C114.529 25.4378 114.334 25.2924 114.497 25.1199C114.497 25.1199 114.497 25.0154 114.497 24.9609C114.47 24.8338 114.356 24.6884 114.565 24.6112C114.465 24.2615 114.651 23.93 114.624 23.5985C114.605 23.5155 114.61 23.4289 114.638 23.3486C114.666 23.2683 114.717 23.1975 114.783 23.1443C114.964 23.0535 114.942 22.9309 114.928 22.8037C114.919 22.7559 114.923 22.7066 114.94 22.661C114.956 22.6154 114.985 22.5753 115.023 22.5448C115.073 22.5039 115.082 22.404 115.1 22.3268C115.118 22.2496 115.073 22.2315 115.1 22.2042C115.264 22.0106 115.397 21.7931 115.495 21.5593C115.524 21.3123 115.614 21.0765 115.758 20.8735C115.882 20.7213 115.967 20.5401 116.003 20.3467C116.061 20.0528 116.18 19.7743 116.352 19.5292C116.484 19.3612 116.506 19.0751 116.692 18.9161C116.724 18.8798 116.692 18.7844 116.692 18.7163C116.692 18.6482 116.719 18.5165 116.765 18.4983C116.987 18.3984 116.992 18.1758 117.069 18.0033C117.25 17.6725 117.378 17.3155 117.45 16.9451C117.495 16.5227 117.826 16.2729 117.93 15.896C118.013 15.6552 118.112 15.4201 118.225 15.192C118.272 15.089 118.335 14.994 118.411 14.9105C118.484 14.8333 118.529 14.7969 118.47 14.6698C118.455 14.6088 118.453 14.5455 118.464 14.4837C118.475 14.422 118.499 14.3632 118.534 14.311C118.661 14.0794 118.842 13.8568 118.987 13.6388C119.106 13.3851 119.209 13.1242 119.296 12.8577C119.329 12.7805 119.338 12.6951 119.323 12.6124C119.307 12.5429 119.312 12.4704 119.335 12.4031C119.358 12.3358 119.399 12.2762 119.454 12.2309C119.926 11.7695 120.221 11.1573 120.289 10.5006C120.289 10.4734 120.289 10.4279 120.289 10.4189C120.484 10.3144 120.457 10.0964 120.538 9.94201C120.751 9.55144 120.842 9.1109 121.042 8.72033C121.182 8.43421 121.341 8.15263 121.495 7.86197C121.649 7.57131 121.731 7.24432 121.899 6.95366C122.105 6.68735 122.247 6.37626 122.312 6.04535C122.325 6.00408 122.35 5.96772 122.384 5.9409C122.532 5.79067 122.649 5.61331 122.729 5.41861C122.81 5.24603 123.006 5.12797 123.064 4.9009C123.096 4.78282 123.237 4.67836 123.35 4.59207C123.609 4.39225 123.872 4.20604 124.144 4.02438C124.209 4.00785 124.278 4.00785 124.343 4.02438C124.384 4.02438 124.461 4.02438 124.466 4.02438C124.561 3.72918 124.724 3.82 124.919 3.8972C125.056 3.94716 125.232 3.86541 125.373 3.8972C125.514 3.92899 125.686 4.05163 125.827 4.01983C125.967 3.98804 126.094 4.10611 126.212 4.14244C126.448 4.21964 126.738 4.24237 126.892 4.53303C126.933 4.6333 126.994 4.7237 127.072 4.79814C127.151 4.87258 127.244 4.9293 127.346 4.96446C127.509 5.36866 127.958 5.63661 127.936 6.12709C127.936 6.30421 128.103 6.16798 128.112 6.28152C128.112 6.50406 128.407 6.65847 128.294 6.9355C128.294 6.99 128.38 7.09899 128.421 7.18074C128.462 7.26249 128.502 7.3079 128.484 7.34877C128.43 7.48956 128.507 7.58495 128.552 7.70303C128.707 8.10268 128.834 8.51142 128.97 8.91561C129.024 9.07911 129.078 9.23806 129.142 9.39702C129.285 9.64903 129.34 9.94115 129.301 10.2281C129.301 10.2781 129.301 10.3734 129.301 10.3871C129.564 10.5233 129.496 10.8004 129.595 11.0002C129.654 11.1183 129.727 11.1637 129.595 11.2681C129.595 11.2681 129.595 11.3999 129.65 11.4544C129.836 11.6885 129.949 11.9732 129.972 12.2718C130.011 12.4266 130.061 12.5784 130.122 12.726C130.149 12.8441 130.33 12.9485 130.176 13.1029C130.176 13.1029 130.176 13.1938 130.203 13.2119C130.268 13.2433 130.32 13.2963 130.349 13.3618C130.379 13.4274 130.385 13.5012 130.366 13.5707C130.339 13.6706 130.62 13.6979 130.453 13.8614C130.453 13.8614 130.493 13.9567 130.53 13.9885C130.593 14.033 130.639 14.0976 130.662 14.1717C130.684 14.2458 130.681 14.3253 130.652 14.3973C130.641 14.4313 130.641 14.4677 130.652 14.5017C130.988 14.5017 130.829 14.7742 130.861 14.9105C130.921 15.1414 130.962 15.3768 130.983 15.6144C131.037 15.8482 131.127 16.072 131.251 16.2775C131.278 16.3411 131.31 16.4455 131.355 16.4546C131.718 16.5318 131.609 16.9587 131.854 17.1222C131.886 17.1449 131.854 17.2494 131.854 17.3129C131.831 17.59 131.831 17.5945 132.194 17.5764Z" fill="white"/>
<path d="M109.159 19.9381C108.685 19.9924 108.208 20.0197 107.73 20.0199C107.466 20.0608 107.197 20.0608 106.932 20.0199C106.728 19.9518 106.51 20.1107 106.32 20.0199C106.129 19.9291 105.907 20.0562 105.694 20.0426C105.39 20.0426 105.082 20.0426 104.787 20.0426C104.5 19.9999 104.207 20.0232 103.93 20.1107C103.835 20.138 103.734 20.138 103.639 20.1107C103.335 20.1059 103.032 20.0755 102.732 20.0199C102.713 20.0158 102.694 20.0161 102.675 20.0208C102.656 20.0256 102.638 20.0346 102.623 20.0471C102.506 20.2106 102.333 20.138 102.17 20.1471C101.866 20.1743 101.558 20.1789 101.263 20.197C101.194 20.1999 101.127 20.2202 101.068 20.2561C101.052 20.2772 101.041 20.3016 101.035 20.3275C101.03 20.3534 101.03 20.3801 101.036 20.4059C101.036 20.4332 101.113 20.4422 101.154 20.4604L101.286 20.5013C101.113 20.7829 101.381 20.7738 101.512 20.8692C101.644 20.9645 101.707 21.1916 101.966 21.1144C102.029 21.1144 102.116 21.1871 102.197 21.2052C102.279 21.2234 102.433 21.2734 102.474 21.2325C102.642 21.0508 102.823 21.2734 102.986 21.1916C102.986 21.1916 103.072 21.2189 103.082 21.2461C103.163 21.5186 103.29 21.4142 103.404 21.2825C103.517 21.1508 103.522 21.1144 103.671 21.2143C103.821 21.3142 104.084 21.1053 104.256 21.3052C104.297 21.2552 104.333 21.1598 104.383 21.1553C104.601 21.1206 104.821 21.1084 105.041 21.1189C105.136 21.1189 105.227 21.2325 105.308 21.3097C105.467 21.4505 105.535 21.4732 105.49 21.2143C105.49 21.0872 105.572 21.0872 105.662 21.1189C105.796 21.1465 105.924 21.194 106.043 21.2597C106.115 21.3056 106.197 21.3337 106.283 21.3416C106.368 21.3495 106.454 21.337 106.533 21.3052C106.848 21.2385 107.171 21.2262 107.49 21.2688C107.753 21.2688 107.998 21.5004 108.279 21.3597C108.291 21.3533 108.304 21.35 108.318 21.35C108.331 21.35 108.344 21.3533 108.356 21.3597C108.617 21.5655 108.902 21.7394 109.204 21.8774C109.236 21.8774 109.268 21.9637 109.295 21.9591C109.794 21.8865 109.803 22.5723 110.252 22.5859C110.252 22.5859 110.225 22.8266 110.361 22.8993C110.243 23.0718 110.397 23.1899 110.456 23.3216C110.515 23.4533 110.551 23.4624 110.424 23.5805C110.297 23.6986 110.452 23.9347 110.565 24.0074C111.05 24.3298 111.05 24.8158 111.118 25.3108C111.152 25.6583 111.096 26.0087 110.955 26.3281C110.803 26.5823 110.577 26.7836 110.306 26.9049C110.189 26.973 110.025 27.1592 109.826 27.0003C109.826 26.9776 109.721 27.0003 109.672 27.0411C109.604 27.0612 109.539 27.0918 109.481 27.132C109.322 27.2591 109.164 26.9276 108.991 27.132C108.819 27.3363 108.696 27.132 108.538 27.132C108.272 27.1334 108.006 27.1577 107.744 27.2046C107.553 27.241 107.363 27.141 107.159 27.2546C107.05 27.3136 106.85 27.2546 106.705 27.2546C106.56 27.2546 106.356 27.1865 106.211 27.2546C105.785 27.4045 105.354 27.2273 104.932 27.3227C104.763 27.341 104.593 27.341 104.424 27.3227C104.261 27.3227 104.093 27.3227 103.925 27.3227H103.635C103.576 27.3227 103.517 27.3681 103.467 27.359C103.272 27.3272 103.014 27.1956 102.9 27.2682C102.682 27.3863 102.496 27.2682 102.301 27.3C102.111 27.3451 101.916 27.3635 101.721 27.3545C101.391 27.3181 101.058 27.3181 100.728 27.3545C100.589 27.346 100.452 27.32 100.319 27.2773C100.27 27.2773 100.211 27.2455 100.17 27.2773C99.8977 27.4135 99.6165 27.3 99.3444 27.3227C99.1811 27.3227 99.0224 27.3727 98.8591 27.3863C98.7817 27.3859 98.705 27.3721 98.6323 27.3454C98.6006 27.3454 98.5779 27.3045 98.5461 27.2818C98.4191 27.5997 98.0926 27.2818 97.9202 27.4771C97.8159 27.577 97.7207 27.2455 97.5665 27.4499C97.4123 27.6542 97.3034 27.4499 97.1719 27.4499C97.0304 27.4427 96.8903 27.4183 96.7547 27.3772C96.5571 27.2622 96.3691 27.1316 96.1923 26.9866C96.0925 26.9094 96.0063 26.8231 95.8929 26.7505C95.7985 26.6752 95.7238 26.5779 95.6756 26.467C95.6274 26.3562 95.607 26.2352 95.6163 26.1147C95.6163 25.5424 95.5437 24.9747 95.5029 24.4025C95.2988 24.2163 95.3713 23.9483 95.267 23.7031C95.1627 23.4578 95.0312 23.3489 95.1491 23.1127C95.1808 23.0491 95.1128 22.9219 95.072 22.8311C94.9052 22.5597 94.8424 22.237 94.8951 21.9228C94.8837 21.7697 94.8594 21.6177 94.8226 21.4687C94.7638 21.3104 94.7638 21.1364 94.8226 20.9782C94.8561 20.8408 94.84 20.6961 94.7772 20.5694C94.6622 20.3127 94.6382 20.0242 94.7092 19.7519C94.7901 19.4278 94.7679 19.0864 94.6457 18.7755C94.6094 18.6756 94.6457 18.5393 94.6457 18.4213C94.5951 17.8566 94.5784 17.2894 94.5958 16.7227C94.6275 16.4502 94.5958 16.1868 94.5958 15.9189C94.5958 15.8144 94.5051 15.71 94.5006 15.6055C94.5006 15.4102 94.5005 15.2104 94.5323 15.0151C94.564 14.8198 94.6049 14.7517 94.4416 14.6336C94.3781 14.5837 94.4008 14.3974 94.4098 14.2794C94.4325 14.0705 94.4688 13.8615 94.5096 13.6526C94.5323 13.5255 94.5459 13.4301 94.3826 13.5663C94.3826 13.5345 94.3418 13.5028 94.3463 13.48C94.3463 13.3847 94.4552 13.2484 94.4189 13.203C94.233 12.9487 94.369 12.7216 94.4189 12.4764C94.4386 12.3638 94.4227 12.2479 94.3736 12.1448C94.3198 12.0305 94.2919 11.9056 94.2919 11.7792C94.2919 11.6528 94.3198 11.528 94.3736 11.4136C94.4252 11.287 94.4252 11.1452 94.3736 11.0185C94.3215 10.8232 94.3061 10.62 94.3282 10.419C94.3282 10.2465 94.4099 10.033 94.3282 9.9013C94.2466 9.7696 94.2375 9.66062 94.3826 9.55617C94.4009 9.53542 94.4134 9.51026 94.419 9.48318C94.4245 9.4561 94.4229 9.42802 94.4144 9.40174C94.2602 9.19737 94.4688 9.08838 94.5141 8.94759C94.6424 8.65114 94.7544 8.34792 94.8497 8.03928C94.8497 7.9439 95.0085 7.83944 95.072 7.72136C95.1589 7.60838 95.225 7.48074 95.267 7.34443C95.267 7.1991 95.5754 7.25359 95.4711 7.04468C95.4803 7.03533 95.4911 7.02765 95.5029 7.02197C95.8929 6.93568 96.1877 6.59961 96.5868 6.56782C96.8581 6.49758 97.1415 6.48827 97.4168 6.54057C97.4433 6.54924 97.4719 6.54924 97.4985 6.54057C97.9021 6.29079 98.1924 6.64047 98.537 6.69951C98.8991 6.82174 99.2708 6.91291 99.6483 6.97202C99.807 6.97202 100.02 6.90842 100.124 7.12187C100.301 6.94475 100.406 7.19454 100.555 7.20817C100.705 7.22179 100.882 7.20816 101.032 7.26266C101.413 7.33444 101.801 7.35886 102.188 7.33534C102.356 7.33534 102.519 7.33534 102.687 7.30355C102.855 7.27176 103.141 7.21726 103.326 7.41709C103.326 7.44434 103.458 7.41709 103.508 7.38984C103.653 7.32902 103.805 7.28926 103.961 7.27175C104.393 7.15377 104.849 7.15377 105.281 7.27175C105.553 7.33079 105.835 7.19001 106.102 7.33534C106.202 7.38984 106.188 7.06286 106.343 7.25814C106.433 7.37168 106.519 7.35806 106.637 7.25814C106.733 7.1997 106.84 7.15966 106.95 7.14006C107.011 7.11483 107.08 7.11483 107.141 7.14006C107.445 7.29412 107.78 7.37644 108.12 7.38075C108.512 7.37005 108.895 7.49165 109.209 7.72591C109.613 7.66687 109.721 8.11194 110.043 8.21186C110.13 8.21186 110.207 8.37082 110.238 8.47073C110.27 8.57064 110.238 8.73867 110.461 8.68872C110.461 8.68872 110.524 8.76137 110.515 8.76591C110.37 8.95212 110.515 9.0702 110.592 9.22007C110.618 9.32446 110.604 9.43495 110.551 9.52892C110.465 9.71512 110.47 9.8332 110.669 9.95128C110.77 9.99717 110.851 10.0784 110.896 10.1796C110.941 10.2808 110.947 10.395 110.914 10.5008C110.914 10.5371 110.941 10.5825 110.95 10.6234C110.987 10.746 111.082 10.9186 111.037 10.9867C110.914 11.1684 111.037 11.3364 111.037 11.4999C111.037 11.6634 111.159 11.8542 110.973 12.0086C110.914 12.6671 110.252 12.7307 109.894 13.0895C109.871 13.1074 109.844 13.1193 109.816 13.124C109.787 13.1288 109.758 13.1263 109.73 13.1167C109.543 13.0691 109.347 13.0691 109.159 13.1167C108.949 13.1223 108.739 13.1025 108.533 13.0577C108.161 13.0123 107.785 13.0577 107.413 13.0259C107.231 13.0259 107.032 13.0622 106.891 12.8942L106.841 12.8442C106.556 13.094 106.243 12.8442 105.934 12.9033C105.545 12.9396 105.153 12.9396 104.764 12.9033C104.419 12.9009 104.073 12.9191 103.73 12.9578C103.363 13.0123 103.014 13.1894 102.637 13.0123C102.605 13.0123 102.551 13.0123 102.515 13.0441C102.142 13.191 101.739 13.247 101.34 13.2076C101.249 13.2076 101.127 13.2076 101.077 13.2485C100.987 13.3576 100.912 13.4783 100.855 13.6072C100.855 13.6072 100.932 13.6844 100.964 13.6799C101.075 13.6519 101.192 13.6611 101.298 13.7062C101.404 13.7513 101.492 13.8298 101.549 13.9297C101.549 13.9297 101.603 13.9569 101.617 13.9796C101.744 14.1658 101.848 13.7253 101.97 13.9796C102.093 14.234 102.238 14.0477 102.374 14.0205C102.44 13.996 102.509 13.9778 102.578 13.966C102.643 13.9638 102.706 13.9865 102.755 14.0296C103.059 14.3566 103.118 14.3747 103.49 14.134C103.567 14.0739 103.66 14.0365 103.758 14.0261C103.856 14.0156 103.954 14.0326 104.043 14.075C104.138 14.134 104.17 14.2431 104.288 14.1295C104.338 14.3339 104.501 14.1658 104.574 14.2113C104.646 14.2567 104.778 14.2112 104.878 14.1658C104.902 14.1534 104.929 14.147 104.957 14.147C104.985 14.147 105.012 14.1534 105.036 14.1658C105.186 14.3066 105.354 14.2339 105.517 14.2203C105.95 14.1468 106.394 14.1669 106.819 14.2794C106.937 14.3202 107.077 14.2794 107.195 14.3248C107.313 14.3702 107.495 14.2703 107.553 14.4746C107.553 14.4746 107.64 14.5019 107.685 14.511L108.139 14.6154C108.193 14.6154 108.27 14.6745 108.288 14.6563C108.474 14.4565 108.615 14.6563 108.742 14.7199C109.066 14.8841 109.355 15.1092 109.594 15.383C109.812 15.6645 109.948 15.9779 110.134 16.2686C110.189 16.3503 110.257 16.4139 110.134 16.5547C110.012 16.6955 110.066 16.8499 110.297 16.9316C110.433 16.9771 110.443 17.0361 110.479 17.1587C110.538 17.3031 110.633 17.4298 110.755 17.5266C110.879 17.6387 110.966 17.7848 111.006 17.9464C111.046 18.108 111.038 18.278 110.982 18.4349C110.941 18.5166 110.896 18.5303 110.982 18.6211C111.068 18.7119 110.982 18.8118 110.919 18.88C110.855 18.9481 110.819 18.88 110.81 19.0071C110.801 19.1343 110.842 19.3977 110.547 19.2478C110.547 19.2478 110.497 19.2751 110.479 19.2978C110.062 19.8428 110.025 19.8564 109.363 19.8337H109.195L109.159 19.9381Z" fill="white"/>
<path d="M90.4458 22.0545C90.4458 22.6085 90.4458 23.1672 90.3913 23.7167C90.3913 23.9211 90.3188 24.1164 90.4412 24.3071C90.473 24.348 90.4911 24.4342 90.4639 24.466C90.3732 24.5932 90.2734 24.7067 90.4639 24.8112C90.287 25.0701 90.4639 25.3244 90.4639 25.5787C90.4639 25.5787 90.4276 25.6287 90.4095 25.6242C90.3914 25.6196 90.2553 25.6242 90.3097 25.7332C90.4139 26.0243 90.4359 26.3386 90.3732 26.6415C90.3732 26.6687 90.3732 26.7096 90.3732 26.7232C90.1056 26.9685 90.219 27.3045 90.151 27.5952C90.1455 27.6784 90.1173 27.7586 90.0694 27.8268C89.9877 27.9085 89.9378 27.9585 90.033 28.0584C90.033 28.0584 90.033 28.1447 90.033 28.181C89.9151 28.4944 89.7836 28.8032 89.6612 29.1166C89.6291 29.1764 89.615 29.2442 89.6203 29.3119C89.6621 29.6608 89.6421 30.0144 89.5614 30.3564C89.5614 30.5381 89.5614 30.7198 89.5614 30.8969C89.5614 31.074 89.5614 31.0195 89.3845 31.124C89.3845 31.124 89.3392 31.124 89.3346 31.1603C89.2983 31.2829 89.5569 31.4237 89.2847 31.5463C89.2122 31.5781 89.2439 31.8279 89.2122 32.0005C89.2031 32.0248 89.1892 32.047 89.1712 32.0658C89.1533 32.0845 89.1317 32.0994 89.1078 32.1095C88.8811 32.2003 88.6543 32.3138 88.4275 32.382C88.2397 32.4391 88.0428 32.4607 87.847 32.4456C87.5206 32.4698 87.1924 32.4484 86.8719 32.382C86.8446 32.382 86.8083 32.3411 86.7947 32.3502C86.4682 32.5864 86.1507 32.3502 85.8287 32.3502C85.6434 32.352 85.4585 32.3671 85.2754 32.3956C85.2074 32.3956 85.1076 32.4319 85.0759 32.3956C84.8899 32.1958 84.6586 32.273 84.4363 32.2457C84.1279 32.2094 83.7379 32.3547 83.5293 31.9869C83.3705 32.1004 83.2208 31.9869 83.0757 31.9869C83.0168 31.9869 82.9306 31.9869 82.9079 31.9869C82.6993 31.7098 82.341 31.837 82.087 31.6826C81.833 31.5282 81.5292 31.5282 81.2888 31.3374C81.1573 31.233 80.9577 31.2875 80.7898 31.1694C80.5984 31.048 80.4206 30.9064 80.2592 30.747C80.2139 30.6971 80.1594 30.6017 80.1186 30.6062C79.5789 30.6698 79.3385 30.1521 78.9349 29.984C78.7812 29.8928 78.6382 29.7846 78.5086 29.6616C78.5857 29.3982 78.3226 29.38 78.2183 29.3573C78.0233 29.3073 78.0596 29.0031 77.8237 29.053C77.6877 28.7942 77.3202 28.7306 77.2704 28.4036C76.9166 28.3173 76.7896 27.9812 76.5629 27.7587C76.4897 27.692 76.4323 27.6098 76.3951 27.518C76.3802 27.3996 76.337 27.2865 76.269 27.1885C76.2011 27.0904 76.1105 27.0103 76.005 26.9548C75.9733 26.9548 75.9687 26.8685 75.9415 26.8277C75.9143 26.7868 75.878 26.6778 75.8236 26.646C75.7175 26.5805 75.6272 26.4924 75.559 26.3881C75.4908 26.2837 75.4464 26.1655 75.429 26.042C75.4106 25.9833 75.3779 25.9302 75.3338 25.8875C75.1094 25.6396 74.9532 25.3376 74.8802 25.011C74.8802 24.9702 74.8258 24.9338 74.7895 24.9066C74.7532 24.8793 74.6988 24.8702 74.6852 24.8385C74.6444 24.7249 74.6308 24.6023 74.5809 24.4933C74.531 24.3843 74.4448 24.3116 74.3904 24.2163C74.3325 24.1058 74.281 23.992 74.2362 23.8756C74.2044 23.8075 74.1772 23.7349 74.1455 23.6622C74.1138 23.5895 73.9459 23.3625 73.9822 23.2625C74.0593 23.0582 73.8461 23.0082 73.8371 22.8629C73.8215 22.7085 73.7896 22.5563 73.7418 22.4087C73.5967 21.9546 73.438 21.5277 73.2883 21.0871C73.2516 20.9949 73.2361 20.8956 73.2429 20.7965C73.2637 20.7358 73.2639 20.6699 73.2434 20.6091C73.2229 20.5483 73.1828 20.496 73.1295 20.4604C73.0906 20.4355 73.0571 20.4032 73.0307 20.3652C73.0044 20.3272 72.9859 20.2844 72.9762 20.2392C72.9665 20.194 72.9658 20.1474 72.9742 20.1019C72.9826 20.0565 73 20.0132 73.0252 19.9745C73.0547 19.9128 73.0636 19.8433 73.0505 19.7762C73.0374 19.7091 73.0031 19.6481 72.9527 19.6021C72.8551 19.4823 72.8079 19.3292 72.8211 19.1751C72.8691 18.8994 72.8311 18.6155 72.7123 18.3622C72.5942 18.169 72.5417 17.9428 72.5626 17.7173C72.5624 17.5401 72.5427 17.3634 72.5037 17.1905C72.5037 16.977 72.4628 16.8499 72.4583 16.7363C72.4168 16.5007 72.4277 16.2588 72.4901 16.0279C72.5448 15.9251 72.5735 15.8105 72.5735 15.694C72.5735 15.5776 72.5448 15.4629 72.4901 15.3602C72.47 15.316 72.4596 15.268 72.4596 15.2194C72.4596 15.1709 72.47 15.1229 72.4901 15.0787C72.5354 14.9651 72.6805 14.8743 72.4537 14.8016C72.5261 14.717 72.5648 14.6087 72.5626 14.4974C72.6411 14.2442 72.6521 13.9749 72.5944 13.7162C72.5695 13.6028 72.589 13.4842 72.6488 13.3847C72.6857 13.3257 72.7086 13.2589 72.7157 13.1896C72.7228 13.1203 72.7139 13.0503 72.6896 12.985C72.6713 12.9336 72.6713 12.8774 72.6896 12.826C72.7709 12.691 72.8231 12.5404 72.8426 12.3839C72.8622 12.2275 72.8486 12.0686 72.803 11.9177C72.803 11.8314 72.7576 11.7315 72.93 11.7088C73.0116 11.7088 73.1341 11.5317 73.1386 11.4363C73.1386 11.0821 73.4425 10.796 73.3518 10.419C73.3522 10.3766 73.3617 10.3348 73.3797 10.2964C73.3977 10.258 73.4238 10.2239 73.4561 10.1965C73.6219 10.0422 73.7293 9.83522 73.7599 9.61064C73.8345 9.31132 73.9917 9.03903 74.2135 8.82493C74.2997 8.7341 74.4221 8.60242 74.4085 8.50705C74.3677 8.22547 74.6081 8.16642 74.7305 8.01655C74.853 7.86668 74.9029 7.79402 74.9891 7.68048C75.0753 7.56694 75.1886 7.33985 75.3383 7.26718C75.6649 7.10823 75.7419 6.77669 75.937 6.52691C76.0985 6.33201 76.2499 6.12889 76.3905 5.91836C76.5039 5.74124 76.7035 5.8684 76.8032 5.77302C76.903 5.67765 76.894 5.51414 76.9801 5.41877C77.0663 5.3234 77.1978 5.31432 77.3067 5.25983C77.4155 5.20533 77.6967 5.15082 77.6967 4.88287C77.7057 4.85103 77.7224 4.82194 77.7453 4.79816C77.7683 4.77438 77.7968 4.75667 77.8283 4.74663C78.2183 4.70575 78.368 4.35152 78.6083 4.13353C78.8487 3.91554 78.8396 3.85649 79.1435 3.78382C79.1707 3.78382 79.2161 3.78382 79.2206 3.78382C79.2932 3.45229 79.6741 3.54312 79.8238 3.36146C79.8918 3.2888 79.978 3.23429 80.037 3.15708C80.1962 2.95888 80.4249 2.82895 80.6765 2.79377C80.9477 2.7411 81.1926 2.59681 81.3704 2.38502C81.4241 2.31402 81.4923 2.25541 81.5706 2.2131C81.6488 2.17079 81.7352 2.14578 81.8239 2.13978C81.9056 2.13978 82.0326 2.13978 82.0643 2.08074C82.2911 1.71287 82.7764 1.83551 83.0485 1.55393C83.088 1.53933 83.1314 1.53933 83.1709 1.55393C83.2779 1.56714 83.3861 1.56714 83.493 1.55393C83.5656 1.55393 83.561 1.41312 83.6971 1.38587C84.0398 1.30946 84.3892 1.26688 84.7402 1.25872C84.772 1.25872 84.8082 1.25872 84.8264 1.25872C85.1847 0.899937 85.6337 1.22692 86.0237 1.10429C86.441 1.27687 86.9308 1.16788 87.3299 1.44491C87.4116 1.50395 87.5613 1.47217 87.6384 1.53575C88.0807 1.81923 88.4035 2.25565 88.5455 2.76197C88.5727 2.9073 88.4185 3.04355 88.5455 3.21613C88.6724 3.38871 88.6906 3.52494 88.8085 3.6294C88.9264 3.73385 89.0444 3.77473 88.9446 3.94731C88.9446 3.94731 88.9944 4.02453 89.008 4.01999C89.1441 3.97912 89.1895 4.01999 89.1985 4.16078C89.2076 4.30157 89.253 4.37876 89.2575 4.48776C89.2777 4.61031 89.2636 4.73607 89.2167 4.85108C89.1817 4.89344 89.158 4.94396 89.1477 4.99793C89.1374 5.05191 89.1408 5.10763 89.1577 5.15993C89.179 5.24083 89.1776 5.32604 89.1536 5.40618C89.1296 5.48633 89.0839 5.55828 89.0216 5.61408C88.8399 5.82149 88.6378 6.01015 88.4185 6.17723C88.2623 6.30026 88.0758 6.37872 87.8787 6.40431C87.5331 6.47452 87.1831 6.52004 86.8311 6.54055C86.5742 6.56071 86.3193 6.60173 86.0691 6.66318C85.8378 6.69951 85.6155 6.82665 85.3751 6.69949H85.3026C85.2164 6.94928 84.9897 6.7858 84.8491 6.85846C84.5344 7.0344 84.1799 7.12664 83.8195 7.1264C83.6789 7.1264 83.5338 7.25356 83.366 7.32168C83.307 7.34214 83.2462 7.35735 83.1846 7.36711C83.1211 7.36711 82.9986 7.36711 82.9941 7.39436C82.9532 7.71227 82.6358 7.59419 82.4725 7.73043C82.3217 7.87699 82.1427 7.99132 81.9464 8.0665C81.7423 8.121 81.5473 8.13464 81.4611 8.36626C81.4611 8.36626 81.4112 8.36626 81.3886 8.39351C81.1527 8.54792 80.935 8.70233 80.6855 8.84766C80.6321 8.88071 80.5871 8.9258 80.5541 8.97936C80.5364 9.0317 80.5038 9.07769 80.4602 9.11161C80.4167 9.14552 80.3641 9.16587 80.3091 9.1701C80.1769 9.21017 80.06 9.28933 79.9735 9.39717C79.8692 9.51071 79.783 9.63333 79.6061 9.6515C79.5743 9.66232 79.5457 9.68083 79.5227 9.70539C79.4998 9.72995 79.4833 9.75979 79.4746 9.79229C79.4016 10.0553 79.2417 10.2859 79.0211 10.4463C78.745 10.688 78.5011 10.9643 78.2954 11.2683C78.1638 11.4908 78.055 11.7225 77.9189 11.9541C77.8373 12.0903 77.8872 12.3038 77.6649 12.3628C77.6649 12.3628 77.6377 12.4673 77.6649 12.5172C77.7103 12.6853 77.7103 12.8079 77.4836 12.7943C77.4836 12.7943 77.4518 12.8896 77.4472 12.9441C77.4407 12.9908 77.4407 13.0382 77.4472 13.0849C77.098 13.0577 77.3384 13.2802 77.3021 13.3937C77.2238 13.6362 77.1251 13.8717 77.0073 14.0977C76.9529 14.2112 76.9121 14.3112 77.0073 14.4111C77.1026 14.511 77.0844 14.6154 76.9529 14.6699C76.8214 14.7244 76.7896 14.738 76.9529 14.7971C76.9734 14.813 76.9877 14.8354 76.9937 14.8607C76.8214 15.0287 76.9937 15.2376 76.9257 15.4193C76.9466 15.7991 76.9632 16.1791 76.9756 16.5592C77.0391 16.7272 76.7942 16.8226 76.9756 16.9816C77.0618 17.1074 77.1163 17.2524 77.1343 17.4039C77.157 17.5026 77.157 17.6051 77.1343 17.7037C77.1071 17.8445 77.1343 17.9489 77.2568 18.0216C77.2976 18.0488 77.352 18.1215 77.3429 18.1578C77.2658 18.562 77.5107 18.8754 77.6105 19.2296C77.6105 19.2569 77.6468 19.2932 77.6378 19.3114C77.4926 19.6157 77.7103 19.8155 77.8237 20.0562C77.8781 20.1743 77.8237 20.3514 77.8554 20.4695C77.8872 20.5876 78.1548 20.7329 78.1366 20.8237C78.0686 21.1189 78.5131 21.1916 78.3861 21.4868C78.3861 21.4868 78.4496 21.5731 78.4904 21.6094C78.5312 21.6457 78.7943 21.732 78.5494 21.8819C78.5811 21.9228 78.6129 22 78.6446 22C78.6712 21.9933 78.6988 21.9922 78.7258 21.9967C78.7528 22.0012 78.7786 22.0112 78.8016 22.0261C78.8245 22.0411 78.8442 22.0605 78.8594 22.0834C78.8745 22.1062 78.8847 22.132 78.8895 22.159C78.9485 22.327 78.9349 22.5859 79.2478 22.5586C79.2751 22.5586 79.3159 22.7539 79.3567 22.8583C79.3901 22.9734 79.4389 23.0834 79.5018 23.1853C79.6832 23.4033 79.8782 23.6077 80.0733 23.8075C80.1277 23.862 80.1413 24.0346 80.2864 23.9074C80.2864 23.9074 80.3681 23.9574 80.3635 23.9756C80.3137 24.1663 80.4406 24.1799 80.5767 24.2072C80.8064 24.3648 81.0152 24.551 81.198 24.7613C81.3258 24.9641 81.5249 25.1115 81.7559 25.1745C81.892 25.2336 81.9736 25.2109 81.9328 25.3971C81.9056 25.5106 82.0099 25.556 82.0825 25.4561C82.1551 25.3562 82.2321 25.3516 82.3137 25.4561C82.4388 25.5945 82.6095 25.6832 82.7945 25.7059C82.8875 25.7303 82.9732 25.777 83.044 25.8421C83.1211 25.9057 83.1846 25.9875 83.2934 25.883C83.3161 25.883 83.425 25.883 83.434 25.9148C83.5111 26.101 83.5655 26.0965 83.7424 25.9829C83.9307 25.8853 84.1452 25.8503 84.3547 25.883C84.4589 25.9016 84.5663 25.8808 84.656 25.8246C84.7457 25.7684 84.8113 25.6807 84.84 25.5787C84.84 25.5333 84.8854 25.4924 84.908 25.447C85.2074 25.6151 85.1348 25.3289 85.2164 25.2109C85.3085 25.0837 85.4259 24.9771 85.5611 24.8975C85.6881 24.8203 85.7743 24.7794 85.5611 24.6886C85.5605 24.6317 85.5779 24.576 85.611 24.5296C85.6554 24.503 85.6886 24.4612 85.7045 24.4119C85.7203 24.3626 85.7177 24.3092 85.6972 24.2617C85.6609 24.1073 85.7879 23.912 85.8468 23.7394C85.8468 23.7031 85.933 23.6576 85.924 23.644C85.797 23.4079 85.9239 23.1672 85.8967 22.9355C85.8967 22.8356 85.806 22.7721 85.9512 22.7221C85.9512 22.7221 85.9512 22.6313 85.9512 22.5859V22.0954C85.9512 22.0681 85.992 22.0272 85.9829 22.0182C85.7063 21.732 85.9466 21.3914 85.8922 21.0735C85.8493 20.7451 85.8883 20.4113 86.0056 20.1016C86.0872 19.8745 86.1734 19.6474 85.9739 19.4385C85.9013 19.3613 85.9466 19.2751 85.9739 19.1751C86.1126 18.8939 86.1662 18.5782 86.128 18.2668C86.1215 18.2259 86.1238 18.1841 86.1348 18.1442C86.1457 18.1042 86.1651 18.0671 86.1915 18.0352C86.3231 17.8944 86.3956 17.7673 86.2278 17.5811C86.2278 17.5811 86.2732 17.4176 86.3276 17.3858C86.4572 17.2984 86.5637 17.1809 86.6379 17.0432C86.7122 16.9056 86.752 16.752 86.7539 16.5955C86.7811 16.4184 86.8265 16.4093 86.9581 16.4457C86.9853 16.4457 87.0351 16.4457 87.0397 16.4457C87.0447 16.3713 87.0599 16.2979 87.085 16.2277C87.1803 16.0642 87.2347 16.3094 87.3163 16.264C87.3911 16.2235 87.4611 16.1748 87.525 16.1187C87.6853 15.9912 87.8864 15.9265 88.0908 15.9365C88.2952 15.9465 88.4891 16.0307 88.6361 16.1732C88.7495 16.2913 88.9083 16.2731 88.9718 16.3594C89.0056 16.4074 89.0495 16.4473 89.1004 16.4763C89.1514 16.5054 89.2081 16.5228 89.2666 16.5274C89.3884 16.552 89.4988 16.616 89.5807 16.7096C89.6627 16.8031 89.7116 16.921 89.7201 17.0452C89.7201 17.1769 89.7201 17.2995 89.9015 17.3403C89.9378 17.3403 89.9922 17.413 89.9922 17.413C89.7564 17.7037 90.151 17.7218 90.219 17.8672C90.287 18.0125 90.3279 18.1033 90.1737 18.2169C90.0195 18.3304 90.0467 18.4303 90.1737 18.5302C90.2099 18.5302 90.2643 18.5893 90.2643 18.6165C90.2242 18.7845 90.215 18.9584 90.2372 19.1297C90.2916 19.2796 90.4503 19.3931 90.3732 19.5839C90.3732 19.6111 90.3732 19.6384 90.3415 19.6656C90.2326 19.8609 90.5138 19.9699 90.4594 20.1198C90.405 20.2696 90.2643 20.3605 90.2054 20.4922C90.1464 20.6239 90.2417 20.5967 90.3324 20.5422C90.4231 20.4877 90.5501 20.5422 90.5047 20.6829C90.4594 20.8237 90.3823 20.91 90.3505 21.0326C90.3188 21.1553 90.1691 21.3551 90.4186 21.4868C90.4472 21.5102 90.4678 21.5419 90.4775 21.5776C90.3006 21.6367 90.4548 21.8592 90.4458 22.0545Z" fill="white"/>
<path d="M66.1452 4.34233C66.0363 4.51036 66.1452 4.64207 66.2041 4.79648C66.2424 4.87255 66.2623 4.95656 66.2623 5.04174C66.2623 5.12692 66.2424 5.21091 66.2041 5.28698C66.1497 5.38689 66.2041 5.54584 66.2041 5.67754C66.2041 5.95912 66.2404 6.25434 66.2041 6.51775C66.1406 6.92649 66.2858 7.31706 66.2041 7.70763C66.1383 8.17614 66.1383 8.65154 66.2041 9.12005C66.0091 9.42887 66.2041 9.75586 66.1587 10.0783C66.1052 10.5202 66.122 10.9678 66.2087 11.4045C66.2331 11.5549 66.2331 11.7082 66.2087 11.8586C66.1701 12.0856 66.1701 12.3174 66.2087 12.5444C66.2087 12.7124 66.3084 12.8714 66.1406 12.9985C66.1089 13.0258 66.1134 13.1075 66.1406 13.1575C66.1996 13.4436 66.2676 13.7252 66.322 14.0113C66.3357 14.1092 66.3357 14.2086 66.322 14.3065C66.2587 14.5584 66.2587 14.8221 66.322 15.074C66.3438 15.213 66.3297 15.3553 66.2812 15.4873C66.2185 15.6931 66.2185 15.9128 66.2812 16.1186C66.2942 16.1692 66.2942 16.2224 66.2812 16.273C66.1629 16.6964 66.182 17.1464 66.3356 17.5583C66.3556 17.6557 66.3462 17.7569 66.3084 17.8489C66.2674 17.9236 66.2481 18.0084 66.2529 18.0935C66.2578 18.1787 66.2864 18.2607 66.3356 18.3303C66.3605 18.3637 66.3768 18.4027 66.3832 18.4439C66.3895 18.485 66.3857 18.5271 66.3719 18.5665C66.3188 18.6302 66.2897 18.7105 66.2897 18.7936C66.2897 18.8766 66.3188 18.9569 66.3719 19.0206C66.408 19.097 66.4222 19.1819 66.4127 19.2659C66.3429 19.7907 66.3737 20.324 66.5034 20.8372C66.5034 20.9054 66.5034 20.9962 66.5034 21.0462C66.5941 21.187 66.2993 21.2914 66.5034 21.4504C66.5488 21.4867 66.3855 21.732 66.4309 21.8182C66.5669 22.0589 66.3401 22.3178 66.5125 22.554C66.5669 22.6221 66.5125 22.7629 66.5125 22.8673C66.5125 23.049 66.4581 23.2306 66.4354 23.4123C66.4265 23.4542 66.4265 23.4976 66.4354 23.5395C66.6105 23.8395 66.6702 24.1931 66.6032 24.5341C66.5873 24.6166 66.5873 24.7014 66.6032 24.7839C66.6774 25.0821 66.6774 25.3939 66.6032 25.6922C66.5692 25.9795 66.5784 26.2704 66.6304 26.5551C66.6304 26.605 66.6576 26.6777 66.6304 26.7095C66.3991 27.0274 66.4581 27.4407 66.2631 27.7677C66.2041 27.863 66.1905 27.9902 66.1179 28.0674C66.0453 28.1446 66.0454 28.3717 66.0181 28.5215C66.0046 28.5936 65.9955 28.6664 65.9909 28.7396C65.9909 28.894 65.8413 29.062 66.0363 29.1937C66.0471 29.2115 66.0528 29.2319 66.0528 29.2528C66.0528 29.2736 66.0471 29.294 66.0363 29.3118C65.8549 29.5888 66.0363 29.8976 65.9501 30.1792C65.8639 30.4608 65.7823 30.706 65.6962 30.9649C65.6962 31.0194 65.6372 31.1012 65.6054 31.1012C65.3424 31.1239 65.2517 31.2964 65.1882 31.5144C65.1751 31.5556 65.1539 31.5936 65.1258 31.6264C65.0978 31.6592 65.0634 31.6859 65.0249 31.7052C64.8479 31.8203 64.6455 31.8905 64.4353 31.9096C64.0498 31.8551 63.6098 32.0504 63.2787 31.7188C63.2428 31.667 63.1933 31.6261 63.1357 31.6005C63.0782 31.5748 63.0147 31.5655 62.9522 31.5735C62.7708 31.6053 62.7572 31.519 62.8343 31.3782C62.8463 31.3351 62.8463 31.2896 62.8343 31.2465C62.5395 31.2828 62.5712 30.9967 62.5123 30.8605C62.4301 30.6402 62.3975 30.4045 62.417 30.1701C62.4297 29.8659 62.4084 29.5613 62.3535 29.2618C62.3357 29.2076 62.3265 29.1509 62.3263 29.0938C62.3263 28.9394 62.3671 28.7895 62.3898 28.6396C62.1268 28.6396 62.2175 28.3717 62.0905 28.2945C61.9635 28.2173 62.1177 28.1038 62.0633 28.0084C61.9227 27.7677 62.0632 27.4361 61.7956 27.2272C61.9181 26.9048 61.6686 26.6368 61.6777 26.3189C61.6699 26.0682 61.6487 25.818 61.6143 25.5695C61.6186 25.5036 61.6292 25.4382 61.646 25.3743C61.646 25.3061 61.6959 25.2244 61.6687 25.179C61.451 24.7748 61.6687 24.3479 61.5825 23.9346C61.5603 23.8473 61.556 23.7563 61.57 23.6673C61.5841 23.5783 61.6161 23.4931 61.6642 23.4168C61.8002 23.2306 61.4827 23.1262 61.6642 22.9627C61.8456 22.7992 61.6369 22.613 61.6369 22.4359C61.6435 22.3426 61.6572 22.25 61.6777 22.1589C61.6777 22.0907 61.7322 21.9999 61.705 21.959C61.5508 21.7319 61.6505 21.5049 61.6505 21.2551C61.6464 21.1741 61.6358 21.0936 61.6188 21.0144C61.6188 20.9599 61.5507 20.9008 61.5643 20.86C61.5779 20.8191 61.7231 20.6193 61.6959 20.5784C61.6687 20.5375 61.4782 20.4512 61.5235 20.2832C61.5235 20.2332 61.4691 20.1469 61.4873 20.1197C61.714 19.8608 61.5961 19.5565 61.5961 19.2704C61.5985 19.1743 61.5894 19.0782 61.5689 18.9843C61.5402 18.8732 61.536 18.7573 61.5563 18.6444C61.5767 18.5315 61.6212 18.4244 61.6868 18.3303C61.7594 18.2395 61.8546 18.1532 61.6415 18.1033C61.6142 18.1033 61.4192 17.917 61.6415 17.7899C61.6823 17.7899 61.6415 17.5855 61.6415 17.481C61.6415 17.3766 61.587 17.2767 61.6415 17.2494C61.8818 17.0542 61.7095 16.8498 61.6868 16.6454C61.6641 16.441 61.6868 16.1912 61.6868 15.9869C61.6696 15.848 61.6454 15.71 61.6143 15.5736C61.6143 15.51 61.5871 15.4192 61.6143 15.3919C61.7775 15.2511 61.6732 15.1421 61.6369 14.9877C61.5753 14.7434 61.5848 14.4866 61.6642 14.2475C61.7277 14.0794 61.5916 14.0749 61.5825 13.9977C61.5953 13.8887 61.6166 13.7809 61.646 13.6752C61.6437 13.649 61.6344 13.6239 61.6193 13.6023C61.6042 13.5808 61.5837 13.5637 61.5599 13.5526C61.5056 13.5339 61.456 13.5035 61.4146 13.4636C61.3733 13.4237 61.3411 13.3753 61.3203 13.3217C61.2996 13.268 61.2908 13.2105 61.2946 13.1531C61.2984 13.0958 61.3146 13.0399 61.3421 12.9895C61.4373 12.7533 61.3104 12.7033 61.1879 12.6216C61.0655 12.5398 60.9158 12.5126 60.9793 12.3128L60.9158 12.2628C60.7752 12.4399 60.6754 11.9403 60.5121 12.2628C60.4862 12.338 60.4361 12.4025 60.3696 12.4461C60.3031 12.4897 60.224 12.5099 60.1448 12.5035C60.1448 12.5035 60.0813 12.5444 60.0631 12.5762C59.9036 12.8264 59.6795 13.0288 59.4146 13.162C59.3193 13.2256 59.1878 13.2892 59.1651 13.38C59.0699 13.7206 58.766 13.8342 58.5483 14.0704C58.3345 14.2648 58.1315 14.471 57.9405 14.688C57.8471 14.7892 57.728 14.863 57.5958 14.9014C57.4462 14.9696 57.2285 14.847 57.1423 15.065C57.1423 15.065 57.0425 15.065 56.9927 15.065C56.9428 15.065 56.7613 14.9832 56.6933 15.1512C56.6933 15.1512 56.5845 15.1785 56.5346 15.1512C56.335 15.0967 56.14 15.0286 55.945 14.9605C55.8998 14.9406 55.8618 14.9074 55.8362 14.8651C55.8044 14.8197 55.8089 14.747 55.7727 14.7198C55.7364 14.6925 55.5867 14.6471 55.5096 14.5926C55.4325 14.5381 55.5096 14.4337 55.5096 14.4291C55.3191 14.3655 55.5368 14.2202 55.4778 14.202C55.414 14.1803 55.3612 14.1343 55.3307 14.0741C55.3002 14.0139 55.2944 13.944 55.3146 13.8796C55.3216 13.5778 55.3815 13.2796 55.4915 12.9985C55.5912 12.7851 55.6139 12.4899 55.8815 12.3673C55.898 12.3553 55.9116 12.3396 55.921 12.3215C55.9305 12.3033 55.9356 12.2832 55.9359 12.2628C55.7636 12.0403 56.0039 11.7224 55.75 11.5135C55.6994 11.4545 55.6678 11.3817 55.6593 11.3045C55.6458 11.2493 55.6458 11.1917 55.6593 11.1365C55.6593 11.0729 55.7545 10.9685 55.7363 10.9548C55.5186 10.7368 55.7364 10.587 55.818 10.4326C55.8996 10.2782 55.9631 10.2645 55.8906 10.1237C55.8543 10.0556 55.8906 9.95571 55.8906 9.86942C55.8906 9.78313 56.0175 9.81945 56.0221 9.80583C56.0266 9.7922 56.0221 9.63778 56.0221 9.56511C56.0647 9.43538 56.1178 9.30934 56.1808 9.18818C56.1808 9.14731 56.267 9.13366 56.3078 9.10641C56.3486 9.07916 56.4257 9.06102 56.4484 9.02015C56.5936 8.7749 56.7296 8.51602 56.8747 8.26623C56.9473 8.14361 57.0335 8.03009 57.1151 7.91201C57.1968 7.79393 57.2829 7.56682 57.419 7.48962C57.5551 7.41241 57.741 7.31251 57.7092 7.07635C57.7092 7.05364 57.7591 7.00369 57.7954 6.99461C57.8816 6.98544 57.9611 6.94366 58.0176 6.87782C58.074 6.81199 58.1033 6.72705 58.0993 6.64035C58.0993 6.60402 58.1311 6.54044 58.1583 6.53136C58.6118 6.40419 58.639 5.87737 58.9247 5.62305C59.2105 5.36872 59.1152 4.89185 59.5461 4.79648C59.5914 4.50128 59.9271 4.41499 59.9996 4.20154C60.101 4.0391 60.2179 3.88699 60.3489 3.74738C60.4949 3.57837 60.6592 3.42606 60.8387 3.29323C60.9079 3.22608 60.954 3.13859 60.9702 3.04345C60.986 2.92081 61.0374 2.8055 61.118 2.71184C61.1986 2.61819 61.305 2.55032 61.4238 2.51664C61.4963 2.48031 61.6279 2.47122 61.646 2.42126C61.714 2.18964 61.9363 2.17147 62.0995 2.05339C62.3083 1.91269 62.5401 1.80971 62.7844 1.74912C62.9658 1.70239 63.1398 1.63054 63.3014 1.53565C63.399 1.47517 63.5094 1.43871 63.6237 1.42923C63.738 1.41976 63.8529 1.43754 63.9591 1.48115C64.0352 1.51331 64.1168 1.53027 64.1994 1.5311C64.2868 1.53224 64.3728 1.5528 64.4512 1.59128C64.5297 1.62977 64.5986 1.68525 64.653 1.75366C64.653 1.75366 64.6802 1.82632 64.6938 1.82632C65.1473 1.79452 65.1474 2.25323 65.415 2.4349C65.5329 2.51664 65.5737 2.71645 65.6326 2.86632C65.8355 3.23964 65.988 3.63824 66.0862 4.05169C66.1134 4.16523 66.127 4.24695 66.1452 4.34233Z" fill="white"/>
<path d="M23.2308 28.9941C23.0878 29.2405 22.8655 29.4311 22.6003 29.5345C22.3781 29.6253 22.1876 29.8025 21.9517 29.9115C21.6252 30.0613 21.3259 30.2838 21.0039 30.4564C20.8587 30.5336 20.6909 30.5609 20.5503 30.6245C20.3054 30.7198 20.0696 30.8379 19.8292 30.9515C19.6427 31.0468 19.4421 31.1112 19.235 31.1422C18.8767 31.2012 18.5638 31.4238 18.2282 31.4601C17.8452 31.5628 17.4499 31.6118 17.0535 31.6054C16.9537 31.6054 16.8176 31.5555 16.795 31.7371C16.795 31.7371 16.6952 31.7689 16.6408 31.7735L14.7767 31.9234C14.6936 31.915 14.6115 31.8983 14.5318 31.8734C14.4669 31.8481 14.3973 31.8373 14.3277 31.8416C13.7603 31.947 13.1767 31.9268 12.6179 31.7826C12.1326 31.7235 11.6609 31.6055 11.1847 31.501C11.0037 31.4896 10.8266 31.4433 10.6631 31.3647C10.5987 31.3374 10.5286 31.3264 10.459 31.3329C10.4046 31.3329 10.3275 31.3602 10.2912 31.3329C10.0206 31.1842 9.73053 31.0741 9.42945 31.006C8.86252 30.7698 8.2956 30.5291 7.73321 30.2748C7.48621 30.1757 7.25418 30.0428 7.04382 29.8797C6.94959 29.8018 6.84204 29.7418 6.72636 29.7025C6.602 29.6736 6.48952 29.607 6.40431 29.5118C6.34461 29.4054 6.25864 29.3161 6.15461 29.2525C6.05058 29.1888 5.932 29.153 5.81019 29.1485L5.66957 28.876C5.5448 28.856 5.42616 28.808 5.32249 28.7357C5.21883 28.6633 5.13285 28.5684 5.07092 28.4582C4.91576 28.2106 4.68522 28.0195 4.4133 27.9132C4.34956 27.8887 4.29433 27.8461 4.25452 27.7905C4.08671 27.5544 3.80098 27.4045 3.69213 27.1275C3.69213 27.0821 3.61054 27.0639 3.56518 27.0321C3.49152 26.9958 3.42288 26.95 3.36106 26.8959C3.17964 26.6824 3.02542 26.4417 2.83493 26.2464C2.70357 26.1202 2.60413 25.9646 2.54471 25.7923C2.47215 25.5879 2.23177 25.4562 2.09117 25.27C1.81046 24.9714 1.5847 24.6255 1.42442 24.2481C1.2929 23.7258 0.920985 23.3398 0.793993 22.8403C0.772577 22.7596 0.755925 22.6777 0.74411 22.595C0.739045 22.5001 0.719148 22.4067 0.685147 22.318C0.539684 21.9798 0.446405 21.6215 0.408493 21.2552C0.373734 21.0041 0.317594 20.7565 0.240685 20.515C0.174026 20.2449 0.151047 19.9658 0.172643 19.6884C0.172643 19.2797 0.118211 18.8709 0.10914 18.4622C0.10914 18.3396 0.186253 18.217 0.177183 18.0989C0.111453 17.6715 0.111453 17.2365 0.177183 16.8091C0.177183 16.7364 0.100069 16.6456 0.10914 16.5684C0.13965 16.3801 0.18054 16.1935 0.231605 16.0097C0.170219 15.6747 0.193619 15.3297 0.299648 15.0061C0.358962 14.7329 0.39085 14.4545 0.394874 14.175C0.394874 14.1477 0.394874 14.1114 0.394874 14.0932C0.685141 13.7344 0.60355 13.2757 0.726006 12.8761C0.756526 12.7656 0.795967 12.6577 0.843931 12.5536C0.957445 12.3278 1.03541 12.0857 1.07519 11.8361C1.15914 11.5505 1.2944 11.2828 1.47431 11.0458C1.53327 10.9505 1.62399 10.896 1.60585 10.7597C1.60585 10.6961 1.69657 10.6325 1.72832 10.5599C1.79635 10.4146 1.85078 10.2692 1.9052 10.1421C2.01859 9.94224 2.10928 9.7515 2.22266 9.57892C2.44036 9.24738 2.6762 8.9204 2.89843 8.59341C3.12067 8.26642 3.35201 8.00753 3.56064 7.72596C3.67403 7.65329 3.83729 7.61241 3.88718 7.51703C4.09852 7.08552 4.38059 6.69253 4.72168 6.3544C4.94392 6.14094 5.09362 5.85031 5.37935 5.6959C5.62766 5.57052 5.83642 5.37873 5.98254 5.14181C6.0192 5.08049 6.07744 5.03514 6.14581 5.01466C6.22276 4.99977 6.29453 4.96515 6.35415 4.91421C6.41376 4.86327 6.45918 4.79774 6.48597 4.724C6.52068 4.64464 6.57732 4.57688 6.64924 4.52871C6.88508 4.36976 7.10281 4.22443 7.36133 4.07456C7.38854 4.07456 7.42932 4.07455 7.4384 4.03822C7.62888 3.61585 8.0779 3.58407 8.41806 3.42057L8.33186 3.25254C8.71737 2.99821 9.23895 3.03 9.52468 2.65305L10.4862 2.49408C10.5472 2.33336 10.6632 2.19953 10.8136 2.11637C10.9639 2.03322 11.1387 2.00612 11.3071 2.03992C11.3434 2.03992 11.3888 2.03992 11.4296 2.01267H11.6427L11.8242 1.79469C12.2532 1.81658 12.6812 1.734 13.0714 1.554C13.357 1.46632 13.6527 1.41594 13.9513 1.40412L14.9763 1.25879C15.0193 1.33614 15.0911 1.39338 15.176 1.41804C15.2609 1.4427 15.3521 1.43278 15.4298 1.39048C15.6747 1.34295 15.9246 1.32618 16.1736 1.34053L16.355 1.47677C16.6362 1.47677 16.8449 1.43137 17.0535 1.43592C17.31 1.44353 17.5658 1.46473 17.82 1.49948C17.9162 1.51923 18.0104 1.54813 18.1012 1.58577L18.5048 1.7084C18.5992 1.72408 18.6908 1.75313 18.7769 1.79469C18.8362 1.85155 18.9089 1.89257 18.9881 1.91399C19.0674 1.93542 19.1507 1.93657 19.2305 1.91732C19.3717 1.91698 19.5107 1.95294 19.6341 2.02177C19.9108 2.13531 20.183 2.24886 20.4505 2.37602C20.5654 2.43997 20.676 2.51126 20.7816 2.58946C20.8756 2.56707 20.9734 2.56707 21.0674 2.58946C21.4483 2.77566 21.8202 2.9755 22.1921 3.18895C22.564 3.4024 22.8498 3.57952 23.1718 3.78389C23.258 3.83839 23.3078 3.94285 23.4167 4.07001C23.5304 4.0941 23.6404 4.13385 23.7433 4.1881C23.8377 4.27507 23.9201 4.37434 23.9881 4.48328C24.0834 4.58774 24.1786 4.69673 24.283 4.7921C24.5607 5.11562 24.8742 5.40663 25.2173 5.65955C25.3216 5.72314 25.376 5.88209 25.444 6.00017C25.7022 6.42089 26.0182 6.80311 26.3829 7.13556C26.5435 7.25967 26.6519 7.43951 26.6867 7.63967C26.6987 7.73955 26.7491 7.8308 26.8273 7.89399C27.1675 8.13924 27.2446 8.55706 27.4714 8.86134C27.7405 9.27852 27.9859 9.71068 28.2061 10.1557C28.2984 10.3315 28.3816 10.5118 28.4555 10.6961C28.6324 11.0822 28.8138 11.4637 28.9862 11.8542C29.0413 12.0836 29.1219 12.306 29.2266 12.5173C29.3233 12.6785 29.3677 12.8657 29.3536 13.0532C29.3407 13.2464 29.3701 13.4402 29.4397 13.6209C29.5749 13.8905 29.633 14.1923 29.6075 14.4929C29.5803 14.6518 29.6756 14.8244 29.6847 14.997C29.6937 15.1696 29.6847 15.4739 29.6847 15.71C29.6801 15.7765 29.6801 15.8433 29.6847 15.9098C29.7188 16.0142 29.7386 16.1226 29.7436 16.2323C29.6529 16.8272 29.7436 17.4222 29.6892 18.0216C29.6302 18.4758 29.6121 18.93 29.5531 19.3841C29.5461 19.6118 29.4772 19.8333 29.3536 20.0245C29.2719 20.1289 29.3082 20.3242 29.3082 20.4786C29.2821 20.8537 29.1621 21.2161 28.959 21.5323C28.9915 21.6227 28.9944 21.7211 28.9675 21.8133C28.9406 21.9055 28.8852 21.9868 28.8093 22.0455C28.6423 22.2217 28.5441 22.4522 28.5326 22.6949C28.4465 23.1491 28.4691 23.1491 28.1199 23.3852C28.1344 23.5825 28.0952 23.7799 28.0066 23.9567C27.9179 24.1334 27.7831 24.2828 27.6165 24.3889C27.5615 24.4302 27.5229 24.4898 27.5076 24.5569C27.4532 24.7295 27.2854 24.8431 27.2219 24.9793C27.0858 25.2836 26.8046 25.4562 26.6595 25.7241C26.3983 26.054 26.1647 26.4049 25.961 26.7732C25.938 26.8271 25.8961 26.8707 25.8432 26.8959C25.5386 27.0295 25.2889 27.2635 25.1356 27.5589C25.0988 27.6193 25.0473 27.6693 24.986 27.7042C24.7496 27.8776 24.5308 28.0738 24.3328 28.2901C24.0771 28.436 23.8522 28.6304 23.6707 28.8623C23.6117 28.9486 23.3895 28.9486 23.2308 28.9941ZM6.30908 19.1798C6.11406 19.2615 5.94625 19.3887 5.85554 19.3478C5.62877 19.2343 5.40202 19.3478 5.20246 19.3478C5.0029 19.3478 4.63552 19.3115 4.55841 19.5476C4.63552 19.911 4.68089 20.1743 4.74438 20.4332C4.77941 20.5549 4.82807 20.6722 4.88949 20.7829C5.03957 21.0209 5.17147 21.2699 5.28407 21.5277C5.42806 21.9622 5.68851 22.3487 6.03696 22.645C6.25467 22.8312 6.52227 22.9583 6.61751 23.2581C6.64948 23.3228 6.69999 23.3766 6.76262 23.4125C7.09824 23.6395 7.44293 23.8666 7.77855 24.0892C7.93538 24.1883 8.07484 24.3125 8.19129 24.457C8.28305 24.5866 8.4021 24.6944 8.54003 24.7729C8.67795 24.8514 8.83139 24.8986 8.98953 24.9112C9.09585 24.9204 9.19885 24.9528 9.29132 25.0061C9.38378 25.0595 9.46343 25.1325 9.52468 25.22C9.6574 25.3898 9.84796 25.5045 10.0599 25.5425C10.1959 25.5788 10.3229 25.6515 10.459 25.6969C11.0577 25.8922 11.5702 26.3554 12.2324 26.2237L12.4319 26.4553L12.7176 26.3827C13.0035 26.5271 13.3092 26.6281 13.6247 26.6824C13.9558 26.7369 14.3096 26.8141 14.559 26.5053L15.3482 26.7006C15.4923 26.5591 15.6861 26.4799 15.8879 26.4799C16.0897 26.4799 16.2835 26.5591 16.4276 26.7006C16.4505 26.5703 16.5194 26.4527 16.6219 26.3693C16.7244 26.2859 16.8535 26.2422 16.9855 26.2464C17.3456 26.2432 17.6904 26.0999 17.947 25.8468C18.0658 25.8848 18.1919 25.8939 18.315 25.8734C18.438 25.8529 18.5544 25.8033 18.6545 25.7287C18.9538 25.4735 19.342 25.3477 19.7339 25.379C19.9425 24.9248 20.0015 24.893 20.4868 24.7613C20.7074 24.6998 20.9078 24.5807 21.0674 24.4162C21.1946 24.2829 21.3494 24.1791 21.5209 24.1119C21.8586 23.972 22.1352 23.7159 22.301 23.3898C22.4092 23.2451 22.5375 23.1166 22.6819 23.0083C22.7318 22.9629 22.8135 22.9538 22.8543 22.9038C23.0947 22.6041 23.3079 22.2952 23.5709 21.9955C23.834 21.6958 23.9881 21.5777 24.2194 21.3461C24.2615 21.0104 24.4224 20.701 24.673 20.4741L24.6276 20.1426L24.8408 19.9064C24.614 19.693 24.8861 19.3523 24.6049 19.1616C24.3052 19.2383 23.9895 19.2241 23.6979 19.1207C23.627 19.1139 23.5556 19.1139 23.4847 19.1207C23.3033 19.1207 23.1174 19.1207 22.9314 19.1207C22.7813 19.0951 22.6299 19.0784 22.4779 19.0707C21.9107 19.1004 21.3419 19.0685 20.7816 18.9754C20.6181 18.9327 20.4463 18.9327 20.2827 18.9754C19.997 19.1298 19.7203 19.0117 19.4436 19.0072C19.2058 18.9795 18.9665 18.9673 18.7271 18.9708C18.3506 19.0163 17.9651 18.8755 17.6023 19.048C17.6023 19.048 17.5478 19.048 17.5206 19.048C17.1669 19.0163 16.8177 18.9754 16.4684 18.9527C16.1084 18.991 15.7464 19.0061 15.3845 18.9981C15.0962 18.9562 14.8044 18.944 14.5136 18.9618L13.5476 19.0026C13.2301 19.0026 12.9081 19.0026 12.5906 19.0026C12.45 19.0026 12.2913 19.1253 12.1825 19.0798C11.9792 19.0231 11.7643 19.0231 11.5611 19.0798C11.1075 19.1343 10.654 19.0299 10.2004 19.0798C9.96007 19.1116 9.70156 19.0117 9.47025 19.0798C9.2306 19.1207 8.98664 19.1299 8.7446 19.1071C8.18795 19.0774 7.62977 19.1094 7.08013 19.2025C6.82447 19.2503 6.56149 19.2426 6.30908 19.1798ZM11.2391 13.6618C11.4432 13.7026 11.5974 13.8026 11.8378 13.7163C12.0782 13.63 12.3548 13.7708 12.6224 13.8026C12.7038 13.8116 12.7859 13.8116 12.8673 13.8026L13.4116 13.7117C13.7678 13.7267 14.1241 13.6868 14.4683 13.5936C14.5773 13.5695 14.6903 13.5695 14.7994 13.5936C14.881 13.5936 14.9717 13.6572 15.0488 13.6391C15.6094 13.5755 16.1754 13.5755 16.736 13.6391C17.058 13.6391 17.38 13.6118 17.7021 13.5936C17.9061 13.5936 18.1556 13.7026 18.3143 13.6481C18.7942 13.5287 19.2947 13.5179 19.7793 13.6164C20.0143 13.6766 20.2616 13.6671 20.4913 13.5891C20.7801 13.4742 21.098 13.4551 21.3984 13.5346C21.6068 13.5523 21.8166 13.5276 22.0152 13.4619C22.0833 13.4392 22.1604 13.3711 22.2148 13.3893C22.5595 13.4937 22.877 13.2939 23.1536 13.3439C23.6072 12.9169 24.2059 12.7989 24.5823 12.3765C24.4961 12.1494 24.3238 11.9224 24.3601 11.7452C24.4372 11.3229 24.0925 11.1412 23.9065 10.8914C23.7206 10.6416 23.6571 10.3283 23.3713 10.1693C23.3169 9.71516 22.6865 9.66067 22.6366 9.1838C22.1422 9.01123 21.9427 8.49349 21.53 8.221C21.4619 8.17558 21.4075 8.09837 21.3304 8.07112C20.9111 7.92456 20.521 7.70467 20.1784 7.42168C20.0617 7.34763 19.9349 7.29102 19.802 7.25364L19.2396 6.99932C19.1625 6.96753 19.0944 6.91303 19.0173 6.88578C18.5638 6.75407 18.1103 6.59965 17.6567 6.49973C17.2577 6.4269 16.8549 6.37688 16.4503 6.34988C16.0605 6.27408 15.6619 6.2542 15.2665 6.29084C14.94 6.3635 14.627 6.29084 14.3096 6.34533C14.1829 6.34446 14.0566 6.35816 13.9331 6.38619C13.3844 6.66777 12.763 6.63598 12.2006 6.84035C12.0634 6.87176 11.9239 6.89151 11.7834 6.89939C11.7132 6.90214 11.644 6.91754 11.5792 6.94482C11.2922 7.11043 10.988 7.24443 10.6722 7.34448C10.2445 7.51541 9.84651 7.75299 9.49295 8.04842C9.10274 8.25638 8.73229 8.49959 8.38628 8.77505C8.29557 8.87043 8.11417 8.89314 8.05975 9.06117C8.05975 9.10659 7.98263 9.14291 7.93274 9.16562C7.73108 9.2392 7.54661 9.3533 7.39062 9.50091C7.23462 9.64853 7.11041 9.82653 7.02566 10.024C6.98812 10.1008 6.92802 10.1642 6.85336 10.2057C6.61725 10.3683 6.42297 10.5846 6.28644 10.8369L5.8918 11.4273L5.92812 11.4727L5.47458 12.5218C5.5682 12.7227 5.68057 12.9143 5.81019 13.0941C5.8873 13.1894 6.05962 13.2031 6.18661 13.2621C6.2559 13.2783 6.32089 13.3093 6.37712 13.3529C6.49227 13.461 6.63358 13.5371 6.78709 13.5738C6.94061 13.6104 7.10098 13.6063 7.25243 13.5619L7.49736 13.7889C7.86019 13.7299 8.21852 13.58 8.55415 13.7889C8.79414 13.9132 9.06883 13.9532 9.33422 13.9025C9.78449 13.8253 10.2446 13.8253 10.6949 13.9025C10.793 13.9125 10.8917 13.8901 10.976 13.8389C11.0685 13.7873 11.1565 13.7281 11.2391 13.6618Z" fill="white"/>
</svg>
