<svg width="138" height="85" viewBox="0 0 138 85" fill="none" xmlns="http://www.w3.org/2000/svg">
<path d="M12.9378 16.5495C14.5913 16.5215 16.2318 16.8466 17.75 17.5033C19.0775 18.0672 20.2302 18.9767 21.0881 20.1374C21.8809 21.1992 22.3075 22.4902 22.3036 23.816C22.2951 25.3209 21.6918 26.7612 20.6255 27.8217C21.5044 28.3805 22.2543 29.1206 22.8251 29.9925C23.3464 30.7561 23.6319 31.6563 23.646 32.5812C23.6495 33.8857 23.2398 35.1578 22.4758 36.2144C21.644 37.3754 20.5228 38.2977 19.224 38.8894C17.7503 39.5745 16.1408 39.9161 14.5163 39.8886H0.00292969V16.5495H12.9378ZM7.78113 22.2492V25.1739H12.9378C13.4782 25.2105 14.0134 25.0491 14.4436 24.7198C14.6207 24.5543 14.7589 24.3516 14.8483 24.1262C14.9378 23.9008 14.9762 23.6584 14.9607 23.4163C14.9571 23.2354 14.9023 23.0591 14.8027 22.908C14.7032 22.7569 14.5631 22.6371 14.3983 22.5625C13.9446 22.3393 13.4432 22.2302 12.9378 22.2446H7.78113V22.2492ZM14.3393 33.8983H14.5434L14.8745 33.812C15.2156 33.7804 15.5357 33.633 15.7816 33.3942C15.9711 33.1564 16.0678 32.8578 16.0537 32.554C16.0587 32.3661 16.0179 32.1799 15.9349 32.0114C15.852 31.8429 15.7293 31.6971 15.5775 31.5866C15.2233 31.3232 14.7892 31.19 14.3484 31.2097H7.79021V33.8983H14.3393Z" fill="white"/>
<path d="M46.4408 5.01848C46.466 4.98937 46.4804 4.9525 46.4817 4.91403V3.78319C46.4821 3.76394 46.4787 3.74479 46.4717 3.72686C46.4647 3.70893 46.4542 3.69258 46.4408 3.67874C46.4117 3.65355 46.3749 3.63911 46.3365 3.63785H38.9392C38.9206 3.63692 38.9021 3.6401 38.8848 3.64717C38.8676 3.65423 38.8521 3.66502 38.8394 3.67874C38.8116 3.7065 38.7953 3.74385 38.794 3.78319V4.93673C38.7933 4.95643 38.797 4.97606 38.8049 4.99414C38.8127 5.01222 38.8245 5.0283 38.8394 5.04121C38.8669 5.06607 38.9022 5.08051 38.9392 5.08206H41.86V11.4584C41.8594 11.477 41.8627 11.4955 41.8697 11.5128C41.8768 11.53 41.8874 11.5455 41.9008 11.5583C41.9287 11.5826 41.9638 11.5969 42.0006 11.5992H43.266C43.2852 11.5997 43.3043 11.5963 43.3223 11.5893C43.3402 11.5822 43.3565 11.5717 43.3703 11.5583C43.3951 11.5308 43.4096 11.4955 43.4112 11.4584V5.05936H46.2729C46.302 5.06842 46.333 5.06939 46.3625 5.06219C46.3921 5.05499 46.4192 5.03988 46.4408 5.01848Z" fill="white"/>
<path d="M58.8364 9.95068C59.015 9.7334 59.1743 9.50088 59.3125 9.25581C59.4425 9.00755 59.5445 8.74556 59.6164 8.47467C59.6864 8.20022 59.7199 7.91771 59.7162 7.63447C59.7202 7.34224 59.6867 7.05072 59.6164 6.76705C59.5432 6.48519 59.435 6.2136 59.2944 5.95864C59.1549 5.70259 58.9909 5.46077 58.8046 5.23655C58.4182 4.79265 57.9578 4.41926 57.444 4.13295C57.1808 3.99058 56.9062 3.87055 56.623 3.77415C55.9798 3.55905 55.3056 3.45167 54.6275 3.45626C53.9552 3.45064 53.2867 3.55808 52.65 3.77415C52.3653 3.87053 52.0893 3.99056 51.8246 4.13295C51.5654 4.27568 51.3195 4.44134 51.0898 4.62796C50.8595 4.81188 50.6455 5.01552 50.4504 5.23655C50.263 5.45995 50.0989 5.70189 49.9605 5.95864C49.8191 6.21269 49.7124 6.48459 49.6431 6.76705C49.5728 7.05072 49.5393 7.34224 49.5433 7.63447C49.5395 7.91771 49.5731 8.20022 49.6431 8.47467C49.713 8.74621 49.815 9.00842 49.9469 9.25581C50.0803 9.50384 50.24 9.73681 50.4231 9.95068C50.6061 10.1681 50.8097 10.3673 51.0309 10.5456C51.4795 10.9023 51.9815 11.1859 52.5184 11.3858C52.8545 11.5116 53.2025 11.6029 53.5571 11.6583C53.9104 11.7227 54.2684 11.7577 54.6275 11.7628C54.9914 11.7655 55.3546 11.7305 55.7114 11.6583C56.0638 11.5867 56.4121 11.4957 56.7546 11.3858C57.0273 11.2835 57.2925 11.1621 57.5483 11.0225C57.7944 10.8794 58.0308 10.7201 58.2558 10.5456C58.4593 10.3573 58.6531 10.1587 58.8364 9.95068ZM57.9655 7.63447C57.969 7.90621 57.9261 8.17657 57.8385 8.43379C57.7512 8.67448 57.624 8.89868 57.4621 9.09686C57.2947 9.30191 57.0992 9.48231 56.8816 9.63276C56.6628 9.79182 56.4251 9.92301 56.174 10.0233C55.671 10.2331 55.1315 10.3411 54.5866 10.3412C54.0502 10.3442 53.519 10.236 53.0265 10.0233C52.7735 9.92697 52.5353 9.7955 52.3189 9.63276C52.1057 9.48177 51.9148 9.30136 51.752 9.09686C51.5909 8.90111 51.4692 8.67593 51.3937 8.43379C51.2651 8.05455 51.2306 7.64971 51.293 7.25413C51.3554 6.85855 51.5129 6.48409 51.752 6.16301C51.9245 5.95322 52.1209 5.76424 52.3371 5.59986C52.55 5.43573 52.7833 5.29987 53.031 5.19566C53.2824 5.08864 53.5437 5.00652 53.8111 4.95043C54.0717 4.89251 54.3378 4.86358 54.6048 4.86413C54.8717 4.86437 55.1378 4.8933 55.3985 4.95043C55.6685 5.01339 55.9337 5.09533 56.1922 5.19566C56.4431 5.30203 56.6806 5.43771 56.8997 5.59986C57.117 5.76139 57.3122 5.95071 57.4803 6.16301C57.6414 6.36844 57.7684 6.59845 57.8566 6.84424C57.9426 7.09836 57.9796 7.36653 57.9655 7.63447Z" fill="white"/>
<path d="M70.2794 5.01839C70.3056 4.98952 70.3214 4.95282 70.3247 4.91395V3.7831C70.3239 3.74367 70.3076 3.70614 70.2794 3.67866C70.2519 3.65379 70.2166 3.63932 70.1796 3.63777H62.7687C62.7501 3.63714 62.7316 3.64046 62.7144 3.6475C62.6972 3.65455 62.6817 3.66517 62.6689 3.67866C62.6427 3.70753 62.6268 3.74423 62.6235 3.7831V4.93665C62.6243 4.97609 62.6407 5.01364 62.6689 5.04112C62.6964 5.06599 62.7317 5.08043 62.7687 5.08198H65.6895V11.4583C65.6888 11.4774 65.6926 11.4963 65.7004 11.5136C65.7083 11.531 65.7201 11.5463 65.7349 11.5582C65.7619 11.5838 65.7975 11.5984 65.8346 11.5991H67.1363C67.155 11.6011 67.174 11.5984 67.1914 11.5913C67.2088 11.5842 67.2242 11.5728 67.2361 11.5582C67.261 11.5307 67.2753 11.4954 67.2769 11.4583V5.05928H70.1388C70.1638 5.06389 70.1895 5.06261 70.2139 5.05551C70.2383 5.04841 70.2607 5.03569 70.2794 5.01839Z" fill="white"/>
<path d="M81.0598 10.037H75.5674V8.32479H79.1504C79.1701 8.32552 79.1896 8.32181 79.2077 8.31395C79.2257 8.30609 79.2419 8.29429 79.2548 8.27939C79.2803 8.25231 79.2948 8.21668 79.2955 8.17946V7.05316C79.2959 7.03391 79.2925 7.01477 79.2855 6.99684C79.2785 6.9789 79.2681 6.96252 79.2548 6.94869C79.2257 6.9235 79.1889 6.90909 79.1504 6.90783H75.5674V5.1457H80.9736C80.9922 5.14633 81.0108 5.14302 81.028 5.13597C81.0452 5.12893 81.0607 5.1183 81.0735 5.10482C81.0996 5.07774 81.1156 5.04246 81.1188 5.00492V3.74235C81.1185 3.72346 81.1144 3.70483 81.1066 3.68763C81.0988 3.67043 81.0875 3.65505 81.0735 3.64245C81.046 3.61759 81.0106 3.60312 80.9736 3.60156H74.107C74.0885 3.60147 74.0702 3.60503 74.0531 3.61204C74.036 3.61906 74.0204 3.6294 74.0072 3.64245C73.9824 3.66997 73.9679 3.7053 73.9664 3.74235V11.463C73.9658 11.4816 73.9691 11.5001 73.9761 11.5173C73.9832 11.5346 73.9938 11.5501 74.0072 11.5629C74.0351 11.5872 74.0702 11.6015 74.107 11.6038H81.0735C81.0927 11.6042 81.1118 11.6008 81.1297 11.5938C81.1476 11.5868 81.164 11.5763 81.1778 11.5629C81.2026 11.5354 81.217 11.5 81.2185 11.463V10.1868C81.2191 10.1682 81.2159 10.1497 81.2089 10.1325C81.2018 10.1153 81.1912 10.0997 81.1778 10.0869C81.1431 10.061 81.1026 10.0438 81.0598 10.037Z" fill="white"/>
<path d="M96.3307 11.5995C96.3625 11.5995 96.376 11.5995 96.3896 11.5995C96.4033 11.5995 96.4351 11.5994 96.4487 11.5586C96.457 11.5511 96.4637 11.542 96.4684 11.5319C96.4731 11.5217 96.4756 11.5107 96.4759 11.4995C96.4759 11.4995 96.4759 11.4541 96.4759 11.4405L95.9724 7.5938L95.4645 3.74254C95.4626 3.70956 95.4479 3.67861 95.4237 3.65625C95.4098 3.64286 95.3935 3.63236 95.3756 3.62534C95.3577 3.61833 95.3386 3.61495 95.3194 3.61539H93.2693C93.239 3.61821 93.2096 3.6275 93.1832 3.64264C93.1689 3.65009 93.1563 3.66039 93.1462 3.67288C93.1361 3.68538 93.1285 3.6998 93.1242 3.71529L91.7635 6.98522L90.4029 10.2551L89.0423 6.98522L87.6817 3.71529C87.6727 3.68538 87.6535 3.65963 87.6273 3.64264C87.6006 3.62808 87.5714 3.61883 87.5412 3.61539H85.4594C85.4407 3.61446 85.4221 3.61764 85.4049 3.62471C85.3876 3.63177 85.3722 3.64253 85.3596 3.65625C85.3448 3.66823 85.333 3.68351 85.3252 3.70085C85.3173 3.7182 85.3135 3.73714 85.3142 3.75618L84.8379 7.60741L84.3618 11.4541V11.5041C84.3649 11.526 84.3743 11.5465 84.3889 11.5631C84.4053 11.5809 84.4255 11.5949 84.448 11.604C84.4572 11.6081 84.4673 11.6103 84.4774 11.6103C84.4876 11.6103 84.4976 11.6081 84.5069 11.604H85.7179C85.7368 11.604 85.7555 11.6 85.7727 11.5922C85.7899 11.5844 85.8053 11.5729 85.8177 11.5586C85.8309 11.5482 85.8418 11.5352 85.8497 11.5203C85.8575 11.5055 85.862 11.4891 85.863 11.4723L86.2803 8.38857L86.7021 5.30938L87.9856 8.40673L89.2736 11.4995C89.278 11.515 89.2855 11.5295 89.2956 11.542C89.3058 11.5545 89.3184 11.5648 89.3326 11.5722C89.3585 11.5894 89.388 11.6002 89.4188 11.604H91.3826C91.4134 11.6002 91.4429 11.5894 91.4688 11.5722C91.483 11.5648 91.4956 11.5545 91.5058 11.542C91.5159 11.5295 91.5233 11.515 91.5277 11.4995L92.7704 8.40673L94.0131 5.30938L94.4304 8.38857L94.8522 11.4723C94.8526 11.4887 94.8565 11.5049 94.8635 11.5197C94.8705 11.5346 94.8806 11.5478 94.893 11.5586C94.9205 11.5869 94.958 11.6032 94.9974 11.604H96.3307V11.5995Z" fill="white"/>
<path d="M52.6499 2.00752H56.5777C56.5974 2.00825 56.6169 2.00454 56.6349 1.99668C56.653 1.98882 56.6691 1.97699 56.682 1.96209C56.7075 1.93502 56.722 1.89941 56.7227 1.86219V0.79036C56.7234 0.771764 56.7201 0.753252 56.7131 0.73603C56.7061 0.718808 56.6955 0.703281 56.682 0.690459C56.6529 0.665273 56.6161 0.650832 56.5777 0.649573H52.6499C52.6313 0.64864 52.6128 0.651823 52.5956 0.658887C52.5783 0.665951 52.5628 0.676734 52.5502 0.690459C52.5226 0.716548 52.5064 0.7524 52.5049 0.79036V1.86219C52.507 1.90003 52.523 1.93573 52.5497 1.96253C52.5765 1.98933 52.6121 2.00535 52.6499 2.00752Z" fill="white"/>
<path d="M37.1023 34.4071L38.0412 33.4988H34.8166V31.1418H40.7126C41.2932 30.6876 41.8419 30.2334 42.3907 29.8111C43.198 29.1889 43.978 28.6394 44.6856 28.1307V25.2241H34.8301V22.808H49.7426V16.5361H27.1426V39.8479H32.186C33.7044 37.9288 35.3467 36.1113 37.1023 34.4071Z" fill="white"/>
<path d="M86.2168 36.7367C87.1166 37.4538 88.0968 38.0635 89.1376 38.5533C90.1433 37.5855 91.2033 36.6757 92.3123 35.8284C93.0516 35.2743 93.8136 34.7566 94.6118 34.2616C94.123 34.1414 93.6475 33.9726 93.1923 33.7575C92.0544 33.2744 91.0595 32.5065 90.3032 31.5276C89.6217 30.6566 89.2512 29.5821 89.2509 28.4756C89.2551 27.3308 89.6237 26.2172 90.3032 25.2965C91.0526 24.2685 92.0454 23.4429 93.1923 22.8941C94.4425 22.2811 95.8187 21.97 97.2106 21.9858C98.2926 21.9848 99.3666 22.1707 100.385 22.5353C101.523 22.9605 102.621 23.4832 103.669 24.0976L104.059 24.3428L109.375 20.7096L108.985 20.378C107.392 19.0436 105.577 17.9998 103.624 17.2943C101.563 16.5432 99.3857 16.162 97.1925 16.168C95.1183 16.1678 93.06 16.5305 91.1105 17.2398C89.3285 17.8608 87.6657 18.7824 86.1941 19.9648C84.8633 21.0342 83.7633 22.3629 82.9604 23.8705C82.2218 25.2703 81.8343 26.8289 81.8311 28.412C81.8317 29.9825 82.2196 31.5285 82.9604 32.9127C83.7514 34.412 84.8633 35.7177 86.2168 36.7367Z" fill="white"/>
<path d="M71.4948 16.5498H62.8366L59.3989 24.6746C59.738 24.9502 60.0426 25.2658 60.3059 25.6148C60.8773 26.3902 61.2889 27.2717 61.5169 28.208C61.7464 29.1386 61.8351 30.0985 61.78 31.0555C61.6701 32.411 61.3975 33.7483 60.9681 35.0385C60.5427 36.2997 59.9958 37.5165 59.3353 38.6717C59.0904 39.0941 58.8319 39.4983 58.5688 39.8888H61.086L63.3537 34.6343H71.649L73.9167 39.8888H82.2392L71.4948 16.5498ZM65.5262 29.1526L67.3404 24.6974L69.1546 29.1526H65.5262Z" fill="white"/>
<path d="M129.974 16.5498V24.6746H121.48V16.5498H113.488V30.7876C114.028 30.9604 114.547 31.1935 115.035 31.4824C115.844 31.9606 116.55 32.5951 117.112 33.349C117.64 34.059 117.983 34.8893 118.11 35.7651C118.24 36.6347 118.166 37.5228 117.892 38.3583C117.725 38.8889 117.487 39.3945 117.185 39.8616H121.48V31.3825H129.974V39.8616H137.88V16.5498H129.974Z" fill="white"/>
<path d="M22.0724 60.5256C24.3393 53.6562 27.7277 47.2106 32.1001 41.4511C33.8071 39.1888 35.6875 37.0629 37.7241 35.0929C39.3737 33.488 41.1152 31.9807 42.9399 30.5786C44.2842 29.5401 45.6831 28.5744 47.1306 27.6857C48.3143 26.9772 49.1669 26.4867 49.6749 26.2233C50.4495 25.8208 51.2442 25.4586 52.056 25.1379C52.8964 24.8104 53.7628 24.5537 54.6458 24.3703C55.6399 24.1946 56.663 24.2903 57.6074 24.6474C58.3886 24.963 59.0713 25.482 59.5848 26.1506C60.0888 26.8288 60.4527 27.6007 60.6552 28.4214C60.8674 29.2622 60.9498 30.1306 60.9001 30.9964C60.8052 32.2774 60.5477 33.5411 60.1336 34.7569C59.721 35.9604 59.1988 37.1234 58.5734 38.2311C55.9741 42.6326 52.268 46.2749 47.8245 48.7948C47.4594 49.0055 47.077 49.1848 46.6816 49.3307C46.2937 49.4753 45.8986 49.5996 45.4978 49.7031C45.0648 49.836 44.602 49.836 44.1689 49.7031C43.7347 49.5729 43.3544 49.3052 43.085 48.9401C42.8103 48.5746 42.6522 48.1346 42.6315 47.6776C42.6164 47.205 42.7209 46.7363 42.9353 46.3151C43.1555 45.7679 43.4306 45.2445 43.7563 44.7528C44.0873 44.2442 44.4093 43.7537 44.695 43.2632C44.8805 42.92 45.0834 42.5865 45.3028 42.264C45.4095 42.0932 45.4787 41.9016 45.5061 41.702C45.5335 41.5024 45.5183 41.2993 45.4616 41.1059C45.3618 40.8607 45.4615 40.6881 45.7382 40.5837C45.9241 40.4565 46.1146 40.5292 46.3006 40.8335C46.432 40.943 46.5351 41.0829 46.6006 41.2412C46.6662 41.3994 46.6924 41.5712 46.677 41.7418C46.6301 42.0601 46.5273 42.3677 46.3732 42.6501C46.1555 43.1542 45.9197 43.631 45.6929 44.0807C45.4661 44.5303 45.203 44.989 44.9263 45.4431C44.7932 45.8267 44.62 46.1952 44.4093 46.5422C44.1927 46.9026 44.0177 47.2866 43.8878 47.6866C43.7563 47.9773 43.7563 48.1817 43.8878 48.2952C43.979 48.3486 44.081 48.3804 44.1863 48.3883C44.2916 48.3962 44.3974 48.3799 44.4955 48.3406C44.7812 48.2498 45.0851 48.1635 45.4026 48.0364C45.7019 47.9186 45.9917 47.7773 46.2689 47.614C50.9425 45.0745 54.8562 41.3342 57.6074 36.7779C58.2422 35.6448 58.7647 34.4522 59.1676 33.2173C59.5722 31.9663 59.7473 30.6523 59.6846 29.3388C59.6846 28.0217 59.4261 27.0408 58.9045 26.3868C58.3829 25.7328 57.5167 25.4331 56.3193 25.4785C55.5191 25.5328 54.7309 25.7026 53.9791 25.9826C53.1878 26.2611 52.4151 26.5903 51.666 26.9681C50.3226 27.6567 49.0243 28.4304 47.7791 29.2843C45.7069 30.6804 43.7366 32.2223 41.8831 33.8985C39.4468 36.0992 37.1802 38.4812 35.1026 41.0242C32.5781 44.0863 30.3474 47.3799 28.4401 50.8612C27.6283 52.3372 26.9208 53.7723 26.2858 55.1621C25.6509 56.5518 25.0885 57.9687 24.5805 59.3993C24.0725 60.8299 23.5963 62.2923 23.179 63.8001C22.7617 65.3079 22.34 66.9111 21.9363 68.6187C21.8048 69.2817 21.6642 70.0629 21.5327 70.9621C21.4012 71.8614 21.2877 72.7787 21.2151 73.7551C21.1426 74.7316 21.0837 75.6626 21.0701 76.5891C21.0478 77.3868 21.0811 78.1849 21.1698 78.9779C21.2533 79.6621 21.4052 80.3361 21.6234 80.9899C21.8266 81.5029 22.1357 81.9672 22.5305 82.3523C22.9764 82.7914 23.5303 83.1047 24.136 83.2606C24.7858 83.4609 25.4677 83.5348 26.1452 83.4786C26.8307 83.3988 27.5077 83.2575 28.168 83.0563C28.8529 82.8435 29.5153 82.5635 30.1455 82.2206C30.8808 81.8122 31.5735 81.3315 32.2135 80.7855C32.9211 80.18 33.7012 79.4563 34.5539 78.6146C35.7651 77.4193 36.8238 76.0785 37.706 74.6226C38.3768 73.5198 38.933 72.3511 39.3659 71.1347C39.676 70.3051 39.8522 69.4312 39.8875 68.546C39.8875 67.8511 39.7878 67.4152 39.5701 67.2562C39.5214 67.2245 39.4858 67.1762 39.47 67.1202C39.4541 67.0643 39.4591 67.0045 39.4838 66.9519C39.5435 66.8306 39.6324 66.7261 39.7424 66.6477C39.8651 66.5648 40.0118 66.5248 40.1596 66.5341C40.2483 66.5401 40.3348 66.5651 40.413 66.6074C40.4913 66.6497 40.5595 66.7083 40.6131 66.7793C40.9022 67.1804 41.082 67.65 41.1348 68.1418C41.2351 68.888 41.2152 69.6455 41.0758 70.3853C40.8843 71.4002 40.5801 72.3903 40.1687 73.3374C39.6373 74.5562 38.9628 75.7072 38.1595 76.7662C37.6052 77.5492 36.9991 78.2942 36.3453 78.9961C35.6276 79.7746 34.8545 80.5001 34.0322 81.167C33.2026 81.8556 32.3184 82.4752 31.3882 83.0199C30.4957 83.5483 29.5403 83.9619 28.5444 84.2507C27.5687 84.5335 26.547 84.6214 25.5374 84.5096C24.5827 84.3998 23.6585 84.1052 22.8161 83.6421C21.9828 83.1781 21.2578 82.5419 20.6891 81.7755C20.0836 80.9524 19.6882 79.9935 19.5371 78.9825C19.2924 77.2957 19.224 75.5879 19.333 73.8869C19.4283 72.1682 19.6314 70.4572 19.9408 68.764C20.2265 67.1154 20.5757 65.5849 20.9658 64.1634C21.3558 62.7419 21.7549 61.4612 22.0724 60.5256Z" fill="white"/>
<path d="M68.0114 35.9828C67.5034 35.5922 67.0544 36.0691 66.7369 36.3143C66.2607 36.6912 65.7844 37.0818 65.3218 37.4724C63.9531 38.6879 62.6866 40.0139 61.5348 41.4372C61.376 41.6143 59.9609 43.3038 59.8022 43.5354C59.6888 43.6943 59.122 44.3619 58.5142 45.2157C57.5013 46.663 56.5624 48.139 55.6976 49.6437C54.8329 51.1485 54.0377 52.682 53.312 54.2443C52.6498 55.793 52.0557 57.3553 51.5523 58.904C51.0362 60.4961 50.7015 62.1415 50.5545 63.8089C50.4548 64.7172 50.6679 65.4029 51.2167 65.8344C51.515 66.06 51.8673 66.2031 52.2383 66.2493C52.6092 66.2956 52.9857 66.2433 53.3302 66.0978C53.734 65.9361 54.0978 65.6881 54.396 65.3711C54.6779 65.057 54.981 64.7627 55.3031 64.4901C56.657 63.4186 58.0762 62.4326 59.5527 61.5381C60.6775 60.8886 61.63 60.3209 62.4418 59.8759C62.543 59.8041 62.6305 59.7149 62.7004 59.6125C62.7458 59.5398 62.7004 59.4399 62.5552 59.3082C62.528 59.2355 62.5008 59.2083 62.5008 59.1946C62.5008 59.181 62.4691 59.2673 62.3557 59.3082C62.0778 59.3126 61.8029 59.3664 61.5438 59.4671C61.3114 59.55 61.1038 59.6906 60.9406 59.8759C60.4598 60.1211 60.0336 60.33 59.639 60.5389C59.2444 60.7478 58.8452 60.9568 58.4098 61.2065C57.9744 61.4563 57.5028 61.7424 56.9812 62.074C56.4596 62.4055 55.8247 62.8551 55.0718 63.4364C54.6519 63.6978 54.2502 63.9876 53.8698 64.3039C53.4726 64.6293 53.0577 64.9326 52.6271 65.2122C52.2235 65.3712 51.9514 65.3984 51.8063 65.2985C51.6612 65.1985 51.5886 64.9352 51.5886 64.531C51.6188 63.8951 51.7552 63.2687 51.9922 62.678C52.8432 59.4201 54.0604 56.2693 55.6206 53.2861C57.1887 50.3208 58.9905 47.4855 61.0087 44.807C61.3307 44.3756 64.3467 40.7196 66.1563 39.2663C67.6621 37.8948 68.6327 36.4823 68.0114 35.9828Z" fill="white"/>
<path d="M70.5693 62.6966C70.1385 62.8235 69.6865 62.8622 69.2404 62.8101C68.7953 62.7379 68.3792 62.5429 68.0386 62.247C67.9751 62.0752 67.9023 61.9069 67.8208 61.7429C67.7303 61.5671 67.6288 61.3972 67.5169 61.2342C67.4503 61.2655 67.3774 61.281 67.3038 61.2796C67.229 61.275 67.1542 61.2891 67.0861 61.3205C66.7958 61.6112 66.5056 61.9291 66.2199 62.2606C65.9341 62.5921 65.6393 62.9555 65.3128 63.3324C64.8307 63.8602 64.2241 64.2584 63.5485 64.4905C63.257 64.4446 62.975 64.351 62.7139 64.2135C62.4538 64.0686 62.2341 63.861 62.0744 63.6094C61.889 63.3407 61.7793 63.027 61.757 62.7011C61.6489 61.9651 61.7979 61.2144 62.1787 60.5757C62.4101 60.0806 62.6686 59.5447 62.9588 58.9816C63.2491 58.4184 63.5666 57.8689 63.8977 57.333C64.2288 56.7971 64.519 56.3475 64.7639 55.9705C64.9422 55.9642 65.1199 55.9951 65.2856 56.0614C65.3717 56.0886 65.4851 56.2022 65.6439 56.4202C65.6455 56.4761 65.6611 56.5307 65.6892 56.5791C65.7164 56.6382 65.6892 56.6836 65.6439 56.7381C65.5577 56.9288 65.4306 57.1922 65.2265 57.6055C65.0224 58.0188 64.8093 58.4048 64.5916 58.8363C64.3739 59.2677 64.1381 59.6765 63.9567 60.0807C63.8003 60.3617 63.674 60.6585 63.5802 60.9662C63.4802 61.2275 63.4073 61.4984 63.3625 61.7747C63.3473 61.9285 63.3667 62.0839 63.4192 62.2293C63.4718 62.3746 63.5563 62.5064 63.6664 62.6148C64.2867 62.343 64.8136 61.8945 65.1812 61.325C65.567 60.7546 65.9818 60.2043 66.4239 59.6765C66.8775 59.1723 67.2765 58.6364 67.7119 58.0869C68.1473 57.5374 68.5646 57.0151 69 56.4928C69.1056 56.4183 69.2282 56.3714 69.3565 56.3563C69.4848 56.3412 69.6149 56.3585 69.7348 56.4065C69.9908 56.5644 70.2041 56.7827 70.3561 57.0424C70.2226 57.7467 70.019 58.4359 69.7483 59.0997C69.4779 59.7931 69.3246 60.5267 69.2948 61.2705C69.4354 61.3624 69.588 61.4342 69.7483 61.484C69.8891 61.5524 70.0483 61.5731 70.2019 61.543C70.5783 61.4431 70.9095 61.3387 71.1816 61.2705C71.4537 61.2024 71.7621 61.0934 72.066 61.0071C72.3699 60.9208 72.7009 60.7891 73.0638 60.6484C73.4266 60.5076 73.8711 60.2986 74.4244 60.067C74.6829 59.9353 75.014 59.7945 75.3905 59.6492C75.7669 59.5039 76.1297 59.3722 76.4744 59.245C76.7822 59.1398 77.0957 59.0519 77.4133 58.9816C77.6015 58.9179 77.8055 58.9179 77.9938 58.9816C78.1209 58.9763 78.248 58.9916 78.3702 59.027C78.4563 59.0543 78.529 59.1723 78.5426 59.3858C78.3982 59.5522 78.1983 59.6603 77.9802 59.6901C77.7187 59.7191 77.4615 59.7786 77.2137 59.8672C77.0479 59.9566 76.873 60.0281 76.6921 60.0807C76.5061 60.1533 76.2386 60.2396 75.971 60.3577C75.7034 60.4758 75.3042 60.6302 74.8734 60.8118C74.4425 60.9935 73.862 61.2297 73.1681 61.5476C73.0365 61.6066 72.8506 61.6793 72.6011 61.7656C72.3517 61.8519 72.1114 61.9518 71.8665 62.0699C71.6215 62.1879 71.3766 62.2878 71.1453 62.3878C70.9425 62.469 70.7493 62.5726 70.5693 62.6966Z" fill="white"/>
<path d="M80.7104 57.2239C81.0612 57.2092 81.4014 57.0993 81.6946 56.9059C81.9886 56.7121 82.3036 56.5521 82.6334 56.4291C83.1908 56.1947 83.7941 56.0907 84.3977 56.1248C84.9246 56.1493 85.4365 56.3087 85.8843 56.5878C86.3321 56.8669 86.7011 57.2563 86.9557 57.7189C87.2458 58.2396 87.4177 58.818 87.4591 59.4129C87.5154 59.683 87.5353 59.9595 87.5181 60.2349C87.5051 60.5155 87.4563 60.7933 87.3729 61.0615C87.314 61.5156 87.4182 61.77 87.6768 61.7972C88.0033 61.842 88.3345 61.842 88.661 61.7972C89.0647 61.77 89.5409 61.7109 90.1033 61.6246C90.6657 61.5383 91.2326 61.4339 91.795 61.3476L93.3415 61.1024C93.6953 61.0425 94.0531 61.0091 94.4119 61.0024C94.521 61.0063 94.6261 61.0449 94.7118 61.1127C94.7974 61.1805 94.8592 61.274 94.8882 61.3794C94.9879 61.6383 94.8881 61.7836 94.5253 61.8335C93.9901 61.9198 93.4141 62.0198 92.8064 62.1515C92.1986 62.2832 91.5773 62.4239 90.9922 62.5556L89.2869 62.9326C88.7517 63.0461 88.3027 63.1506 87.9262 63.2369C87.5742 63.3056 87.2305 63.4122 86.9012 63.5548C86.5808 63.7256 86.3234 63.9945 86.1665 64.3223C85.6998 65.024 85.1764 65.6863 84.6017 66.3024C84.0318 66.9125 83.3872 67.4481 82.6833 67.8965C81.7127 68.5324 80.8691 68.8048 80.2115 68.6595C79.5539 68.5142 78.8962 67.951 78.3021 66.9383C78.2159 66.9383 78.1887 66.911 78.1887 66.852V66.8111C77.882 66.6439 77.63 66.3916 77.463 66.0845C77.3344 65.8219 77.2517 65.5393 77.2182 65.2488C77.1897 64.9454 77.205 64.6395 77.2635 64.3405C77.3177 64.0293 77.3555 63.7155 77.3768 63.4004C78.2731 57.3074 80.4781 51.4815 83.8398 46.3241C83.9304 46.1774 84.032 46.0377 84.1437 45.9063C84.2609 45.7498 84.3346 45.5648 84.3569 45.3704C84.3501 45.3144 84.3311 45.2606 84.3013 45.2128C84.2716 45.1649 84.2317 45.1242 84.1845 45.0934C84.0793 45.0346 83.9603 45.0048 83.8398 45.0071C81.8594 45.0071 79.894 45.0661 77.9438 45.1842C75.9631 45.3048 74.0006 45.6337 72.0886 46.1652C71.7255 46.2486 71.3679 46.3547 71.0182 46.4831C70.6871 46.6148 70.3289 46.7601 69.9524 46.9373C69.8799 46.9792 69.7988 47.0043 69.7154 47.0106C69.6319 47.0169 69.5481 47.0044 69.4701 46.9738C69.3921 46.9433 69.322 46.8956 69.2649 46.8342C69.2079 46.7728 69.1654 46.6994 69.1406 46.6193C69.097 46.5558 69.0775 46.4787 69.0859 46.402C69.0942 46.3254 69.1297 46.2542 69.1859 46.2015C69.301 46.0765 69.4378 45.9734 69.5896 45.8972C71.4055 45.0706 73.3429 44.543 75.3268 44.3349C76.8304 44.1161 78.3442 43.9751 79.8622 43.9126C81.368 43.8399 82.8557 43.7809 84.3569 43.74C84.7882 43.747 85.2162 43.6635 85.6132 43.4948C86.0044 43.311 86.3429 43.0314 86.5974 42.6818C88.4414 40.3806 90.5566 38.3113 92.897 36.5189C95.2669 34.7352 97.9066 33.343 100.716 32.3952C102.459 31.8065 104.254 31.3853 106.077 31.1372C107.911 30.8803 109.773 30.9141 111.597 31.2371C112.119 31.3458 112.635 31.4807 113.143 31.6413C113.652 31.7973 114.142 32.0105 114.604 32.2771C115.31 32.6911 115.927 33.2423 116.418 33.8985C116.857 34.4958 117.145 35.1908 117.257 35.924C117.357 36.6576 117.299 37.4043 117.084 38.113C116.836 38.886 116.416 39.5925 115.855 40.1794C115.057 41.026 114.14 41.7526 113.134 42.3367C112.118 42.9179 111.067 43.4351 109.987 43.8853C108.152 44.6007 106.24 45.1006 104.29 45.375C102.323 45.6459 100.335 45.728 98.3532 45.6202C96.7748 45.5612 95.2011 45.5067 93.6137 45.4204C92.0263 45.3341 90.4389 45.2296 88.8424 45.0979C88.1986 45.0218 87.5465 45.1338 86.9648 45.4204C86.422 45.7513 85.9663 46.2076 85.6358 46.751C84.7089 48.1693 83.8596 49.6368 83.0915 51.1473C82.3202 52.658 81.6298 54.2089 81.0233 55.7933C80.9372 56.0385 80.851 56.2702 80.7512 56.5018C80.6495 56.7344 80.6196 56.9922 80.665 57.242V57.2829H80.7059L80.7104 57.2239ZM78.7466 64.6902C79.6263 64.0897 80.5601 63.5727 81.5358 63.1461C82.5186 62.7184 83.5719 62.4767 84.6426 62.433C84.8626 62.4002 85.0653 62.2947 85.2186 62.1333C85.3365 61.9879 85.4681 61.8108 85.5951 61.6246C85.7266 61.2477 85.8581 60.8571 86.0032 60.4665C86.129 60.0772 86.2112 59.6751 86.2482 59.2676C86.3343 58.4864 86.2164 57.9641 85.8989 57.6735C85.5814 57.3828 85.0462 57.3147 84.2797 57.4555C83.4501 57.6103 82.6566 57.9183 81.9395 58.3638C80.541 59.2262 79.5115 60.5775 79.0504 62.156C78.7957 62.9892 78.6928 63.8614 78.7466 64.731L78.7057 64.6856H78.7466V64.6902ZM80.1933 66.861C80.9444 66.6912 81.6509 66.3638 82.2662 65.9003C82.8814 65.4368 83.3916 64.8479 83.7628 64.1724C82.9839 64.282 82.239 64.5628 81.5812 64.9945C80.9221 65.4427 80.4331 66.1003 80.1933 66.861ZM88.2573 43.4948C88.3724 43.6354 88.5327 43.7317 88.7109 43.7672C88.8446 43.7988 88.9817 43.8141 89.1191 43.8127C90.8063 43.8717 92.4707 43.9262 94.1307 44.0125C95.7906 44.0988 97.4552 44.1578 99.1469 44.2169C101.127 44.2237 103.102 44.0304 105.043 43.6401C106.999 43.2284 108.893 42.5612 110.676 41.6554C111.485 41.253 112.267 40.7979 113.016 40.293C113.78 39.7811 114.462 39.1563 115.039 38.44C116.082 37.2819 116.486 36.2419 116.268 35.2609C116.05 34.2799 115.198 33.5669 113.724 33.0355C112.605 32.6378 111.432 32.4127 110.245 32.368C109.066 32.3232 107.885 32.381 106.716 32.5405C103.198 32.956 99.8025 34.089 96.7385 35.8695C93.7061 37.6781 90.9961 39.9805 88.7199 42.6818C88.6439 42.7876 88.5621 42.8892 88.475 42.9861C88.399 43.0458 88.3393 43.1237 88.3013 43.2126C88.2632 43.3015 88.2481 43.3985 88.2573 43.4948Z" fill="white"/>
</svg>
