<svg width="294" height="241" viewBox="0 0 294 241" fill="none" xmlns="http://www.w3.org/2000/svg">
<path d="M47.606 52.84H51.06C50.862 57.064 47.848 59.33 43.712 59.33C39.378 59.33 35.88 56.756 35.88 51.3C35.88 45.822 39.378 43.27 43.712 43.27C47.848 43.27 50.862 45.536 51.06 49.76H47.606C47.386 47.472 45.978 46.24 43.712 46.24C41.094 46.24 39.378 47.912 39.378 51.3C39.378 54.666 41.094 56.36 43.712 56.36C45.978 56.36 47.386 55.128 47.606 52.84ZM58.1583 59.33C54.8803 59.33 52.5483 57.372 52.5483 53.5C52.5483 49.606 54.8803 47.67 58.1583 47.67C61.4363 47.67 63.7683 49.606 63.7683 53.5C63.7683 57.372 61.4363 59.33 58.1583 59.33ZM58.1583 56.69C59.5663 56.69 60.4023 55.612 60.4023 53.5C60.4023 51.366 59.5663 50.31 58.1583 50.31C56.7283 50.31 55.8923 51.366 55.8923 53.5C55.8923 55.612 56.7283 56.69 58.1583 56.69ZM68.7446 48V49.98C69.3606 48.462 70.6806 47.67 72.3526 47.67C74.5086 47.67 75.9606 48.968 75.9606 51.784V59H72.6606V52.378C72.6606 51.014 72.0226 50.376 70.9006 50.376C69.7126 50.376 68.9426 51.168 68.9426 52.708V59H65.6426V48H68.7446ZM77.9254 51.146C77.9254 48.946 79.6414 47.67 82.3914 47.67C85.5814 47.67 87.1654 49.144 87.1874 51.3H84.1294C84.0854 50.486 83.4474 50.024 82.3914 50.024C81.5114 50.024 80.9174 50.398 80.9174 51.014C80.9174 52.994 87.3634 51.124 87.3634 55.722C87.3634 58.076 85.5594 59.33 82.6554 59.33C79.5314 59.33 77.6614 57.878 77.6394 55.59H80.6754C80.7194 56.448 81.4674 56.954 82.6554 56.954C83.6894 56.954 84.3494 56.558 84.3494 55.876C84.3494 53.83 77.9254 55.788 77.9254 51.146ZM89.037 55.26V48H92.337V54.666C92.337 55.986 92.931 56.602 93.987 56.602C95.131 56.602 95.879 55.832 95.879 54.336V48H99.179V59H96.055V57.108C95.439 58.56 94.141 59.33 92.535 59.33C90.445 59.33 89.037 58.032 89.037 55.26ZM104.736 43.6V59H101.436V43.6H104.736ZM111.113 54.93C111.113 56.008 111.553 56.36 112.433 56.36H113.687V59H111.245C109.067 59 107.857 58.142 107.857 55.678V50.64H106.207V48H107.857V45.14H111.113V48H113.687V50.64H111.113V54.93ZM120.57 59.33C117.292 59.33 114.96 57.372 114.96 53.5C114.96 49.606 117.292 47.67 120.57 47.67C123.848 47.67 126.18 49.606 126.18 53.5C126.18 57.372 123.848 59.33 120.57 59.33ZM120.57 56.69C121.978 56.69 122.814 55.612 122.814 53.5C122.814 51.366 121.978 50.31 120.57 50.31C119.14 50.31 118.304 51.366 118.304 53.5C118.304 55.612 119.14 56.69 120.57 56.69ZM134.127 50.882C132.411 50.882 131.355 51.784 131.355 53.808V59H128.055V48H131.047V50.552C131.597 48.748 132.763 47.89 134.303 47.89C134.655 47.89 134.919 47.934 135.161 48V50.992C134.875 50.926 134.567 50.882 134.127 50.882ZM139.505 46.68H137.195L138.405 43.6H142.035L139.505 46.68ZM140.077 48V59H136.777V48H140.077ZM152.835 59H149.645L149.007 57.174C148.347 58.472 147.049 59.22 145.399 59.22C143.265 59.22 141.835 58.076 141.835 55.986C141.835 51.278 148.875 53.478 148.875 51.234C148.875 50.42 148.259 50.046 147.159 50.046C146.125 50.046 145.487 50.464 145.465 51.3H142.143C142.143 48.88 144.035 47.67 147.159 47.67C150.305 47.67 152.175 48.902 152.175 51.344V55.92C152.175 57.328 152.197 57.526 152.835 59ZM145.179 55.568C145.179 56.47 145.729 56.844 146.697 56.844C147.797 56.844 148.875 56.008 148.875 54.424V53.192C147.445 54.05 145.179 54.072 145.179 55.568ZM166.694 59V56.888C165.946 58.538 164.582 59.33 162.91 59.33C160.358 59.33 158.532 57.482 158.532 53.5C158.532 49.518 160.358 47.67 162.91 47.67C164.45 47.67 165.726 48.33 166.496 49.716V43.6H169.796V59H166.694ZM164.186 50.31C162.734 50.31 161.876 51.366 161.876 53.5C161.876 55.612 162.734 56.69 164.186 56.69C165.66 56.69 166.496 55.634 166.496 53.5C166.496 51.366 165.66 50.31 164.186 50.31ZM175.419 43.6V46.46H172.119V43.6H175.419ZM175.419 48V59H172.119V48H175.419ZM181.731 58.23C179.179 58.23 177.353 56.36 177.353 52.95C177.353 49.54 179.179 47.67 181.731 47.67C183.403 47.67 184.767 48.462 185.515 49.98V48H188.617V58.824C188.617 62.058 186.483 63.73 182.985 63.73C179.509 63.73 177.419 62.014 177.419 59H180.719C180.719 60.276 181.379 61.2 182.985 61.2C184.591 61.2 185.317 60.32 185.317 58.824V56.272C184.547 57.548 183.271 58.23 181.731 58.23ZM183.007 55.81C184.481 55.81 185.317 54.842 185.317 52.95C185.317 51.036 184.481 50.09 183.007 50.09C181.555 50.09 180.697 51.036 180.697 52.95C180.697 54.842 181.555 55.81 183.007 55.81ZM194.239 43.6V46.46H190.939V43.6H194.239ZM194.239 48V59H190.939V48H194.239ZM200.617 54.93C200.617 56.008 201.057 56.36 201.937 56.36H203.191V59H200.749C198.571 59 197.361 58.142 197.361 55.678V50.64H195.711V48H197.361V45.14H200.617V48H203.191V50.64H200.617V54.93ZM215.354 59H212.164L211.526 57.174C210.866 58.472 209.568 59.22 207.918 59.22C205.784 59.22 204.354 58.076 204.354 55.986C204.354 51.278 211.394 53.478 211.394 51.234C211.394 50.42 210.778 50.046 209.678 50.046C208.644 50.046 208.006 50.464 207.984 51.3H204.662C204.662 48.88 206.554 47.67 209.678 47.67C212.824 47.67 214.694 48.902 214.694 51.344V55.92C214.694 57.328 214.716 57.526 215.354 59ZM207.698 55.568C207.698 56.47 208.248 56.844 209.216 56.844C210.316 56.844 211.394 56.008 211.394 54.424V53.192C209.964 54.05 207.698 54.072 207.698 55.568ZM220.214 43.6V59H216.914V43.6H220.214Z" fill="white"/>
<path d="M44.632 20.84H46.36C46.168 23.544 44.296 25.16 41.32 25.16C38.312 25.16 35.88 23.32 35.88 19.4C35.88 15.48 38.312 13.64 41.32 13.64C44.296 13.64 46.168 15.256 46.36 17.96H44.632C44.504 16.12 43.272 15.08 41.32 15.08C39.08 15.08 37.592 16.52 37.592 19.4C37.592 22.28 39.08 23.72 41.32 23.72C43.272 23.72 44.504 22.68 44.632 20.84ZM51.7163 25.16C49.4763 25.16 47.8763 23.768 47.8763 21C47.8763 18.232 49.4763 16.84 51.7163 16.84C53.9563 16.84 55.5563 18.232 55.5563 21C55.5563 23.768 53.9563 25.16 51.7163 25.16ZM51.7163 23.88C53.0123 23.88 53.8763 22.92 53.8763 21C53.8763 19.08 53.0123 18.12 51.7163 18.12C50.4203 18.12 49.5563 19.08 49.5563 21C49.5563 22.92 50.4203 23.88 51.7163 23.88ZM58.9693 17V18.408C59.4653 17.384 60.4093 16.84 61.5773 16.84C63.1933 16.84 64.2812 17.832 64.2812 19.992V25H62.6813V20.152C62.6813 18.776 62.0413 18.152 60.9213 18.152C59.7533 18.152 59.0013 18.904 59.0013 20.392V25H57.4013V17H58.9693ZM66.2401 19.176C66.2401 17.688 67.4561 16.84 69.2001 16.84C71.1841 16.84 72.3841 17.816 72.4161 19.24H70.8161C70.7521 18.552 70.1761 18.12 69.2001 18.12C68.3681 18.12 67.8081 18.504 67.8081 19.096C67.8081 20.888 72.5601 19.592 72.5601 22.728C72.5601 24.312 71.2161 25.16 69.4241 25.16C67.3601 25.16 66.0001 24.136 65.9681 22.6H67.5681C67.6321 23.368 68.3041 23.88 69.4241 23.88C70.3681 23.88 70.9921 23.464 70.9921 22.808C70.9921 21 66.2401 22.312 66.2401 19.176ZM74.2431 22.088V17H75.8431V21.928C75.8431 23.24 76.4511 23.848 77.5231 23.848C78.6431 23.848 79.3631 23.112 79.3631 21.688V17H80.9631V25H79.3951V23.656C78.9151 24.648 78.0031 25.16 76.8671 25.16C75.2991 25.16 74.2431 24.184 74.2431 22.088ZM84.7981 13.8V25H83.1981V13.8H84.7981ZM89.0419 22.52C89.0419 23.432 89.3939 23.72 90.1299 23.72H91.1219V25H89.6659C88.2259 25 87.4419 24.424 87.4419 22.744V18.28H86.1619V17H87.4419V14.92H89.0419V17H91.1219V18.28H89.0419V22.52ZM99.5316 25H97.8516L97.3876 23.672C96.8916 24.632 95.9476 25.16 94.7316 25.16C93.3236 25.16 92.1556 24.376 92.1556 22.84C92.1556 19.4 97.4516 21.352 97.4516 19.304C97.4516 18.52 96.8436 18.152 95.7716 18.152C94.7636 18.152 94.1236 18.52 94.0916 19.24H92.4756C92.4756 17.64 93.7396 16.84 95.7716 16.84C97.8036 16.84 99.0516 17.672 99.0516 19.304V22.76C99.0516 23.784 99.0676 23.928 99.5316 25ZM93.8196 22.664C93.8196 23.512 94.3796 23.88 95.3556 23.88C96.4276 23.88 97.4516 23.08 97.4516 21.64V20.584C96.2356 21.352 93.8196 21.144 93.8196 22.664ZM102.782 17V18.408C103.278 17.384 104.222 16.84 105.39 16.84C107.006 16.84 108.094 17.832 108.094 19.992V25H106.494V20.152C106.494 18.776 105.854 18.152 104.734 18.152C103.566 18.152 102.814 18.904 102.814 20.392V25H101.214V17H102.782ZM111.541 21C111.541 22.92 112.405 23.88 113.701 23.88C114.837 23.88 115.525 23.176 115.621 21.96H117.301C117.141 23.976 115.829 25.16 113.701 25.16C111.461 25.16 109.861 23.768 109.861 21C109.861 18.232 111.461 16.84 113.701 16.84C115.829 16.84 117.141 18.024 117.301 20.04H115.621C115.525 18.824 114.837 18.12 113.701 18.12C112.405 18.12 111.541 19.08 111.541 21ZM122.821 20.2L123.989 17H125.701L122.117 26.168C121.413 27.976 120.853 28.2 119.509 28.2H118.661V26.92H119.365C120.069 26.92 120.373 26.76 120.709 25.832L121.077 24.824L118.021 17H119.733L120.901 20.2C121.349 21.416 121.605 22.28 121.861 23.208C122.101 22.28 122.373 21.416 122.821 20.2ZM138.616 20.84H140.344C140.152 23.544 138.28 25.16 135.304 25.16C132.296 25.16 129.864 23.32 129.864 19.4C129.864 15.48 132.296 13.64 135.304 13.64C138.28 13.64 140.152 15.256 140.344 17.96H138.616C138.488 16.12 137.256 15.08 135.304 15.08C133.064 15.08 131.576 16.52 131.576 19.4C131.576 22.28 133.064 23.72 135.304 23.72C137.256 23.72 138.488 22.68 138.616 20.84ZM145.701 25.16C143.461 25.16 141.861 23.768 141.861 21C141.861 18.232 143.461 16.84 145.701 16.84C147.941 16.84 149.541 18.232 149.541 21C149.541 23.768 147.941 25.16 145.701 25.16ZM145.701 23.88C146.997 23.88 147.861 22.92 147.861 21C147.861 19.08 146.997 18.12 145.701 18.12C144.405 18.12 143.541 19.08 143.541 21C143.541 22.92 144.405 23.88 145.701 23.88ZM152.954 17V18.264C153.418 17.336 154.266 16.84 155.322 16.84C156.41 16.84 157.226 17.352 157.578 18.424C158.042 17.384 158.938 16.84 160.074 16.84C161.578 16.84 162.586 17.784 162.586 19.832V25H160.986V19.992C160.986 18.728 160.442 18.152 159.466 18.152C158.442 18.152 157.786 18.856 157.786 20.232V25H156.186V19.992C156.186 18.728 155.642 18.152 154.666 18.152C153.642 18.152 152.986 18.856 152.986 20.232V25H151.386V17H152.954ZM169.129 25.16C167.913 25.16 166.905 24.552 166.345 23.416V28.2H164.745V17H166.313V18.648C166.873 17.464 167.881 16.84 169.129 16.84C171.033 16.84 172.409 18.312 172.409 21C172.409 23.688 171.033 25.16 169.129 25.16ZM168.537 23.88C169.865 23.88 170.729 22.92 170.729 21C170.729 19.08 169.865 18.12 168.537 18.12C167.209 18.12 166.345 19.08 166.345 21C166.345 22.92 167.209 23.88 168.537 23.88ZM181.172 25H179.492L179.028 23.672C178.532 24.632 177.588 25.16 176.372 25.16C174.964 25.16 173.796 24.376 173.796 22.84C173.796 19.4 179.092 21.352 179.092 19.304C179.092 18.52 178.484 18.152 177.412 18.152C176.404 18.152 175.764 18.52 175.732 19.24H174.116C174.116 17.64 175.38 16.84 177.412 16.84C179.444 16.84 180.692 17.672 180.692 19.304V22.76C180.692 23.784 180.708 23.928 181.172 25ZM175.46 22.664C175.46 23.512 176.02 23.88 176.996 23.88C178.068 23.88 179.092 23.08 179.092 21.64V20.584C177.876 21.352 175.46 21.144 175.46 22.664ZM184.422 17V18.408C184.918 17.384 185.862 16.84 187.03 16.84C188.646 16.84 189.734 17.832 189.734 19.992V25H188.134V20.152C188.134 18.776 187.494 18.152 186.374 18.152C185.206 18.152 184.454 18.904 184.454 20.392V25H182.854V17H184.422ZM195.665 20.2L196.833 17H198.545L194.961 26.168C194.257 27.976 193.697 28.2 192.353 28.2H191.505V26.92H192.209C192.913 26.92 193.217 26.76 193.553 25.832L193.921 24.824L190.865 17H192.577L193.745 20.2C194.193 21.416 194.449 22.28 194.705 23.208C194.945 22.28 195.217 21.416 195.665 20.2Z" fill="white"/>
<path d="M15.67 3.42V3H17.15V10H15.61V5.35H14.25V4.2H14.92C15.41 4.2 15.67 4.06 15.67 3.42Z" fill="white"/>
<path d="M37.912 113.8V125H36.28V113.8H37.912ZM41.8755 117V118.408C42.3715 117.384 43.3155 116.84 44.4835 116.84C46.0995 116.84 47.1875 117.832 47.1875 119.992V125H45.5875V120.152C45.5875 118.776 44.9475 118.152 43.8275 118.152C42.6595 118.152 41.9075 118.904 41.9075 120.392V125H40.3075V117H41.8755ZM51.4381 125L48.3181 117H50.0301L51.1981 120.2C51.6461 121.416 51.9021 122.28 52.1581 123.208C52.3981 122.28 52.6701 121.416 53.1181 120.2L54.2861 117H55.9981L52.8781 125H51.4381ZM64.1741 122.6C63.9501 124.184 62.5581 125.16 60.6381 125.16C58.3981 125.16 56.7981 123.784 56.7981 121C56.7981 118.216 58.3981 116.84 60.6381 116.84C62.7501 116.84 64.3181 118.232 64.3181 121V121.48H58.4461C58.5101 123.08 59.3741 123.88 60.6381 123.88C61.7741 123.88 62.3341 123.32 62.4941 122.6H64.1741ZM60.6381 118.12C59.4541 118.12 58.6221 118.824 58.4781 120.2H62.6541C62.5261 118.824 61.7421 118.12 60.6381 118.12ZM65.9433 119.176C65.9433 117.688 67.1593 116.84 68.9033 116.84C70.8873 116.84 72.0873 117.816 72.1193 119.24H70.5193C70.4553 118.552 69.8793 118.12 68.9033 118.12C68.0713 118.12 67.5113 118.504 67.5113 119.096C67.5113 120.888 72.2633 119.592 72.2633 122.728C72.2633 124.312 70.9193 125.16 69.1273 125.16C67.0633 125.16 65.7033 124.136 65.6713 122.6H67.2713C67.3353 123.368 68.0073 123.88 69.1273 123.88C70.0713 123.88 70.6953 123.464 70.6953 122.808C70.6953 121 65.9433 122.312 65.9433 119.176ZM76.0263 122.52C76.0263 123.432 76.3783 123.72 77.1143 123.72H78.1063V125H76.6503C75.2103 125 74.4263 124.424 74.4263 122.744V118.28H73.1463V117H74.4263V114.92H76.0263V117H78.1063V118.28H76.0263V122.52ZM81.22 113.8V115.4H79.62V113.8H81.22ZM81.22 117V125H79.62V117H81.22ZM86.3758 124.52C84.4718 124.52 83.0958 123.16 83.0958 120.68C83.0958 118.2 84.4718 116.84 86.3758 116.84C87.6238 116.84 88.6318 117.416 89.1918 118.504V117H90.7598V124.92C90.7598 127.064 89.2238 128.36 86.9358 128.36C84.6638 128.36 83.1438 127.016 83.1438 125H84.7438C84.7438 126.216 85.4798 127.08 86.9358 127.08C88.3918 127.08 89.1598 126.264 89.1598 124.92V122.92C88.5998 123.96 87.5918 124.52 86.3758 124.52ZM86.9678 123.24C88.2958 123.24 89.1598 122.392 89.1598 120.68C89.1598 118.968 88.2958 118.12 86.9678 118.12C85.6398 118.12 84.7758 118.968 84.7758 120.68C84.7758 122.392 85.6398 123.24 86.9678 123.24ZM99.891 125H98.211L97.747 123.672C97.251 124.632 96.307 125.16 95.091 125.16C93.683 125.16 92.515 124.376 92.515 122.84C92.515 119.4 97.811 121.352 97.811 119.304C97.811 118.52 97.203 118.152 96.131 118.152C95.123 118.152 94.483 118.52 94.451 119.24H92.835C92.835 117.64 94.099 116.84 96.131 116.84C98.163 116.84 99.411 117.672 99.411 119.304V122.76C99.411 123.784 99.427 123.928 99.891 125ZM94.179 122.664C94.179 123.512 94.739 123.88 95.715 123.88C96.787 123.88 97.811 123.08 97.811 121.64V120.584C96.595 121.352 94.179 121.144 94.179 122.664ZM102.853 121C102.853 122.92 103.717 123.88 105.013 123.88C106.149 123.88 106.837 123.176 106.933 121.96H108.613C108.453 123.976 107.141 125.16 105.013 125.16C102.773 125.16 101.173 123.768 101.173 121C101.173 118.232 102.773 116.84 105.013 116.84C107.141 116.84 108.453 118.024 108.613 120.04H106.933C106.837 118.824 106.149 118.12 105.013 118.12C103.717 118.12 102.853 119.08 102.853 121ZM111.97 113.8V115.4H110.37V113.8H111.97ZM111.97 117V125H110.37V117H111.97ZM118.294 116.04H117.014L117.974 113.8H119.894L118.294 116.04ZM117.654 125.16C115.414 125.16 113.814 123.768 113.814 121C113.814 118.232 115.414 116.84 117.654 116.84C119.894 116.84 121.494 118.232 121.494 121C121.494 123.768 119.894 125.16 117.654 125.16ZM117.654 123.88C118.95 123.88 119.814 122.92 119.814 121C119.814 119.08 118.95 118.12 117.654 118.12C116.358 118.12 115.494 119.08 115.494 121C115.494 122.92 116.358 123.88 117.654 123.88ZM124.907 117V118.408C125.403 117.384 126.347 116.84 127.515 116.84C129.131 116.84 130.219 117.832 130.219 119.992V125H128.619V120.152C128.619 118.776 127.979 118.152 126.859 118.152C125.691 118.152 124.939 118.904 124.939 120.392V125H123.339V117H124.907ZM141.473 125V123.352C140.913 124.536 139.905 125.16 138.657 125.16C136.753 125.16 135.377 123.688 135.377 121C135.377 118.312 136.753 116.84 138.657 116.84C139.873 116.84 140.881 117.448 141.441 118.584V113.8H143.041V125H141.473ZM139.249 118.12C137.921 118.12 137.057 119.08 137.057 121C137.057 122.92 137.921 123.88 139.249 123.88C140.577 123.88 141.441 122.92 141.441 121C141.441 119.08 140.577 118.12 139.249 118.12ZM152.252 122.6C152.028 124.184 150.636 125.16 148.716 125.16C146.476 125.16 144.876 123.784 144.876 121C144.876 118.216 146.476 116.84 148.716 116.84C150.828 116.84 152.396 118.232 152.396 121V121.48H146.524C146.588 123.08 147.452 123.88 148.716 123.88C149.852 123.88 150.412 123.32 150.572 122.6H152.252ZM148.716 118.12C147.532 118.12 146.7 118.824 146.556 120.2H150.732C150.604 118.824 149.82 118.12 148.716 118.12ZM159.157 117V118.264C159.621 117.336 160.469 116.84 161.525 116.84C162.613 116.84 163.429 117.352 163.781 118.424C164.245 117.384 165.141 116.84 166.277 116.84C167.781 116.84 168.789 117.784 168.789 119.832V125H167.189V119.992C167.189 118.728 166.645 118.152 165.669 118.152C164.645 118.152 163.989 118.856 163.989 120.232V125H162.389V119.992C162.389 118.728 161.845 118.152 160.869 118.152C159.845 118.152 159.189 118.856 159.189 120.232V125H157.589V117H159.157ZM177.924 122.6C177.7 124.184 176.308 125.16 174.388 125.16C172.148 125.16 170.548 123.784 170.548 121C170.548 118.216 172.148 116.84 174.388 116.84C176.5 116.84 178.068 118.232 178.068 121V121.48H172.196C172.26 123.08 173.124 123.88 174.388 123.88C175.524 123.88 176.084 123.32 176.244 122.6H177.924ZM174.388 118.12C173.204 118.12 172.372 118.824 172.228 120.2H176.404C176.276 118.824 175.492 118.12 174.388 118.12ZM183.757 118.392C182.429 118.392 181.501 119.144 181.501 120.68V125H179.901V117H181.389V118.824C181.773 117.528 182.637 116.92 183.757 116.92C184.013 116.92 184.205 116.952 184.381 117V118.472C184.205 118.424 184.013 118.392 183.757 118.392ZM187.025 121C187.025 122.92 187.889 123.88 189.185 123.88C190.321 123.88 191.009 123.176 191.105 121.96H192.785C192.625 123.976 191.313 125.16 189.185 125.16C186.945 125.16 185.345 123.768 185.345 121C185.345 118.232 186.945 116.84 189.185 116.84C191.313 116.84 192.625 118.024 192.785 120.04H191.105C191.009 118.824 190.321 118.12 189.185 118.12C187.889 118.12 187.025 119.08 187.025 121ZM201.438 125H199.758L199.294 123.672C198.798 124.632 197.854 125.16 196.638 125.16C195.23 125.16 194.062 124.376 194.062 122.84C194.062 119.4 199.358 121.352 199.358 119.304C199.358 118.52 198.75 118.152 197.678 118.152C196.67 118.152 196.03 118.52 195.998 119.24H194.382C194.382 117.64 195.646 116.84 197.678 116.84C199.71 116.84 200.958 117.672 200.958 119.304V122.76C200.958 123.784 200.974 123.928 201.438 125ZM195.726 122.664C195.726 123.512 196.286 123.88 197.262 123.88C198.334 123.88 199.358 123.08 199.358 121.64V120.584C198.142 121.352 195.726 121.144 195.726 122.664ZM208.848 125V123.352C208.288 124.536 207.28 125.16 206.032 125.16C204.128 125.16 202.752 123.688 202.752 121C202.752 118.312 204.128 116.84 206.032 116.84C207.248 116.84 208.256 117.448 208.816 118.584V113.8H210.416V125H208.848ZM206.624 118.12C205.296 118.12 204.432 119.08 204.432 121C204.432 122.92 205.296 123.88 206.624 123.88C207.952 123.88 208.816 122.92 208.816 121C208.816 119.08 207.952 118.12 206.624 118.12ZM216.091 125.16C213.851 125.16 212.251 123.768 212.251 121C212.251 118.232 213.851 116.84 216.091 116.84C218.331 116.84 219.931 118.232 219.931 121C219.931 123.768 218.331 125.16 216.091 125.16ZM216.091 123.88C217.387 123.88 218.251 122.92 218.251 121C218.251 119.08 217.387 118.12 216.091 118.12C214.795 118.12 213.931 119.08 213.931 121C213.931 122.92 214.795 123.88 216.091 123.88Z" fill="white"/>
<path d="M61.56 162L58.984 155.36C58.392 153.84 58.088 153.056 57.784 152.048C57.848 153.168 57.88 154.352 57.88 155.664V162H56.28V150.8H58.92L60.888 155.984C61.688 158.08 62.04 159.184 62.28 160.064C62.52 159.184 62.872 158.08 63.672 155.984L65.64 150.8H68.28V162H66.68V155.664C66.68 154.352 66.712 153.168 66.776 152.048C66.472 153.056 66.168 153.84 65.576 155.36L63 162H61.56ZM77.6585 159.6C77.4345 161.184 76.0425 162.16 74.1225 162.16C71.8825 162.16 70.2825 160.784 70.2825 158C70.2825 155.216 71.8825 153.84 74.1225 153.84C76.2345 153.84 77.8025 155.232 77.8025 158V158.48H71.9305C71.9945 160.08 72.8585 160.88 74.1225 160.88C75.2585 160.88 75.8185 160.32 75.9785 159.6H77.6585ZM74.1225 155.12C72.9385 155.12 72.1065 155.824 71.9625 157.2H76.1385C76.0105 155.824 75.2265 155.12 74.1225 155.12ZM81.6356 159.52C81.6356 160.432 81.9876 160.72 82.7236 160.72H83.7156V162H82.2596C80.8196 162 80.0356 161.424 80.0356 159.744V155.28H78.7556V154H80.0356V151.92H81.6356V154H83.7156V155.28H81.6356V159.52ZM88.6694 162.16C86.4294 162.16 84.8294 160.768 84.8294 158C84.8294 155.232 86.4294 153.84 88.6694 153.84C90.9094 153.84 92.5094 155.232 92.5094 158C92.5094 160.768 90.9094 162.16 88.6694 162.16ZM88.6694 160.88C89.9654 160.88 90.8294 159.92 90.8294 158C90.8294 156.08 89.9654 155.12 88.6694 155.12C87.3734 155.12 86.5094 156.08 86.5094 158C86.5094 159.92 87.3734 160.88 88.6694 160.88ZM100.082 162V160.352C99.5224 161.536 98.5144 162.16 97.2664 162.16C95.3624 162.16 93.9864 160.688 93.9864 158C93.9864 155.312 95.3624 153.84 97.2664 153.84C98.4824 153.84 99.4904 154.448 100.05 155.584V150.8H101.65V162H100.082ZM97.8584 155.12C96.5304 155.12 95.6664 156.08 95.6664 158C95.6664 159.92 96.5304 160.88 97.8584 160.88C99.1864 160.88 100.05 159.92 100.05 158C100.05 156.08 99.1864 155.12 97.8584 155.12ZM107.326 162.16C105.086 162.16 103.486 160.768 103.486 158C103.486 155.232 105.086 153.84 107.326 153.84C109.566 153.84 111.166 155.232 111.166 158C111.166 160.768 109.566 162.16 107.326 162.16ZM107.326 160.88C108.622 160.88 109.486 159.92 109.486 158C109.486 156.08 108.622 155.12 107.326 155.12C106.03 155.12 105.166 156.08 105.166 158C105.166 159.92 106.03 160.88 107.326 160.88ZM114.611 150.8V162H113.011V150.8H114.611ZM120.294 162.16C118.054 162.16 116.454 160.768 116.454 158C116.454 155.232 118.054 153.84 120.294 153.84C122.534 153.84 124.134 155.232 124.134 158C124.134 160.768 122.534 162.16 120.294 162.16ZM120.294 160.88C121.59 160.88 122.454 159.92 122.454 158C122.454 156.08 121.59 155.12 120.294 155.12C118.998 155.12 118.134 156.08 118.134 158C118.134 159.92 118.998 160.88 120.294 160.88ZM128.891 161.52C126.987 161.52 125.611 160.16 125.611 157.68C125.611 155.2 126.987 153.84 128.891 153.84C130.139 153.84 131.147 154.416 131.707 155.504V154H133.275V161.92C133.275 164.064 131.739 165.36 129.451 165.36C127.179 165.36 125.659 164.016 125.659 162H127.259C127.259 163.216 127.995 164.08 129.451 164.08C130.907 164.08 131.675 163.264 131.675 161.92V159.92C131.115 160.96 130.107 161.52 128.891 161.52ZM129.483 160.24C130.811 160.24 131.675 159.392 131.675 157.68C131.675 155.968 130.811 155.12 129.483 155.12C128.155 155.12 127.291 155.968 127.291 157.68C127.291 159.392 128.155 160.24 129.483 160.24ZM136.951 153.04H135.671L136.631 150.8H138.551L136.951 153.04ZM137.111 154V162H135.511V154H137.111ZM146.25 162H144.57L144.106 160.672C143.61 161.632 142.666 162.16 141.45 162.16C140.042 162.16 138.874 161.376 138.874 159.84C138.874 156.4 144.17 158.352 144.17 156.304C144.17 155.52 143.562 155.152 142.49 155.152C141.482 155.152 140.842 155.52 140.81 156.24H139.194C139.194 154.64 140.458 153.84 142.49 153.84C144.522 153.84 145.77 154.672 145.77 156.304V159.76C145.77 160.784 145.786 160.928 146.25 162ZM140.538 159.664C140.538 160.512 141.098 160.88 142.074 160.88C143.146 160.88 144.17 160.08 144.17 158.64V157.584C142.954 158.352 140.538 158.144 140.538 159.664ZM152.572 158C152.572 159.92 153.436 160.88 154.732 160.88C155.868 160.88 156.556 160.176 156.652 158.96H158.332C158.172 160.976 156.86 162.16 154.732 162.16C152.492 162.16 150.892 160.768 150.892 158C150.892 155.232 152.492 153.84 154.732 153.84C156.86 153.84 158.172 155.024 158.332 157.04H156.652C156.556 155.824 155.868 155.12 154.732 155.12C153.436 155.12 152.572 156.08 152.572 158ZM163.529 162.16C161.289 162.16 159.689 160.768 159.689 158C159.689 155.232 161.289 153.84 163.529 153.84C165.769 153.84 167.369 155.232 167.369 158C167.369 160.768 165.769 162.16 163.529 162.16ZM163.529 160.88C164.825 160.88 165.689 159.92 165.689 158C165.689 156.08 164.825 155.12 163.529 155.12C162.233 155.12 161.369 156.08 161.369 158C161.369 159.92 162.233 160.88 163.529 160.88ZM170.782 154V155.264C171.246 154.336 172.094 153.84 173.15 153.84C174.238 153.84 175.054 154.352 175.406 155.424C175.87 154.384 176.766 153.84 177.902 153.84C179.406 153.84 180.414 154.784 180.414 156.832V162H178.814V156.992C178.814 155.728 178.27 155.152 177.294 155.152C176.27 155.152 175.614 155.856 175.614 157.232V162H174.014V156.992C174.014 155.728 173.47 155.152 172.494 155.152C171.47 155.152 170.814 155.856 170.814 157.232V162H169.214V154H170.782ZM189.549 159.6C189.325 161.184 187.933 162.16 186.013 162.16C183.773 162.16 182.173 160.784 182.173 158C182.173 155.216 183.773 153.84 186.013 153.84C188.125 153.84 189.693 155.232 189.693 158V158.48H183.821C183.885 160.08 184.749 160.88 186.013 160.88C187.149 160.88 187.709 160.32 187.869 159.6H189.549ZM186.013 155.12C184.829 155.12 183.997 155.824 183.853 157.2H188.029C187.901 155.824 187.117 155.12 186.013 155.12ZM195.382 155.392C194.054 155.392 193.126 156.144 193.126 157.68V162H191.526V154H193.014V155.824C193.398 154.528 194.262 153.92 195.382 153.92C195.638 153.92 195.83 153.952 196.006 154V155.472C195.83 155.424 195.638 155.392 195.382 155.392ZM198.65 158C198.65 159.92 199.514 160.88 200.81 160.88C201.946 160.88 202.634 160.176 202.73 158.96H204.41C204.25 160.976 202.938 162.16 200.81 162.16C198.57 162.16 196.97 160.768 196.97 158C196.97 155.232 198.57 153.84 200.81 153.84C202.938 153.84 204.25 155.024 204.41 157.04H202.73C202.634 155.824 201.946 155.12 200.81 155.12C199.514 155.12 198.65 156.08 198.65 158ZM207.767 150.8V152.4H206.167V150.8H207.767ZM207.767 154V162H206.167V154H207.767ZM216.907 162H215.227L214.763 160.672C214.267 161.632 213.323 162.16 212.107 162.16C210.699 162.16 209.531 161.376 209.531 159.84C209.531 156.4 214.827 158.352 214.827 156.304C214.827 155.52 214.219 155.152 213.147 155.152C212.139 155.152 211.499 155.52 211.467 156.24H209.851C209.851 154.64 211.115 153.84 213.147 153.84C215.179 153.84 216.427 154.672 216.427 156.304V159.76C216.427 160.784 216.443 160.928 216.907 162ZM211.195 159.664C211.195 160.512 211.755 160.88 212.731 160.88C213.803 160.88 214.827 160.08 214.827 158.64V157.584C213.611 158.352 211.195 158.144 211.195 159.664ZM220.189 150.8V162H218.589V150.8H220.189ZM231.52 162V160.352C230.96 161.536 229.952 162.16 228.704 162.16C226.8 162.16 225.424 160.688 225.424 158C225.424 155.312 226.8 153.84 228.704 153.84C229.92 153.84 230.928 154.448 231.488 155.584V150.8H233.088V162H231.52ZM229.296 155.12C227.968 155.12 227.104 156.08 227.104 158C227.104 159.92 227.968 160.88 229.296 160.88C230.624 160.88 231.488 159.92 231.488 158C231.488 156.08 230.624 155.12 229.296 155.12ZM236.923 150.8V152.4H235.323V150.8H236.923ZM236.923 154V162H235.323V154H236.923ZM242.079 161.52C240.175 161.52 238.799 160.16 238.799 157.68C238.799 155.2 240.175 153.84 242.079 153.84C243.327 153.84 244.335 154.416 244.895 155.504V154H246.463V161.92C246.463 164.064 244.927 165.36 242.639 165.36C240.367 165.36 238.847 164.016 238.847 162H240.447C240.447 163.216 241.183 164.08 242.639 164.08C244.095 164.08 244.863 163.264 244.863 161.92V159.92C244.303 160.96 243.295 161.52 242.079 161.52ZM242.671 160.24C243.999 160.24 244.863 159.392 244.863 157.68C244.863 155.968 243.999 155.12 242.671 155.12C241.343 155.12 240.479 155.968 240.479 157.68C240.479 159.392 241.343 160.24 242.671 160.24ZM250.298 150.8V152.4H248.698V150.8H250.298ZM250.298 154V162H248.698V154H250.298ZM254.542 159.52C254.542 160.432 254.894 160.72 255.63 160.72H256.622V162H255.166C253.726 162 252.942 161.424 252.942 159.744V155.28H251.662V154H252.942V151.92H254.542V154H256.622V155.28H254.542V159.52ZM265.032 162H263.352L262.888 160.672C262.392 161.632 261.448 162.16 260.232 162.16C258.824 162.16 257.656 161.376 257.656 159.84C257.656 156.4 262.952 158.352 262.952 156.304C262.952 155.52 262.344 155.152 261.272 155.152C260.264 155.152 259.624 155.52 259.592 156.24H257.976C257.976 154.64 259.24 153.84 261.272 153.84C263.304 153.84 264.552 154.672 264.552 156.304V159.76C264.552 160.784 264.568 160.928 265.032 162ZM259.32 159.664C259.32 160.512 259.88 160.88 260.856 160.88C261.928 160.88 262.952 160.08 262.952 158.64V157.584C261.736 158.352 259.32 158.144 259.32 159.664ZM268.314 150.8V162H266.714V150.8H268.314Z" fill="white"/>
<path d="M84.632 194.84H86.36C86.168 197.544 84.296 199.16 81.32 199.16C78.312 199.16 75.88 197.32 75.88 193.4C75.88 189.48 78.312 187.64 81.32 187.64C84.296 187.64 86.168 189.256 86.36 191.96H84.632C84.504 190.12 83.272 189.08 81.32 189.08C79.08 189.08 77.592 190.52 77.592 193.4C77.592 196.28 79.08 197.72 81.32 197.72C83.272 197.72 84.504 196.68 84.632 194.84ZM95.1723 199H93.4923L93.0283 197.672C92.5323 198.632 91.5883 199.16 90.3723 199.16C88.9643 199.16 87.7963 198.376 87.7963 196.84C87.7963 193.4 93.0923 195.352 93.0923 193.304C93.0923 192.52 92.4843 192.152 91.4123 192.152C90.4043 192.152 89.7643 192.52 89.7323 193.24H88.1163C88.1163 191.64 89.3803 190.84 91.4123 190.84C93.4443 190.84 94.6923 191.672 94.6923 193.304V196.76C94.6923 197.784 94.7083 197.928 95.1723 199ZM89.4603 196.664C89.4603 197.512 90.0203 197.88 90.9963 197.88C92.0683 197.88 93.0923 197.08 93.0923 195.64V194.584C91.8763 195.352 89.4603 195.144 89.4603 196.664ZM101.238 199.16C100.022 199.16 99.0144 198.552 98.4544 197.416V202.2H96.8544V191H98.4224V192.648C98.9824 191.464 99.9904 190.84 101.238 190.84C103.142 190.84 104.518 192.312 104.518 195C104.518 197.688 103.142 199.16 101.238 199.16ZM100.646 197.88C101.974 197.88 102.838 196.92 102.838 195C102.838 193.08 101.974 192.12 100.646 192.12C99.3184 192.12 98.4544 193.08 98.4544 195C98.4544 196.92 99.3184 197.88 100.646 197.88ZM113.282 199H111.602L111.138 197.672C110.642 198.632 109.698 199.16 108.482 199.16C107.074 199.16 105.906 198.376 105.906 196.84C105.906 193.4 111.202 195.352 111.202 193.304C111.202 192.52 110.594 192.152 109.522 192.152C108.514 192.152 107.874 192.52 107.842 193.24H106.226C106.226 191.64 107.49 190.84 109.522 190.84C111.554 190.84 112.802 191.672 112.802 193.304V196.76C112.802 197.784 112.818 197.928 113.282 199ZM107.57 196.664C107.57 197.512 108.13 197.88 109.106 197.88C110.178 197.88 111.202 197.08 111.202 195.64V194.584C109.986 195.352 107.57 195.144 107.57 196.664ZM116.244 195C116.244 196.92 117.108 197.88 118.404 197.88C119.54 197.88 120.228 197.176 120.324 195.96H122.004C121.844 197.976 120.532 199.16 118.404 199.16C116.164 199.16 114.564 197.768 114.564 195C114.564 192.232 116.164 190.84 118.404 190.84C120.532 190.84 121.844 192.024 122.004 194.04H120.324C120.228 192.824 119.54 192.12 118.404 192.12C117.108 192.12 116.244 193.08 116.244 195ZM125.361 187.8V189.4H123.761V187.8H125.361ZM125.361 191V199H123.761V191H125.361ZM129.604 196.52C129.604 197.432 129.956 197.72 130.692 197.72H131.684V199H130.228C128.788 199 128.004 198.424 128.004 196.744V192.28H126.724V191H128.004V188.92H129.604V191H131.684V192.28H129.604V196.52ZM140.094 199H138.414L137.95 197.672C137.454 198.632 136.51 199.16 135.294 199.16C133.886 199.16 132.718 198.376 132.718 196.84C132.718 193.4 138.014 195.352 138.014 193.304C138.014 192.52 137.406 192.152 136.334 192.152C135.326 192.152 134.686 192.52 134.654 193.24H133.038C133.038 191.64 134.302 190.84 136.334 190.84C138.366 190.84 139.614 191.672 139.614 193.304V196.76C139.614 197.784 139.63 197.928 140.094 199ZM134.382 196.664C134.382 197.512 134.942 197.88 135.918 197.88C136.99 197.88 138.014 197.08 138.014 195.64V194.584C136.798 195.352 134.382 195.144 134.382 196.664ZM143.056 195C143.056 196.92 143.92 197.88 145.216 197.88C146.352 197.88 147.04 197.176 147.136 195.96H148.816C148.656 197.976 147.344 199.16 145.216 199.16C142.976 199.16 141.376 197.768 141.376 195C141.376 192.232 142.976 190.84 145.216 190.84C147.344 190.84 148.656 192.024 148.816 194.04H147.136C147.04 192.824 146.352 192.12 145.216 192.12C143.92 192.12 143.056 193.08 143.056 195ZM152.173 187.8V189.4H150.573V187.8H152.173ZM152.173 191V199H150.573V191H152.173ZM158.497 190.04H157.217L158.177 187.8H160.097L158.497 190.04ZM157.857 199.16C155.617 199.16 154.017 197.768 154.017 195C154.017 192.232 155.617 190.84 157.857 190.84C160.097 190.84 161.697 192.232 161.697 195C161.697 197.768 160.097 199.16 157.857 199.16ZM157.857 197.88C159.153 197.88 160.017 196.92 160.017 195C160.017 193.08 159.153 192.12 157.857 192.12C156.561 192.12 155.697 193.08 155.697 195C155.697 196.92 156.561 197.88 157.857 197.88ZM165.11 191V192.408C165.606 191.384 166.55 190.84 167.718 190.84C169.334 190.84 170.422 191.832 170.422 193.992V199H168.822V194.152C168.822 192.776 168.182 192.152 167.062 192.152C165.894 192.152 165.142 192.904 165.142 194.392V199H163.542V191H165.11ZM177.948 196.52C177.948 197.432 178.3 197.72 179.036 197.72H180.028V199H178.572C177.132 199 176.348 198.424 176.348 196.744V192.28H175.068V191H176.348V188.92H177.948V191H180.028V192.28H177.948V196.52ZM188.518 196.6C188.294 198.184 186.902 199.16 184.982 199.16C182.742 199.16 181.142 197.784 181.142 195C181.142 192.216 182.742 190.84 184.982 190.84C187.094 190.84 188.662 192.232 188.662 195V195.48H182.79C182.854 197.08 183.718 197.88 184.982 197.88C186.118 197.88 186.678 197.32 186.838 196.6H188.518ZM184.982 192.12C183.798 192.12 182.966 192.824 182.822 194.2H186.998C186.87 192.824 186.086 192.12 184.982 192.12ZM191.775 195C191.775 196.92 192.639 197.88 193.935 197.88C195.071 197.88 195.759 197.176 195.855 195.96H197.535C197.375 197.976 196.063 199.16 193.935 199.16C191.695 199.16 190.095 197.768 190.095 195C190.095 192.232 191.695 190.84 193.935 190.84C196.063 190.84 197.375 192.024 197.535 194.04H195.855C195.759 192.824 195.071 192.12 193.935 192.12C192.639 192.12 191.775 193.08 191.775 195ZM200.86 191V192.408C201.356 191.384 202.3 190.84 203.468 190.84C205.084 190.84 206.172 191.832 206.172 193.992V199H204.572V194.152C204.572 192.776 203.932 192.152 202.812 192.152C201.644 192.152 200.892 192.904 200.892 194.392V199H199.292V191H200.86ZM211.779 199.16C209.539 199.16 207.939 197.768 207.939 195C207.939 192.232 209.539 190.84 211.779 190.84C214.019 190.84 215.619 192.232 215.619 195C215.619 197.768 214.019 199.16 211.779 199.16ZM211.779 197.88C213.075 197.88 213.939 196.92 213.939 195C213.939 193.08 213.075 192.12 211.779 192.12C210.483 192.12 209.619 193.08 209.619 195C209.619 196.92 210.483 197.88 211.779 197.88ZM219.064 187.8V199H217.464V187.8H219.064ZM225.388 190.04H224.108L225.068 187.8H226.988L225.388 190.04ZM224.748 199.16C222.508 199.16 220.908 197.768 220.908 195C220.908 192.232 222.508 190.84 224.748 190.84C226.988 190.84 228.588 192.232 228.588 195C228.588 197.768 226.988 199.16 224.748 199.16ZM224.748 197.88C226.044 197.88 226.908 196.92 226.908 195C226.908 193.08 226.044 192.12 224.748 192.12C223.452 192.12 222.588 193.08 222.588 195C222.588 196.92 223.452 197.88 224.748 197.88ZM233.345 198.52C231.441 198.52 230.065 197.16 230.065 194.68C230.065 192.2 231.441 190.84 233.345 190.84C234.593 190.84 235.601 191.416 236.161 192.504V191H237.729V198.92C237.729 201.064 236.193 202.36 233.905 202.36C231.633 202.36 230.113 201.016 230.113 199H231.713C231.713 200.216 232.449 201.08 233.905 201.08C235.361 201.08 236.129 200.264 236.129 198.92V196.92C235.569 197.96 234.561 198.52 233.345 198.52ZM233.937 197.24C235.265 197.24 236.129 196.392 236.129 194.68C236.129 192.968 235.265 192.12 233.937 192.12C232.609 192.12 231.745 192.968 231.745 194.68C231.745 196.392 232.609 197.24 233.937 197.24ZM241.564 187.8V189.4H239.964V187.8H241.564ZM241.564 191V199H239.964V191H241.564ZM245.088 195C245.088 196.92 245.952 197.88 247.248 197.88C248.384 197.88 249.072 197.176 249.168 195.96H250.848C250.688 197.976 249.376 199.16 247.248 199.16C245.008 199.16 243.408 197.768 243.408 195C243.408 192.232 245.008 190.84 247.248 190.84C249.376 190.84 250.688 192.024 250.848 194.04H249.168C249.072 192.824 248.384 192.12 247.248 192.12C245.952 192.12 245.088 193.08 245.088 195ZM259.5 199H257.82L257.356 197.672C256.86 198.632 255.916 199.16 254.7 199.16C253.292 199.16 252.124 198.376 252.124 196.84C252.124 193.4 257.42 195.352 257.42 193.304C257.42 192.52 256.812 192.152 255.74 192.152C254.732 192.152 254.092 192.52 254.06 193.24H252.444C252.444 191.64 253.708 190.84 255.74 190.84C257.772 190.84 259.02 191.672 259.02 193.304V196.76C259.02 197.784 259.036 197.928 259.5 199ZM253.788 196.664C253.788 197.512 254.348 197.88 255.324 197.88C256.396 197.88 257.42 197.08 257.42 195.64V194.584C256.204 195.352 253.788 195.144 253.788 196.664Z" fill="white"/>
<path d="M64.632 231.84H66.36C66.168 234.544 64.296 236.16 61.32 236.16C58.312 236.16 55.88 234.32 55.88 230.4C55.88 226.48 58.312 224.64 61.32 224.64C64.296 224.64 66.168 226.256 66.36 228.96H64.632C64.504 227.12 63.272 226.08 61.32 226.08C59.08 226.08 57.592 227.52 57.592 230.4C57.592 233.28 59.08 234.72 61.32 234.72C63.272 234.72 64.504 233.68 64.632 231.84ZM75.1723 236H73.4923L73.0283 234.672C72.5323 235.632 71.5883 236.16 70.3723 236.16C68.9643 236.16 67.7963 235.376 67.7963 233.84C67.7963 230.4 73.0923 232.352 73.0923 230.304C73.0923 229.52 72.4843 229.152 71.4123 229.152C70.4043 229.152 69.7643 229.52 69.7323 230.24H68.1163C68.1163 228.64 69.3803 227.84 71.4123 227.84C73.4443 227.84 74.6923 228.672 74.6923 230.304V233.76C74.6923 234.784 74.7083 234.928 75.1723 236ZM69.4603 233.664C69.4603 234.512 70.0203 234.88 70.9963 234.88C72.0683 234.88 73.0923 234.08 73.0923 232.64V231.584C71.8763 232.352 69.4603 232.144 69.4603 233.664ZM81.2384 236.16C80.0224 236.16 79.0144 235.552 78.4544 234.416V239.2H76.8544V228H78.4224V229.648C78.9824 228.464 79.9904 227.84 81.2384 227.84C83.1424 227.84 84.5184 229.312 84.5184 232C84.5184 234.688 83.1424 236.16 81.2384 236.16ZM80.6464 234.88C81.9744 234.88 82.8384 233.92 82.8384 232C82.8384 230.08 81.9744 229.12 80.6464 229.12C79.3184 229.12 78.4544 230.08 78.4544 232C78.4544 233.92 79.3184 234.88 80.6464 234.88ZM93.2816 236H91.6016L91.1376 234.672C90.6416 235.632 89.6976 236.16 88.4816 236.16C87.0736 236.16 85.9056 235.376 85.9056 233.84C85.9056 230.4 91.2016 232.352 91.2016 230.304C91.2016 229.52 90.5936 229.152 89.5216 229.152C88.5136 229.152 87.8736 229.52 87.8416 230.24H86.2256C86.2256 228.64 87.4896 227.84 89.5216 227.84C91.5536 227.84 92.8016 228.672 92.8016 230.304V233.76C92.8016 234.784 92.8176 234.928 93.2816 236ZM87.5696 233.664C87.5696 234.512 88.1296 234.88 89.1056 234.88C90.1776 234.88 91.2016 234.08 91.2016 232.64V231.584C89.9856 232.352 87.5696 232.144 87.5696 233.664ZM96.2438 232C96.2438 233.92 97.1078 234.88 98.4038 234.88C99.5398 234.88 100.228 234.176 100.324 232.96H102.004C101.844 234.976 100.532 236.16 98.4038 236.16C96.1638 236.16 94.5638 234.768 94.5638 232C94.5638 229.232 96.1638 227.84 98.4038 227.84C100.532 227.84 101.844 229.024 102.004 231.04H100.324C100.228 229.824 99.5398 229.12 98.4038 229.12C97.1078 229.12 96.2438 230.08 96.2438 232ZM105.361 224.8V226.4H103.761V224.8H105.361ZM105.361 228V236H103.761V228H105.361ZM109.604 233.52C109.604 234.432 109.956 234.72 110.692 234.72H111.684V236H110.228C108.788 236 108.004 235.424 108.004 233.744V229.28H106.724V228H108.004V225.92H109.604V228H111.684V229.28H109.604V233.52ZM120.094 236H118.414L117.95 234.672C117.454 235.632 116.51 236.16 115.294 236.16C113.886 236.16 112.718 235.376 112.718 233.84C112.718 230.4 118.014 232.352 118.014 230.304C118.014 229.52 117.406 229.152 116.334 229.152C115.326 229.152 114.686 229.52 114.654 230.24H113.038C113.038 228.64 114.302 227.84 116.334 227.84C118.366 227.84 119.614 228.672 119.614 230.304V233.76C119.614 234.784 119.63 234.928 120.094 236ZM114.382 233.664C114.382 234.512 114.942 234.88 115.918 234.88C116.99 234.88 118.014 234.08 118.014 232.64V231.584C116.798 232.352 114.382 232.144 114.382 233.664ZM123.056 232C123.056 233.92 123.92 234.88 125.216 234.88C126.352 234.88 127.04 234.176 127.136 232.96H128.816C128.656 234.976 127.344 236.16 125.216 236.16C122.976 236.16 121.376 234.768 121.376 232C121.376 229.232 122.976 227.84 125.216 227.84C127.344 227.84 128.656 229.024 128.816 231.04H127.136C127.04 229.824 126.352 229.12 125.216 229.12C123.92 229.12 123.056 230.08 123.056 232ZM132.173 224.8V226.4H130.573V224.8H132.173ZM132.173 228V236H130.573V228H132.173ZM138.497 227.04H137.217L138.177 224.8H140.097L138.497 227.04ZM137.857 236.16C135.617 236.16 134.017 234.768 134.017 232C134.017 229.232 135.617 227.84 137.857 227.84C140.097 227.84 141.697 229.232 141.697 232C141.697 234.768 140.097 236.16 137.857 236.16ZM137.857 234.88C139.153 234.88 140.017 233.92 140.017 232C140.017 230.08 139.153 229.12 137.857 229.12C136.561 229.12 135.697 230.08 135.697 232C135.697 233.92 136.561 234.88 137.857 234.88ZM145.11 228V229.408C145.606 228.384 146.55 227.84 147.718 227.84C149.334 227.84 150.422 228.832 150.422 230.992V236H148.822V231.152C148.822 229.776 148.182 229.152 147.062 229.152C145.894 229.152 145.142 229.904 145.142 231.392V236H143.542V228H145.11ZM161.676 236V234.352C161.116 235.536 160.108 236.16 158.86 236.16C156.956 236.16 155.58 234.688 155.58 232C155.58 229.312 156.956 227.84 158.86 227.84C160.076 227.84 161.084 228.448 161.644 229.584V224.8H163.244V236H161.676ZM159.452 229.12C158.124 229.12 157.26 230.08 157.26 232C157.26 233.92 158.124 234.88 159.452 234.88C160.78 234.88 161.644 233.92 161.644 232C161.644 230.08 160.78 229.12 159.452 229.12ZM172.455 233.6C172.231 235.184 170.839 236.16 168.919 236.16C166.679 236.16 165.079 234.784 165.079 232C165.079 229.216 166.679 227.84 168.919 227.84C171.031 227.84 172.599 229.232 172.599 232V232.48H166.727C166.791 234.08 167.655 234.88 168.919 234.88C170.055 234.88 170.615 234.32 170.775 233.6H172.455ZM168.919 229.12C167.735 229.12 166.903 229.824 166.759 231.2H170.935C170.807 229.824 170.023 229.12 168.919 229.12ZM179.719 236L176.599 228H178.311L179.479 231.2C179.927 232.416 180.183 233.28 180.439 234.208C180.679 233.28 180.951 232.416 181.399 231.2L182.567 228H184.279L181.159 236H179.719ZM192.455 233.6C192.231 235.184 190.839 236.16 188.919 236.16C186.679 236.16 185.079 234.784 185.079 232C185.079 229.216 186.679 227.84 188.919 227.84C191.031 227.84 192.599 229.232 192.599 232V232.48H186.727C186.791 234.08 187.655 234.88 188.919 234.88C190.055 234.88 190.615 234.32 190.775 233.6H192.455ZM188.919 229.12C187.735 229.12 186.903 229.824 186.759 231.2H190.935C190.807 229.824 190.023 229.12 188.919 229.12ZM196.001 228V229.408C196.497 228.384 197.441 227.84 198.609 227.84C200.225 227.84 201.312 228.832 201.312 230.992V236H199.713V231.152C199.713 229.776 199.073 229.152 197.953 229.152C196.785 229.152 196.033 229.904 196.033 231.392V236H194.433V228H196.001ZM205.479 233.52C205.479 234.432 205.831 234.72 206.567 234.72H207.559V236H206.103C204.663 236 203.879 235.424 203.879 233.744V229.28H202.599V228H203.879V225.92H205.479V228H207.559V229.28H205.479V233.52ZM215.969 236H214.289L213.825 234.672C213.329 235.632 212.385 236.16 211.169 236.16C209.761 236.16 208.593 235.376 208.593 233.84C208.593 230.4 213.889 232.352 213.889 230.304C213.889 229.52 213.281 229.152 212.209 229.152C211.201 229.152 210.561 229.52 210.529 230.24H208.913C208.913 228.64 210.177 227.84 212.209 227.84C214.241 227.84 215.489 228.672 215.489 230.304V233.76C215.489 234.784 215.505 234.928 215.969 236ZM210.257 233.664C210.257 234.512 210.817 234.88 211.793 234.88C212.865 234.88 213.889 234.08 213.889 232.64V231.584C212.673 232.352 210.257 232.144 210.257 233.664ZM217.443 230.176C217.443 228.688 218.659 227.84 220.403 227.84C222.387 227.84 223.587 228.816 223.619 230.24H222.019C221.955 229.552 221.379 229.12 220.403 229.12C219.571 229.12 219.011 229.504 219.011 230.096C219.011 231.888 223.763 230.592 223.763 233.728C223.763 235.312 222.419 236.16 220.627 236.16C218.563 236.16 217.203 235.136 217.171 233.6H218.771C218.835 234.368 219.507 234.88 220.627 234.88C221.571 234.88 222.195 234.464 222.195 233.808C222.195 232 217.443 233.312 217.443 230.176Z" fill="white"/>
<path d="M5.50032 19.5C9.55161 34.9684 20.0001 119.787 20.0001 119.787L39.9998 156.5L60.9436 194L39.9998 230" stroke="white" stroke-width="1.5"/>
<circle cx="5.5" cy="19.5" r="5.5" fill="#00704F"/>
<circle cx="20.5" cy="119.5" r="5.5" fill="#00704F"/>
<circle cx="40.5" cy="156.5" r="5.5" fill="#00704F"/>
<circle cx="60.5" cy="193.5" r="5.5" fill="#00704F"/>
<circle cx="40.5" cy="230.5" r="5.5" fill="#00704F"/>
</svg>
