<?xml version="1.0" encoding="utf-8"?>
<!-- Generator: Adobe Illustrator 25.4.1, SVG Export Plug-In . SVG Version: 6.00 Build 0)  -->
<svg version="1.1" id="Layer_1" xmlns="http://www.w3.org/2000/svg" xmlns:xlink="http://www.w3.org/1999/xlink" x="0px" y="0px"
	 viewBox="0 0 51.46 51.07" style="enable-background:new 0 0 51.46 51.07;" xml:space="preserve">
<g>
	<g>
		<path d="M36.4,30.53h0.93v4.42h-0.97v-2.94H35.5v-0.73h0.42c0.31,0,0.47-0.09,0.47-0.49V30.53z"/>
	</g>
	<g>
		<circle cx="39.72" cy="35.87" r="1.8"/>
	</g>
	<g>
		<path d="M50.07,31.29c-0.24,0.01-0.53,0.03-0.78,0.03h-1.32v-0.79h2.91v0.88c-0.78,1.03-1.12,2.19-1.19,3.54h-1
			C48.78,33.68,49.23,32.38,50.07,31.29z"/>
	</g>
	<g>
		<circle cx="46.06" cy="35.87" r="1.8"/>
	</g>
	<g>
		<path d="M49.88,4.61c-1.1,0-1.73-0.74-1.73-2.31C48.15,0.7,48.87,0,49.9,0c0.88,0,1.45,0.55,1.48,1.36H50.4
			c-0.01-0.35-0.21-0.57-0.56-0.57c-0.45,0-0.74,0.42-0.74,1.52c0,0.02,0,0.04,0,0.06c0.2-0.44,0.58-0.67,1.06-0.67
			c0.75,0,1.3,0.53,1.3,1.43C51.46,4.01,50.87,4.61,49.88,4.61z M49.85,2.44c-0.4,0-0.65,0.28-0.65,0.69c0,0.41,0.25,0.69,0.65,0.69
			c0.39,0,0.64-0.29,0.64-0.69C50.49,2.72,50.24,2.44,49.85,2.44z"/>
	</g>
	<g>
		<circle cx="46.06" cy="5.44" r="1.8"/>
	</g>
	<g>
		<path d="M3.95,2.72L4.22,0.1h2.51v0.82H5.01L4.96,1.45c-0.03,0.3-0.05,0.48-0.08,0.62c0.21-0.28,0.52-0.4,0.9-0.4
			c0.71,0,1.26,0.54,1.26,1.45c0,0.9-0.72,1.49-1.64,1.49c-0.9,0-1.59-0.42-1.61-1.36h0.97c0.01,0.38,0.28,0.57,0.64,0.57
			c0.4,0,0.68-0.3,0.68-0.7c0-0.41-0.27-0.71-0.68-0.71c-0.25,0-0.43,0.11-0.56,0.32H3.95z"/>
	</g>
	<g>
		<circle cx="1.8" cy="5.44" r="1.8"/>
	</g>
	<g>
		<path d="M42.24,48.02c0-1.63,2.1-2,2.1-2.86c0-0.3-0.23-0.54-0.58-0.54c-0.36,0-0.61,0.24-0.62,0.57H42.2
			c0.01-0.85,0.67-1.36,1.57-1.36c0.88,0,1.5,0.49,1.5,1.25c0,1.19-1.61,1.62-2,2.45h2.05v0.82h-3.08V48.02z"/>
	</g>
	<g>
		<circle cx="39.72" cy="49.26" r="1.8"/>
	</g>
	<g>
		<path d="M30.97,35.05c-0.97,0-1.64-0.51-1.65-1.38h0.97c0.01,0.36,0.26,0.59,0.68,0.59c0.4,0,0.68-0.24,0.68-0.61
			c0-0.37-0.27-0.59-0.71-0.59h-0.35v-0.78h0.38c0.34,0,0.58-0.21,0.58-0.54c0-0.31-0.24-0.51-0.58-0.51
			c-0.35,0-0.61,0.22-0.62,0.57h-0.97c0-0.81,0.66-1.36,1.59-1.36c0.88,0,1.49,0.44,1.49,1.13c0,0.43-0.29,0.74-0.74,0.9
			c0.56,0.17,0.89,0.58,0.89,1.22C32.6,34.54,31.93,35.05,30.97,35.05z"/>
	</g>
	<g>
		<circle cx="27.37" cy="35.87" r="1.8"/>
	</g>
	<g>
		<path d="M6.58,33.49h0.63v0.77H6.58v0.69H5.66v-0.69H3.7v-0.68l1.65-3.05h1.22V33.49z M5.66,32.41c0-0.3,0-0.61,0.01-0.89
			c-0.11,0.23-0.25,0.5-0.4,0.77l-0.25,0.45c-0.15,0.28-0.3,0.54-0.45,0.76c0.25-0.02,0.51-0.02,0.79-0.02h0.3V32.41z"/>
	</g>
	<g>
		<circle cx="1.8" cy="35.87" r="1.8"/>
	</g>
	<g>
		<path d="M46.08,36.33h-6.35c-0.25,0-0.46-0.21-0.46-0.46s0.21-0.46,0.46-0.46h6.35c0.25,0,0.46,0.21,0.46,0.46
			S46.33,36.33,46.08,36.33z"/>
	</g>
	<g>
		<g>
			<path d="M1.57,5.49C1.4,5.87,1.43,6.26,1.43,6.65c0,0.62-0.02,1.23,0,1.85c0.01,0.4,0.07,0.8,0.11,1.2
				c0.02,0.24,0.03,0.49,0.07,0.73c0.07,0.49,0.16,0.97,0.22,1.46c0.03,0.22,0.01,0.45-0.01,0.67c-0.07,0.64-0.03,1.29,0.04,1.93
				c0.03,0.25,0.11,0.5,0.13,0.75c0.02,0.28,0.04,0.57-0.01,0.85c-0.05,0.28,0.05,0.53,0.07,0.79c0.03,0.36,0.11,0.72,0.11,1.07
				c0,0.49-0.05,0.98-0.06,1.48c-0.01,0.43,0.04,0.87,0.02,1.3c-0.02,0.58-0.09,1.17-0.13,1.75c-0.04,0.45-0.09,0.9,0.01,1.36
				c0.06,0.29,0,0.6-0.02,0.91c-0.02,0.32-0.05,0.64-0.07,0.96c-0.04,0.63-0.06,1.26-0.12,1.89c-0.02,0.22-0.11,0.44-0.15,0.66
				c-0.06,0.3-0.12,0.6-0.15,0.91c-0.03,0.24,0,0.49-0.01,0.73c-0.01,0.43,0.02,0.87-0.05,1.3c-0.09,0.53-0.05,1.06-0.11,1.59
				c-0.05,0.56,0.03,1.11,0.04,1.66c0,0.1,0.01,0.2,0.04,0.29c0.02,0.05,0.1,0.1,0.15,0.1c0.4,0.01,0.8,0.02,1.21,0.01
				c0.48-0.01,0.95-0.03,1.43-0.03c0.37,0,0.73,0.07,1.1,0.06c0.6-0.01,1.2-0.06,1.8-0.08c0.46-0.02,0.92-0.02,1.38-0.05
				c0.62-0.04,1.25-0.02,1.87-0.2c0.09-0.03,0.2,0,0.3-0.01c0.11-0.02,0.21-0.06,0.31-0.08c0.13-0.02,0.26-0.04,0.38-0.06
				c0.09-0.01,0.17-0.03,0.26-0.03c0.46-0.01,0.92-0.06,1.37,0c0.51,0.06,1.01-0.01,1.52-0.02c0.27-0.01,0.54,0.04,0.82,0.06
				c0.36,0.03,0.72,0.06,1.09,0.07c0.37,0.01,0.74-0.02,1.11,0.01c0.51,0.03,1.02,0.1,1.53,0.15c0.24,0.02,0.49,0.04,0.73,0.06
				c0.3,0.03,0.6,0.08,0.9,0.1c0.41,0.03,0.82,0.04,1.24,0.06c0.38,0.02,0.77,0.06,1.15,0.09c0.36,0.03,0.71,0.08,1.07,0.1
				c0.5,0.03,0.99,0.06,1.49,0.07c0.44,0.01,0.87-0.01,1.31-0.03c0.11-0.01,0.22-0.12,0.35-0.07c0.01,0,0.04-0.02,0.05-0.01
				c0.2,0.12,0.45,0.15,0.6,0.37c0.05,0.07,0.13,0.12,0.2,0.17c0.12,0.09,0.23,0.17,0.16,0.35c-0.02,0.05,0,0.13,0.03,0.17
				c0.27,0.29,0.54,0.58,0.81,0.87c0.24,0.25,0.45,0.53,0.74,0.71c0.17,0.11,0.19,0.3,0.34,0.37c0.06-0.01,0.12-0.03,0.14-0.02
				c0.16,0.16,0.32,0.32,0.48,0.48c0.08,0.08,0.17,0.15,0.23,0.23c0.11,0.14,0.2,0.29,0.31,0.42c0.08,0.08,0.2,0.12,0.28,0.19
				c0.2,0.17,0.39,0.34,0.57,0.52c0.13,0.13,0.22,0.29,0.34,0.44c0.09,0.12,0.2,0.23,0.28,0.35c0.12,0.18,0.22,0.36,0.32,0.51
				c0.08,0.02,0.14,0.02,0.17,0.05c0.17,0.19,0.33,0.39,0.5,0.59c0.06,0.08,0.15,0.14,0.2,0.22c0.06,0.1,0.09,0.21,0.14,0.31
				c0.08,0.14,0.17,0.29,0.27,0.42c0.07,0.09,0.15,0.17,0.23,0.25c0.01-0.01,0.03-0.02,0.04-0.03c-0.08-0.12-0.17-0.23-0.25-0.35
				c0.02-0.01,0.03-0.02,0.05-0.04c0.21,0.24,0.42,0.47,0.63,0.7c0,0-0.04,0.01-0.14,0.04c0.08,0.09,0.14,0.16,0.21,0.22
				c0.19,0.16,0.39,0.32,0.58,0.48c0.08,0.06,0.15,0.13,0.24,0.19c0.2,0.13,0.42,0.24,0.61,0.39c0.17,0.13,0.32,0.29,0.48,0.44
				c0.12,0.11,0.25,0.21,0.37,0.32c0.21,0.2,0.43,0.4,0.63,0.6c0.22,0.21,0.42,0.44,0.64,0.65c0.09,0.09,0.04,0.13-0.06,0.19
				c0.07,0.05,0.12,0.08,0.18,0.13c0.01-0.07,0.01-0.12,0.02-0.2c0.21,0.13,0.42,0.25,0.51,0.48c0.1,0.26,0.37,0.33,0.53,0.53
				c0.13,0.17,0.28,0.32,0.43,0.48c0.04,0.04,0.07,0.08,0.11,0.11c0.04,0.02,0.09,0.03,0.13,0.02c0.02-0.01,0.04-0.07,0.04-0.1
				c0-0.06-0.03-0.13-0.02-0.19c0-0.04,0.04-0.09,0.06-0.13c0.02-0.03,0.05-0.06,0.05-0.1c0.01-0.08,0.01-0.16,0-0.25
				c-0.03-0.34-0.06-0.69-0.11-1.03c-0.07-0.48-0.16-0.97-0.22-1.45c-0.06-0.47-0.1-0.94-0.15-1.41c-0.03-0.32-0.06-0.64-0.09-0.96
				c0-0.07,0.05-0.14,0.05-0.2c0-0.11,0.02-0.26-0.04-0.33c-0.15-0.19-0.21-0.4-0.22-0.62c-0.03-0.45-0.05-0.9-0.09-1.35
				c-0.03-0.37-0.08-0.74-0.12-1.11c-0.01-0.08,0.02-0.17,0.04-0.25c0-0.02,0.02-0.05,0.01-0.07c-0.17-0.26-0.07-0.54-0.09-0.82
				c-0.04-0.38-0.03-0.75-0.12-1.13c-0.07-0.33-0.05-0.69-0.08-1.03c-0.01-0.2-0.02-0.4-0.03-0.59c-0.01-0.14,0.12-0.24,0.24-0.16
				c0.08,0.05,0.17,0.14,0.19,0.23c0.05,0.24,0.07,0.49,0.1,0.74c0.05,0.32,0.11,0.64,0.14,0.96c0.03,0.28,0.01,0.57,0.02,0.86
				c0,0.24,0,0.48,0,0.71c0,0.19-0.01,0.37,0,0.56c0,0.03,0.03,0.06,0.04,0.1c0.01,0.02,0.03,0.05,0.04,0.07
				c0.04,0.23,0.08,0.46,0.11,0.69c0.01,0.07-0.04,0.15-0.05,0.22c-0.01,0.08,0,0.16,0.02,0.24c0.07,0.4,0.15,0.79,0.2,1.19
				c0.04,0.32,0.03,0.65,0.07,0.98c0.02,0.2,0.08,0.4,0.1,0.6c0.02,0.19,0.05,0.38,0.09,0.57c0.07,0.36,0.04,0.75,0.08,1.12
				c0.02,0.22,0.11,0.43,0.14,0.65c0.05,0.46,0.08,0.91,0.11,1.37c0.03,0.39,0.04,0.78,0.06,1.17c0.01,0.19,0.01,0.37,0.03,0.56
				c0.02,0.18,0.05,0.36,0.13,0.52c0.07,0.13,0.1,0.25,0.1,0.39c-0.01,0.34,0,0.32-0.35,0.33c-0.2,0.01-0.31-0.09-0.35-0.25
				c-0.11-0.45-0.39-0.77-0.71-1.08c-0.24-0.23-0.44-0.51-0.69-0.74c-0.34-0.33-0.71-0.63-1.06-0.95c-0.25-0.22-0.49-0.45-0.73-0.68
				c-0.26-0.24-0.5-0.5-0.76-0.74c-0.32-0.29-0.64-0.58-0.96-0.87c-0.23-0.2-0.45-0.4-0.69-0.6c-0.15-0.13-0.35-0.21-0.44-0.37
				c-0.11-0.19-0.28-0.3-0.4-0.47c-0.13-0.17-0.26-0.33-0.43-0.47c-0.39-0.31-0.65-0.74-0.95-1.13c-0.18-0.23-0.39-0.43-0.58-0.65
				c-0.2-0.23-0.4-0.47-0.6-0.7c-0.01-0.01-0.03-0.03-0.03-0.04c-0.06-0.18-0.17-0.32-0.33-0.45c-0.24-0.19-0.42-0.45-0.64-0.67
				c-0.22-0.21-0.46-0.39-0.69-0.59c-0.22-0.19-0.43-0.37-0.64-0.57c-0.27-0.26-0.54-0.54-0.81-0.81c-0.32-0.33-0.65-0.64-0.94-0.99
				c-0.21-0.24-0.47-0.32-0.77-0.32c-0.25,0-0.5,0.01-0.76,0.02c-0.4,0.02-0.79,0.06-1.19,0.06c-0.36-0.01-0.76,0.01-1.08-0.12
				c-0.27-0.11-0.52-0.04-0.77-0.08c-0.26-0.04-0.53-0.03-0.8-0.05c-0.31-0.02-0.61-0.06-0.92-0.09c-0.21-0.02-0.42-0.03-0.63-0.05
				c-0.13-0.01-0.27,0-0.4-0.05c-0.12-0.04-0.22-0.14-0.33-0.21c0.04,0.19-0.09,0.17-0.22,0.14c-0.05-0.01-0.1-0.01-0.16-0.02
				c-0.54-0.05-1.08-0.09-1.62-0.14c-0.05,0-0.11,0-0.16-0.01c-0.72-0.04-1.45-0.08-2.17-0.11c-0.5-0.02-1-0.01-1.5-0.02
				c-0.54-0.01-1.08-0.03-1.61-0.02c-0.49,0.01-0.98,0.02-1.47,0.07c-0.58,0.06-1.16,0.18-1.74,0.23c-0.46,0.04-0.92,0.02-1.38,0.05
				c-0.42,0.03-0.85,0.08-1.27,0.12c-0.27,0.02-0.54,0.04-0.81,0.04c-0.4,0.01-0.8,0.01-1.21,0c-0.17,0-0.33-0.04-0.5-0.05
				c-0.11-0.01-0.23,0-0.35,0c-0.44-0.02-0.87-0.04-1.31-0.06c-0.28-0.01-0.56-0.02-0.84-0.02c-0.14,0-0.21,0.06-0.23,0.19
				c-0.01,0.06,0,0.12,0,0.17c-0.02,0.01-0.04,0.02-0.05,0.04c-0.13-0.15-0.28-0.29-0.39-0.46c-0.15-0.21-0.2-0.46-0.2-0.73
				c0.02-0.76,0.02-1.51,0.02-2.27c0-0.21-0.02-0.43-0.03-0.64c0-0.06,0-0.13,0-0.19c0.02-0.4,0.05-0.8,0.06-1.2
				c0.02-0.53,0.05-1.06,0.15-1.58c0.1-0.51,0.18-1.02,0.24-1.53c0.06-0.5,0.07-1,0.11-1.5c0.04-0.46,0.1-0.93,0.13-1.39
				c0.01-0.16-0.01-0.32-0.03-0.49c-0.06-0.62-0.05-1.25,0.03-1.87c0.03-0.22,0-0.45,0.01-0.67c0.03-0.59,0.07-1.17,0.1-1.76
				c0.01-0.15,0-0.3,0-0.46c0.01-0.35,0.04-0.7,0.04-1.05c0-0.31-0.04-0.63-0.07-0.94c-0.04-0.37-0.09-0.73-0.13-1.1
				c-0.02-0.24-0.03-0.48-0.04-0.72c-0.01-0.34-0.02-0.68-0.03-1.02c-0.02-0.7-0.03-1.41-0.07-2.11c-0.03-0.44-0.04-0.88-0.2-1.3
				c-0.03-0.09,0-0.2-0.01-0.31C1,10.07,0.96,9.65,0.92,9.23c-0.02-0.2-0.09-0.4-0.11-0.6C0.79,8.51,0.85,8.38,0.86,8.26
				c0.01-0.15,0.01-0.29,0.01-0.44C0.84,7.27,0.81,6.72,0.8,6.17C0.79,5.85,0.84,5.54,1.03,5.26C1.07,5.2,1.14,5.16,1.2,5.12
				c0.03,0.05,0.09,0.11,0.1,0.16C1.32,5.45,1.44,5.47,1.57,5.49z"/>
		</g>
		<g>
			<path d="M46.48,22.94c0.13,0.05,0.19,0.08,0.31,0.12c-0.09-0.14-0.15-0.23-0.21-0.33c-0.03-0.06-0.06-0.14-0.07-0.21
				c-0.02-0.32,0.02-0.64-0.04-0.95c-0.16-0.83-0.07-1.66-0.12-2.49c-0.02-0.32,0.01-0.65-0.03-0.97c-0.05-0.41-0.15-0.81-0.2-1.22
				c-0.03-0.21-0.02-0.42-0.02-0.63c-0.01-0.53-0.02-1.05-0.04-1.58c-0.02-0.52-0.03-1.04-0.07-1.56c-0.02-0.26-0.12-0.52-0.17-0.78
				c-0.03-0.14-0.05-0.29-0.06-0.43c-0.04-0.5-0.09-0.99-0.12-1.49c-0.03-0.41-0.02-0.83-0.06-1.24c-0.03-0.4-0.1-0.79-0.16-1.19
				c-0.1-0.59-0.23-1.18-0.15-1.78c0.01-0.1-0.03-0.2-0.01-0.3c0.03-0.19-0.04-0.42,0.17-0.55c-0.07-0.03-0.16-0.05-0.16-0.08
				c-0.01-0.08,0-0.17,0.03-0.25c0.02-0.07,0.07-0.13,0.13-0.22c-0.29-0.08-0.55-0.15-0.81-0.23c-0.4-0.12-0.81-0.18-1.22-0.15
				c-0.41,0.03-0.81,0.1-1.21,0.16c-0.28,0.04-0.57,0.08-0.85,0.11c-0.17,0.02-0.33,0.05-0.5,0.07C40.41,4.85,40,4.91,39.59,4.98
				c-0.19,0.04-0.37,0.12-0.56,0.16c-0.45,0.1-0.9,0.23-1.36,0.29c-0.45,0.06-0.92,0.06-1.38,0.09c-0.04,0-0.07-0.01-0.1,0
				c-0.31,0.13-0.62,0.03-0.92,0c-0.11-0.01-0.23,0.03-0.35,0.02c-0.33-0.02-0.66-0.07-0.99-0.09c-0.24-0.01-0.48,0.02-0.72,0.04
				c-0.76,0.06-1.51,0.14-2.27,0.19c-0.57,0.04-1.13,0.05-1.7,0.05c-0.5,0-1-0.05-1.49-0.05c-0.66,0-1.31,0.04-1.97,0.06
				c-0.87,0.03-1.74,0.07-2.62,0.07c-0.46,0-0.92-0.07-1.38-0.12c-0.38-0.04-0.77-0.07-1.15-0.15c-0.87-0.2-1.75-0.08-2.62-0.15
				C17.68,5.36,17.34,5.38,17,5.38c-0.43,0-0.86,0.01-1.29,0.02c-0.33,0.01-0.67,0.02-1,0.02c-0.43,0-0.87-0.02-1.3-0.04
				c-0.03,0-0.06,0-0.09-0.01c-0.36-0.16-0.73-0.12-1.11-0.1c-0.36,0.02-0.73,0.02-1.09,0.04c-0.65,0.04-1.31,0.08-1.96,0.12
				C9.02,5.44,8.87,5.41,8.73,5.42C8.02,5.44,7.3,5.48,6.59,5.5C6.31,5.5,6.03,5.45,5.75,5.44c-0.26-0.01-0.51,0-0.77,0
				C4.45,5.46,3.91,5.5,3.38,5.51C2.99,5.52,2.61,5.44,2.25,5.3C2.14,5.26,2.03,5.25,1.94,5.2C1.88,5.16,1.85,5.07,1.81,5.01
				c0.07-0.02,0.13-0.06,0.2-0.06c0.51,0.03,1.03,0.1,1.54,0.11C4.1,5.06,4.66,5.01,5.21,4.99C5.4,4.98,5.6,5,5.79,5.02
				C6.46,5.08,7.11,4.96,7.77,4.9c0.37-0.03,0.75-0.03,1.12-0.04c0.11,0,0.22,0.01,0.33,0.01c0.15,0,0.3-0.03,0.37,0.16
				c0,0.01,0.04,0.01,0.08,0.02C9.66,5,9.65,4.95,9.63,4.89c0.05-0.01,0.09-0.04,0.14-0.04c0.58-0.05,1.17-0.1,1.75-0.13
				c0.71-0.04,1.41,0.01,2.12,0.09c0.5,0.05,1,0.01,1.51,0c0.33,0,0.66-0.02,0.99-0.03c0.17-0.01,0.34-0.02,0.5-0.02
				c0.17,0,0.34,0,0.51,0.01c0.44,0.02,0.88,0.05,1.32,0.06c0.44,0.01,0.89,0,1.33,0.02c0.24,0.01,0.47,0.07,0.71,0.11
				c0.15,0.02,0.32,0.01,0.46,0.06c0.45,0.16,0.92,0.08,1.37,0.17c0.61,0.12,1.23,0.09,1.85,0.05c0.44-0.03,0.88,0.01,1.32,0
				c0.47-0.01,0.93-0.05,1.4-0.06c0.47-0.01,0.95-0.01,1.42,0c0.43,0.01,0.86,0.04,1.3,0.03c0.4,0,0.81-0.06,1.21-0.06
				c0.77,0,1.53-0.07,2.28-0.21c0.1-0.02,0.2-0.01,0.3,0c0.54,0.02,1.08,0.05,1.63,0.07c0.2,0.01,0.4,0.04,0.6,0.03
				c0.65-0.04,1.31-0.07,1.96-0.14c0.36-0.04,0.72-0.18,1.08-0.27c0.28-0.07,0.56-0.11,0.83-0.17c0.1-0.02,0.19-0.07,0.28-0.09
				C40.2,4.28,40.6,4.21,41,4.16c0.3-0.04,0.61-0.07,0.92-0.11c0.37-0.04,0.75-0.08,1.12-0.11c0.47-0.04,0.94-0.08,1.41,0.04
				c0.23,0.06,0.46,0.14,0.69,0.21c0.07,0.02,0.14,0.01,0.2,0.04c0.18,0.08,0.37,0.17,0.54,0.27c0.09,0.06,0.08,0.15-0.04,0.19
				c-0.1,0.03-0.12,0.1-0.12,0.2c0.01,0.5-0.01,0.99,0.01,1.49c0.01,0.31,0,0.62,0.11,0.93c0.08,0.22,0.05,0.48,0.09,0.72
				c0.02,0.15,0.1,0.29,0.12,0.44c0.03,0.17,0.04,0.34,0.05,0.51c0.02,0.33,0.06,0.67,0.05,1c-0.02,0.56,0.13,1.09,0.19,1.63
				c0.03,0.22,0,0.45,0,0.68c0,0.09,0.02,0.18,0.03,0.28c0.03,0.18,0.04,0.36,0.09,0.54c0.19,0.72,0.11,1.45,0.16,2.18
				c0.01,0.19,0.06,0.41-0.09,0.55c0.03,0.17,0.06,0.32,0.07,0.46c0.02,0.44,0.04,0.88,0.15,1.32c0.08,0.31,0.05,0.64,0.06,0.96
				c0,0.12-0.03,0.24-0.04,0.36c0,0.02,0.01,0.05,0.02,0.06c0.12,0.16,0.1,0.34,0.05,0.51c-0.01,0.04-0.04,0.1-0.02,0.13
				c0.17,0.42,0.1,0.87,0.13,1.3c0.05,0.73,0.09,1.46,0.14,2.19c0.02,0.3-0.01,0.6,0.04,0.9c0.1,0.63,0,1.25,0.03,1.87
				c0.01,0.22,0.03,0.43,0.03,0.65c0,0.06-0.04,0.13-0.08,0.22c0.19,0.28,0.06,0.64,0.11,0.98c0.04,0.3,0.03,0.61,0.03,0.91
				c0,0.14-0.01,0.28-0.02,0.42c0,0.02-0.01,0.05,0,0.07c0.16,0.33,0.2,0.75,0.12,1.16c-0.01,0.07,0.03,0.15,0.04,0.23
				c0.03,0.24,0.06,0.48,0.06,0.71c0,0.36-0.01,0.73-0.03,1.09c-0.01,0.37-0.05,0.74-0.05,1.11c0,0.42,0.04,0.84,0.06,1.26
				c0.01,0.25,0.01,0.5,0,0.75c-0.01,0.36-0.04,0.73-0.05,1.09c0,0.19-0.1,0.32-0.23,0.43c-0.1,0.09-0.32-0.05-0.33-0.23
				c-0.01-0.28,0-0.56,0.03-0.84c0.05-0.49,0.03-0.97-0.02-1.46c-0.04-0.43-0.13-0.86-0.04-1.3c0.07-0.34,0.04-0.69,0.05-1.04
				c0.01-0.36,0.04-0.72,0.03-1.07c-0.01-0.5,0-1-0.1-1.49c-0.1-0.53-0.11-1.07-0.14-1.6c-0.04-0.72-0.04-1.45-0.06-2.18
				c-0.02-0.68-0.02-1.36-0.04-2.04C46.56,23.5,46.51,23.25,46.48,22.94z"/>
		</g>
	</g>
	<g>
		<path d="M39.01,15.88H8.9c-0.25,0-0.46-0.21-0.46-0.46s0.21-0.46,0.46-0.46h30.11c0.25,0,0.46,0.21,0.46,0.46
			S39.26,15.88,39.01,15.88z"/>
	</g>
	<g>
		<path d="M39.01,25.79H8.9c-0.25,0-0.46-0.21-0.46-0.46c0-0.25,0.21-0.46,0.46-0.46h30.11c0.25,0,0.46,0.21,0.46,0.46
			C39.47,25.58,39.26,25.79,39.01,25.79z"/>
	</g>
</g>
</svg>
