<?xml version="1.0" encoding="utf-8"?>
<!-- Generator: Adobe Illustrator 25.4.1, SVG Export Plug-In . SVG Version: 6.00 Build 0)  -->
<svg version="1.1" id="Layer_1" xmlns="http://www.w3.org/2000/svg" xmlns:xlink="http://www.w3.org/1999/xlink" x="0px" y="0px"
	 viewBox="0 0 59.57 36.57" style="enable-background:new 0 0 59.57 36.57;" xml:space="preserve">
<g>
	<g>
		<path d="M44.55,32.06h0.93v4.42h-0.97v-2.94h-0.86v-0.73h0.42c0.31,0,0.47-0.09,0.47-0.49V32.06z"/>
	</g>
	<g>
		<circle cx="41.69" cy="30" r="1.8"/>
	</g>
	<g>
		<path d="M54.6,32.06h0.93v4.42h-0.97v-2.94H53.7v-0.73h0.42c0.31,0,0.47-0.09,0.47-0.49V32.06z"/>
		<path d="M59.57,34.27c0,1.6-0.65,2.31-1.65,2.31c-1,0-1.66-0.71-1.66-2.31s0.66-2.31,1.66-2.31
			C58.92,31.96,59.57,32.66,59.57,34.27z M58.6,34.27c0-1.15-0.27-1.52-0.69-1.52c-0.42,0-0.69,0.36-0.69,1.52
			c0,1.15,0.27,1.52,0.69,1.52C58.34,35.78,58.6,35.42,58.6,34.27z"/>
	</g>
	<g>
		<circle cx="51.74" cy="30" r="1.8"/>
	</g>
	<g>
		<path d="M48.5,8.72c1.09,0,1.72,0.73,1.72,2.31c0,1.61-0.72,2.31-1.74,2.31c-0.89,0-1.45-0.55-1.48-1.36h0.97
			c0.02,0.34,0.22,0.57,0.56,0.57c0.46,0,0.74-0.42,0.74-1.52c0-0.02,0-0.04,0-0.05c-0.19,0.43-0.57,0.66-1.05,0.66
			c-0.75,0-1.3-0.53-1.3-1.44C46.92,9.32,47.51,8.72,48.5,8.72z M48.53,10.9c0.39,0,0.65-0.28,0.65-0.69c0-0.41-0.25-0.69-0.65-0.69
			c-0.4,0-0.65,0.28-0.65,0.69C47.88,10.61,48.13,10.9,48.53,10.9z"/>
	</g>
	<g>
		<circle cx="44.15" cy="12.8" r="1.8"/>
	</g>
	<g>
		<path d="M29.16,3.27c0-0.6,0.32-1.01,0.83-1.21c-0.42-0.18-0.66-0.52-0.66-0.95c0-0.67,0.58-1.12,1.46-1.12
			c0.87,0,1.46,0.44,1.46,1.12c0,0.43-0.25,0.77-0.66,0.95c0.52,0.2,0.83,0.61,0.83,1.21c0,0.86-0.66,1.34-1.63,1.34
			C29.81,4.61,29.16,4.14,29.16,3.27z M31.45,3.22c0-0.4-0.3-0.6-0.66-0.6c-0.37,0-0.67,0.2-0.67,0.6c0,0.39,0.3,0.6,0.67,0.6
			C31.15,3.82,31.45,3.61,31.45,3.22z M31.34,1.31c0-0.35-0.25-0.52-0.56-0.52c-0.32,0-0.56,0.18-0.56,0.52
			c0,0.34,0.24,0.53,0.56,0.53C31.1,1.84,31.34,1.66,31.34,1.31z"/>
	</g>
	<g>
		<circle cx="27.99" cy="6.32" r="1.8"/>
	</g>
	<g>
		<circle cx="37.62" cy="20.37" r="1.8"/>
	</g>
	<g>
		<path d="M34.55,27.24c0-1.63,2.1-2,2.1-2.86c0-0.3-0.23-0.54-0.58-0.54c-0.37,0-0.61,0.24-0.62,0.57H34.5
			c0.01-0.85,0.67-1.36,1.57-1.36c0.88,0,1.5,0.49,1.5,1.25c0,1.19-1.61,1.62-2,2.45h2.05v0.82h-3.08V27.24z"/>
	</g>
	<g>
		<path d="M27.98,23.64c-0.97,0-1.64-0.51-1.65-1.38h0.97c0.01,0.36,0.26,0.59,0.68,0.59c0.4,0,0.68-0.24,0.68-0.61
			c0-0.37-0.27-0.59-0.71-0.59H27.6v-0.78h0.38c0.34,0,0.58-0.21,0.58-0.54c0-0.31-0.24-0.51-0.58-0.51c-0.35,0-0.61,0.22-0.62,0.57
			h-0.97c0-0.81,0.66-1.36,1.59-1.36c0.88,0,1.49,0.44,1.49,1.13c0,0.43-0.29,0.74-0.74,0.9c0.56,0.17,0.89,0.58,0.89,1.22
			C29.62,23.14,28.94,23.64,27.98,23.64z"/>
	</g>
	<g>
		<path d="M21.96,25.18h0.63v0.77h-0.63v0.69h-0.92v-0.69h-1.96v-0.68l1.65-3.05h1.22V25.18z M21.04,24.1c0-0.3,0-0.61,0.01-0.89
			c-0.11,0.23-0.25,0.5-0.4,0.77l-0.25,0.45c-0.15,0.28-0.3,0.54-0.45,0.76c0.25-0.02,0.51-0.02,0.79-0.02h0.3V24.1z"/>
	</g>
	<g>
		<path d="M15.65,34.68l0.27-2.63h2.51v0.82H16.7l-0.05,0.54c-0.03,0.3-0.05,0.48-0.08,0.62c0.21-0.28,0.52-0.4,0.9-0.4
			c0.71,0,1.26,0.54,1.26,1.45c0,0.9-0.72,1.49-1.64,1.49c-0.9,0-1.59-0.42-1.61-1.36h0.97c0.01,0.38,0.29,0.57,0.64,0.57
			c0.4,0,0.67-0.3,0.67-0.7c0-0.41-0.27-0.71-0.67-0.71c-0.25,0-0.43,0.11-0.56,0.32H15.65z"/>
	</g>
	<g>
		<path d="M1.73,36.57c-1.1,0-1.73-0.74-1.73-2.31c0-1.61,0.72-2.31,1.74-2.31c0.88,0,1.45,0.55,1.48,1.36H2.25
			c-0.01-0.35-0.21-0.57-0.56-0.57c-0.45,0-0.74,0.42-0.74,1.52c0,0.02,0,0.04,0,0.06c0.2-0.44,0.58-0.67,1.06-0.67
			c0.75,0,1.3,0.53,1.3,1.43C3.3,35.97,2.72,36.57,1.73,36.57z M1.69,34.4c-0.4,0-0.65,0.28-0.65,0.69c0,0.41,0.25,0.69,0.65,0.69
			c0.39,0,0.64-0.29,0.64-0.69C2.34,34.68,2.08,34.4,1.69,34.4z"/>
	</g>
	<g>
		<path d="M8.77,9.14C8.53,9.15,8.24,9.17,7.98,9.17H6.66V8.38h2.91v0.88c-0.78,1.03-1.12,2.19-1.19,3.54h-1
			C7.48,11.52,7.93,10.23,8.77,9.14z"/>
	</g>
	<g>
		<circle cx="27.99" cy="16.15" r="1.8"/>
	</g>
	<g>
		<circle cx="14.3" cy="30" r="1.8"/>
	</g>
	<g>
		<circle cx="4.24" cy="30" r="1.8"/>
	</g>
	<g>
		<circle cx="11.84" cy="12.8" r="1.8"/>
	</g>
	<g>
		<circle cx="18.36" cy="20.37" r="1.8"/>
	</g>
	<g>
		<circle cx="27.99" cy="30" r="1.8"/>
	</g>
	<g>
		<path d="M51.74,30.46H41.69c-0.25,0-0.46-0.21-0.46-0.46c0-0.25,0.21-0.46,0.46-0.46h10.05c0.25,0,0.46,0.21,0.46,0.46
			C52.2,30.26,51.99,30.46,51.74,30.46z"/>
	</g>
	<g>
		<path d="M27.51,30.11c-0.08,0-0.16-0.02-0.23-0.06c-0.22-0.13-0.3-0.41-0.17-0.63l5.3-9.27c0.12-0.22,0.41-0.3,0.63-0.17
			c0.22,0.13,0.3,0.41,0.17,0.63l-5.3,9.27C27.82,30.02,27.67,30.11,27.51,30.11z"/>
	</g>
	<g>
		<path d="M18.36,20.83c-0.13,0-0.26-0.05-0.35-0.16l-6.53-7.58c-0.17-0.19-0.14-0.49,0.05-0.65c0.19-0.17,0.49-0.14,0.65,0.05
			l6.53,7.58c0.17,0.19,0.14,0.49-0.05,0.65C18.58,20.8,18.47,20.83,18.36,20.83z"/>
	</g>
	<g>
		<path d="M27.99,16.77c-0.25,0-0.46-0.21-0.46-0.46V6.25c0-0.25,0.21-0.46,0.46-0.46c0.25,0,0.46,0.21,0.46,0.46v10.05
			C28.45,16.56,28.25,16.77,27.99,16.77z"/>
	</g>
	<g>
		<path d="M37.62,20.83c-0.11,0-0.21-0.04-0.3-0.11c-0.19-0.17-0.21-0.46-0.05-0.65l6.53-7.58c0.17-0.19,0.46-0.21,0.65-0.05
			c0.19,0.17,0.21,0.46,0.05,0.65l-6.53,7.58C37.88,20.78,37.75,20.83,37.62,20.83z"/>
	</g>
	<g>
		<path d="M28.43,30.79c-0.06,0-0.12-0.01-0.19-0.04c-0.23-0.1-0.34-0.37-0.24-0.61l4.37-9.96c0.1-0.23,0.38-0.34,0.61-0.24
			c0.23,0.1,0.34,0.37,0.24,0.61l-4.37,9.96C28.78,30.69,28.61,30.79,28.43,30.79z"/>
	</g>
	<g>
		<g>
			<path d="M8.3,17.31c-0.03,0.04-0.06,0.09-0.08,0.13c0.09-0.53,0.31-1,0.59-1.45c0.12-0.19,0.21-0.41,0.32-0.61
				c0.06-0.11,0.14-0.21,0.2-0.32c0.1-0.17,0.17-0.36,0.28-0.52c0.15-0.23,0.33-0.44,0.49-0.65c0.01-0.02,0.05-0.01,0.07-0.02
				c0.02-0.01,0.04-0.05,0.04-0.05c-0.09-0.08-0.02-0.13,0.02-0.2c0.1-0.16,0.22-0.3,0.4-0.4c0.09-0.05,0.14-0.17,0.2-0.26
				c0.03-0.04,0.04-0.09,0.08-0.18c0.06,0.11,0.1,0.17,0.13,0.24c0.06,0.12,0.12,0.24,0.18,0.35c0.04,0.08,0.03,0.11-0.06,0.14
				c-0.21,0.08-0.39,0.19-0.51,0.39c-0.19,0.31-0.37,0.62-0.56,0.94c-0.02,0.03-0.04,0.07-0.05,0.11c-0.03,0.16-0.1,0.25-0.28,0.18
				c-0.01,0-0.03,0-0.04,0c-0.01,0-0.02,0.02-0.05,0.03c0.04,0.06,0.08,0.11,0.13,0.18c-0.33,0.38-0.46,0.92-0.86,1.3
				c0.03,0,0.06,0,0.11,0c-0.03,0.09-0.06,0.17-0.1,0.26c-0.13,0.3-0.27,0.6-0.41,0.9c-0.19,0.43-0.39,0.87-0.58,1.3
				c-0.13,0.31-0.25,0.63-0.38,0.94c-0.13,0.32-0.25,0.63-0.39,0.95c-0.13,0.28-0.28,0.55-0.41,0.83c-0.1,0.21-0.19,0.43-0.28,0.64
				c-0.05,0.12-0.13,0.22-0.17,0.34c-0.05,0.14-0.07,0.28-0.1,0.42c-0.01,0.06-0.02,0.11-0.04,0.17c-0.1,0.26-0.22,0.51-0.31,0.77
				c-0.1,0.27-0.2,0.54-0.27,0.81c-0.1,0.39-0.23,0.78-0.2,1.19c0,0.04-0.02,0.08-0.03,0.11c-0.06,0.23-0.12,0.45-0.18,0.68
				c-0.02,0.08-0.06,0.16-0.07,0.24C5.09,27.48,5.05,27.75,5,28.02c-0.03,0.15-0.05,0.31-0.1,0.46c-0.15,0.4-0.17,0.83-0.19,1.25
				c0,0.09-0.01,0.19-0.02,0.28c-0.01,0.13,0.07,0.15,0.18,0.15c0.37,0.01,0.74,0.02,1.11,0.05c0.07,0.01,0.13,0.08,0.19,0.13
				c0.01-0.01,0.02-0.02,0.03-0.03c-0.01-0.02-0.02-0.04-0.04-0.09c0.22,0.02,0.43,0.03,0.63,0.06c0.37,0.05,0.73,0.11,1.11,0.1
				c0.4-0.01,0.81,0.06,1.21,0.1c0.21,0.02,0.42,0.06,0.64,0.04c0.32-0.03,0.64,0.04,0.97,0.04c0.3-0.01,0.6-0.05,0.9-0.09
				c0.55-0.08,1.06-0.33,1.62-0.36c0.17-0.01,0.33-0.07,0.49-0.1c0.1-0.02,0.23,0.01,0.29-0.04c0.12-0.12,0.22-0.27,0.28-0.43
				c0.11-0.28,0.18-0.57,0.28-0.85c0.08-0.23,0.19-0.44,0.27-0.67c0.09-0.25,0.17-0.5,0.24-0.75c0.09-0.35,0.17-0.7,0.23-1.05
				c0.07-0.37,0.11-0.74,0.17-1.1c0.01-0.06,0.03-0.13,0.07-0.17c0.15-0.16,0.21-0.36,0.22-0.56c0-0.05-0.07-0.11-0.1-0.15
				c0.1-0.08,0.23-0.15,0.29-0.25c0.08-0.13,0.12-0.28,0.15-0.43c0.08-0.37,0.3-0.68,0.49-1.01c0.17-0.29,0.31-0.59,0.46-0.89
				c0,0,0.01-0.01,0.01-0.01c-0.09-0.23,0.13-0.3,0.23-0.44c0.15-0.2,0.28-0.4,0.42-0.61c0.27-0.41,0.52-0.84,1-1.07
				c0.1-0.05,0.19-0.12,0.25-0.21c0.16-0.24,0.4-0.29,0.65-0.35c0.17-0.04,0.32-0.09,0.46-0.22c0.37-0.34,0.78-0.62,1.22-0.87
				c0.06-0.03,0.11-0.07,0.15-0.12c0.28-0.34,0.67-0.48,1.07-0.6c0.35-0.11,0.68-0.24,1.03-0.35c0.18-0.06,0.38-0.05,0.57-0.1
				c0.14-0.03,0.29-0.04,0.41-0.16c0.05-0.05,0.17-0.03,0.26-0.05c0.02,0,0.04,0,0.06,0c0.26-0.16,0.55-0.13,0.83-0.15
				c0.33-0.03,0.67-0.06,1-0.1c0.04,0,0.08,0,0.12,0.01c0,0.01,0,0.03,0,0.04c-0.11,0-0.22,0-0.33,0c0,0.02,0,0.04,0,0.05
				c0.26-0.01,0.51-0.02,0.77-0.03c0.18-0.01,0.37-0.02,0.55-0.01c0.18,0.01,0.36,0.02,0.53,0.07c0.16,0.04,0.31,0.12,0.46,0.19
				c0.1,0.05,0.2,0.11,0.3,0.15c0.42,0.19,0.84,0.38,1.27,0.56c0.1,0.04,0.22,0.04,0.33,0.08c0.1,0.03,0.21,0.07,0.29,0.14
				c0.19,0.16,0.4,0.26,0.64,0.31c0.07,0.02,0.15,0.05,0.21,0.1c0.26,0.18,0.52,0.37,0.79,0.55c0.09,0.06,0.2,0.08,0.3,0.12
				c0.17,0.08,0.34,0.16,0.51,0.23c0.11,0.05,0.22,0.08,0.33,0.11c0.05,0.02,0.11,0.02,0.15,0.05c0.16,0.07,0.3,0.19,0.47,0.22
				c0.28,0.05,0.48,0.24,0.72,0.35c0.19,0.09,0.38,0.19,0.56,0.3c0.08,0.05,0.14,0.12,0.21,0.17c0.04,0.03,0.08,0.04,0.12,0.06
				c0.06,0.03,0.13,0.06,0.19,0.11c0.6,0.52,1.04,1.16,1.41,1.86c0.16,0.31,0.37,0.6,0.56,0.9c0.05,0.07,0.07,0.16,0.11,0.24
				c0.05,0.11,0.11,0.22,0.16,0.33c0.04,0.09,0.07,0.18,0.1,0.27c0.01,0.03,0.01,0.07,0.02,0.1c0.19,0.49,0.39,0.97,0.58,1.46
				c0.14,0.34,0.28,0.67,0.43,1c0.18,0.39,0.36,0.77,0.54,1.15c0.21,0.43,0.45,0.83,0.75,1.2c0.16,0.2,0.25,0.46,0.37,0.69
				c0.05,0.1,0.13,0.19,0.17,0.29c0.03,0.09,0.04,0.2,0.02,0.29c-0.03,0.13-0.2,0.18-0.29,0.08c-0.16-0.17-0.3-0.37-0.44-0.55
				c-0.07-0.1-0.14-0.2-0.21-0.3c-0.09-0.14-0.18-0.29-0.27-0.43c-0.11-0.18-0.22-0.35-0.32-0.53c-0.13-0.23-0.24-0.47-0.36-0.7
				c-0.15-0.3-0.32-0.6-0.46-0.9c-0.14-0.32-0.25-0.65-0.38-0.97c-0.07-0.18-0.15-0.36-0.23-0.54c-0.03-0.08-0.08-0.15-0.09-0.23
				c-0.04-0.34-0.22-0.63-0.33-0.94c-0.2-0.57-0.53-1.06-0.86-1.56c-0.23-0.35-0.45-0.72-0.66-1.08c-0.17-0.3-0.44-0.48-0.69-0.7
				c-0.36-0.31-0.8-0.45-1.21-0.65c-0.28-0.14-0.56-0.29-0.84-0.44c-0.01-0.01-0.03-0.02-0.04-0.02c-0.27,0.06-0.45-0.13-0.66-0.23
				c-0.29-0.15-0.57-0.29-0.85-0.45c-0.29-0.16-0.58-0.32-0.87-0.48c-0.01-0.01-0.03-0.02-0.04-0.02c-0.3,0-0.5-0.23-0.75-0.35
				c-0.25-0.12-0.5-0.24-0.75-0.36c-0.37-0.18-0.74-0.38-1.13-0.53c-0.39-0.15-0.79-0.27-1.23-0.24c-0.26,0.02-0.53-0.03-0.79-0.02
				c-0.25,0.01-0.5,0.06-0.76,0.08c-0.18,0.02-0.36,0.01-0.55,0.02c-0.07,0-0.14,0.02-0.2,0.04c-0.27,0.1-0.54,0.2-0.82,0.29
				c-0.35,0.11-0.71,0.21-1.06,0.31c-0.24,0.07-0.47,0.13-0.71,0.19c-0.32,0.08-0.55,0.31-0.81,0.48c-0.19,0.13-0.39,0.25-0.57,0.39
				c-0.23,0.17-0.44,0.37-0.67,0.53c-0.15,0.1-0.32,0.17-0.48,0.26c-0.08,0.04-0.16,0.13-0.24,0.13c-0.28,0-0.46,0.22-0.66,0.35
				c-0.28,0.18-0.51,0.45-0.73,0.7c-0.16,0.18-0.27,0.4-0.4,0.6c-0.02,0.02-0.03,0.05-0.03,0.08c-0.03,0.16-0.05,0.31-0.25,0.36
				c-0.02,0-0.04,0.05-0.05,0.08c-0.2,0.4-0.38,0.8-0.59,1.19c-0.07,0.14-0.2,0.25-0.27,0.39c-0.17,0.35-0.33,0.7-0.48,1.06
				c-0.05,0.12-0.04,0.26-0.07,0.39c-0.04,0.16-0.07,0.33-0.14,0.47c-0.08,0.17-0.1,0.35-0.12,0.53c-0.02,0.13-0.07,0.25-0.09,0.37
				c-0.06,0.31-0.1,0.62-0.16,0.93c-0.04,0.2-0.11,0.39-0.17,0.58c-0.04,0.14-0.07,0.28-0.13,0.42c-0.11,0.24-0.25,0.47-0.35,0.71
				c-0.08,0.2-0.14,0.41-0.2,0.62c-0.08,0.29-0.13,0.59-0.21,0.88c-0.06,0.21-0.24,0.34-0.46,0.35c-0.2,0.01-0.41,0-0.6,0.03
				c-0.43,0.06-0.85,0.14-1.28,0.21c-0.51,0.08-1,0.31-1.53,0.28c-0.34-0.02-0.68-0.05-1.02-0.07C9.4,31.06,9.02,31.03,8.65,31
				c-0.44-0.03-0.88-0.07-1.32-0.1c-0.25-0.02-0.51-0.01-0.76-0.04c-0.17-0.02-0.34-0.08-0.52-0.11c-0.26-0.04-0.53-0.08-0.79-0.1
				c-0.11-0.01-0.22,0.05-0.34,0.05c-0.23,0.01-0.46,0.02-0.68,0.01c-0.13-0.01-0.22-0.09-0.27-0.22c-0.03-0.07-0.07-0.13-0.11-0.2
				c0.06-0.03,0.13-0.06,0.19-0.1c0.02-0.01,0.05-0.04,0.06-0.07c0.05-0.18,0.1-0.37,0.14-0.55c0.03-0.18,0.04-0.37,0.07-0.55
				c0.02-0.14,0.05-0.28,0.08-0.42c0.03-0.13,0.02-0.29,0.09-0.4c0.09-0.15,0.06-0.3,0.08-0.44c0.07-0.37,0.1-0.75,0.17-1.12
				C4.81,26.3,4.92,25.96,5,25.62c0.04-0.16,0.01-0.35,0.07-0.49c0.12-0.26,0.1-0.55,0.18-0.81c0.11-0.34,0.24-0.66,0.37-0.99
				c0-0.01,0.02-0.02,0.02-0.02c0.02-0.24,0.12-0.43,0.29-0.6c0.01-0.01,0.01-0.04,0.01-0.06C5.93,22.49,6,22.37,6.11,22.26
				c0.07-0.07,0.12-0.14,0.12-0.26c0-0.12,0.06-0.24,0.11-0.35c0.17-0.37,0.35-0.73,0.51-1.1c0.19-0.42,0.36-0.85,0.54-1.28
				c0.07-0.19,0.13-0.37,0.25-0.54c0.09-0.14,0.12-0.33,0.17-0.5c0.01-0.05,0.01-0.1,0.04-0.14c0.14-0.22,0.29-0.43,0.43-0.65
				c0.03-0.04,0.04-0.09,0.06-0.13C8.32,17.31,8.31,17.31,8.3,17.31z"/>
		</g>
		<g>
			<path d="M17.48,9.91c-0.08,0.06-0.15,0.13-0.23,0.18c-0.21,0.13-0.42,0.25-0.64,0.36c-0.13,0.07-0.28,0.11-0.41,0.17
				c-0.13,0.07-0.27,0.14-0.39,0.23c-0.1,0.07-0.19,0.12-0.31,0.07c-0.05-0.02-0.11,0-0.16,0.01c0.02,0.04,0.04,0.08,0.05,0.12
				c0,0.04,0,0.1-0.02,0.12c-0.22,0.18-0.4,0.4-0.71,0.47c-0.13,0.03-0.24,0.17-0.35,0.26c-0.1,0.07-0.19,0.16-0.29,0.22
				c-0.23,0.13-0.45,0.27-0.67,0.41c-0.34,0.22-0.64,0.51-0.97,0.73c-0.22,0.15-0.41,0.32-0.62,0.47c-0.04,0.03-0.15,0.06-0.17,0.03
				c-0.04-0.05-0.07-0.14-0.05-0.19c0.03-0.09,0.1-0.17,0.16-0.25c0.09-0.12,0.19-0.24,0.29-0.34c0.22-0.21,0.44-0.43,0.68-0.62
				c0.23-0.17,0.48-0.32,0.73-0.46c0.29-0.16,0.56-0.34,0.81-0.56c0.04-0.03,0.12-0.06,0.16-0.05c0.23,0.06,0.39-0.05,0.48-0.21
				c0.13-0.24,0.33-0.37,0.55-0.5c0.19-0.11,0.35-0.27,0.53-0.4c0.1-0.07,0.22-0.12,0.33-0.18c0.3-0.14,0.6-0.28,0.9-0.41
				c0.16-0.07,0.33-0.12,0.5-0.17c0.3-0.1,0.6-0.19,0.9-0.28c0.43-0.14,0.87-0.27,1.3-0.41c0.32-0.11,0.63-0.22,0.94-0.35
				c0.13-0.05,0.24-0.14,0.35-0.21c0.19-0.12,0.38-0.23,0.56-0.35c0.07-0.05,0.15-0.1,0.18-0.17c0.06-0.13,0.18-0.14,0.29-0.18
				c0.14-0.05,0.27-0.12,0.41-0.16c0.09-0.03,0.19-0.06,0.29-0.07c0.43-0.07,0.86-0.13,1.29-0.21c0.14-0.02,0.27-0.09,0.4-0.14
				c0.13-0.05,0.25-0.1,0.38-0.15c0.21-0.07,0.41-0.15,0.65-0.16c0.21-0.01,0.42-0.07,0.63-0.11c0.24-0.04,0.48-0.07,0.72-0.12
				c0.07-0.01,0.15-0.04,0.19-0.09c0.12-0.17,0.29-0.18,0.47-0.2c0.18-0.02,0.35-0.07,0.53-0.08c0.14-0.01,0.29,0.01,0.44,0.02
				C28.73,6,28.9,5.99,29.07,6c0.45,0.03,0.88,0.11,1.29,0.29c0.15,0.06,0.32,0.07,0.48,0.1c0.42,0.08,0.85,0.14,1.27,0.25
				c0.25,0.06,0.48,0.18,0.75,0.16c0.25-0.02,0.44,0.15,0.68,0.17c0.37,0.03,0.74,0.17,1.11,0.19c0.34,0.02,0.65,0.13,0.96,0.25
				c0.28,0.11,0.54,0.26,0.81,0.39c0.19,0.09,0.39,0.18,0.58,0.28c0.28,0.14,0.55,0.28,0.83,0.42c0.26,0.13,0.46,0.32,0.67,0.51
				c0.15,0.14,0.38,0.19,0.57,0.28c0.14,0.06,0.28,0.12,0.42,0.19c0.26,0.12,0.52,0.23,0.77,0.36c0.13,0.06,0.24,0.15,0.36,0.23
				c0.34,0.22,0.68,0.43,1.01,0.67c0.37,0.26,0.72,0.54,1.08,0.82c0.29,0.23,0.58,0.48,0.86,0.73c0.06,0.05,0.09,0.14,0.14,0.21
				c0.16,0.27,0.33,0.54,0.49,0.8c0.01,0.01,0.01,0.03,0.02,0.04c0.26,0.21,0.34,0.55,0.53,0.81c0.02,0.02,0.03,0.05,0.03,0.08
				c0.02,0.15,0.09,0.26,0.2,0.38c0.11,0.12,0.17,0.29,0.25,0.44c0.13,0.22,0.26,0.44,0.38,0.66c0.12,0.22,0.22,0.45,0.34,0.67
				c0.07,0.14,0.16,0.27,0.24,0.4c0.04,0.07,0.08,0.15,0.12,0.22c0.13,0.22,0.26,0.46,0.41,0.67c0.11,0.15,0.26,0.26,0.39,0.39
				c0.12,0.12,0.26,0.23,0.36,0.37c0.13,0.17,0.22,0.37,0.33,0.55c0.28,0.5,0.56,1,0.83,1.5c0.12,0.22,0.19,0.46,0.31,0.68
				c0.09,0.18,0.21,0.34,0.32,0.52c0.03,0.06,0.05,0.12,0.07,0.19c0.02,0.05,0.02,0.11,0.04,0.16c0.2,0.53,0.39,1.07,0.61,1.59
				c0.18,0.42,0.35,0.85,0.6,1.24c0.08,0.13,0.05,0.34,0.07,0.51c0,0.03-0.01,0.06,0.01,0.08c0.23,0.25,0.21,0.58,0.3,0.87
				c0.05,0.18,0.1,0.36,0.15,0.53c0.02,0.07,0.04,0.13,0.06,0.2c0.01,0.06,0.01,0.13,0.04,0.17c0.22,0.26,0.27,0.6,0.38,0.9
				c0.15,0.41,0.32,0.83,0.35,1.29c0.01,0.14,0.02,0.29,0.14,0.42c0.08,0.08,0.11,0.27,0.07,0.37c-0.04,0.11-0.19,0.18-0.29,0.26
				c-0.02,0.01-0.08-0.02-0.12-0.04c-0.2-0.13-0.24-0.35-0.31-0.55c-0.05-0.16-0.08-0.34-0.11-0.5c-0.02-0.08-0.02-0.17-0.04-0.25
				c-0.02-0.08-0.05-0.16-0.08-0.24c-0.01-0.02-0.02-0.04-0.02-0.06c-0.03-0.25-0.12-0.48-0.23-0.7c-0.13-0.29-0.21-0.61-0.32-0.91
				c-0.02-0.06-0.06-0.12-0.09-0.18c-0.05-0.1-0.09-0.21-0.14-0.31c-0.02-0.05-0.06-0.1-0.08-0.15c-0.04-0.07-0.09-0.15,0.03-0.21
				c0.01-0.01,0.01-0.05,0.01-0.08c-0.14,0-0.17-0.05-0.18-0.2c-0.02-0.31-0.11-0.63-0.21-0.93c-0.16-0.46-0.35-0.91-0.53-1.36
				c-0.08-0.19-0.22-0.36-0.27-0.56c-0.09-0.33-0.27-0.64-0.28-1c0-0.04-0.03-0.09-0.06-0.13c-0.14-0.28-0.28-0.56-0.41-0.85
				c-0.04-0.09-0.06-0.19-0.14-0.27c-0.21-0.2-0.26-0.49-0.4-0.73c-0.15-0.27-0.32-0.53-0.46-0.8c-0.19-0.4-0.56-0.67-0.82-1.01
				c-0.08-0.1-0.14-0.22-0.21-0.33c-0.07-0.09-0.15-0.17-0.22-0.27c-0.24-0.36-0.53-0.69-0.71-1.08c-0.15-0.34-0.34-0.65-0.52-0.97
				c-0.07-0.13-0.13-0.27-0.2-0.39c-0.14-0.24-0.28-0.49-0.42-0.73c-0.12-0.22-0.24-0.44-0.36-0.66c-0.09-0.16-0.18-0.3-0.26-0.46
				c-0.04-0.1-0.05-0.21-0.08-0.31c0-0.02-0.01-0.04-0.02-0.05c-0.29-0.29-0.54-0.63-0.91-0.85c-0.24-0.15-0.45-0.34-0.67-0.52
				c-0.21-0.18-0.4-0.38-0.61-0.56c-0.11-0.09-0.23-0.17-0.35-0.24c-0.28-0.17-0.56-0.35-0.85-0.51c-0.15-0.09-0.33-0.13-0.47-0.23
				c-0.37-0.27-0.8-0.41-1.2-0.61c-0.13-0.07-0.28-0.12-0.38-0.22c-0.3-0.3-0.66-0.47-1.04-0.61c-0.32-0.12-0.6-0.32-0.89-0.48
				c-0.43-0.25-0.88-0.47-1.37-0.57c-0.09-0.02-0.19-0.03-0.28-0.03c-0.54-0.03-1.07-0.17-1.6-0.28c-0.39-0.08-0.79-0.19-1.19-0.22
				c-0.37-0.03-0.68-0.19-1.02-0.28c-0.34-0.09-0.68-0.21-1.02-0.28c-0.31-0.06-0.64-0.07-0.96-0.1c-0.12-0.01-0.25-0.01-0.37-0.02
				c-0.32-0.02-0.59,0.11-0.83,0.28c-0.15,0.11-0.3,0.13-0.45,0.16c-0.33,0.07-0.67,0.09-0.99,0.2c-0.26,0.09-0.52,0.07-0.78,0.11
				C25,7.33,24.68,7.41,24.36,7.5c-0.35,0.1-0.69,0.21-1.04,0.32c-0.01,0-0.03,0.01-0.04,0.01c-0.25,0-0.49,0.02-0.72,0.12
				C22.29,8.05,22,8.08,21.77,8.27c-0.17,0.14-0.35,0.28-0.53,0.4c-0.12,0.07-0.27,0.1-0.41,0.15c-0.06,0.02-0.12,0.04-0.18,0.07
				c-0.11,0.06-0.2,0.13-0.31,0.19c-0.55,0.29-1.13,0.47-1.73,0.61c-0.34,0.08-0.66,0.22-0.99,0.32c-0.04,0.01-0.09-0.04-0.14-0.06
				C17.48,9.95,17.48,9.93,17.48,9.91z"/>
		</g>
	</g>
</g>
</svg>
