<?xml version="1.0" encoding="utf-8"?>
<!-- Generator: Adobe Illustrator 25.4.1, SVG Export Plug-In . SVG Version: 6.00 Build 0)  -->
<svg version="1.1" id="Layer_1" xmlns="http://www.w3.org/2000/svg" xmlns:xlink="http://www.w3.org/1999/xlink" x="0px" y="0px"
	 viewBox="0 0 58.36 52.86" style="enable-background:new 0 0 58.36 52.86;" xml:space="preserve">
<g>
	<g>
		<path d="M54.98,52.43c0-1.63,2.1-2,2.1-2.86c0-0.3-0.23-0.54-0.58-0.54c-0.37,0-0.61,0.24-0.62,0.57h-0.95
			c0.01-0.85,0.67-1.36,1.57-1.36c0.88,0,1.5,0.49,1.5,1.25c0,1.19-1.61,1.62-2,2.45h2.05v0.82h-3.08V52.43z"/>
	</g>
	<g>
		<circle cx="52.97" cy="46.46" r="1.8"/>
	</g>
	<g>
		<path d="M1.7,52.86c-0.97,0-1.64-0.51-1.65-1.38h0.97c0.01,0.36,0.26,0.59,0.68,0.59c0.4,0,0.68-0.24,0.68-0.61
			c0-0.37-0.27-0.59-0.71-0.59H1.32v-0.78H1.7c0.34,0,0.58-0.21,0.58-0.54c0-0.31-0.24-0.51-0.58-0.51c-0.35,0-0.61,0.22-0.62,0.57
			H0.11c0-0.81,0.66-1.36,1.59-1.36c0.88,0,1.49,0.44,1.49,1.13c0,0.43-0.29,0.74-0.74,0.9c0.56,0.17,0.89,0.58,0.89,1.22
			C3.33,52.35,2.66,52.86,1.7,52.86z"/>
	</g>
	<g>
		<circle cx="5.58" cy="46.46" r="1.8"/>
	</g>
	<g>
		<path d="M2.87,19.39h0.63v0.77H2.87v0.69H1.96v-0.69H0v-0.68l1.65-3.05h1.22V19.39z M1.96,18.31c0-0.3,0-0.61,0.01-0.89
			c-0.11,0.23-0.25,0.5-0.4,0.77l-0.25,0.45c-0.15,0.28-0.3,0.54-0.45,0.76c0.25-0.02,0.51-0.02,0.79-0.02h0.3V18.31z"/>
	</g>
	<g>
		<circle cx="5.58" cy="14.55" r="1.8"/>
	</g>
	<g>
		<path d="M55.83,16.43h0.93v4.42h-0.97v-2.94h-0.86v-0.73h0.42c0.31,0,0.47-0.09,0.47-0.49V16.43z"/>
	</g>
	<g>
		<circle cx="52.97" cy="14.55" r="1.8"/>
	</g>
	<g>
		<path d="M56.79,4.61c-1.1,0-1.73-0.74-1.73-2.31C55.06,0.7,55.78,0,56.8,0c0.88,0,1.45,0.55,1.48,1.36h-0.97
			c-0.01-0.35-0.21-0.57-0.56-0.57c-0.45,0-0.74,0.42-0.74,1.52c0,0.02,0,0.04,0,0.06c0.2-0.44,0.58-0.67,1.06-0.67
			c0.75,0,1.29,0.53,1.29,1.43C58.36,4.01,57.77,4.61,56.79,4.61z M56.75,2.44c-0.4,0-0.65,0.28-0.65,0.69
			c0,0.41,0.25,0.69,0.65,0.69c0.39,0,0.64-0.29,0.64-0.69C57.39,2.72,57.14,2.44,56.75,2.44z"/>
	</g>
	<g>
		<circle cx="52.97" cy="5.71" r="1.8"/>
	</g>
	<g>
		<circle cx="10.45" cy="10.13" r="1.8"/>
	</g>
	<g>
		<circle cx="16.06" cy="10.13" r="1.8"/>
	</g>
	<g>
		<circle cx="21.67" cy="10.13" r="1.8"/>
	</g>
	<g>
		<path d="M0.25,2.72L0.52,0.1h2.51v0.82H1.31L1.26,1.45c-0.03,0.3-0.05,0.48-0.08,0.62c0.21-0.28,0.52-0.4,0.9-0.4
			c0.71,0,1.26,0.54,1.26,1.45c0,0.9-0.72,1.49-1.64,1.49c-0.9,0-1.59-0.42-1.61-1.36h0.97c0.01,0.38,0.28,0.57,0.64,0.57
			c0.4,0,0.68-0.3,0.68-0.7c0-0.41-0.27-0.71-0.68-0.71c-0.25,0-0.43,0.11-0.56,0.32H0.25z"/>
	</g>
	<g>
		<circle cx="5.58" cy="5.71" r="1.8"/>
	</g>
	<g>
		<path d="M52.97,15.01c-0.25,0-0.46-0.21-0.46-0.46V5.71c0-0.25,0.21-0.46,0.46-0.46c0.25,0,0.46,0.21,0.46,0.46v8.83
			C53.43,14.8,53.22,15.01,52.97,15.01z"/>
	</g>
	<g>
		<path d="M52.97,15.01H5.58c-0.25,0-0.46-0.21-0.46-0.46c0-0.25,0.21-0.46,0.46-0.46h47.39c0.25,0,0.46,0.21,0.46,0.46
			C53.43,14.8,53.22,15.01,52.97,15.01z"/>
	</g>
	<g>
		<g>
			<path d="M28.92,48.35c-0.1-0.01-0.2-0.04-0.31-0.04c-0.77,0.03-1.53-0.08-2.29-0.23c-0.56-0.12-1.15-0.12-1.72-0.21
				c-0.55-0.08-1.09-0.14-1.65-0.11c-0.53,0.03-1.06,0.07-1.59,0.08c-0.48,0.01-0.95-0.02-1.43-0.05c-0.42-0.03-0.85-0.08-1.27-0.12
				c-0.05-0.01-0.12-0.02-0.16-0.05c-0.44-0.3-0.96-0.2-1.44-0.29c-0.41-0.07-0.81-0.18-1.22-0.25c-0.44-0.08-0.88-0.15-1.32-0.21
				c-0.59-0.07-1.19-0.07-1.77-0.18c-0.71-0.14-1.43-0.13-2.15-0.16c-0.36-0.01-0.71-0.05-1.07-0.04c-0.59,0.03-1.17,0.1-1.76,0.13
				c-0.47,0.03-0.95,0.03-1.42,0.03c-0.39,0-0.79,0-1.18-0.03c-0.33-0.02-0.43-0.15-0.46-0.48c-0.01-0.18-0.04-0.35-0.05-0.53
				C4.65,45.18,4.6,44.74,4.6,44.3c0-0.73,0.02-1.46,0.04-2.18c0.02-0.8,0.11-1.59,0.28-2.37c0.11-0.48,0.15-0.98,0.22-1.47
				c0.05-0.34,0.12-0.67,0.16-1.01c0.03-0.22,0.04-0.45,0.05-0.67c0.02-0.67,0.03-1.34,0.04-2.02c0-0.11-0.02-0.22-0.02-0.34
				c0-0.57,0.01-1.13,0.01-1.7c0-0.13-0.03-0.27-0.02-0.4c0.03-0.43,0.08-0.85,0.11-1.28c0.02-0.41,0.04-0.83,0.03-1.24
				c0-0.25-0.04-0.5-0.05-0.75c-0.05-0.8-0.09-1.59-0.13-2.39C5.28,25.99,5.27,25.5,5.22,25c-0.07-0.67-0.19-1.34-0.27-2.01
				c-0.05-0.41-0.04-0.83-0.07-1.24c-0.01-0.2-0.05-0.4-0.09-0.6c-0.03-0.17-0.05-0.31,0.04-0.48c0.08-0.14,0.09-0.34,0.09-0.51
				c0-0.63-0.01-1.26-0.02-1.89c0-0.08,0.03-0.17,0.04-0.25c0.02-0.28,0.02-0.57,0.05-0.85C5,16.88,5.04,16.59,5.07,16.3
				c0.01-0.08,0.05-0.18,0.01-0.24c-0.12-0.23-0.07-0.46-0.08-0.7c-0.02-0.53-0.06-1.06-0.1-1.59c-0.03-0.35-0.05-0.71-0.11-1.06
				c-0.04-0.23-0.16-0.44-0.09-0.69c0.06-0.19,0.12-0.37,0.14-0.56c0.04-0.33,0.05-0.66,0.07-0.99c0.02-0.62,0.06-1.23,0.06-1.85
				c0-0.64-0.05-1.29-0.08-1.93C4.87,6.46,4.8,6.25,4.81,6.04c0.01-0.12,0.1-0.27,0.19-0.34C5.18,5.56,5.4,5.63,5.45,5.85
				c0.07,0.3,0.1,0.62,0.11,0.93c0.02,0.71,0,1.42,0.01,2.12c0,0.46,0.04,0.91,0.03,1.37c-0.01,0.46-0.05,0.92-0.08,1.38
				c-0.04,0.56,0.06,1.11,0.14,1.66c0.04,0.27,0.12,0.54,0.14,0.81c0.02,0.21-0.03,0.42-0.03,0.62c0.01,0.49,0.03,0.97,0.04,1.46
				c0,0.26-0.02,0.52-0.04,0.77c-0.04,0.68-0.1,1.35-0.13,2.03c-0.02,0.57,0,1.14,0,1.71c0,0.62-0.02,1.24,0.01,1.86
				c0.02,0.42,0.11,0.83,0.15,1.24c0.04,0.43,0.06,0.86,0.09,1.3c0.06,0.81,0.12,1.63,0.16,2.44c0.04,0.66,0.05,1.33,0.07,1.99
				c0,0.13,0.02,0.27,0.01,0.4c-0.04,0.54-0.1,1.07-0.11,1.6c-0.02,0.67,0.01,1.33,0.01,2c0,0.46-0.01,0.92-0.01,1.39
				c0,0.16-0.01,0.32-0.01,0.48c0,0.58,0,1.16,0,1.74c0,0.44-0.08,0.85-0.21,1.27c-0.13,0.42-0.17,0.87-0.3,1.29
				c-0.16,0.52-0.08,1.06-0.14,1.58c-0.04,0.33-0.15,0.65-0.23,0.98c-0.01,0.05-0.01,0.11-0.01,0.17c0.03,0.45,0.07,0.9,0.09,1.35
				c0,0.08-0.05,0.17-0.07,0.25c-0.01,0.06-0.02,0.13-0.01,0.2c0.07,0.33,0.15,0.65,0.22,0.98c0.02,0.09-0.01,0.2,0.03,0.29
				c0.1,0.25,0.31,0.32,0.56,0.31c0.6-0.02,1.21-0.03,1.81-0.07c0.57-0.04,1.13-0.15,1.69-0.16c0.64-0.01,1.28,0.01,1.9,0.13
				c0.32,0.06,0.58-0.07,0.88-0.01c0.63,0.12,1.27,0.18,1.91,0.26c0.35,0.04,0.71,0.06,1.06,0.1c0.12,0.01,0.24,0.07,0.36,0.09
				c0.5,0.08,1,0.16,1.49,0.25c0.21,0.04,0.42,0.1,0.63,0.14c0.42,0.07,0.83,0.13,1.25,0.2c0.05,0.01,0.1,0.01,0.14,0.04
				c0.2,0.17,0.43,0.15,0.67,0.14c0.56-0.02,1.13,0,1.69,0c0.42,0,0.85-0.01,1.27-0.01c0.39,0,0.78-0.02,1.17,0
				c0.34,0.02,0.69,0.09,1.03,0.14c0.44,0.06,0.88,0.14,1.32,0.19c0.74,0.08,1.48,0.17,2.22,0.2c0.5,0.02,1.02,0.16,1.52-0.03
				c0.69,0.09,1.32-0.26,1.99-0.26c0.3,0,0.61-0.04,0.91-0.08c0.15-0.02,0.3-0.1,0.46-0.12c0.73-0.1,1.46-0.21,2.19-0.29
				c0.68-0.08,1.36-0.15,2.04-0.18c0.55-0.03,1.1,0,1.66,0.01c1.05,0,2.1,0.01,3.16-0.01c0.73-0.01,1.46-0.05,2.19-0.08
				c0.26-0.01,0.51-0.04,0.77-0.05c0.09,0,0.19,0.04,0.28,0.05c0.06,0.01,0.13,0.01,0.19,0.01c0.16,0,0.32-0.02,0.48,0
				c0.88,0.09,1.74-0.07,2.61-0.2c0.38-0.06,0.78-0.04,1.17-0.05c0.03,0,0.06,0.02,0.08,0.01c0.47-0.25,1-0.1,1.49-0.27
				c0.25-0.09,0.55-0.06,0.82-0.09c0.19-0.02,0.38-0.03,0.56-0.06c0.17-0.03,0.44-0.44,0.44-0.64c0-0.24,0.06-0.49,0-0.7
				c-0.08-0.29,0.03-0.5,0.13-0.75c0.08-0.21,0.07-0.45,0.1-0.67c0.03-0.18,0.06-0.36,0.08-0.54c0.02-0.12-0.06-0.27,0.1-0.37
				c0.03-0.02-0.03-0.2-0.07-0.3c-0.03-0.08-0.11-0.14-0.11-0.22c-0.02-0.57-0.17-1.13-0.02-1.71c0.02-0.09-0.02-0.19-0.02-0.29
				c0-0.59-0.01-1.18,0.01-1.77c0.02-0.67,0.17-1.34,0.04-2.03c-0.09-0.49-0.07-0.99-0.15-1.48c-0.12-0.76-0.13-1.52-0.17-2.28
				c-0.03-0.56-0.14-1.11-0.15-1.67c-0.01-0.59,0.06-1.19,0.08-1.78c0.01-0.35-0.03-0.69-0.06-1.04c-0.01-0.19-0.04-0.39-0.07-0.58
				c-0.04-0.22-0.12-0.44-0.15-0.67c-0.04-0.25-0.07-0.5-0.09-0.75c-0.04-0.54-0.07-1.09-0.09-1.64c0-0.1,0.04-0.2,0.06-0.3
				c0.01-0.09,0.02-0.18,0-0.26c-0.04-0.22-0.13-0.44-0.14-0.66c-0.06-0.7-0.05-1.4-0.14-2.1C52.57,20,52.64,19.4,52.7,18.8
				c0.02-0.21,0.07-0.42,0.1-0.63c0.01-0.05,0.02-0.13-0.01-0.16c-0.15-0.16-0.12-0.31-0.05-0.5c0.05-0.13,0-0.3-0.01-0.46
				c-0.02-0.28-0.06-0.55-0.08-0.83c-0.01-0.28,0.06-0.58-0.01-0.84c-0.07-0.26-0.06-0.5-0.07-0.75c0-0.06-0.09-0.12-0.13-0.18
				c-0.1-0.14-0.21-0.28-0.08-0.47c0.02-0.03,0.02-0.09,0.01-0.13c-0.02-0.06-0.06-0.11-0.09-0.17c-0.18-0.3-0.13-0.58,0.14-0.79
				c0.04-0.03,0.16-0.04,0.19-0.01c0.1,0.13,0.2,0.26,0.26,0.41c0.12,0.26,0.21,0.53,0.31,0.79c0.02,0.06,0.07,0.13,0.07,0.2
				c0.02,0.32,0.04,0.65,0.04,0.98c0.02,0.63-0.01,1.26,0.05,1.89c0.08,0.88-0.01,1.75-0.04,2.62c-0.01,0.38-0.04,0.77,0.11,1.14
				c0.02,0.06,0.01,0.14,0.01,0.21c0.01,0.66,0.02,1.31,0.04,1.97c0.01,0.39,0.04,0.78,0.06,1.17c0,0.02,0,0.05,0.01,0.06
				c0.21,0.11,0.1,0.28,0.1,0.44c0.01,0.27,0.07,0.55,0.11,0.82c0,0.03,0.01,0.06,0.01,0.08c0.01,0.65,0.1,1.29,0.24,1.92
				c0.07,0.31,0.01,0.65,0.01,0.98c0,0.62-0.01,1.23-0.01,1.85c0,0.18,0,0.37,0.01,0.55c0.03,0.3,0.06,0.59,0.1,0.89
				c0.02,0.17,0.05,0.34,0.07,0.52c0.05,0.44,0.09,0.89,0.13,1.33c0.04,0.37,0.09,0.73,0.12,1.1c0.04,0.41,0.06,0.82,0.08,1.24
				c0.01,0.17-0.02,0.34-0.01,0.5c0,0.14,0.03,0.28,0.02,0.41c-0.01,0.33-0.04,0.66-0.06,0.99c0,0.04-0.02,0.08-0.02,0.12
				c-0.01,0.43-0.05,0.85-0.04,1.28c0.02,0.71,0.08,1.42,0.12,2.13c0,0.04,0.05,0.07,0.08,0.11c0,0.24,0,0.48,0,0.72
				c-0.02,0.16-0.04,0.32-0.07,0.48c-0.06,0.35-0.13,0.69-0.18,1.04c-0.04,0.25-0.07,0.5-0.07,0.75c0,0.39-0.19,0.79,0.11,1.17
				c0.16,0.21,0.09,0.38-0.13,0.48c-0.25,0.11-0.52,0.2-0.78,0.28c-0.25,0.08-0.5,0.15-0.76,0.21c-0.18,0.04-0.36,0.04-0.55,0.05
				c-0.15,0.01-0.29,0-0.44,0.02c-0.34,0.07-0.68,0.19-1.02,0.22c-0.82,0.08-1.64,0.11-2.45,0.17c-0.3,0.02-0.59,0.08-0.89,0.1
				c-0.3,0.02-0.6,0.02-0.9,0.03c-0.1,0-0.22,0.02-0.31-0.02c-0.57-0.23-1.17-0.1-1.75-0.09c-0.58,0.01-1.17,0.12-1.75,0.14
				c-0.62,0.02-1.25-0.03-1.87-0.03c-0.55-0.01-1.09-0.01-1.64,0c-0.33,0-0.66,0.03-0.98,0.03c-0.24,0-0.48-0.05-0.72-0.03
				c-0.74,0.07-1.48,0.15-2.22,0.25c-0.47,0.06-0.94,0.16-1.42,0.23c-0.47,0.07-0.94,0.13-1.4,0.19c-0.45,0.06-0.9,0.11-1.35,0.16
				c-0.39,0.05-0.79,0.1-1.18,0.13c-0.29,0.03-0.58,0.03-0.88,0.04C28.98,48.35,28.95,48.35,28.92,48.35z"/>
		</g>
		<g>
			<path d="M41.93,5.35c-0.02,0.2-0.19,0.18-0.31,0.19c-0.4,0.04-0.81,0.07-1.22,0.09c-0.7,0.04-1.4,0.06-2.1,0.13
				c-0.32,0.03-0.63,0.19-0.95,0.24c-0.43,0.07-0.87,0.12-1.31,0.13c-0.8,0.01-1.6-0.03-2.4-0.03c-1-0.01-2.01,0-3.01,0
				c-1.08,0-2.16,0.02-3.24,0C26.76,6.08,26.13,6,25.5,5.95c-0.25-0.02-0.5-0.03-0.75-0.06c-0.51-0.06-1.02-0.14-1.54-0.19
				c-0.5-0.05-0.99-0.09-1.49-0.1c-0.53-0.02-1.06-0.02-1.6,0c-0.51,0.01-1.02,0.08-1.53,0.08c-0.45-0.01-0.9-0.08-1.35-0.13
				c-0.4-0.04-0.81-0.09-1.21-0.11c-0.68-0.04-1.36-0.12-2.04-0.09C13,5.4,12.01,5.53,11.02,5.63c-0.44,0.05-0.86,0.03-1.29-0.05
				C9.42,5.53,9.11,5.56,8.8,5.55c-0.47,0-0.94,0.01-1.4-0.01C6.89,5.52,6.38,5.47,5.87,5.43c-0.05,0-0.1-0.01-0.15-0.02
				c-0.15-0.02-0.33-0.07-0.3-0.25C5.45,5.03,5.58,4.9,5.7,4.83C5.79,4.78,5.94,4.78,6.05,4.8C6.83,4.95,7.62,4.86,8.4,4.85
				c0.41,0,0.83,0.01,1.24-0.01c0.83-0.04,1.66-0.09,2.49-0.13c0.77-0.04,1.54-0.11,2.31-0.11c0.78,0,1.56,0.01,2.33,0.12
				c0.88,0.12,1.76,0.12,2.65,0.11c0.78-0.01,1.56-0.06,2.33-0.07c0.25,0,0.5,0.08,0.76,0.11c0.25,0.03,0.5,0.03,0.75,0.03
				c0.39,0.01,0.79-0.01,1.18,0.04c0.65,0.07,1.3,0.2,1.95,0.28c0.39,0.05,0.78,0.05,1.17,0.08c0.16,0.01,0.31,0.03,0.47,0.05
				c0.05,0,0.1,0.01,0.15-0.01c0.6-0.22,1.2-0.08,1.81-0.07c0.18,0,0.35,0.03,0.52,0.03c0.94,0,1.88,0,2.82,0
				c0.58,0,1.16,0.04,1.75,0.03c0.35,0,0.7-0.06,1.05-0.08c0.31-0.02,0.63-0.01,0.94-0.04c0.12-0.01,0.24-0.08,0.36-0.13
				c0.06-0.02,0.11-0.06,0.17-0.07c0.74-0.05,1.48-0.09,2.22-0.14c0.05,0,0.1-0.01,0.14-0.02c0.29-0.03,0.58-0.07,0.87-0.09
				c0.36-0.02,0.73-0.05,1.09-0.03c0.57,0.03,1.14,0.1,1.71,0.15c0.18,0.02,0.36,0.01,0.54,0.01c0.47,0,0.94-0.01,1.4-0.03
				c0.31-0.01,0.61-0.06,0.92-0.08c0.34-0.02,0.69-0.02,1.03-0.05c0.52-0.05,1.04-0.15,1.56-0.19c0.63-0.04,1.26-0.07,1.88,0.08
				c0.58,0.14,1.16,0.25,1.74,0.37c0.31,0.07,0.4,0.37,0.2,0.62c-0.26,0.33-0.51,0.35-0.89,0.18c-0.49-0.22-1-0.36-1.54-0.39
				C50,5.39,49.51,5.33,49.03,5.37c-0.72,0.06-1.42,0.22-2.14,0.29c-0.57,0.05-1.15,0.05-1.72,0.04c-0.37-0.01-0.74-0.08-1.11-0.1
				c-0.13-0.01-0.27,0.04-0.41,0.05c-0.15,0.01-0.31,0.02-0.46,0.01c-0.31-0.03-0.61-0.07-0.91-0.11
				C42.14,5.53,41.98,5.56,41.93,5.35z"/>
		</g>
	</g>
	<g>
		<path d="M34.83,37.64c-0.12,0-0.24-0.05-0.33-0.14c-0.18-0.18-0.18-0.47,0-0.65l6.32-6.35l-6.32-6.35c-0.18-0.18-0.18-0.47,0-0.65
			c0.18-0.18,0.47-0.18,0.65,0l6.65,6.68c0.18,0.18,0.18,0.47,0,0.65l-6.65,6.68C35.07,37.6,34.95,37.64,34.83,37.64z"/>
	</g>
	<g>
		<path d="M23.7,37.64c-0.12,0-0.24-0.05-0.33-0.14l-6.65-6.68c-0.18-0.18-0.18-0.47,0-0.65l6.65-6.68c0.18-0.18,0.47-0.18,0.65,0
			c0.18,0.18,0.18,0.47,0,0.65L17.7,30.5l6.32,6.35c0.18,0.18,0.18,0.47,0,0.65C23.93,37.6,23.81,37.64,23.7,37.64z"/>
	</g>
	<g>
		<path d="M27,37.64c-0.05,0-0.1-0.01-0.14-0.02c-0.24-0.08-0.38-0.34-0.3-0.58l4.36-13.36c0.08-0.24,0.34-0.38,0.58-0.3
			c0.24,0.08,0.38,0.34,0.3,0.58l-4.36,13.36C27.37,37.52,27.19,37.64,27,37.64z"/>
	</g>
</g>
</svg>
