<?xml version="1.0" encoding="utf-8"?>
<!-- Generator: Adobe Illustrator 25.4.1, SVG Export Plug-In . SVG Version: 6.00 Build 0)  -->
<svg version="1.1" id="Layer_1" xmlns="http://www.w3.org/2000/svg" xmlns:xlink="http://www.w3.org/1999/xlink" x="0px" y="0px"
	 viewBox="0 0 57.32 58.77" style="enable-background:new 0 0 57.32 58.77;" xml:space="preserve">
<g>
	<g>
		<path d="M28.85,52.93c-0.25,0-0.46-0.21-0.46-0.46c0-0.25,0.21-0.46,0.46-0.46c6.11,0,11.85-2.4,16.14-6.75
			c0.18-0.18,0.47-0.18,0.65,0s0.18,0.47,0,0.65C41.18,50.43,35.21,52.93,28.85,52.93z"/>
	</g>
	<g>
		<path d="M12.3,45.96c-0.12,0-0.23-0.04-0.32-0.13c-0.18-0.18-0.19-0.47-0.01-0.65c4.48-4.59,10.47-7.11,16.88-7.11
			c6.3,0,12.23,2.45,16.68,6.91c0.18,0.18,0.18,0.47,0,0.65c-0.18,0.18-0.47,0.18-0.65,0c-4.28-4.28-9.97-6.64-16.03-6.64
			c-6.16,0-11.92,2.43-16.22,6.83C12.54,45.91,12.42,45.96,12.3,45.96z"/>
	</g>
	<g>
		<path d="M51.98,29.8H5.72c-0.25,0-0.46-0.21-0.46-0.46c0-0.25,0.21-0.46,0.46-0.46h46.25c0.25,0,0.46,0.21,0.46,0.46
			C52.44,29.59,52.23,29.8,51.98,29.8z"/>
	</g>
	<g>
		<path d="M28.85,52.93c-0.25,0-0.46-0.21-0.46-0.46V6.21c0-0.25,0.21-0.46,0.46-0.46c0.25,0,0.46,0.21,0.46,0.46v46.25
			C29.31,52.72,29.11,52.93,28.85,52.93z"/>
	</g>
	<g>
		<path d="M28.85,52.93c-6.87,0-12.45-10.58-12.45-23.59S21.98,5.75,28.85,5.75S41.3,16.33,41.3,29.34S35.72,52.93,28.85,52.93z
			 M28.85,6.67c-6.36,0-11.53,10.17-11.53,22.66S22.49,52,28.85,52s11.53-10.17,11.53-22.66S35.21,6.67,28.85,6.67z"/>
	</g>
	<g>
		<path d="M28.85,20.62c-6.41,0-12.4-2.52-16.88-7.11c-0.18-0.18-0.18-0.47,0.01-0.65c0.18-0.18,0.48-0.18,0.65,0.01
			c4.3,4.4,10.06,6.83,16.22,6.83c6.05,0,11.75-2.36,16.03-6.64c0.18-0.18,0.47-0.18,0.65,0s0.18,0.47,0,0.65
			C41.07,18.16,35.15,20.62,28.85,20.62z"/>
	</g>
	<g>
		<path d="M25.27,2.63L25.53,0h2.51v0.82h-1.72l-0.05,0.54c-0.03,0.3-0.05,0.48-0.08,0.62c0.21-0.28,0.52-0.4,0.9-0.4
			c0.71,0,1.26,0.54,1.26,1.45c0,0.9-0.72,1.49-1.64,1.49c-0.9,0-1.59-0.42-1.61-1.36h0.97c0.01,0.38,0.28,0.57,0.64,0.57
			c0.4,0,0.68-0.3,0.68-0.7c0-0.41-0.27-0.71-0.68-0.71c-0.25,0-0.43,0.11-0.56,0.32H25.27z"/>
	</g>
	<g>
		<path d="M49.54,13.28c-1.1,0-1.73-0.74-1.73-2.31c0-1.61,0.72-2.31,1.74-2.31c0.88,0,1.45,0.55,1.48,1.36h-0.97
			c-0.01-0.35-0.21-0.57-0.56-0.57c-0.45,0-0.74,0.42-0.74,1.52c0,0.02,0,0.04,0,0.06c0.2-0.44,0.58-0.67,1.06-0.67
			c0.75,0,1.3,0.53,1.3,1.43C51.12,12.68,50.53,13.28,49.54,13.28z M49.5,11.11c-0.4,0-0.65,0.28-0.65,0.69
			c0,0.41,0.25,0.69,0.65,0.69c0.39,0,0.64-0.29,0.64-0.69C50.15,11.39,49.9,11.11,49.5,11.11z"/>
	</g>
	<g>
		<path d="M56.51,27.48c-0.24,0.01-0.52,0.03-0.78,0.03H54.4v-0.79h2.91v0.88c-0.78,1.03-1.12,2.19-1.19,3.54h-1
			C55.22,29.87,55.67,28.57,56.51,27.48z"/>
	</g>
	<g>
		<path d="M46.17,51.22c0-0.6,0.32-1.01,0.83-1.21c-0.42-0.18-0.66-0.52-0.66-0.95c0-0.67,0.58-1.12,1.46-1.12
			c0.87,0,1.46,0.44,1.46,1.12c0,0.43-0.25,0.77-0.66,0.95c0.52,0.2,0.83,0.61,0.83,1.21c0,0.86-0.66,1.34-1.63,1.34
			C46.82,52.56,46.17,52.09,46.17,51.22z M48.46,51.17c0-0.4-0.3-0.6-0.66-0.6c-0.37,0-0.67,0.2-0.67,0.6c0,0.39,0.3,0.6,0.67,0.6
			C48.17,51.77,48.46,51.56,48.46,51.17z M48.36,49.26c0-0.35-0.25-0.52-0.56-0.52c-0.32,0-0.56,0.18-0.56,0.52
			c0,0.34,0.24,0.53,0.56,0.53C48.11,49.79,48.36,49.61,48.36,49.26z"/>
	</g>
	<g>
		<path d="M31.61,54.35h0.93v4.42h-0.97v-2.94h-0.86v-0.73h0.42c0.31,0,0.47-0.09,0.47-0.49V54.35z"/>
	</g>
	<g>
		<path d="M8.41,52.14c0-1.63,2.1-2,2.1-2.86c0-0.3-0.23-0.54-0.58-0.54c-0.36,0-0.61,0.24-0.62,0.57H8.37
			c0.01-0.85,0.67-1.36,1.57-1.36c0.88,0,1.5,0.49,1.5,1.25c0,1.19-1.61,1.62-2,2.45h2.05v0.82H8.41V52.14z"/>
	</g>
	<g>
		<path d="M1.65,31.69c-0.97,0-1.64-0.51-1.65-1.38h0.97c0.01,0.36,0.26,0.59,0.68,0.59c0.4,0,0.67-0.24,0.67-0.61
			c0-0.37-0.27-0.59-0.71-0.59H1.28v-0.78h0.38c0.33,0,0.58-0.21,0.58-0.54c0-0.31-0.24-0.51-0.58-0.51c-0.35,0-0.61,0.22-0.62,0.57
			H0.06c0-0.81,0.66-1.36,1.59-1.36c0.88,0,1.48,0.44,1.48,1.13c0,0.43-0.28,0.74-0.74,0.9c0.56,0.17,0.89,0.58,0.89,1.22
			C3.29,31.19,2.61,31.69,1.65,31.69z"/>
	</g>
	<g>
		<path d="M9.18,11.72h0.63v0.77H9.18v0.69H8.26V12.5H6.3v-0.68l1.65-3.05h1.22V11.72z M8.26,10.64c0-0.3,0-0.61,0.01-0.89
			c-0.11,0.23-0.25,0.5-0.4,0.77l-0.25,0.45c-0.15,0.28-0.3,0.54-0.45,0.76c0.25-0.02,0.51-0.02,0.79-0.02h0.3V10.64z"/>
	</g>
	<g>
		<circle cx="28.85" cy="6.21" r="1.8"/>
	</g>
	<g>
		<circle cx="45.2" cy="13.18" r="1.8"/>
	</g>
	<g>
		<circle cx="12.3" cy="13.18" r="1.8"/>
	</g>
	<g>
		<circle cx="51.98" cy="29.34" r="1.8"/>
	</g>
	<g>
		<circle cx="5.72" cy="29.34" r="1.8"/>
	</g>
	<g>
		<circle cx="45.2" cy="45.5" r="1.8"/>
	</g>
	<g>
		<circle cx="12.3" cy="45.5" r="1.8"/>
	</g>
	<g>
		<circle cx="28.75" cy="52.47" r="1.8"/>
	</g>
	<g>
		<g>
			<path d="M5.08,29.38c0.02-0.12,0.05-0.24,0.07-0.36c0.04-0.23,0.08-0.46,0.11-0.69c0.03-0.23,0.04-0.46,0.07-0.68
				c0.05-0.3,0.1-0.59,0.17-0.89c0.04-0.18,0.13-0.35,0.19-0.53c0.02-0.06,0.04-0.12,0.04-0.18c0.02-0.49,0.16-0.94,0.36-1.38
				c0.16-0.33,0.2-0.68,0.26-1.04c0.04-0.21,0.11-0.42,0.17-0.62c0.13-0.48,0.29-0.95,0.29-1.46c0-0.15,0.08-0.31,0.11-0.46
				c0.15-0.68,0.47-1.3,0.72-1.94c0.15-0.4,0.36-0.77,0.55-1.16c0.04-0.07,0.11-0.13,0.13-0.19c0.01-0.07,0-0.15,0.03-0.2
				c0.08-0.16,0.17-0.31,0.27-0.45c0.27-0.41,0.54-0.82,0.81-1.22c0.29-0.42,0.6-0.84,0.88-1.27c0.24-0.36,0.48-0.71,0.67-1.1
				c0.09-0.18,0.2-0.37,0.25-0.56c0.04-0.13,0.09-0.23,0.19-0.3c0.06-0.04,0.12-0.11,0.18-0.11c0.05,0,0.09,0.09,0.17,0.17
				c0.09-0.03,0.22-0.06,0.34-0.11c0.23-0.08,0.46-0.17,0.69-0.26c0.07-0.03,0.14-0.05,0.2-0.08c0.38-0.19,0.75-0.38,1.13-0.58
				c0.08-0.04,0.14-0.12,0.22-0.17c0.3-0.16,0.61-0.32,0.91-0.47c0.18-0.09,0.38-0.16,0.56-0.26c0.08-0.04,0.15-0.13,0.22-0.19
				c0.04-0.03,0.07-0.08,0.12-0.1c0.35-0.17,0.7-0.32,1.04-0.5c0.18-0.09,0.34-0.23,0.52-0.33c0.12-0.07,0.25-0.15,0.38-0.19
				c0.37-0.1,0.7-0.27,1.02-0.48c0.4-0.26,0.81-0.52,1.22-0.75c0.22-0.12,0.47-0.18,0.7-0.27c0.22-0.09,0.43-0.21,0.66-0.28
				c0.35-0.11,0.71-0.18,1.07-0.28c0.31-0.08,0.62-0.16,0.92-0.27c0.38-0.14,0.77-0.19,1.17-0.25c0.2-0.03,0.38-0.11,0.58-0.15
				c0.44-0.11,0.88-0.21,1.33-0.26c0.17-0.02,0.34-0.11,0.51-0.17c0.06-0.02,0.12-0.04,0.18-0.03c0.47,0.04,0.94,0.08,1.42,0.12
				c0.01,0.07,0.06,0.17,0.03,0.25c-0.03,0.08-0.12,0.19-0.19,0.21c-0.21,0.04-0.43,0.02-0.65,0.04C27.84,6.96,27.61,6.9,27.37,7
				c-0.2,0.08-0.43,0.07-0.65,0.11c-0.12,0.02-0.24,0.06-0.37,0.08c-0.18,0.04-0.37,0.06-0.55,0.1c-0.19,0.04-0.37,0.1-0.57,0.13
				c-0.22,0.04-0.46,0.05-0.68,0.1c-0.38,0.09-0.76,0.2-1.15,0.3c-0.16,0.04-0.32,0.06-0.49,0.09c-0.04,0.01-0.08,0.02-0.11,0.03
				C22.64,8,22.47,8.06,22.29,8.1c-0.34,0.09-0.68,0.17-0.97,0.39c-0.15,0.11-0.34,0.17-0.52,0.22c-0.57,0.18-1.04,0.54-1.54,0.84
				c-0.28,0.17-0.58,0.32-0.89,0.43c-0.33,0.12-0.62,0.29-0.9,0.48c-0.18,0.12-0.38,0.2-0.57,0.3c-0.31,0.17-0.62,0.34-0.94,0.51
				c-0.43,0.22-0.87,0.43-1.3,0.66c-0.12,0.06-0.22,0.18-0.34,0.25c-0.19,0.1-0.4,0.19-0.6,0.27c-0.16,0.07-0.32,0.12-0.47,0.19
				c-0.24,0.12-0.47,0.25-0.71,0.36c-0.25,0.12-0.53,0.18-0.71,0.43c-0.09,0.13-0.18,0.26-0.27,0.39c-0.23,0.34-0.47,0.69-0.7,1.03
				c-0.18,0.27-0.34,0.54-0.52,0.81c-0.22,0.31-0.45,0.62-0.67,0.93c-0.02,0.02-0.04,0.04-0.05,0.07c-0.3,0.51-0.63,1.01-0.9,1.54
				c-0.31,0.6-0.57,1.23-0.84,1.85c-0.14,0.32-0.27,0.65-0.39,0.99c-0.1,0.3-0.09,0.61-0.14,0.92c-0.05,0.34-0.11,0.68-0.19,1.01
				c-0.06,0.22-0.16,0.42-0.25,0.63c-0.09,0.19-0.17,0.36-0.16,0.59c0.02,0.27-0.04,0.57-0.15,0.82c-0.24,0.56-0.36,1.14-0.5,1.73
				c-0.07,0.29-0.17,0.57-0.23,0.86c-0.03,0.16-0.01,0.34-0.01,0.51c0,0.07,0,0.15-0.03,0.22c-0.13,0.35-0.12,0.71-0.15,1.07
				c-0.03,0.39,0.08,0.76,0.16,1.13c0.05,0.25,0.1,0.5,0.17,0.75c0.09,0.29,0.21,0.57,0.32,0.85c0.02,0.06,0.08,0.13,0.08,0.19
				c0,0.46,0.31,0.78,0.5,1.15c0.08,0.16,0.2,0.31,0.29,0.47c0.04,0.08,0.06,0.18,0.06,0.26c-0.01,0.38,0.03,0.76,0.12,1.14
				c0.06,0.23,0.16,0.45,0.23,0.68c0.03,0.1,0.05,0.21,0.07,0.31c0.02,0.08,0.03,0.17,0.07,0.24c0.15,0.25,0.2,0.53,0.25,0.81
				c0.02,0.14,0.1,0.26,0.16,0.39c0.13,0.34,0.26,0.68,0.4,1.01c0.12,0.28,0.26,0.55,0.41,0.82c0.26,0.5,0.53,1,0.79,1.5
				c0.03,0.06,0.01,0.16,0.02,0.26c0.04-0.03,0.07-0.05,0.12-0.09c0.15,0.24,0.31,0.46,0.45,0.7c0.2,0.34,0.41,0.69,0.59,1.04
				c0.14,0.25,0.23,0.53,0.38,0.77c0.22,0.36,0.49,0.69,0.73,1.04c0.35,0.51,0.85,0.87,1.29,1.29c0.24,0.23,0.54,0.41,0.82,0.6
				c0.33,0.22,0.66,0.43,1,0.63c0.32,0.19,0.65,0.36,0.96,0.55c0.43,0.26,0.85,0.53,1.29,0.78c0.39,0.22,0.8,0.41,1.2,0.62
				c0.24,0.12,0.47,0.27,0.71,0.38c0.3,0.14,0.61,0.25,0.91,0.39c0.25,0.12,0.49,0.26,0.73,0.39c0.08,0.04,0.16,0.07,0.24,0.1
				c0.23,0.08,0.47,0.14,0.63,0.35c0.06,0.08,0.2,0.1,0.3,0.16c0.14,0.08,0.26,0.17,0.4,0.26c0.04,0.02,0.08,0.04,0.12,0.03
				c0.19-0.03,0.35,0.01,0.52,0.11c0.12,0.07,0.3,0.06,0.45,0.09c0.17,0.03,0.35,0.04,0.52,0.07c0.25,0.03,0.49,0.09,0.74,0.1
				c0.52,0.02,1.04,0,1.55,0.03c0.42,0.02,0.84,0.08,1.27,0.11c0.28,0.02,0.57,0.02,0.85,0.04c0.12,0.01,0.24,0.05,0.36,0.09
				c0.16,0.06,0.17,0.18,0.14,0.33c-0.03,0.15-0.15,0.13-0.26,0.13c-0.36,0.01-0.71,0.02-1.07,0.03c-0.03,0-0.06-0.01-0.08-0.02
				c-0.22-0.12-0.46-0.11-0.71-0.12c-0.36-0.01-0.72-0.06-1.08-0.06c-0.24,0-0.49,0.07-0.73,0.05c-0.41-0.03-0.81-0.09-1.22-0.17
				c-0.4-0.08-0.8-0.2-1.19-0.31c-0.12-0.03-0.23-0.09-0.35-0.14c-0.45-0.19-0.9-0.36-1.32-0.62c-0.31-0.19-0.65-0.34-0.98-0.51
				c-0.29-0.15-0.57-0.33-0.86-0.47c-0.51-0.25-1.04-0.48-1.56-0.72c-0.32-0.15-0.62-0.34-0.91-0.53c-0.37-0.25-0.78-0.43-1.16-0.64
				c-0.1-0.06-0.2-0.13-0.3-0.19c-0.22-0.13-0.43-0.25-0.65-0.37c-0.05-0.03-0.1-0.08-0.15-0.11c-0.09-0.06-0.19-0.12-0.28-0.18
				c-0.02-0.01-0.05-0.01-0.06-0.03c-0.57-0.46-1.23-0.81-1.71-1.39c-0.03-0.04-0.06-0.08-0.1-0.1c-0.4-0.19-0.6-0.57-0.88-0.88
				c-0.08-0.1-0.12-0.23-0.19-0.34c-0.12-0.2-0.27-0.39-0.39-0.59c-0.13-0.22-0.25-0.45-0.38-0.67c-0.06-0.1-0.16-0.19-0.23-0.29
				c-0.06-0.08-0.16-0.14-0.1-0.28c0.02-0.06-0.07-0.16-0.12-0.24c-0.04-0.06-0.11-0.1-0.14-0.17c-0.37-0.68-0.73-1.37-1.11-2.04
				c-0.15-0.28-0.34-0.53-0.5-0.8c-0.03-0.05-0.06-0.1-0.08-0.15c-0.09-0.24-0.16-0.49-0.26-0.72c-0.04-0.1-0.12-0.18-0.18-0.27
				c-0.01-0.02-0.04-0.03-0.04-0.05c-0.05-0.15-0.13-0.31-0.14-0.46c-0.01-0.24-0.1-0.44-0.21-0.66c-0.09-0.17-0.1-0.38-0.14-0.57
				c0-0.01,0-0.03,0-0.03c-0.19-0.3-0.21-0.64-0.3-0.97c-0.08-0.28-0.13-0.57-0.18-0.85c-0.05-0.27-0.07-0.55-0.15-0.8
				c-0.07-0.2-0.21-0.38-0.32-0.57c-0.05-0.09-0.07-0.19-0.12-0.27c-0.05-0.1-0.12-0.19-0.18-0.28c-0.04-0.07-0.09-0.15-0.13-0.22
				c-0.11-0.23-0.21-0.47-0.31-0.7c-0.03-0.08-0.07-0.16-0.07-0.24c-0.02-0.26,0.02-0.54-0.03-0.79c-0.07-0.36-0.19-0.71-0.29-1.07
				c-0.01-0.05-0.02-0.1-0.02-0.15c-0.01-0.08-0.02-0.16-0.03-0.23C5.08,29.43,5.08,29.4,5.08,29.38z"/>
		</g>
		<g>
			<path d="M42.15,11.89c-0.28,0.05-0.41-0.17-0.58-0.32c-0.28-0.25-0.57-0.49-0.83-0.75c-0.23-0.23-0.56-0.33-0.74-0.61
				c-0.06-0.09-0.23-0.11-0.35-0.17c-0.11-0.06-0.22-0.13-0.33-0.2c-0.2-0.12-0.39-0.24-0.59-0.35c-0.56-0.31-1.12-0.63-1.7-0.92
				c-0.56-0.29-1.15-0.53-1.71-0.83c-0.37-0.2-0.75-0.34-1.16-0.41c-0.43-0.07-0.85-0.18-1.27-0.26c-0.35-0.07-0.7-0.11-1.04-0.2
				c-0.28-0.07-0.55-0.2-0.83-0.28c-0.3-0.08-0.62-0.14-0.93-0.21c-0.26-0.05-0.51-0.13-0.77-0.15c-0.45-0.03-0.89-0.04-1.34-0.04
				c-0.15,0-0.44-0.15-0.5-0.28c-0.05-0.12-0.01-0.19,0.12-0.19c0.33,0.01,0.65,0.05,0.98,0.05c0.15,0,0.3-0.04,0.46-0.06
				c0.37-0.04,0.72,0.12,1.08,0.15c0.58,0.05,1.1,0.28,1.64,0.46c0.12,0.04,0.27,0.01,0.39,0.07c0.33,0.16,0.69,0.15,1.03,0.21
				c0.42,0.08,0.84,0.15,1.26,0.23c0.36,0.06,0.66,0.26,0.97,0.44c0.1,0.06,0.21,0.09,0.31,0.14c0.29,0.13,0.59,0.26,0.88,0.39
				c0.48,0.22,0.95,0.44,1.42,0.67c0.41,0.21,0.82,0.41,1.2,0.67c0.23,0.15,0.45,0.29,0.72,0.35c0.04,0.01,0.08,0.05,0.12,0.07
				c0.14,0.1,0.28,0.21,0.42,0.31c0.12,0.09,0.24,0.18,0.36,0.27c0.26,0.19,0.52,0.39,0.78,0.58c0.05,0.04,0.1,0.09,0.15,0.14
				c0.04,0.04,0.07,0.1,0.12,0.12c0.1,0.04,0.18,0.08,0.2,0.21c0.01,0.07,0.1,0.13,0.15,0.18c0.03,0.03,0.07,0.04,0.1,0.07
				c0.28,0.37,0.72,0.56,1,0.94c0.7,0.42,1.17,1.08,1.71,1.67c0.23,0.25,0.42,0.55,0.62,0.83c0.27,0.38,0.53,0.76,0.8,1.14
				c0.25,0.36,0.54,0.71,0.76,1.09c0.2,0.34,0.34,0.73,0.51,1.09c0.13,0.28,0.31,0.54,0.41,0.83c0.13,0.41,0.38,0.76,0.56,1.14
				c0.07,0.14,0.2,0.25,0.18,0.43c-0.01,0.08-0.03,0.15-0.05,0.27c0.18-0.13,0.23-0.02,0.29,0.09c0.12,0.27,0.25,0.55,0.38,0.81
				c0.07,0.14,0.18,0.26,0.26,0.4c0.26,0.47,0.42,0.98,0.59,1.49c0.11,0.33,0.32,0.64,0.46,0.96c0.19,0.44,0.36,0.89,0.54,1.33
				c0.14,0.37,0.29,0.73,0.42,1.11c0.06,0.18,0.07,0.37,0.09,0.56c0.01,0.11,0,0.19,0.16,0.2c0.22,0.02,0.44,0.36,0.43,0.66
				c-0.02,0.51-0.07,1.02-0.1,1.53c0,0.03-0.02,0.05-0.03,0.08c-0.03,0.15-0.05,0.31-0.09,0.46c-0.06,0.2-0.13,0.39-0.19,0.58
				c-0.04,0.14-0.07,0.29-0.1,0.43c-0.01,0.03-0.01,0.07-0.02,0.1c-0.1,0.33-0.07,0.67-0.13,1c-0.04,0.21-0.1,0.42-0.16,0.63
				c-0.09,0.36-0.17,0.72-0.26,1.08c-0.01,0.03-0.01,0.06-0.02,0.08c-0.18,0.38-0.35,0.75-0.54,1.13c-0.18,0.37-0.31,0.75-0.35,1.16
				c0,0.06-0.03,0.12-0.06,0.17c-0.24,0.46-0.51,0.9-0.72,1.37c-0.19,0.44-0.33,0.9-0.47,1.36c-0.14,0.43-0.27,0.87-0.37,1.31
				c-0.12,0.49-0.24,0.98-0.48,1.43c-0.05,0.1-0.13,0.19-0.19,0.28c-0.07,0.12-0.14,0.24-0.21,0.37c-0.05,0.1-0.1,0.2-0.16,0.3
				c-0.24,0.4-0.5,0.8-0.73,1.21c-0.17,0.3-0.32,0.61-0.46,0.92c-0.07,0.13-0.17,0.23-0.31,0.2c-0.08-0.01-0.16-0.13-0.21-0.22
				c-0.16-0.27-0.02-0.48,0.13-0.7c0.21-0.3,0.43-0.58,0.62-0.89c0.08-0.12,0.11-0.26,0.16-0.39c0.01-0.03,0.02-0.07,0.05-0.09
				c0.24-0.18,0.3-0.47,0.44-0.71c0.08-0.13,0.16-0.26,0.23-0.4c0.07-0.14,0.14-0.29,0.2-0.44c0.1-0.24,0.2-0.49,0.28-0.74
				c0.09-0.26,0.14-0.54,0.22-0.8c0.11-0.37,0.23-0.74,0.35-1.11c0.09-0.28,0.17-0.57,0.27-0.85c0.04-0.1,0.12-0.18,0.17-0.27
				c0.05,0.03,0.08,0.04,0.12,0.06c0.01-0.02,0.04-0.07,0.04-0.07c-0.04-0.03-0.08-0.05-0.14-0.08c0.07-0.16,0.13-0.35,0.23-0.51
				c0.29-0.42,0.47-0.88,0.59-1.38c0.09-0.36,0.3-0.68,0.46-1.04c0.05,0.06,0.08,0.09,0.13,0.16c0.01-0.09,0.02-0.14,0.02-0.19
				c0-0.12-0.01-0.24,0.01-0.36c0.04-0.2,0.1-0.41,0.16-0.61c0.08-0.23,0.17-0.46,0.26-0.69c0.02-0.05,0.05-0.11,0.05-0.16
				c-0.02-0.24,0.07-0.46,0.14-0.68c0.04-0.12,0-0.27,0.01-0.4c0.01-0.11,0.03-0.21,0.05-0.32c0.06-0.28,0.13-0.56,0.19-0.84
				c0.08-0.38,0.15-0.76,0.22-1.15c0.03-0.18,0.02-0.38,0.06-0.56c0.04-0.17,0.03-0.34-0.09-0.43c-0.23-0.18-0.24-0.45-0.34-0.68
				c-0.06-0.13-0.03-0.3-0.06-0.44c-0.05-0.22-0.11-0.44-0.18-0.66c-0.09-0.26-0.18-0.53-0.3-0.77c-0.16-0.32-0.34-0.63-0.44-0.98
				c-0.08-0.29-0.23-0.55-0.33-0.83c-0.09-0.25-0.16-0.51-0.24-0.76c-0.06-0.17-0.12-0.35-0.19-0.52c-0.1-0.25-0.2-0.5-0.32-0.74
				c-0.1-0.2-0.23-0.38-0.33-0.57c-0.11-0.2-0.2-0.41-0.3-0.61c-0.22-0.4-0.45-0.79-0.66-1.19c-0.13-0.26-0.21-0.54-0.32-0.81
				c-0.05-0.11-0.13-0.22-0.18-0.33c-0.03-0.05-0.04-0.1-0.06-0.16c-0.02-0.08-0.03-0.16-0.07-0.23c-0.19-0.34-0.39-0.67-0.59-1
				c-0.04-0.06-0.08-0.11-0.13-0.16c-0.22-0.23-0.39-0.49-0.53-0.77c-0.08-0.16-0.21-0.28-0.31-0.43c-0.18-0.28-0.36-0.56-0.54-0.83
				c-0.08-0.12-0.17-0.23-0.26-0.34c-0.01-0.01-0.02-0.02-0.03-0.04c-0.39-0.63-0.94-1.12-1.43-1.66c-0.02-0.03-0.05-0.05-0.08-0.06
				c-0.54-0.26-0.83-0.79-1.27-1.16C42.19,12.05,42.18,11.96,42.15,11.89z"/>
		</g>
	</g>
</g>
</svg>
