<?xml version="1.0" encoding="utf-8"?>
<!-- Generator: Adobe Illustrator 25.4.1, SVG Export Plug-In . SVG Version: 6.00 Build 0)  -->
<svg version="1.1" id="Layer_1" xmlns="http://www.w3.org/2000/svg" xmlns:xlink="http://www.w3.org/1999/xlink" x="0px" y="0px"
	 viewBox="0 0 81.26 80.32" style="enable-background:new 0 0 81.26 80.32;" xml:space="preserve">
<style type="text/css" >
	* {
		fill: #FFFFFF 
	}
</style>
<g>
	<g>
		<path d="M34.17,16.81h1.2v5.7h-1.25v-3.78h-1.11v-0.94h0.55c0.4,0,0.61-0.11,0.61-0.64V16.81z"/>
	</g>
	<g>
		<circle cx="30.15" cy="22.51" r="2.33"/>
	</g>
	<g>
		<path d="M30.04,9.9c0-2.1,2.71-2.57,2.71-3.69c0-0.39-0.29-0.69-0.75-0.69c-0.47,0-0.79,0.31-0.8,0.73h-1.22
			C30,5.15,30.85,4.5,32,4.5c1.14,0,1.94,0.63,1.94,1.61c0,1.53-2.07,2.09-2.57,3.16h2.65v1.06h-3.97V9.9z"/>
	</g>
	<g>
		<circle cx="26.53" cy="10.32" r="2.33"/>
	</g>
	<g>
		<path d="M11.84,5.95c-1.25,0-2.12-0.65-2.13-1.78h1.25c0.01,0.46,0.33,0.77,0.88,0.77c0.51,0,0.87-0.31,0.87-0.79
			c0-0.48-0.35-0.76-0.91-0.76h-0.45V2.37h0.49c0.43,0,0.75-0.27,0.75-0.69c0-0.4-0.31-0.66-0.75-0.66c-0.46,0-0.79,0.28-0.8,0.73
			H9.78C9.78,0.7,10.63,0,11.84,0c1.14,0,1.91,0.56,1.91,1.45c0,0.55-0.37,0.96-0.95,1.16c0.72,0.22,1.15,0.75,1.15,1.57
			C13.94,5.29,13.07,5.95,11.84,5.95z"/>
	</g>
	<g>
		<circle cx="13.42" cy="9.24" r="2.33"/>
	</g>
	<g>
		<path d="M26.1,21.62h0.81v1H26.1v0.89h-1.18v-0.89H22.4v-0.88l2.13-3.93h1.57V21.62z M24.92,20.23c0-0.38,0-0.78,0.02-1.15
			c-0.14,0.3-0.32,0.64-0.51,1l-0.33,0.59c-0.2,0.36-0.39,0.69-0.58,0.98c0.33-0.03,0.65-0.03,1.02-0.03h0.38V20.23z"/>
	</g>
	<g>
		<circle cx="21.88" cy="15.16" r="2.33"/>
	</g>
	<g>
		<path d="M13.87,17.87l0.34-3.39h3.23v1.06h-2.21l-0.07,0.69c-0.03,0.38-0.07,0.62-0.11,0.8c0.28-0.36,0.67-0.52,1.16-0.52
			c0.91,0,1.62,0.69,1.62,1.87c0,1.16-0.93,1.92-2.12,1.92c-1.16,0-2.05-0.55-2.08-1.75h1.26c0.01,0.49,0.37,0.73,0.82,0.73
			c0.52,0,0.87-0.38,0.87-0.9c0-0.53-0.35-0.92-0.87-0.92c-0.33,0-0.55,0.14-0.72,0.41H13.87z"/>
	</g>
	<g>
		<circle cx="17.23" cy="23.18" r="2.33"/>
	</g>
	<g>
		<path d="M2.23,18.59C0.81,18.59,0,17.63,0,15.61c0-2.07,0.93-2.97,2.25-2.97c1.14,0,1.87,0.71,1.91,1.75H2.9
			c-0.02-0.45-0.28-0.73-0.73-0.73c-0.59,0-0.95,0.54-0.95,1.95c0,0.02,0,0.05,0,0.07c0.26-0.56,0.75-0.87,1.37-0.87
			c0.97,0,1.67,0.68,1.67,1.85C4.26,17.81,3.5,18.59,2.23,18.59z M2.18,15.78c-0.51,0-0.84,0.37-0.84,0.89c0,0.53,0.33,0.9,0.84,0.9
			c0.5,0,0.83-0.37,0.83-0.9C3.01,16.15,2.69,15.78,2.18,15.78z"/>
	</g>
	<g>
		<circle cx="8.07" cy="18.46" r="2.33"/>
	</g>
	<g>
		<path d="M7.9,30.18c-0.31,0.02-0.67,0.03-1.01,0.03h-1.7v-1.02h3.75v1.14c-1.01,1.33-1.44,2.83-1.53,4.56H6.12
			C6.24,33.25,6.82,31.58,7.9,30.18z"/>
	</g>
	<g>
		<circle cx="11.65" cy="27.81" r="2.33"/>
	</g>
	<g>
		<path d="M19.09,37.23c0-0.77,0.41-1.3,1.07-1.56c-0.54-0.23-0.85-0.67-0.85-1.22c0-0.87,0.75-1.44,1.88-1.44
			c1.12,0,1.88,0.57,1.88,1.44c0,0.55-0.33,0.99-0.86,1.22c0.67,0.25,1.07,0.78,1.07,1.56c0,1.11-0.85,1.73-2.1,1.73
			C19.93,38.96,19.09,38.34,19.09,37.23z M22.05,37.16c0-0.51-0.38-0.77-0.86-0.77c-0.48,0-0.86,0.26-0.86,0.77
			c0,0.5,0.38,0.77,0.86,0.77C21.67,37.94,22.05,37.67,22.05,37.16z M21.91,34.7c0-0.45-0.32-0.67-0.72-0.67
			c-0.41,0-0.72,0.23-0.72,0.67c0,0.44,0.31,0.68,0.72,0.68C21.6,35.38,21.91,35.15,21.91,34.7z"/>
	</g>
	<g>
		<circle cx="21.88" cy="29.48" r="2.33"/>
	</g>
	<g>
		<path d="M47.5,59.74c1.41,0,2.22,0.94,2.22,2.97c0,2.07-0.93,2.97-2.24,2.97c-1.15,0-1.87-0.71-1.91-1.75h1.25
			c0.03,0.44,0.29,0.73,0.73,0.73c0.59,0,0.95-0.54,0.95-1.95c0-0.02,0-0.05,0-0.07c-0.25,0.55-0.74,0.86-1.36,0.86
			c-0.97,0-1.67-0.67-1.67-1.86C45.47,60.52,46.23,59.74,47.5,59.74z M47.55,62.54c0.5,0,0.83-0.36,0.83-0.89
			c0-0.53-0.33-0.89-0.83-0.89c-0.51,0-0.84,0.36-0.84,0.89C46.71,62.18,47.03,62.54,47.55,62.54z"/>
	</g>
	<g>
		<circle cx="53.41" cy="61.59" r="2.33"/>
	</g>
	<g>
		<path d="M70.83,73.05h1.2v5.7h-1.25v-3.78h-1.11v-0.94h0.54c0.4,0,0.61-0.11,0.61-0.64V73.05z"/>
		<path d="M73.96,73.05h1.2v5.7h-1.25v-3.78H72.8v-0.94h0.54c0.4,0,0.61-0.11,0.61-0.64V73.05z"/>
	</g>
	<g>
		<circle cx="69.47" cy="69.28" r="2.33"/>
	</g>
	<g>
		<path d="M63.18,45.01h1.2v5.7h-1.25v-3.78h-1.11v-0.94h0.55c0.4,0,0.61-0.11,0.61-0.64V45.01z"/>
		<path d="M67.26,50.83c-1.25,0-2.12-0.65-2.13-1.78h1.25c0.01,0.46,0.33,0.77,0.88,0.77c0.51,0,0.87-0.31,0.87-0.79
			c0-0.48-0.35-0.76-0.91-0.76h-0.45v-1.01h0.49c0.43,0,0.75-0.27,0.75-0.69c0-0.4-0.31-0.66-0.75-0.66c-0.46,0-0.79,0.28-0.8,0.73
			h-1.25c0-1.05,0.85-1.75,2.05-1.75c1.14,0,1.91,0.56,1.91,1.45c0,0.55-0.37,0.96-0.95,1.16c0.72,0.22,1.15,0.75,1.15,1.57
			C69.37,50.18,68.5,50.83,67.26,50.83z"/>
	</g>
	<g>
		<circle cx="61.29" cy="54.13" r="2.33"/>
	</g>
	<g>
		<path d="M75.25,58.87h1.2v5.7h-1.25v-3.78H74.1v-0.94h0.55c0.4,0,0.61-0.11,0.61-0.64V58.87z"/>
		<path d="M77.28,64.14c0-2.1,2.71-2.57,2.71-3.69c0-0.39-0.29-0.69-0.75-0.69c-0.47,0-0.79,0.31-0.8,0.73h-1.22
			c0.01-1.1,0.86-1.75,2.02-1.75c1.14,0,1.94,0.63,1.94,1.61c0,1.53-2.07,2.09-2.57,3.16h2.65v1.06h-3.97V64.14z"/>
	</g>
	<g>
		<circle cx="70.9" cy="58.57" r="2.33"/>
	</g>
	<g>
		<path d="M51.55,74.5h1.2v5.7H51.5v-3.78h-1.11v-0.94h0.54c0.4,0,0.61-0.11,0.61-0.64V74.5z"/>
		<path d="M57.95,77.35c0,2.06-0.84,2.97-2.13,2.97c-1.29,0-2.14-0.91-2.14-2.97s0.85-2.97,2.14-2.97
			C57.12,74.38,57.95,75.28,57.95,77.35z M56.71,77.35c0-1.49-0.34-1.95-0.89-1.95c-0.54,0-0.89,0.47-0.89,1.95
			c0,1.48,0.34,1.95,0.89,1.95C56.37,79.31,56.71,78.83,56.71,77.35z"/>
	</g>
	<g>
		<circle cx="58.06" cy="70.54" r="2.33"/>
	</g>
	<g>
		<path d="M64.03,67.58l-4.74-1.41l-1.14-4.81l3.59-3.4l4.74,1.41l1.14,4.81L64.03,67.58z M60.28,65.22l3.42,1.02l2.6-2.45
			l-0.83-3.48l-3.42-1.02l-2.6,2.45L60.28,65.22z"/>
	</g>
	<g>
		<path d="M61.82,54.72c-0.15,0-0.3-0.06-0.42-0.17L29.73,22.93c-0.23-0.23-0.23-0.61,0-0.84c0.23-0.23,0.61-0.23,0.84,0
			l31.67,31.62c0.23,0.23,0.23,0.61,0,0.84C62.12,54.66,61.97,54.72,61.82,54.72z"/>
	</g>
	<g>
		<path d="M23.87,8.39c0.3,0.11,0.59,0.25,0.94,0.21c0.15-0.02,0.31,0.13,0.47,0.19c0.63,0.24,1.06,0.73,1.47,1.22
			c0.17,0.2,0.21,0.5,0.33,0.75c0.31,0.65,0.62,1.29,0.93,1.94c0.01,0.03,0.04,0.06,0.03,0.09c-0.11,0.28,0.11,0.45,0.21,0.67
			c0.1,0.22,0.2,0.46,0.09,0.71c-0.01,0.03-0.01,0.07,0,0.1c0.29,0.69,0.6,1.37,0.89,2.06c0.05,0.11,0.03,0.24,0.07,0.35
			c0.06,0.16,0.13,0.3,0.21,0.45c0.12,0.24,0.25,0.48,0.36,0.72c0.05,0.12,0.1,0.24,0.13,0.36c0.13,0.5,0.25,1,0.38,1.51
			c0.02,0.1,0.04,0.2,0.05,0.3c0.01,0.19,0.05,0.37-0.08,0.54c-0.06,0.08-0.06,0.19-0.03,0.33c0.06,0.22,0.01,0.49-0.05,0.72
			c-0.05,0.17-0.48,0.27-0.64,0.17c-0.04-0.03-0.06-0.12-0.06-0.18c0.03-0.34,0.11-0.68-0.08-1.01c-0.06-0.1-0.02-0.27,0.01-0.39
			c0.07-0.32-0.04-0.61-0.14-0.9c-0.16-0.49-0.33-0.97-0.49-1.46c-0.05-0.16-0.05-0.34-0.12-0.49c-0.09-0.21-0.22-0.4-0.31-0.6
			c-0.18-0.37-0.33-0.75-0.52-1.12c-0.22-0.41-0.31-0.85-0.42-1.29c-0.1-0.4-0.28-0.79-0.44-1.18c-0.25-0.58-0.53-1.14-0.8-1.71
			c-0.02-0.05-0.07-0.11-0.06-0.15c0.05-0.17-0.07-0.22-0.18-0.28c-0.12-0.06-0.17-0.12-0.12-0.26c0.01-0.04,0.02-0.1,0-0.13
			c-0.24-0.3-0.32-0.74-0.79-0.81c-0.11-0.02-0.21-0.08-0.32-0.13c-0.24-0.12-0.46-0.23-0.75-0.19c-0.39,0.04-0.79-0.04-1.18-0.02
			c-0.37,0.02-0.74,0.13-1.11,0.14c-0.25,0.01-0.49,0.21-0.75,0.08c-0.02-0.01-0.06,0-0.07-0.01c-0.24-0.29-0.47-0.03-0.71-0.01
			c-0.07,0.01-0.16,0-0.23-0.03c-0.19-0.09-0.37-0.17-0.59-0.16c-0.18,0.01-0.37-0.05-0.54-0.12c-0.21-0.09-0.4-0.06-0.59,0.04
			c-0.21,0.11-0.39,0.21-0.67,0.11c-0.2-0.08-0.47,0.02-0.71,0.04c-0.2,0.02-0.4,0.06-0.59,0.05c-0.28-0.01-0.48,0.12-0.64,0.31
			c-0.04,0.05,0.02,0.23,0.09,0.29c0.19,0.17,0.42,0.29,0.62,0.46c0.49,0.4,0.96,0.81,1.44,1.23c0.22,0.19,0.41,0.4,0.64,0.57
			c0.29,0.23,0.59,0.47,0.91,0.66c0.53,0.3,1.08,0.6,1.64,0.84c0.7,0.3,1.21,0.84,1.77,1.33c0.06,0.05,0.15,0.07,0.23,0.1
			c0.22,0.08,0.25,0.16,0.19,0.39c-0.03,0.11-0.01,0.23-0.03,0.35c-0.01,0.06-0.03,0.11-0.06,0.16c-0.36,0.56-0.72,1.12-1.07,1.68
			c-0.01,0.02-0.01,0.05-0.02,0.07c-0.11,0.23,0.08,0.53-0.25,0.75c-0.21,0.14-0.32,0.46-0.46,0.7c-0.24,0.42-0.46,0.85-0.69,1.27
			c-0.05,0.08-0.11,0.16-0.16,0.24c-0.09,0.15-0.19,0.29-0.28,0.44c-0.03,0.05-0.06,0.11-0.1,0.16c-0.31,0.35-0.62,0.69-0.92,1.04
			c-0.08,0.1-0.14,0.22-0.21,0.33c-0.05,0.07-0.1,0.14-0.18,0.25c0.05,0.3,0.01,0.35-0.31,0.52c-0.12,0.06-0.21,0.2-0.29,0.31
			c-0.11,0.16-0.19,0.12-0.34,0.05c-0.38-0.18-0.78-0.33-1.16-0.5c-0.5-0.21-1.02-0.38-1.48-0.65c-0.34-0.2-0.6-0.54-0.89-0.81
			c-0.07-0.06-0.14-0.12-0.23-0.15c-0.16-0.06-0.3-0.1-0.31-0.32c-0.01-0.08-0.14-0.17-0.23-0.21c-0.29-0.13-0.54-0.28-0.78-0.5
			c-0.31-0.28-0.72-0.47-1.09-0.68c-0.22-0.13-0.45-0.24-0.67-0.36c-0.11-0.06-0.21-0.16-0.35-0.06c-0.02,0.01-0.11-0.02-0.11-0.04
			c-0.07-0.26-0.32-0.26-0.5-0.37c-0.16-0.1-0.31-0.2-0.47-0.28c-0.08-0.04-0.2-0.07-0.26-0.03c-0.08,0.05-0.16,0.18-0.15,0.27
			c0.06,0.47,0.15,0.93,0.22,1.4c0.04,0.26,0.04,0.52,0.08,0.77c0.03,0.18,0.11,0.36,0.15,0.54c0.1,0.45,0.2,0.89,0.46,1.29
			c0.06,0.09,0.02,0.24,0.06,0.35c0.11,0.35,0.24,0.69,0.36,1.04c0.02,0.06,0.04,0.13,0.04,0.2c0.01,0.15,0.01,0.13,0.16,0.2
			c0.13,0.07,0.31,0.18,0.33,0.3c0.06,0.29,0.28,0.45,0.43,0.67c0.08,0.11,0.14,0.23,0.22,0.34c0.08,0.11,0.15,0.22,0.25,0.3
			c0.34,0.31,0.67,0.61,1.03,0.9c0.17,0.14,0.38,0.23,0.57,0.34c0.19,0.11,0.37,0.27,0.57,0.32c0.53,0.13,0.93,0.57,1.49,0.59
			c0.08,0,0.15,0.15,0.22,0.23c0.06,0.07,0.06,0.18,0.23,0.07c0.11-0.07,0.38,0.05,0.56,0.13c0.39,0.17,0.76,0.37,1.2,0.36
			c0.3-0.01,0.6,0.03,0.89-0.01c0.34-0.04,0.67-0.14,1.01-0.21c0.28-0.06,0.57-0.09,0.86-0.16c0.6-0.15,1.2-0.32,1.65-0.79
			c0.04-0.04,0.13-0.06,0.19-0.04c0.15,0.04,0.3,0.09,0.45,0.14c0.01-0.27,0.12-0.38,0.49-0.46c0.26,0.35,0.21,0.66-0.15,0.98
			c-0.06,0.05-0.1,0.12-0.14,0.19c0.08,0.02,0.15,0.04,0.23,0.07c0.06,0.02,0.13,0.03,0.17,0.06c0.44,0.37,0.89,0.75,1.32,1.13
			c0.23,0.2,0.45,0.4,0.72,0.56c0.29,0.18,0.53,0.44,0.8,0.66c0.19,0.15,0.39,0.29,0.58,0.44c0.09,0.07,0.17,0.15,0.24,0.24
			c0.49,0.56,0.98,1.13,1.48,1.68c0.3,0.32,0.63,0.62,0.93,0.93c0.18,0.18,0.33,0.38,0.5,0.57c0.17,0.19,0.35,0.37,0.52,0.55
			c0.03,0.03,0.08,0.04,0.09,0.07c0.16,0.41,0.56,0.62,0.77,0.99c0.06,0.1,0.2,0.14,0.3,0.22c0.1,0.07,0.2,0.14,0.28,0.23
			c0.2,0.22,0.39,0.45,0.59,0.68c0.05,0.06,0.1,0.11,0.16,0.18c-0.07,0.04-0.13,0.07-0.19,0.11c0,0.02,0,0.04,0.01,0.06
			c0.1,0,0.2,0,0.29,0c0.2,0.19,0.42,0.38,0.62,0.59c0.14,0.16,0.25,0.34,0.38,0.51c0.11,0.15,0.24,0.28,0.35,0.43
			c0.15,0.2,0.29,0.41,0.44,0.6c0.08,0.11,0.19,0.2,0.28,0.3c0.15,0.16,0.32,0.3,0.44,0.47c0.32,0.47,0.75,0.79,1.25,1.03
			c0.07,0.04,0.17,0.15,0.16,0.2c-0.03,0.17,0.07,0.23,0.17,0.32c0.16,0.15,0.31,0.3,0.46,0.46c0.27,0.28,0.53,0.55,0.8,0.83
			c0.4,0.41,0.79,0.81,1.13,1.27c0.34,0.46,0.79,0.84,1.24,1.19c0.25,0.19,0.39,0.45,0.58,0.68c0.06,0.08,0.13,0.15,0.19,0.22
			c0.08,0.08,0.15,0.16,0.23,0.25c0.08,0.09,0.16,0.18,0.24,0.27c0.08,0.1,0.16,0.19,0.24,0.29c0.02,0.02,0.06,0.06,0.07,0.06
			c0.18-0.13,0.17,0.07,0.23,0.14c0.08,0.09,0.13,0.21,0.21,0.29c0.36,0.4,0.73,0.79,1.1,1.18c0.09,0.09,0.19,0.17,0.3,0.23
			c0.42,0.24,0.82,0.53,1.06,0.94c0.19,0.33,0.53,0.47,0.76,0.73c0.2,0.22,0.45,0.4,0.6,0.64c0.29,0.44,0.68,0.8,1.03,1.18
			c0.35,0.39,0.73,0.75,1.1,1.11c0.45,0.43,0.92,0.84,1.38,1.26c0.34,0.31,0.68,0.62,1.02,0.93c0.06,0.06,0.17,0.09,0.25,0.09
			c0.17,0,0.24,0.08,0.3,0.23c0.04,0.12,0.11,0.24,0.19,0.34c0.21,0.31,0.42,0.62,0.66,0.9c0.35,0.41,0.71,0.8,1.09,1.17
			c0.12,0.12,0.31,0.16,0.47,0.24c0.36,0.19,0.35,0.19,0.3,0.57c-0.01,0.12,0.01,0.26,0.06,0.36c0.11,0.21,0.18,0.42,0.12,0.66
			c-0.01,0.04-0.01,0.08,0.01,0.11c0.12,0.3,0.26,0.59,0.38,0.9c0.05,0.14,0.04,0.29,0.07,0.44c0.02,0.17-0.01,0.36,0.18,0.48
			c0.04,0.02,0.06,0.1,0.07,0.16c0.04,0.28,0.09,0.57,0.1,0.85c0.02,0.84,0.5,1.48,0.91,2.15c0.16,0.25,0.29,0.51,0.48,0.73
			c0.29,0.33,0.61,0.63,0.93,0.94c0.33,0.32,0.67,0.64,1,0.96c0.05,0.05,0.12,0.07,0.18,0.1c0.17,0.1,0.38,0.16,0.5,0.29
			c0.19,0.21,0.45,0.18,0.68,0.26c0.25,0.09,0.51,0.17,0.77,0.24c0.29,0.08,0.58,0.14,0.87,0.2c0.46,0.1,0.92,0.19,1.38,0.28
			c0.08,0.01,0.16-0.01,0.24-0.01c0.34,0,0.68,0.02,1.03,0.01c0.17,0,0.36,0.01,0.51-0.05c0.34-0.13,0.72-0.17,0.98-0.5
			c0.17-0.21,0.44-0.32,0.61-0.44c0.11-0.18,0.18-0.32,0.28-0.43c0.12-0.13,0.27-0.09,0.42-0.03c0.06,0.02,0.19-0.1,0.27-0.17
			c0.09-0.08,0.16-0.17,0.23-0.27c0.22-0.3,0.43-0.6,0.65-0.89c0-0.01,0.01-0.02,0.01-0.02c-0.08-0.36,0.2-0.59,0.29-0.89
			c0.02-0.07,0.05-0.15,0.11-0.2c0.33-0.31,0.39-0.7,0.41-1.12c0.01-0.13,0.1-0.25,0.15-0.36c0.03-0.11,0.02-0.24,0.08-0.33
			c0.24-0.33,0.38-0.73,0.42-1.11c0.04-0.38,0.07-0.76,0.14-1.14c0.02-0.11,0.06-0.22,0.09-0.33c0.09-0.3,0.11-0.58,0-0.89
			c-0.06-0.17-0.12-0.36,0.05-0.54c0.05-0.06,0.02-0.22-0.01-0.33c-0.17-0.54-0.25-1.12-0.59-1.59c-0.1-0.14-0.22-0.28-0.33-0.42
			c-0.3-0.41-0.57-0.84-0.89-1.24c-0.43-0.55-0.9-1.08-1.46-1.51c-0.16-0.12-0.29-0.29-0.46-0.39c-0.66-0.39-1.32-0.78-2-1.14
			c-0.16-0.09-0.37-0.1-0.55-0.15c-0.64-0.18-1.31-0.16-1.97-0.18c-0.28-0.01-0.57,0-0.85-0.02c-0.08,0-0.17-0.03-0.24-0.07
			c-0.16-0.08-0.31-0.16-0.45-0.26c-0.09-0.07-0.21-0.15-0.13-0.3c0.02-0.03,0.01-0.08,0.01-0.11c-0.01-0.32,0.1-0.42,0.43-0.39
			c0.21,0.02,0.42,0.09,0.64,0.1c0.31,0.01,0.64,0.03,0.94-0.02c0.49-0.09,0.98-0.03,1.41,0.16c0.46,0.21,0.95,0.09,1.4,0.26
			c0.14,0.05,0.27,0.14,0.41,0.21c0.22,0.13,0.45,0.26,0.67,0.39c0.15,0.09,0.31,0.16,0.44,0.28c0.3,0.26,0.58,0.55,0.98,0.67
			c0.07,0.02,0.13,0.08,0.18,0.13c0.29,0.33,0.58,0.65,0.87,0.98c0.37,0.43,0.75,0.86,1.1,1.32c0.31,0.41,0.59,0.83,0.84,1.27
			c0.34,0.59,0.64,1.2,0.71,1.89c0.02,0.17,0,0.34,0,0.51c-0.01,0.41,0.01,0.82-0.03,1.22c-0.05,0.46-0.17,0.9-0.24,1.36
			c-0.05,0.34-0.08,0.69-0.12,1.03c-0.02,0.14-0.06,0.29-0.1,0.43c-0.06,0.22-0.05,0.43,0.07,0.63c0.06,0.1,0.04,0.19-0.08,0.24
			c-0.07,0.03-0.14,0.07-0.21,0.1c-0.16,0.06-0.19,0.18-0.19,0.33c0,0.16-0.01,0.32-0.02,0.48c-0.01,0.06-0.03,0.14-0.08,0.16
			c-0.41,0.2-0.49,0.62-0.69,0.97c-0.42,0.77-0.79,1.59-1.59,2.08c-0.59,0.37-1.15,0.79-1.73,1.18c-0.55,0.36-1.19,0.41-1.83,0.47
			c-0.57,0.05-1.14,0.12-1.72,0.18c-0.07,0.01-0.15,0.03-0.21,0c-0.51-0.29-1.17-0.15-1.65-0.54c-0.03-0.03-0.09-0.04-0.13-0.05
			c-0.7-0.03-1.28-0.41-1.88-0.71c-0.53-0.26-1.02-0.58-1.42-1.02c-0.1-0.11-0.26-0.17-0.37-0.27c-0.25-0.24-0.52-0.48-0.74-0.75
			c-0.31-0.38-0.59-0.79-0.86-1.2c-0.23-0.35-0.42-0.73-0.65-1.09c-0.25-0.4-0.34-0.85-0.44-1.29c-0.02-0.1,0-0.22,0-0.32
			c-0.03-0.5-0.14-0.98-0.19-1.48c-0.03-0.32-0.05-0.73-0.34-1c-0.02-0.02-0.03-0.05-0.03-0.08c-0.03-0.54-0.3-1.02-0.4-1.54
			c-0.01-0.04-0.08-0.11-0.12-0.1c-0.39,0.07-0.59-0.21-0.8-0.44c-0.4-0.45-0.75-0.94-1.18-1.36c-0.72-0.69-1.48-1.34-2.22-2.01
			c-0.38-0.34-0.77-0.67-1.13-1.03c-0.37-0.37-0.68-0.78-1.06-1.14c-0.55-0.53-1-1.15-1.48-1.74c-0.15-0.19-0.35-0.34-0.53-0.51
			c-0.39-0.36-0.78-0.73-1.18-1.09c-0.19-0.17-0.44-0.29-0.56-0.49c-0.15-0.25-0.38-0.41-0.58-0.6c-0.47-0.46-0.97-0.9-1.39-1.4
			c-0.39-0.46-0.82-0.85-1.25-1.25c-0.28-0.26-0.48-0.62-0.74-0.91c-0.44-0.52-0.8-1.1-1.36-1.5c-0.02-0.01-0.04-0.03-0.05-0.05
			c-0.18-0.36-0.49-0.59-0.76-0.88c-0.38-0.41-0.76-0.79-1.2-1.13c-0.51-0.4-0.88-0.92-1.28-1.42c-0.4-0.48-0.87-0.9-1.31-1.34
			c-0.05-0.05-0.11-0.09-0.15-0.15c-0.33-0.45-0.64-0.91-0.97-1.36c-0.1-0.13-0.25-0.23-0.36-0.36c-0.11-0.13-0.18-0.28-0.29-0.41
			c-0.06-0.08-0.17-0.13-0.24-0.2c-0.33-0.38-0.65-0.76-0.98-1.13c-0.09-0.1-0.22-0.17-0.31-0.26c-0.36-0.36-0.72-0.72-1.09-1.08
			c-0.12-0.11-0.28-0.18-0.42-0.28c-0.12-0.09-0.28-0.18-0.33-0.3c-0.13-0.29-0.31-0.53-0.55-0.73c-0.24-0.2-0.36-0.49-0.68-0.63
			c-0.19-0.08-0.29-0.37-0.45-0.58c0.17,0.05,0.31,0.1,0.44,0.14c0.01-0.02,0.02-0.05,0.03-0.07c-0.13-0.06-0.26-0.12-0.4-0.18
			c-0.12-0.05-0.25-0.09-0.36-0.16c-0.28-0.17-0.57-0.33-0.83-0.53c-0.2-0.15-0.35-0.37-0.54-0.55c-0.4-0.38-0.85-0.68-1.35-0.93
			c-0.15-0.08-0.24-0.3-0.34-0.46c-0.09-0.14-0.16-0.3-0.24-0.45c-0.05-0.09-0.3-0.1-0.4-0.02c-0.52,0.37-1.11,0.56-1.74,0.64
			c-0.12,0.01-0.23,0.06-0.35,0.09c-0.08,0.02-0.16,0.06-0.24,0.08c-0.48,0.08-0.97,0.16-1.45,0.24c-0.09,0.01-0.18-0.01-0.28-0.01
			c-0.82-0.05-1.57-0.36-2.31-0.68c-0.46-0.2-0.93-0.36-1.39-0.54c-0.09-0.04-0.16-0.14-0.25-0.2c-0.03-0.03-0.07-0.08-0.1-0.07
			c-0.27,0.01-0.45-0.16-0.65-0.3c-0.04-0.03-0.09-0.07-0.14-0.08c-0.57-0.2-1.06-0.53-1.53-0.9c-0.23-0.19-0.4-0.46-0.59-0.69
			c-0.11-0.14-0.23-0.27-0.33-0.41c-0.04-0.05-0.06-0.13-0.08-0.19c-0.04-0.11-0.04-0.26-0.12-0.32c-0.45-0.4-0.77-0.88-1.03-1.41
			c-0.03-0.05-0.06-0.12-0.11-0.15c-0.27-0.2-0.34-0.47-0.32-0.79c0.02-0.24-0.03-0.49-0.06-0.73C9,23.3,8.98,23.22,8.93,23.19
			c-0.2-0.15-0.19-0.38-0.23-0.58c-0.08-0.32-0.19-0.64-0.21-0.96c-0.04-0.6-0.29-1.16-0.24-1.78c0.03-0.4-0.09-0.82-0.15-1.22
			c-0.02-0.13-0.07-0.26-0.1-0.4c0-0.08,0-0.16,0-0.23c0.01-0.02,0.04-0.04,0.03-0.06c-0.06-0.28,0.15-0.43,0.33-0.48
			c0.21-0.06,0.45-0.09,0.66,0.12C9.25,17.83,9.53,18,9.8,18.17c0.14,0.09,0.3,0.15,0.45,0.22c0.24,0.12,0.46,0.3,0.71,0.36
			c0.28,0.07,0.5,0.18,0.73,0.36c0.55,0.42,1.27,0.57,1.77,1.08c0.01,0.01,0.03,0.01,0.04,0.02c0.43,0.35,0.88,0.68,1.29,1.05
			c0.4,0.36,0.75,0.79,1.27,1.02c0.42,0.18,0.83,0.41,1.26,0.56c0.18,0.06,0.45,0,0.63-0.09c0.13-0.07,0.18-0.29,0.29-0.42
			c0.19-0.25,0.24-0.59,0.52-0.79c0.27-0.19,0.51-0.43,0.74-0.66c0.09-0.09,0.16-0.25,0.14-0.37c-0.02-0.2-0.05-0.36,0.21-0.38
			c0.03,0,0.07-0.03,0.09-0.06c0.23-0.35,0.47-0.7,0.67-1.07c0.26-0.49,0.47-1.01,0.75-1.48c0.15-0.25,0.19-0.48,0.18-0.75
			c0-0.16,0.07-0.27,0.26-0.25c0.05,0.01,0.1-0.01,0.18-0.01c-0.03-0.2,0.01-0.46-0.09-0.54c-0.38-0.31-0.64-0.82-1.22-0.83
			c-0.03,0-0.08-0.03-0.09-0.06c-0.1-0.23-0.32-0.26-0.51-0.36c-0.29-0.14-0.57-0.3-0.81-0.5c-0.27-0.23-0.65-0.25-0.9-0.54
			c-0.33-0.39-0.81-0.63-1.07-1.1c-0.01-0.02-0.04-0.03-0.05-0.04c-0.54-0.35-1.09-0.68-1.52-1.18c-0.03-0.03-0.09-0.07-0.12-0.06
			c-0.18,0.07-0.25-0.11-0.37-0.16c-0.14-0.06-0.28-0.12-0.42-0.18c-0.07-0.03-0.14-0.07-0.19-0.12c-0.13-0.15-0.25-0.3-0.37-0.46
			c-0.12-0.15-0.25-0.3-0.33-0.47c-0.16-0.32-0.03-0.56,0.33-0.63c0.04-0.01,0.08-0.02,0.1-0.04c0.18-0.25,0.49-0.23,0.73-0.31
			c0.47-0.16,0.99-0.2,1.49-0.25c0.46-0.05,0.92-0.07,1.39-0.09c0.13-0.01,0.22-0.04,0.25-0.18c0.03,0,0.06,0,0.09,0
			c0.02,0.01,0.04,0.03,0.06,0.03c0.62,0.05,1.25,0.07,1.86,0.23c0.35,0.09,0.74,0.06,1.1,0.04c0.6-0.03,1.2-0.07,1.8-0.14
			c0.2-0.02,0.39-0.11,0.58-0.17C23.74,8.39,23.81,8.39,23.87,8.39z"/>
	</g>
</g>
</svg>
