<?xml version="1.0" encoding="utf-8"?>
<!-- Generator: Adobe Illustrator 25.4.1, SVG Export Plug-In . SVG Version: 6.00 Build 0)  -->
<svg version="1.1" id="Layer_1" xmlns="http://www.w3.org/2000/svg" xmlns:xlink="http://www.w3.org/1999/xlink" x="0px" y="0px"
	 viewBox="0 0 83.21 76.02" style="enable-background:new 0 0 83.21 76.02;" xml:space="preserve">
<style type="text/css" >
	* {
		fill: #FFFFFF 
	}
</style>
<g>
	<g>
		<path d="M18.41,72.08c0-2.1,2.71-2.57,2.71-3.69c0-0.39-0.29-0.69-0.75-0.69c-0.47,0-0.79,0.31-0.8,0.73h-1.22
			c0.01-1.1,0.86-1.75,2.02-1.75c1.14,0,1.94,0.63,1.94,1.61c0,1.53-2.07,2.09-2.57,3.16h2.65v1.06h-3.97V72.08z"/>
	</g>
	<g>
		<circle cx="15.96" cy="73.69" r="2.33"/>
	</g>
	<g>
		<path d="M37.44,66.81h1.2v5.7h-1.26v-3.78h-1.11v-0.94h0.55c0.4,0,0.61-0.11,0.61-0.64V66.81z"/>
	</g>
	<g>
		<circle cx="33.89" cy="73.69" r="2.33"/>
	</g>
	<g>
		<path d="M26.49,46.18h1.2v5.7h-1.25V48.1h-1.11v-0.94h0.55c0.4,0,0.61-0.11,0.61-0.64V46.18z"/>
		<path d="M29.61,46.18h1.2v5.7h-1.25V48.1h-1.11v-0.94H29c0.4,0,0.61-0.11,0.61-0.64V46.18z"/>
	</g>
	<g>
		<path d="M52.71,46.18h1.2v5.7h-1.25V48.1h-1.11v-0.94h0.54c0.4,0,0.61-0.11,0.61-0.64V46.18z"/>
		<path d="M58.96,49.03c0,2.06-0.84,2.97-2.13,2.97c-1.29,0-2.14-0.91-2.14-2.97c0-2.06,0.85-2.97,2.14-2.97
			C58.12,46.06,58.96,46.96,58.96,49.03z M57.71,49.03c0-1.49-0.34-1.95-0.89-1.95c-0.54,0-0.89,0.47-0.89,1.95
			c0,1.48,0.34,1.95,0.89,1.95C57.37,50.99,57.71,50.51,57.71,49.03z"/>
	</g>
	<g>
		<path d="M53.99,66.68c1.41,0,2.22,0.94,2.22,2.97c0,2.07-0.93,2.97-2.24,2.97c-1.15,0-1.87-0.71-1.91-1.75h1.25
			c0.02,0.44,0.28,0.73,0.72,0.73c0.6,0,0.95-0.54,0.95-1.95c0-0.02,0-0.05,0-0.07c-0.25,0.55-0.74,0.86-1.36,0.86
			c-0.97,0-1.67-0.68-1.67-1.86C51.96,67.46,52.72,66.68,53.99,66.68z M54.04,69.48c0.5,0,0.83-0.37,0.83-0.89
			c0-0.53-0.33-0.89-0.83-0.89c-0.51,0-0.84,0.36-0.84,0.89C53.2,69.12,53.52,69.48,54.04,69.48z"/>
	</g>
	<g>
		<path d="M69.56,70.9c0-0.77,0.41-1.3,1.07-1.56c-0.54-0.23-0.85-0.67-0.85-1.22c0-0.87,0.75-1.44,1.88-1.44
			c1.12,0,1.88,0.57,1.88,1.44c0,0.55-0.33,0.99-0.85,1.22c0.67,0.25,1.07,0.78,1.07,1.56c0,1.11-0.85,1.73-2.1,1.73
			C70.39,72.63,69.56,72.02,69.56,70.9z M72.51,70.84c0-0.51-0.38-0.77-0.86-0.77c-0.48,0-0.86,0.26-0.86,0.77
			c0,0.5,0.38,0.77,0.86,0.77C72.13,71.61,72.51,71.34,72.51,70.84z M72.37,68.38c0-0.45-0.32-0.67-0.72-0.67
			c-0.41,0-0.72,0.23-0.72,0.67c0,0.44,0.31,0.68,0.72,0.68C72.06,69.05,72.37,68.82,72.37,68.38z"/>
	</g>
	<g>
		<path d="M63.86,36.86c-0.31,0.02-0.68,0.03-1.01,0.03h-1.7v-1.02h3.75v1.14c-1.01,1.33-1.44,2.83-1.53,4.56h-1.29
			C62.2,39.93,62.78,38.26,63.86,36.86z"/>
	</g>
	<g>
		<path d="M81.19,41.7c-1.42,0-2.23-0.95-2.23-2.97c0-2.07,0.93-2.97,2.25-2.97c1.14,0,1.87,0.71,1.91,1.75h-1.26
			c-0.01-0.45-0.27-0.73-0.72-0.73c-0.59,0-0.95,0.54-0.95,1.95c0,0.02,0,0.05,0,0.07c0.26-0.56,0.75-0.87,1.37-0.87
			c0.97,0,1.67,0.68,1.67,1.85C83.21,40.93,82.46,41.7,81.19,41.7z M81.14,38.9c-0.51,0-0.84,0.37-0.84,0.89
			c0,0.53,0.33,0.9,0.84,0.9c0.51,0,0.83-0.37,0.83-0.9C81.97,39.27,81.64,38.9,81.14,38.9z"/>
	</g>
	<g>
		<circle cx="33.89" cy="53.07" r="2.33"/>
	</g>
	<g>
		<path d="M44.04,3.39L44.38,0h3.23v1.06H45.4l-0.07,0.69c-0.03,0.38-0.07,0.62-0.11,0.8c0.28-0.36,0.67-0.52,1.17-0.52
			c0.91,0,1.62,0.69,1.62,1.87c0,1.16-0.93,1.92-2.12,1.92c-1.16,0-2.05-0.55-2.07-1.75h1.25c0.01,0.49,0.37,0.73,0.82,0.73
			c0.52,0,0.87-0.38,0.87-0.9c0-0.53-0.35-0.92-0.87-0.92c-0.33,0-0.55,0.14-0.72,0.41H44.04z"/>
	</g>
	<g>
		<circle cx="41.4" cy="6.88" r="2.33"/>
	</g>
	<g>
		<path d="M20.46,41.7c-1.25,0-2.12-0.65-2.13-1.78h1.25c0.01,0.46,0.33,0.77,0.88,0.77c0.51,0,0.87-0.31,0.87-0.79
			c0-0.48-0.35-0.76-0.91-0.76h-0.45v-1.01h0.49c0.43,0,0.75-0.27,0.75-0.69c0-0.4-0.31-0.66-0.75-0.66c-0.46,0-0.79,0.28-0.8,0.73
			h-1.25c0-1.05,0.85-1.75,2.05-1.75c1.14,0,1.91,0.56,1.91,1.45c0,0.55-0.37,0.96-0.95,1.16c0.72,0.22,1.15,0.75,1.15,1.57
			C22.57,41.05,21.7,41.7,20.46,41.7z"/>
	</g>
	<g>
		<circle cx="15.96" cy="42.76" r="2.33"/>
	</g>
	<g>
		<path d="M3.7,39.7h0.81v1H3.7v0.89H2.52v-0.89H0v-0.88l2.13-3.93H3.7V39.7z M2.52,38.31c0-0.38,0-0.78,0.02-1.15
			c-0.14,0.3-0.32,0.64-0.51,1L1.7,38.74c-0.2,0.36-0.39,0.69-0.58,0.98c0.33-0.03,0.65-0.03,1.02-0.03h0.38V38.31z"/>
	</g>
	<g>
		<circle cx="6.66" cy="42.76" r="2.33"/>
	</g>
	<g>
		<circle cx="66.96" cy="73.69" r="2.33"/>
	</g>
	<g>
		<circle cx="49.03" cy="73.69" r="2.33"/>
	</g>
	<g>
		<circle cx="49.03" cy="53.07" r="2.33"/>
	</g>
	<g>
		<circle cx="66.96" cy="42.76" r="2.33"/>
	</g>
	<g>
		<circle cx="76.26" cy="42.76" r="2.33"/>
	</g>
	<g>
		<path d="M15.15,41.83c0.18,0.12,0.32,0.27,0.35,0.49c0.01,0.05,0.07,0.12,0.12,0.15c0.12,0.06,0.26,0.11,0.39,0.16
			c0.16,0.07,0.28,0.3,0.24,0.47c-0.01,0.05-0.07,0.11-0.12,0.13c-0.08,0.03-0.16,0.05-0.25,0.04c-0.45-0.03-0.45,0.16-0.43,0.48
			c0.02,0.32,0.07,0.64,0.1,0.96c0.02,0.24-0.05,0.49,0.01,0.71c0.18,0.63,0.1,1.27,0.19,1.9c0.07,0.48,0.2,0.96,0.29,1.44
			c0.05,0.29,0.07,0.58,0.11,0.87c0.02,0.12,0.05,0.23,0.08,0.35c0.23,1.02,0.25,2.06,0.26,3.1c0,0.42,0.09,0.83,0.15,1.25
			c0.09,0.6,0.12,1.2,0.09,1.81c-0.02,0.54,0.03,1.08,0.05,1.63c0.02,0.56,0.05,1.11,0.06,1.67c0.01,0.39,0,0.79-0.01,1.18
			c-0.02,0.55-0.05,1.1-0.07,1.65c-0.02,0.56-0.04,1.13-0.07,1.69c-0.03,0.55-0.09,1.11-0.1,1.66c-0.02,0.61,0.02,1.21,0,1.82
			c-0.02,0.55-0.05,1.11-0.12,1.66c-0.09,0.7-0.01,1.41-0.01,2.11c0,0.36,0.07,0.71,0.09,1.07c0.02,0.26,0,0.51,0,0.77
			c0,0.23,0.05,0.25,0.28,0.24c0.42-0.02,0.84-0.01,1.27-0.02c0.81,0,1.62-0.01,2.43,0c0.27,0,0.53,0.05,0.8,0.08
			c0.27,0.02,0.55,0.05,0.82,0.05c1.2,0.02,2.4,0.03,3.6,0.04c0.12,0,0.24-0.01,0.36-0.02c0.63-0.04,1.26-0.08,1.89-0.12
			c0.49-0.03,0.98-0.1,1.48-0.08c0.62,0.02,1.24,0.09,1.85,0.17c0.3,0.04,0.58,0.22,0.88,0.27c0.56,0.09,1.13,0.14,1.7,0.19
			c0.27,0.03,0.52,0.27,0.53,0.53c0.01,0.18-0.07,0.26-0.25,0.23c-0.91-0.15-1.83-0.23-2.73-0.45c-0.46-0.11-0.96-0.07-1.43-0.16
			c-1.31-0.25-2.62-0.19-3.94-0.03c-0.4,0.05-0.81-0.02-1.22-0.02c-0.14,0-0.28,0.01-0.42,0.02c-0.81,0.02-1.62,0.05-2.43,0.05
			c-0.39,0-0.78-0.08-1.18-0.1c-0.45-0.03-0.9-0.04-1.35-0.05c-0.49-0.01-0.99,0-1.48,0.01c-0.42,0.01-0.84-0.02-1.26,0.1
			c-0.31,0.09-0.66,0.11-0.95-0.11c-0.18-0.13-0.17-0.14-0.13-0.37c0.08,0.37,0.34,0.52,0.74,0.43c-0.01-0.06-0.02-0.12-0.03-0.19
			c0.06,0.04,0.11,0.07,0.18,0.12c-0.07-0.2-0.13-0.35-0.16-0.5c-0.01-0.05,0.06-0.12,0.05-0.16c-0.08-0.25-0.16-0.49-0.26-0.73
			c-0.03-0.06-0.14-0.08-0.21-0.12c-0.03,0.09-0.19,0.1-0.13,0.27c0.11,0.29,0.18,0.6,0.26,0.92c-0.03-0.02-0.07-0.03-0.08-0.06
			c-0.01-0.03,0.01-0.09-0.01-0.1c-0.19-0.12-0.13-0.37-0.22-0.48c-0.15-0.19-0.06-0.36-0.08-0.53c-0.03-0.21-0.01-0.42,0.01-0.63
			c0.04-0.45,0.11-0.89,0.13-1.34c0.06-1.02,0.1-2.04,0.14-3.06c0.01-0.33-0.02-0.66,0-0.99c0.06-1.01,0.13-2.01,0.19-3.02
			c0.02-0.41,0.04-0.81,0.07-1.22c0.01,0.12,0.02,0.24,0.04,0.36c0.02,0,0.05-0.01,0.07-0.01c-0.04-0.21-0.09-0.41-0.1-0.62
			c-0.02-0.27,0-0.55,0-0.82c0-0.85,0.03-1.69,0-2.54c-0.03-0.88-0.1-1.75-0.15-2.62c-0.08-1.3-0.16-2.6-0.25-3.91
			c-0.02-0.29-0.1-0.57-0.15-0.85c-0.03-0.19-0.02-0.39-0.07-0.56c-0.09-0.29-0.14-0.57-0.17-0.87c-0.02-0.18-0.05-0.35-0.07-0.53
			c-0.05-0.44-0.26-0.84-0.29-1.28c-0.02-0.47-0.06-0.94-0.11-1.41c-0.03-0.31-0.08-0.62-0.12-0.94c-0.03-0.27-0.07-0.54-0.08-0.82
			c-0.02-0.32-0.02-0.65-0.02-0.98c0-0.34-0.23-0.61-0.57-0.61c-1.02,0-2.04,0-3.07-0.02c-0.48-0.01-0.96-0.05-1.43-0.07
			c-0.89-0.04-1.79-0.07-2.68-0.11c-0.21-0.01-0.3-0.15-0.34-0.34c-0.02,0.02-0.03,0.04-0.05,0.06c-0.07-0.05-0.13-0.1-0.22-0.16
			c-0.01,0.01-0.04,0.03-0.06,0.06c-0.01-0.01-0.03-0.02-0.04-0.03c0.11-0.17,0.19-0.38,0.34-0.49c0.5-0.39,1.03-0.74,1.55-1.12
			c0.54-0.39,1.07-0.8,1.62-1.18c0.72-0.49,1.3-1.12,1.86-1.76c0.1-0.12,0.25-0.2,0.37-0.3c0.21-0.18,0.4-0.41,0.64-0.55
			c0.42-0.27,0.69-0.68,1.05-1c0.82-0.71,1.65-1.4,2.47-2.12c0.54-0.48,1.07-0.98,1.61-1.46c0.31-0.28,0.63-0.54,0.94-0.81
			c0.02-0.02,0.05-0.03,0.09-0.03c-0.09,0.11-0.27,0.18-0.15,0.37c0.2-0.08,0.33-0.3,0.32-0.49c0-0.03,0.03-0.07,0.06-0.1
			c0.12-0.13,0.25-0.24,0.37-0.37c0.23-0.25,0.45-0.51,0.68-0.76c0.21-0.23,0.43-0.44,0.65-0.66c0.44-0.42,0.88-0.83,1.32-1.25
			c0.19-0.18,0.34-0.39,0.53-0.57c0.06-0.06,0.18-0.08,0.27-0.09c0.18-0.02,0.34-0.22,0.27-0.37c0.29-0.25,0.61-0.48,0.88-0.75
			c0.5-0.49,0.97-1.01,1.46-1.51c0.21-0.21,0.44-0.39,0.66-0.59c0.04-0.03,0.1-0.07,0.09-0.11c-0.01-0.24,0.2-0.31,0.33-0.45
			c0.27-0.31,0.52-0.63,0.8-0.92c0.54-0.57,1.11-1.12,1.65-1.68c0.21-0.22,0.38-0.47,0.59-0.69c0.16-0.17,0.37-0.31,0.53-0.48
			c0.32-0.33,0.63-0.69,0.94-1.03c0.43-0.46,0.88-0.91,1.3-1.39c0.57-0.64,1.11-1.31,1.68-1.95c0.19-0.21,0.42-0.39,0.62-0.59
			c0.21-0.2,0.4-0.41,0.6-0.62c0.12-0.12,0.25-0.24,0.37-0.37c0.32-0.34,0.65-0.67,0.89-1.08c0.13-0.23,0.35-0.4,0.52-0.6
			c0.68-0.81,1.38-1.61,2.02-2.45c0.36-0.47,0.64-1,0.95-1.51c0.09-0.14,0.13-0.3,0.32-0.36c0.19-0.06,0.23-0.23,0.11-0.47
			c0.25,0.06,0.44,0.08,0.61,0.16c0.4,0.18,0.8,0.39,1.19,0.58c0.08,0.04,0.15,0.08,0.21,0.13c0.41,0.39,0.82,0.8,1.23,1.19
			c0.07,0.06,0.14,0.12,0.21,0.17c0.31,0.23,0.66,0.42,0.89,0.74c0.06,0.09,0.19,0.13,0.29,0.18c0.07,0.04,0.14,0.08,0.25,0.14
			c-0.22,0.04-0.38,0.07-0.56,0.1c0.08,0.17,0.19,0.15,0.3,0.11c0.28-0.1,0.57-0.02,0.79,0.18c0.21,0.2,0.44,0.39,0.69,0.55
			c0.6,0.4,1.13,0.88,1.6,1.43c0.15,0.17,0.33,0.34,0.53,0.45c0.59,0.32,0.98,0.86,1.48,1.27c0.47,0.38,0.87,0.84,1.41,1.15
			c0.39,0.22,0.7,0.58,1.04,0.88c0.35,0.31,0.71,0.62,1.05,0.94c0.28,0.26,0.56,0.54,0.84,0.8c0.08,0.07,0.19,0.12,0.27,0.19
			c0.32,0.26,0.64,0.52,0.95,0.8c0.32,0.29,0.61,0.6,0.92,0.9c0.06,0.06,0.15,0.1,0.22,0.15c0.07,0.05,0.16,0.1,0.21,0.17
			c0.28,0.34,0.56,0.69,0.84,1.02c0.25,0.29,0.54,0.56,0.76,0.87c0.5,0.69,1.12,1.26,1.72,1.85c0.31,0.31,0.6,0.64,0.91,0.94
			c0.19,0.19,0.42,0.33,0.62,0.51c0.24,0.22,0.47,0.46,0.71,0.69c0.55,0.52,1.1,1.03,1.65,1.55c0.34,0.32,0.67,0.65,1.01,0.97
			c0.11,0.11,0.23,0.2,0.35,0.3c0.39,0.33,0.8,0.64,1.16,0.99c0.46,0.45,0.92,0.91,1.19,1.51c0.01,0.03,0.03,0.05,0.05,0.07
			c0.49,0.34,0.79,0.85,1.2,1.27c0.23,0.23,0.41,0.5,0.63,0.74c0.71,0.76,1.43,1.51,2.15,2.26c0.02,0.03,0.06,0.05,0.07,0.08
			c0.22,0.53,0.7,0.82,1.06,1.22c0.35,0.4,0.71,0.8,1.06,1.21c0.11,0.13,0.15,0.32,0.26,0.46c0.28,0.39,0.65,0.71,0.83,1.18
			c0.05,0.15,0.18,0.27,0.28,0.39c0.23,0.27,0.45,0.56,0.71,0.8c0.43,0.4,0.88,0.77,1.33,1.13c0.21,0.17,0.13,0.38,0.08,0.56
			c-0.02,0.08-0.17,0.16-0.27,0.17c-0.18,0.02-0.36,0-0.54-0.02c-0.42-0.04-0.85-0.05-1.26-0.13c-0.29-0.05-0.55-0.21-0.83-0.3
			c-0.4-0.13-0.81-0.21-1.2-0.37c-0.73-0.28-1.49-0.19-2.23-0.23c-0.8-0.03-1.6-0.08-2.41-0.11c-0.67-0.02-1.34-0.02-2.01-0.02
			c-0.24,0-0.31,0.06-0.34,0.31c-0.04,0.49-0.1,0.98-0.12,1.47c-0.02,0.57-0.01,1.14-0.02,1.71c0,0.17-0.02,0.34-0.04,0.51
			c-0.1,0.95,0.1,1.88,0.17,2.82c0.05,0.74,0.15,1.49,0.2,2.23c0.02,0.26-0.07,0.52-0.09,0.79c-0.02,0.31-0.04,0.62-0.04,0.93
			c0,0.99,0,1.98,0.03,2.96c0.01,0.37,0.08,0.74,0.11,1.11c0.05,0.67,0.02,1.36,0.13,2.02c0.14,0.78,0.11,1.56,0.12,2.33
			c0,0.37-0.11,0.74-0.12,1.11c-0.04,0.82-0.06,1.63-0.08,2.45c0,0.07,0.04,0.15,0.08,0.21c0.22,0.45,0.23,0.94,0.22,1.41
			c-0.01,1.09-0.09,2.17-0.12,3.25c-0.01,0.34-0.01,0.68,0.01,1.01c0.02,0.42,0.05,0.83,0.11,1.25c0.04,0.31,0.12,0.62,0.17,0.92
			c0.03,0.2,0.05,0.4,0.06,0.6c0.01,0.27,0,0.53,0.02,0.8c0.02,0.23-0.16,0.49-0.39,0.5c-0.29,0.01-0.59,0.02-0.88-0.02
			c-0.53-0.07-1.05-0.16-1.59-0.12c-0.45,0.03-0.91-0.01-1.37-0.03c-0.44-0.02-0.87-0.04-1.31-0.07c-0.2-0.01-0.39-0.04-0.58-0.09
			c-0.46-0.11-0.92-0.13-1.39-0.12c-0.65,0.02-1.3-0.01-1.94-0.02c-0.82-0.02-1.63-0.03-2.45-0.08c-0.44-0.03-0.88-0.14-1.32-0.2
			c-0.29-0.04-0.58-0.06-0.86-0.06c-0.55,0-1.07-0.14-1.59-0.28c-0.31-0.09-0.65-0.08-0.98-0.12c-0.21-0.02-0.42-0.03-0.63-0.05
			c-0.06-0.01-0.14-0.04-0.18-0.09c-0.13-0.12-0.2-0.11-0.28,0.06c-0.08,0.16-0.17,0.35-0.39,0.32c-0.08-0.01-0.22-0.09-0.23-0.15
			c-0.05-0.24-0.21-0.39-0.39-0.53c-0.17-0.14-0.15-0.2,0.01-0.35c0.08-0.08,0.15-0.2,0.17-0.32c0.08-0.56,0.14-1.13,0.22-1.69
			c0.02-0.15,0.1-0.3,0.12-0.45c0.06-0.34,0.1-0.68,0.15-1.02c0.01-0.05,0-0.12,0.03-0.16c0.16-0.23,0.11-0.5,0.13-0.75
			c0.03-0.3,0.09-0.59,0.14-0.89c0.04-0.22,0.08-0.44,0.1-0.67c0.05-0.92,0.08-1.85,0.14-2.77c0.04-0.6,0.13-1.19,0.16-1.79
			c0.05-0.78,0.06-1.56,0.09-2.34c0.04-1.03-0.11-2.04-0.18-3.06c-0.02-0.31-0.11-0.61-0.18-0.91c-0.16-0.73-0.32-1.46-0.48-2.19
			c-0.07-0.33-0.15-0.41-0.49-0.4c-0.86,0.03-1.72,0.05-2.58,0.11c-1.1,0.08-2.19-0.04-3.29-0.13c-1.29-0.1-2.59-0.15-3.88-0.19
			c-0.38-0.01-0.77,0.07-1.16,0.09c-0.48,0.02-0.96,0-1.44,0.02c-0.8,0.04-1.59,0.09-2.38,0.14c-0.23,0.02-0.49-0.24-0.45-0.47
			c0.05-0.29,0.05-0.31,0.34-0.25c0.44,0.08,0.88,0.06,1.32-0.02c0.28-0.04,0.56-0.02,0.84-0.03c0.32-0.01,0.64-0.04,0.97-0.06
			c0.91-0.05,1.82-0.07,2.72-0.17c0.72-0.08,1.42,0.05,2.12,0.11c0.12,0.01,0.24,0.02,0.36,0.03c0.93,0.08,1.85,0.18,2.78,0.25
			c0.38,0.03,0.76-0.03,1.14-0.05c0.72-0.04,1.44-0.09,2.15-0.13c0.17-0.01,0.35-0.03,0.54-0.04c-0.05-0.27,0.02-0.52,0.18-0.75
			c0.07-0.11,0.14-0.15,0.24-0.03c0.23,0.27,0.47,0.54,0.7,0.82c0.09,0.11,0.04,0.4-0.06,0.53c-0.06,0.07-0.1,0.18-0.09,0.27
			c0.05,0.37,0.11,0.74,0.18,1.1c0.04,0.19,0.13,0.37,0.17,0.56c0.09,0.45,0.16,0.89,0.24,1.34c0.04,0.21,0.06,0.43,0.1,0.64
			c0.09,0.46,0,0.91-0.01,1.36c-0.01,0.48,0.06,0.96,0.07,1.44c0.01,0.47,0,0.94,0,1.41c0,0.04-0.01,0.09-0.01,0.13
			c0.1,0.7-0.12,1.36-0.21,2.04c-0.02,0.19,0,0.38-0.01,0.56c-0.04,0.57-0.07,1.15-0.12,1.72c-0.07,0.81-0.17,1.62-0.25,2.44
			c-0.06,0.57-0.1,1.15-0.18,1.72c-0.05,0.32-0.19,0.64-0.22,0.96c-0.05,0.52-0.05,1.04-0.06,1.56c0,0.33,0.09,0.4,0.41,0.39
			c0.22,0,0.44,0,0.65,0.03c0.14,0.02,0.32-0.02,0.38,0.19c0,0.02,0.06,0.03,0.09,0.03c0.71,0.08,1.42,0.17,2.14,0.23
			c0.48,0.04,0.96,0.01,1.43,0.1c0.66,0.12,1.33,0.15,1.99,0.19c0.1,0.01,0.2,0.08,0.31,0.08c0.41-0.01,0.82-0.06,1.23-0.07
			c0.6,0,1.2,0.02,1.8,0.03c0.34,0,0.67-0.01,1.01,0c0.14,0.01,0.27,0.07,0.41,0.09c0.36,0.05,0.72,0.13,1.08,0.14
			c0.92,0.02,1.83,0,2.75,0.01c0.44,0.01,0.89,0.04,1.33,0.07c0.1,0.01,0.17,0,0.16-0.12c-0.04-0.57-0.09-1.15-0.13-1.72
			c-0.07-0.93-0.15-1.87-0.19-2.8c-0.01-0.35,0.11-0.69,0.12-1.04c0.03-0.65,0.04-1.31,0.04-1.97c0-0.16-0.1-0.32-0.14-0.48
			c-0.21-0.72-0.23-1.46-0.13-2.2c0.02-0.14,0.01-0.3,0.01-0.44c-0.01-0.18-0.06-0.37,0.1-0.52c0.02-0.02,0.02-0.08,0.02-0.12
			c0.09-0.89,0.12-1.77,0-2.66c-0.11-0.83-0.12-1.66-0.13-2.49c0-0.52-0.08-1.04-0.1-1.56c-0.03-0.84-0.06-1.68-0.05-2.52
			c0.01-0.79,0.09-1.58,0.1-2.36c0-0.45-0.1-0.91-0.15-1.36c-0.07-0.63-0.16-1.26-0.18-1.89c-0.02-0.87,0.02-1.75,0.03-2.62
			c0.01-0.66,0.02-1.33,0.03-1.99c0-0.16,0.07-0.32,0.06-0.48c-0.02-0.25-0.07-0.51-0.14-0.75c-0.02-0.08-0.12-0.16-0.21-0.2
			c-0.13-0.06-0.15-0.13-0.09-0.25c0.04-0.09,0.08-0.19,0.09-0.29c0.02-0.28,0.21-0.4,0.47-0.28c0.16,0.07,0.34,0.13,0.46,0.25
			c0.27,0.25,0.59,0.23,0.91,0.2c0.13-0.01,0.25,0.04,0.38,0.06c0.04,0.01,0.08,0.03,0.12,0.03c0.72,0.03,1.43,0.06,2.15,0.07
			c0.64,0.02,1.28,0,1.92,0.03c0.42,0.02,0.84,0.08,1.26,0.13c0.45,0.05,0.87,0.27,1.34,0.25c0.16-0.01,0.33,0.13,0.5,0.22
			c0.31,0.16,0.62,0.29,1.05,0.26c-0.11-0.13-0.2-0.23-0.28-0.33c-0.42-0.5-0.84-1-1.24-1.51c-0.23-0.3-0.46-0.61-0.65-0.93
			c-0.31-0.54-0.77-0.93-1.17-1.38c-0.37-0.42-0.74-0.83-1.09-1.26c-0.34-0.41-0.65-0.84-1-1.24c-0.19-0.22-0.44-0.38-0.64-0.58
			c-0.23-0.23-0.44-0.49-0.65-0.74c-0.12-0.15-0.22-0.32-0.36-0.46c-0.72-0.79-1.46-1.56-2.11-2.41c-0.31-0.41-0.73-0.74-1.09-1.11
			c-0.18-0.19-0.35-0.4-0.53-0.6c-0.01-0.02-0.03-0.04-0.04-0.04c-0.6-0.29-1.03-0.77-1.48-1.25c-0.46-0.49-0.99-0.92-1.49-1.37
			c-0.56-0.51-1.12-1.03-1.68-1.54c-0.29-0.27-0.59-0.55-0.87-0.84c-0.23-0.24-0.43-0.52-0.66-0.77c-0.39-0.44-0.84-0.84-1.18-1.32
			c-0.49-0.68-1.04-1.29-1.63-1.88c-0.39-0.39-0.84-0.72-1.27-1.08c-0.32-0.27-0.65-0.52-0.96-0.8c-0.45-0.4-0.87-0.82-1.32-1.22
			c-0.46-0.41-0.92-0.84-1.43-1.18c-0.54-0.36-0.97-0.85-1.49-1.23c-0.7-0.52-1.35-1.08-1.95-1.71c-0.55-0.58-1.17-1.1-1.77-1.64
			c-0.12-0.11-0.28-0.16-0.41-0.25c-0.22-0.15-0.42-0.32-0.63-0.48c-0.15-0.11-0.34-0.19-0.46-0.33c-0.28-0.32-0.63-0.52-0.99-0.73
			c-0.14-0.08-0.26-0.19-0.38-0.3c-0.47-0.43-0.93-0.88-1.4-1.3c-0.12-0.11-0.28-0.18-0.43-0.26c-0.21-0.11-0.43-0.22-0.65-0.33
			c-0.03-0.02-0.08-0.02-0.13-0.03c0,0.04-0.01,0.07,0,0.09c0.13,0.31,0.12,0.39-0.12,0.61c-0.07,0.06-0.14,0.16-0.24,0.03
			c-0.01-0.01-0.12,0.02-0.15,0.06c-0.28,0.37-0.55,0.74-0.83,1.11c-0.07,0.09-0.13,0.18-0.2,0.27c-0.27,0.38-0.54,0.76-0.82,1.14
			c-0.22,0.29-0.45,0.58-0.67,0.86c-0.11,0.13-0.23,0.25-0.33,0.38c-0.14,0.18-0.25,0.38-0.4,0.56c-0.23,0.27-0.47,0.54-0.72,0.8
			c-0.5,0.53-1,1.05-1.5,1.57c-0.34,0.36-0.69,0.71-1.03,1.08c-0.5,0.54-0.99,1.08-1.47,1.63c-0.19,0.22-0.35,0.47-0.55,0.68
			c-0.24,0.26-0.51,0.49-0.75,0.74c-0.22,0.23-0.42,0.48-0.63,0.72c-0.05,0.05-0.09,0.11-0.15,0.15c-0.43,0.28-0.75,0.68-1.09,1.05
			c-0.2,0.22-0.43,0.4-0.64,0.61c-0.33,0.34-0.66,0.68-0.96,1.03c-0.42,0.49-0.81,1.01-1.24,1.48c-0.28,0.3-0.62,0.55-0.91,0.83
			c-0.21,0.2-0.37,0.44-0.57,0.64c-0.18,0.19-0.39,0.35-0.59,0.53c-0.12,0.11-0.24,0.24-0.36,0.35c-0.47,0.43-0.97,0.84-1.43,1.28
			c-0.85,0.82-1.68,1.65-2.52,2.48c-0.41,0.41-0.81,0.84-1.23,1.25c-0.33,0.32-0.69,0.62-1.04,0.93c-0.42,0.36-0.85,0.71-1.26,1.08
			c-0.42,0.37-0.81,0.76-1.22,1.14c-0.25,0.23-0.53,0.43-0.77,0.66c-0.38,0.37-0.73,0.78-1.11,1.15c-0.2,0.2-0.42,0.37-0.63,0.55
			c-0.15,0.14-0.29,0.29-0.45,0.42c-0.41,0.34-0.82,0.68-1.14,1.11c-0.32,0.43-0.81,0.64-1.23,0.94c-0.05,0.04-0.11,0.06-0.16,0.1
			c-0.55,0.43-1.11,0.86-1.66,1.3c-0.05,0.04-0.09,0.11-0.13,0.17c0.01,0.02,0.02,0.05,0.02,0.07c0.33,0.01,0.66,0,0.99,0.02
			c0.3,0.02,0.59,0.08,0.89,0.09c0.41,0.01,0.83-0.01,1.24-0.01c0.17,0,0.33,0.04,0.5,0.04c0.51,0.01,1.03,0.02,1.54,0
			c0.47-0.02,0.94-0.1,1.41,0.05c0.04,0.01,0.08,0,0.11,0c0.11-0.15-0.19-0.39,0.13-0.48c-0.02,0.09-0.1,0.24-0.06,0.27
			c0.16,0.16,0.04,0.3,0.03,0.45c-0.02,0.14,0.03,0.34,0.13,0.43c0.15,0.13,0.46-0.1,0.47-0.31c-0.13-0.08-0.25-0.15-0.31-0.18
			c-0.04-0.17-0.07-0.29-0.11-0.43c0.01-0.03,0.04-0.12,0.08-0.23C15.03,41.87,15.09,41.85,15.15,41.83z M49.25,14.51
			c-0.01-0.25-0.02-0.26-0.39-0.2C49,14.39,49.12,14.44,49.25,14.51z"/>
	</g>
	<g>
		<rect x="33.3" y="53.07" width="1.19" height="20.63"/>
	</g>
</g>
</svg>
